<?xml version="1.0" encoding="utf-8" standalone="no"?>
<!DOCTYPE svg PUBLIC "-//W3C//DTD SVG 1.1//EN"
  "http://www.w3.org/Graphics/SVG/1.1/DTD/svg11.dtd">
<svg xmlns:xlink="http://www.w3.org/1999/xlink" width="460.8pt" height="345.6pt" viewBox="0 0 460.8 345.6" xmlns="http://www.w3.org/2000/svg" version="1.1">
 <metadata>
  <rdf:RDF xmlns:dc="http://purl.org/dc/elements/1.1/" xmlns:cc="http://creativecommons.org/ns#" xmlns:rdf="http://www.w3.org/1999/02/22-rdf-syntax-ns#">
   <cc:Work>
    <dc:type rdf:resource="http://purl.org/dc/dcmitype/StillImage"/>
    <dc:date>2023-10-17T21:07:22.773554</dc:date>
    <dc:format>image/svg+xml</dc:format>
    <dc:creator>
     <cc:Agent>
      <dc:title>Matplotlib v3.5.1, https://matplotlib.org/</dc:title>
     </cc:Agent>
    </dc:creator>
   </cc:Work>
  </rdf:RDF>
 </metadata>
 <defs>
  <style type="text/css">*{stroke-linejoin: round; stroke-linecap: butt}</style>
 </defs>
 <g id="figure_1">
  <g id="patch_1">
   <path d="M 0 345.6 
L 460.8 345.6 
L 460.8 0 
L 0 0 
z
" style="fill: #ffffff"/>
  </g>
  <g id="axes_1">
   <g id="patch_2">
    <path d="M 57.6 119.740235 
L 219.927273 119.740235 
L 219.927273 41.472 
L 57.6 41.472 
z
" style="fill: #ffffff"/>
   </g>
   <g id="matplotlib.axis_1">
    <g id="xtick_1">
     <g id="line2d_1">
      <defs>
       <path id="mc2a6e75074" d="M 0 0 
L 0 3.5 
" style="stroke: #000000; stroke-width: 0.8"/>
      </defs>
      <g>
       <use xlink:href="#mc2a6e75074" x="64.978512" y="119.740235" style="stroke: #000000; stroke-width: 0.8"/>
      </g>
     </g>
     <g id="text_1">
      <!-- 0 -->
      <g transform="translate(61.797262 134.338673)scale(0.1 -0.1)">
       <defs>
        <path id="DejaVuSans-30" d="M 2034 4250 
Q 1547 4250 1301 3770 
Q 1056 3291 1056 2328 
Q 1056 1369 1301 889 
Q 1547 409 2034 409 
Q 2525 409 2770 889 
Q 3016 1369 3016 2328 
Q 3016 3291 2770 3770 
Q 2525 4250 2034 4250 
z
M 2034 4750 
Q 2819 4750 3233 4129 
Q 3647 3509 3647 2328 
Q 3647 1150 3233 529 
Q 2819 -91 2034 -91 
Q 1250 -91 836 529 
Q 422 1150 422 2328 
Q 422 3509 836 4129 
Q 1250 4750 2034 4750 
z
" transform="scale(0.015625)"/>
       </defs>
       <use xlink:href="#DejaVuSans-30"/>
      </g>
     </g>
    </g>
    <g id="xtick_2">
     <g id="line2d_2">
      <g>
       <use xlink:href="#mc2a6e75074" x="111.094215" y="119.740235" style="stroke: #000000; stroke-width: 0.8"/>
      </g>
     </g>
     <g id="text_2">
      <!-- 10 -->
      <g transform="translate(104.731715 134.338673)scale(0.1 -0.1)">
       <defs>
        <path id="DejaVuSans-31" d="M 794 531 
L 1825 531 
L 1825 4091 
L 703 3866 
L 703 4441 
L 1819 4666 
L 2450 4666 
L 2450 531 
L 3481 531 
L 3481 0 
L 794 0 
L 794 531 
z
" transform="scale(0.015625)"/>
       </defs>
       <use xlink:href="#DejaVuSans-31"/>
       <use xlink:href="#DejaVuSans-30" x="63.623047"/>
      </g>
     </g>
    </g>
    <g id="xtick_3">
     <g id="line2d_3">
      <g>
       <use xlink:href="#mc2a6e75074" x="157.209917" y="119.740235" style="stroke: #000000; stroke-width: 0.8"/>
      </g>
     </g>
     <g id="text_3">
      <!-- 20 -->
      <g transform="translate(150.847417 134.338673)scale(0.1 -0.1)">
       <defs>
        <path id="DejaVuSans-32" d="M 1228 531 
L 3431 531 
L 3431 0 
L 469 0 
L 469 531 
Q 828 903 1448 1529 
Q 2069 2156 2228 2338 
Q 2531 2678 2651 2914 
Q 2772 3150 2772 3378 
Q 2772 3750 2511 3984 
Q 2250 4219 1831 4219 
Q 1534 4219 1204 4116 
Q 875 4013 500 3803 
L 500 4441 
Q 881 4594 1212 4672 
Q 1544 4750 1819 4750 
Q 2544 4750 2975 4387 
Q 3406 4025 3406 3419 
Q 3406 3131 3298 2873 
Q 3191 2616 2906 2266 
Q 2828 2175 2409 1742 
Q 1991 1309 1228 531 
z
" transform="scale(0.015625)"/>
       </defs>
       <use xlink:href="#DejaVuSans-32"/>
       <use xlink:href="#DejaVuSans-30" x="63.623047"/>
      </g>
     </g>
    </g>
    <g id="xtick_4">
     <g id="line2d_4">
      <g>
       <use xlink:href="#mc2a6e75074" x="203.32562" y="119.740235" style="stroke: #000000; stroke-width: 0.8"/>
      </g>
     </g>
     <g id="text_4">
      <!-- 30 -->
      <g transform="translate(196.96312 134.338673)scale(0.1 -0.1)">
       <defs>
        <path id="DejaVuSans-33" d="M 2597 2516 
Q 3050 2419 3304 2112 
Q 3559 1806 3559 1356 
Q 3559 666 3084 287 
Q 2609 -91 1734 -91 
Q 1441 -91 1130 -33 
Q 819 25 488 141 
L 488 750 
Q 750 597 1062 519 
Q 1375 441 1716 441 
Q 2309 441 2620 675 
Q 2931 909 2931 1356 
Q 2931 1769 2642 2001 
Q 2353 2234 1838 2234 
L 1294 2234 
L 1294 2753 
L 1863 2753 
Q 2328 2753 2575 2939 
Q 2822 3125 2822 3475 
Q 2822 3834 2567 4026 
Q 2313 4219 1838 4219 
Q 1578 4219 1281 4162 
Q 984 4106 628 3988 
L 628 4550 
Q 988 4650 1302 4700 
Q 1616 4750 1894 4750 
Q 2613 4750 3031 4423 
Q 3450 4097 3450 3541 
Q 3450 3153 3228 2886 
Q 3006 2619 2597 2516 
z
" transform="scale(0.015625)"/>
       </defs>
       <use xlink:href="#DejaVuSans-33"/>
       <use xlink:href="#DejaVuSans-30" x="63.623047"/>
      </g>
     </g>
    </g>
   </g>
   <g id="matplotlib.axis_2">
    <g id="ytick_1">
     <g id="line2d_5">
      <defs>
       <path id="mf174424da6" d="M 0 0 
L -3.5 0 
" style="stroke: #000000; stroke-width: 0.8"/>
      </defs>
      <g>
       <use xlink:href="#mf174424da6" x="57.6" y="94.890676" style="stroke: #000000; stroke-width: 0.8"/>
      </g>
     </g>
     <g id="text_5">
      <!-- −2 -->
      <g transform="translate(35.857813 98.689895)scale(0.1 -0.1)">
       <defs>
        <path id="DejaVuSans-2212" d="M 678 2272 
L 4684 2272 
L 4684 1741 
L 678 1741 
L 678 2272 
z
" transform="scale(0.015625)"/>
       </defs>
       <use xlink:href="#DejaVuSans-2212"/>
       <use xlink:href="#DejaVuSans-32" x="83.789062"/>
      </g>
     </g>
    </g>
    <g id="ytick_2">
     <g id="line2d_6">
      <g>
       <use xlink:href="#mf174424da6" x="57.6" y="60.360109" style="stroke: #000000; stroke-width: 0.8"/>
      </g>
     </g>
     <g id="text_6">
      <!-- −1 -->
      <g transform="translate(35.857813 64.159327)scale(0.1 -0.1)">
       <use xlink:href="#DejaVuSans-2212"/>
       <use xlink:href="#DejaVuSans-31" x="83.789062"/>
      </g>
     </g>
    </g>
    <g id="text_7">
     <!-- $q_1$ (rad) -->
     <g transform="translate(29.757812 99.956118)rotate(-90)scale(0.1 -0.1)">
      <defs>
       <path id="DejaVuSans-Oblique-71" d="M 2669 525 
Q 2438 222 2123 65 
Q 1809 -91 1428 -91 
Q 897 -91 595 267 
Q 294 625 294 1253 
Q 294 1759 480 2231 
Q 666 2703 1013 3078 
Q 1238 3322 1530 3453 
Q 1822 3584 2144 3584 
Q 2531 3584 2781 3431 
Q 3031 3278 3144 2969 
L 3244 3494 
L 3822 3494 
L 2888 -1319 
L 2309 -1319 
L 2669 525 
z
M 891 1338 
Q 891 875 1084 633 
Q 1278 391 1644 391 
Q 2188 391 2572 911 
Q 2956 1431 2956 2175 
Q 2956 2625 2757 2864 
Q 2559 3103 2188 3103 
Q 1916 3103 1684 2976 
Q 1453 2850 1281 2606 
Q 1100 2350 995 2006 
Q 891 1663 891 1338 
z
" transform="scale(0.015625)"/>
       <path id="DejaVuSans-20" transform="scale(0.015625)"/>
       <path id="DejaVuSans-28" d="M 1984 4856 
Q 1566 4138 1362 3434 
Q 1159 2731 1159 2009 
Q 1159 1288 1364 580 
Q 1569 -128 1984 -844 
L 1484 -844 
Q 1016 -109 783 600 
Q 550 1309 550 2009 
Q 550 2706 781 3412 
Q 1013 4119 1484 4856 
L 1984 4856 
z
" transform="scale(0.015625)"/>
       <path id="DejaVuSans-72" d="M 2631 2963 
Q 2534 3019 2420 3045 
Q 2306 3072 2169 3072 
Q 1681 3072 1420 2755 
Q 1159 2438 1159 1844 
L 1159 0 
L 581 0 
L 581 3500 
L 1159 3500 
L 1159 2956 
Q 1341 3275 1631 3429 
Q 1922 3584 2338 3584 
Q 2397 3584 2469 3576 
Q 2541 3569 2628 3553 
L 2631 2963 
z
" transform="scale(0.015625)"/>
       <path id="DejaVuSans-61" d="M 2194 1759 
Q 1497 1759 1228 1600 
Q 959 1441 959 1056 
Q 959 750 1161 570 
Q 1363 391 1709 391 
Q 2188 391 2477 730 
Q 2766 1069 2766 1631 
L 2766 1759 
L 2194 1759 
z
M 3341 1997 
L 3341 0 
L 2766 0 
L 2766 531 
Q 2569 213 2275 61 
Q 1981 -91 1556 -91 
Q 1019 -91 701 211 
Q 384 513 384 1019 
Q 384 1609 779 1909 
Q 1175 2209 1959 2209 
L 2766 2209 
L 2766 2266 
Q 2766 2663 2505 2880 
Q 2244 3097 1772 3097 
Q 1472 3097 1187 3025 
Q 903 2953 641 2809 
L 641 3341 
Q 956 3463 1253 3523 
Q 1550 3584 1831 3584 
Q 2591 3584 2966 3190 
Q 3341 2797 3341 1997 
z
" transform="scale(0.015625)"/>
       <path id="DejaVuSans-64" d="M 2906 2969 
L 2906 4863 
L 3481 4863 
L 3481 0 
L 2906 0 
L 2906 525 
Q 2725 213 2448 61 
Q 2172 -91 1784 -91 
Q 1150 -91 751 415 
Q 353 922 353 1747 
Q 353 2572 751 3078 
Q 1150 3584 1784 3584 
Q 2172 3584 2448 3432 
Q 2725 3281 2906 2969 
z
M 947 1747 
Q 947 1113 1208 752 
Q 1469 391 1925 391 
Q 2381 391 2643 752 
Q 2906 1113 2906 1747 
Q 2906 2381 2643 2742 
Q 2381 3103 1925 3103 
Q 1469 3103 1208 2742 
Q 947 2381 947 1747 
z
" transform="scale(0.015625)"/>
       <path id="DejaVuSans-29" d="M 513 4856 
L 1013 4856 
Q 1481 4119 1714 3412 
Q 1947 2706 1947 2009 
Q 1947 1309 1714 600 
Q 1481 -109 1013 -844 
L 513 -844 
Q 928 -128 1133 580 
Q 1338 1288 1338 2009 
Q 1338 2731 1133 3434 
Q 928 4138 513 4856 
z
" transform="scale(0.015625)"/>
      </defs>
      <use xlink:href="#DejaVuSans-Oblique-71" transform="translate(0 0.015625)"/>
      <use xlink:href="#DejaVuSans-31" transform="translate(63.476562 -16.390625)scale(0.7)"/>
      <use xlink:href="#DejaVuSans-20" transform="translate(110.74707 0.015625)"/>
      <use xlink:href="#DejaVuSans-28" transform="translate(142.53418 0.015625)"/>
      <use xlink:href="#DejaVuSans-72" transform="translate(181.547852 0.015625)"/>
      <use xlink:href="#DejaVuSans-61" transform="translate(222.661133 0.015625)"/>
      <use xlink:href="#DejaVuSans-64" transform="translate(283.94043 0.015625)"/>
      <use xlink:href="#DejaVuSans-29" transform="translate(347.416992 0.015625)"/>
     </g>
    </g>
   </g>
   <g id="line2d_7">
    <path d="M 64.978512 80.07003 
L 67.837686 63.912148 
L 69.313388 56.830526 
L 70.489339 52.214133 
L 71.469298 49.21126 
L 72.29938 47.335847 
L 73.002645 46.25691 
L 73.59062 45.726269 
L 74.097893 45.544854 
L 74.570579 45.6076 
L 75.054793 45.903321 
L 75.596653 46.509437 
L 76.219215 47.557979 
L 76.945537 49.241744 
L 77.798678 51.818856 
L 78.801694 55.605336 
L 80.000702 61.055328 
L 81.53405 69.1419 
L 84.335579 85.404824 
L 86.514545 97.413544 
L 87.932603 104.051558 
L 89.073967 108.398957 
L 90.030868 111.227076 
L 90.837893 112.972836 
L 91.518099 113.963295 
L 92.094545 114.447349 
L 92.601818 114.599532 
L 93.074504 114.509512 
L 93.570248 114.175469 
L 94.123636 113.515756 
L 94.769256 112.371443 
L 95.518636 110.555174 
L 96.394835 107.805242 
L 97.420909 103.806496 
L 98.666033 97.996444 
L 100.280083 89.31244 
L 105.813967 58.586039 
L 107.059091 53.37754 
L 108.085165 49.975434 
L 108.949835 47.816797 
L 109.687686 46.525459 
L 110.310248 45.846793 
L 110.840579 45.571674 
L 111.313264 45.563489 
L 111.78595 45.778812 
L 112.304752 46.270724 
L 112.904256 47.167224 
L 113.595992 48.626719 
L 114.403017 50.878634 
L 115.348388 54.213156 
L 116.478223 59.067086 
L 117.873223 66.107816 
L 119.902314 77.63124 
L 123.245702 96.586301 
L 124.698347 103.509405 
L 125.862769 108.045644 
L 126.831198 110.98941 
L 127.649752 112.825733 
L 128.353017 113.896833 
L 128.940992 114.420767 
L 129.448264 114.596337 
L 129.92095 114.528135 
L 130.405165 114.226856 
L 130.947025 113.614601 
L 131.581116 112.536147 
L 132.318967 110.806151 
L 133.172107 108.203757 
L 134.175124 104.390756 
L 135.385661 98.857767 
L 136.930537 90.676059 
L 139.951116 73.134075 
L 141.991736 62.027858 
L 143.375207 55.653231 
L 144.493512 51.472413 
L 145.438884 48.739776 
L 146.23438 47.065954 
L 146.914587 46.113568 
L 147.491033 45.662464 
L 147.986777 45.539462 
L 148.459463 45.651294 
L 148.955207 46.008068 
L 149.520124 46.71022 
L 150.165744 47.89 
L 150.926653 49.778058 
L 151.81438 52.62015 
L 152.851983 56.73041 
L 154.108636 62.667921 
L 155.768802 71.679786 
L 160.956818 100.639865 
L 162.236529 106.150339 
L 163.29719 109.79194 
L 164.184917 112.100306 
L 164.934298 113.481776 
L 165.568388 114.226856 
L 166.110248 114.548425 
L 166.594463 114.587552 
L 167.067149 114.39944 
L 167.58595 113.937102 
L 168.173926 113.093977 
L 168.854132 111.70652 
L 169.649628 109.547547 
L 170.583471 106.327279 
L 171.690248 101.660013 
L 173.050661 94.895012 
L 174.964463 84.128663 
L 178.699835 62.961561 
L 180.129421 56.235263 
L 181.282314 51.818856 
L 182.239215 48.971682 
L 183.057769 47.187859 
L 183.749504 46.176764 
L 184.32595 45.69271 
L 184.833223 45.540527 
L 185.305909 45.630547 
L 185.801653 45.964591 
L 186.355041 46.624303 
L 187.000661 47.768616 
L 187.750041 49.584886 
L 188.62624 52.334818 
L 189.652314 56.333563 
L 190.897438 62.143616 
L 192.511488 70.827619 
L 198.045372 101.55402 
L 199.290496 106.762519 
L 200.31657 110.164625 
L 201.18124 112.323262 
L 201.919091 113.614601 
L 202.541653 114.293266 
L 203.071983 114.568386 
L 203.544669 114.576571 
L 204.017355 114.361247 
L 204.536157 113.869335 
L 205.135661 112.972836 
L 205.827397 111.513341 
L 206.634421 109.261425 
L 207.579793 105.926903 
L 208.709628 101.072973 
L 210.104628 94.032244 
L 212.133719 82.50882 
L 212.54876 80.07003 
L 212.54876 80.07003 
" clip-path="url(#p68597d1c6e)" style="fill: none; stroke: #ff0000; stroke-width: 1.5; stroke-linecap: square"/>
   </g>
   <g id="line2d_8">
    <path d="M 64.978512 60.360109 
L 65.393554 62.350393 
L 65.624132 62.431419 
L 66.062231 62.272864 
L 66.581033 61.874345 
L 67.099835 61.163205 
L 67.756983 59.841161 
L 68.76 57.254389 
L 71.134959 51.012125 
L 72.057273 49.259291 
L 72.795124 48.295355 
L 73.406157 47.829665 
L 73.936488 47.685285 
L 74.432231 47.776074 
L 74.951033 48.108741 
L 75.527479 48.764853 
L 76.184628 49.87762 
L 76.945537 51.639016 
L 77.821736 54.263609 
L 78.859339 58.1226 
L 80.104463 63.663702 
L 81.74157 72.047017 
L 87.044876 100.004346 
L 88.313058 105.125574 
L 89.36219 108.492515 
L 90.238388 110.611599 
L 90.987769 111.882817 
L 91.62186 112.551642 
L 92.163719 112.821361 
L 92.647934 112.82526 
L 93.132149 112.605641 
L 93.662479 112.110838 
L 94.273512 111.216804 
L 94.976777 109.771007 
L 95.795331 107.552854 
L 96.752231 104.284277 
L 97.893595 99.549263 
L 99.323182 92.604082 
L 101.536736 80.582109 
L 104.395909 65.301567 
L 105.88314 58.544525 
L 107.07062 54.112427 
L 108.073636 51.170943 
L 108.926777 49.312066 
L 109.653099 48.226952 
L 110.264132 47.682862 
L 110.794463 47.490105 
L 111.278678 47.543434 
L 111.774421 47.825341 
L 112.32781 48.410059 
L 112.961901 49.424419 
L 113.699752 51.052545 
L 114.564421 53.538089 
L 115.578967 57.172722 
L 116.812562 62.470901 
L 118.43814 70.520756 
L 124.306364 100.540414 
L 125.551488 105.307075 
L 126.577562 108.408238 
L 127.430702 110.334501 
L 128.157025 111.468589 
L 128.768058 112.045155 
L 129.298388 112.258889 
L 129.782603 112.218984 
L 130.278347 111.945841 
L 130.831736 111.366442 
L 131.465826 110.355347 
L 132.203678 108.732567 
L 133.068347 106.263334 
L 134.094421 102.623762 
L 135.339545 97.337114 
L 136.930537 89.5402 
L 140.100992 72.550938 
L 142.083967 62.647816 
L 143.455909 56.86111 
L 144.562686 53.093349 
L 145.485 50.681889 
L 146.268967 49.20562 
L 146.937645 48.386805 
L 147.502562 48.020893 
L 147.998306 47.949402 
L 148.482521 48.10594 
L 149.001322 48.521153 
L 149.589298 49.297644 
L 150.269504 50.591884 
L 151.065 52.6218 
L 151.987314 55.623675 
L 153.082562 59.989856 
L 154.442975 66.394341 
L 156.368306 76.65151 
L 160.046033 96.363022 
L 161.487149 102.789451 
L 162.640041 106.971958 
L 163.596942 109.662812 
L 164.403967 111.321156 
L 165.095702 112.270634 
L 165.683678 112.724371 
L 166.19095 112.851339 
L 166.675165 112.743336 
L 167.182438 112.391273 
L 167.758884 111.698243 
L 168.416033 110.536754 
L 169.176942 108.716114 
L 170.064669 105.985425 
L 171.113802 101.997122 
L 172.393512 96.19573 
L 174.099793 87.332055 
L 178.815124 62.277712 
L 180.164008 56.577952 
L 181.270785 52.800486 
L 182.204628 50.343349 
L 183.000124 48.825419 
L 183.680331 47.970501 
L 184.256777 47.576285 
L 184.76405 47.484543 
L 185.248264 47.621491 
L 185.767066 48.011395 
L 186.355041 48.754433 
L 187.035248 50.004244 
L 187.819215 51.942289 
L 188.741529 54.855821 
L 189.836777 59.100241 
L 191.19719 65.32501 
L 193.122521 75.291123 
L 197.146116 96.317201 
L 198.587231 102.557719 
L 199.740124 106.623178 
L 200.697025 109.237078 
L 201.50405 110.841773 
L 202.184256 111.738945 
L 202.760702 112.160746 
L 203.267975 112.270184 
L 203.75219 112.144724 
L 204.259463 111.773494 
L 204.835909 111.05845 
L 205.504587 109.850293 
L 206.288554 107.943174 
L 207.210868 105.077794 
L 208.317645 100.862489 
L 209.666529 94.791798 
L 211.488099 85.474808 
L 212.54876 79.750097 
L 212.54876 79.750097 
" clip-path="url(#p68597d1c6e)" style="fill: none; stroke: #1f77b4; stroke-linecap: square"/>
   </g>
   <g id="line2d_9">
    <path d="M 64.978512 60.360109 
L 65.047686 60.929251 
L 65.301322 62.206776 
L 65.531901 62.435304 
L 65.843182 62.379597 
L 66.419628 62.035754 
L 66.915372 61.462877 
L 67.503347 60.410589 
L 68.344959 58.390226 
L 71.65376 49.957344 
L 72.472314 48.662752 
L 73.140992 47.989027 
L 73.705909 47.712221 
L 74.213182 47.702201 
L 74.720455 47.923312 
L 75.262314 48.417439 
L 75.873347 49.293632 
L 76.576612 50.713471 
L 77.395165 52.899276 
L 78.352066 56.130872 
L 79.49343 60.824674 
L 80.911488 67.666067 
L 83.044339 79.20056 
L 86.111033 95.631444 
L 87.586736 102.322487 
L 88.751157 106.639871 
L 89.719587 109.442484 
L 90.53814 111.188461 
L 91.241405 112.203472 
L 91.82938 112.696367 
L 92.348182 112.85811 
L 92.832397 112.777125 
L 93.339669 112.453077 
L 93.904587 111.807525 
L 94.550207 110.71037 
L 95.299587 108.973321 
L 96.175785 106.346697 
L 97.20186 102.529054 
L 98.446983 96.984516 
L 100.084091 88.588465 
L 105.306694 61.021313 
L 106.609463 55.716178 
L 107.681653 52.222572 
L 108.592438 49.96146 
L 109.364876 48.594678 
L 110.022025 47.850018 
L 110.575413 47.529877 
L 111.071157 47.485093 
L 111.290207 47.626155 
L 112.247107 48.271462 
L 112.835083 49.076317 
L 113.538347 50.451232 
L 114.356901 52.569694 
L 115.325331 55.732268 
L 116.478223 60.303694 
L 117.930868 67.035311 
L 120.190537 78.71837 
L 123.222645 94.18805 
L 124.721405 100.697275 
L 125.908884 104.925233 
L 126.888843 107.649115 
L 127.718926 109.345772 
L 128.42219 110.312816 
L 129.010165 110.776598 
L 129.528967 110.919798 
L 130.013182 110.82693 
L 130.520455 110.495962 
L 131.096901 109.833927 
L 131.75405 108.719153 
L 132.526488 106.94335 
L 133.437273 104.255484 
L 134.520992 100.321807 
L 135.846818 94.62087 
L 137.622273 85.921141 
L 142.233843 62.861452 
L 143.571198 57.53455 
L 144.654917 54.073073 
L 145.565702 51.859672 
L 146.33814 50.528398 
L 146.98376 49.820928 
L 147.537149 49.516835 
L 148.032893 49.484685 
L 148.528636 49.680529 
L 149.058967 50.141414 
L 149.67 50.990299 
L 150.373264 52.377399 
L 151.191818 54.518853 
L 152.148719 57.685405 
L 153.290083 62.278777 
L 154.731198 69.07387 
L 156.956281 80.800087 
L 159.792397 95.499526 
L 161.25657 101.939664 
L 162.420992 106.121946 
L 163.389421 108.825552 
L 164.207975 110.497059 
L 164.899711 111.442535 
L 165.487686 111.898169 
L 165.994959 112.030259 
L 166.479174 111.929892 
L 166.986446 111.588513 
L 167.562893 110.910764 
L 168.220041 109.77057 
L 168.98095 107.979448 
L 169.868678 105.289068 
L 170.91781 101.35462 
L 172.185992 95.678716 
L 173.869215 87.035855 
L 178.74595 61.365295 
L 180.071777 55.869154 
L 181.167025 52.218215 
L 182.089339 49.864168 
L 182.873306 48.427277 
L 183.541983 47.633327 
L 184.106901 47.282106 
L 184.614174 47.220433 
L 185.098388 47.38716 
L 185.61719 47.810115 
L 186.205165 48.592056 
L 186.885372 49.888828 
L 187.680868 51.916849 
L 188.614711 54.950663 
L 189.721488 59.350839 
L 191.09343 65.775828 
L 193.053347 76.138587 
L 196.973182 97.022396 
L 198.425826 103.463403 
L 199.578719 107.634545 
L 200.53562 110.325444 
L 201.342645 111.985172 
L 202.022851 112.920252 
L 202.599298 113.367239 
L 203.10657 113.49306 
L 203.579256 113.383244 
L 204.086529 113.022452 
L 204.651446 112.328749 
L 205.308595 111.145808 
L 206.081033 109.263942 
L 206.991818 106.416449 
L 208.075537 102.246222 
L 209.389835 96.246001 
L 211.119174 87.221962 
L 212.54876 79.253701 
L 212.54876 79.253701 
" clip-path="url(#p68597d1c6e)" style="fill: none; stroke: #ff7f0e; stroke-linecap: square"/>
   </g>
   <g id="line2d_10">
    <path d="M 64.978512 60.360109 
L 65.047686 60.916365 
L 65.289793 62.046329 
L 65.474256 62.150765 
L 65.716364 61.971201 
L 66.488802 61.014751 
L 67.122893 59.875609 
L 67.90686 57.955236 
L 69.290331 53.85054 
L 70.938967 49.17457 
L 71.907397 47.065894 
L 72.679835 45.877201 
L 73.313926 45.275048 
L 73.855785 45.045824 
L 74.351529 45.074695 
L 74.847273 45.33563 
L 75.389132 45.887829 
L 76.011694 46.864503 
L 76.726488 48.427873 
L 77.55657 50.811775 
L 78.525 54.309535 
L 79.677893 59.359405 
L 81.107479 66.687088 
L 83.25186 78.996406 
L 86.295496 96.295996 
L 87.759669 103.336432 
L 88.924091 107.919783 
L 89.90405 110.935423 
L 90.734132 112.823573 
L 91.437397 113.917186 
L 92.036901 114.471633 
L 92.555702 114.666669 
L 93.028388 114.613141 
L 93.512603 114.329985 
L 94.054463 113.741012 
L 94.677025 112.714506 
L 95.403347 111.056121 
L 96.244959 108.541007 
L 97.224917 104.86965 
L 98.400868 99.545407 
L 99.899628 91.644456 
L 102.539752 76.269885 
L 104.857066 63.340226 
L 106.32124 56.374694 
L 107.485661 51.842233 
L 108.46562 48.863794 
L 109.284174 47.030642 
L 109.975909 45.978325 
L 110.563884 45.455644 
L 111.071157 45.284664 
L 111.290207 45.379409 
L 112.189463 45.806964 
L 112.719793 46.421787 
L 113.353884 47.527096 
L 114.103264 49.316439 
L 114.979463 52.026233 
L 116.005537 55.970227 
L 117.239132 61.658024 
L 118.818595 70.073086 
L 124.317893 100.344687 
L 125.574545 105.552575 
L 126.612149 108.969532 
L 127.499876 111.176378 
L 128.249256 112.485465 
L 128.883347 113.178515 
L 129.425207 113.461147 
L 129.909421 113.46859 
L 130.393636 113.243189 
L 130.923967 112.729537 
L 131.523471 111.816818 
L 132.226736 110.308755 
L 133.045289 107.988567 
L 134.013719 104.527283 
L 135.17814 99.486274 
L 136.665372 91.987993 
L 139.132562 78.199309 
L 141.680455 64.379814 
L 143.144628 57.61884 
L 144.30905 53.229557 
L 145.277479 50.389816 
L 146.096033 48.629247 
L 146.787769 47.626943 
L 147.375744 47.136252 
L 147.883017 46.983754 
L 148.355702 47.068447 
L 148.851446 47.391522 
L 149.404835 48.032308 
L 150.050455 49.145527 
L 150.799835 50.913582 
L 151.676033 53.591207 
L 152.702107 57.485135 
L 153.947231 63.142926 
L 155.561281 71.598709 
L 161.002934 101.014585 
L 162.248058 106.093247 
L 163.274132 109.404795 
L 164.138802 111.501523 
L 164.876653 112.75307 
L 165.499215 113.409319 
L 166.041074 113.677087 
L 166.525289 113.675696 
L 167.009504 113.447092 
L 167.539835 112.937468 
L 168.150868 112.018351 
L 168.854132 110.530268 
L 169.672686 108.240267 
L 170.618058 104.896387 
L 171.747893 100.02618 
L 173.142893 92.960435 
L 175.241157 81.028213 
L 178.342438 63.533911 
L 179.829669 56.429369 
L 181.017149 51.780396 
L 181.997107 48.777126 
L 182.82719 46.894505 
L 183.530455 45.808551 
L 184.11843 45.274146 
L 184.625702 45.092577 
L 185.098388 45.158691 
L 185.582603 45.462065 
L 186.124463 46.082363 
L 186.747025 47.155011 
L 187.473347 48.877887 
L 188.326488 51.516499 
L 189.317975 55.348741 
L 190.505455 60.878555 
L 192.015744 69.056006 
L 194.678926 84.981307 
L 196.927066 97.820381 
L 198.368182 104.826119 
L 199.532603 109.452022 
L 200.512562 112.490482 
L 201.342645 114.387048 
L 202.03438 115.461876 
L 202.622355 115.999376 
L 203.129628 116.178628 
L 203.590785 116.109829 
L 204.063471 115.809003 
L 204.593802 115.194549 
L 205.216364 114.104228 
L 205.931157 112.375079 
L 206.772769 109.720838 
L 207.764256 105.816472 
L 208.974793 100.085088 
L 210.531198 91.555936 
L 212.54876 79.459382 
L 212.54876 79.459382 
" clip-path="url(#p68597d1c6e)" style="fill: none; stroke: #2ca02c; stroke-linecap: square"/>
   </g>
   <g id="patch_3">
    <path d="M 57.6 119.740235 
L 57.6 41.472 
" style="fill: none; stroke: #000000; stroke-width: 0.8; stroke-linejoin: miter; stroke-linecap: square"/>
   </g>
   <g id="patch_4">
    <path d="M 219.927273 119.740235 
L 219.927273 41.472 
" style="fill: none; stroke: #000000; stroke-width: 0.8; stroke-linejoin: miter; stroke-linecap: square"/>
   </g>
   <g id="patch_5">
    <path d="M 57.6 119.740235 
L 219.927273 119.740235 
" style="fill: none; stroke: #000000; stroke-width: 0.8; stroke-linejoin: miter; stroke-linecap: square"/>
   </g>
   <g id="patch_6">
    <path d="M 57.6 41.472 
L 219.927273 41.472 
" style="fill: none; stroke: #000000; stroke-width: 0.8; stroke-linejoin: miter; stroke-linecap: square"/>
   </g>
   <g id="legend_1">
    <g id="patch_7">
     <path d="M 169.300396 97.043512 
L 214.096273 97.043512 
Q 215.762273 97.043512 215.762273 95.377512 
L 215.762273 47.303 
Q 215.762273 45.637 214.096273 45.637 
L 169.300396 45.637 
Q 167.634396 45.637 167.634396 47.303 
L 167.634396 95.377512 
Q 167.634396 97.043512 169.300396 97.043512 
z
" style="fill: #ffffff; opacity: 0.8; stroke: #cccccc; stroke-linejoin: miter"/>
    </g>
    <g id="line2d_11">
     <path d="M 170.966396 52.382998 
L 179.296396 52.382998 
L 187.626396 52.382998 
" style="fill: none; stroke: #ff0000; stroke-width: 1.5; stroke-linecap: square"/>
    </g>
    <g id="text_8">
     <!-- gt -->
     <g transform="translate(194.290396 55.298498)scale(0.0833 -0.0833)">
      <defs>
       <path id="DejaVuSans-67" d="M 2906 1791 
Q 2906 2416 2648 2759 
Q 2391 3103 1925 3103 
Q 1463 3103 1205 2759 
Q 947 2416 947 1791 
Q 947 1169 1205 825 
Q 1463 481 1925 481 
Q 2391 481 2648 825 
Q 2906 1169 2906 1791 
z
M 3481 434 
Q 3481 -459 3084 -895 
Q 2688 -1331 1869 -1331 
Q 1566 -1331 1297 -1286 
Q 1028 -1241 775 -1147 
L 775 -588 
Q 1028 -725 1275 -790 
Q 1522 -856 1778 -856 
Q 2344 -856 2625 -561 
Q 2906 -266 2906 331 
L 2906 616 
Q 2728 306 2450 153 
Q 2172 0 1784 0 
Q 1141 0 747 490 
Q 353 981 353 1791 
Q 353 2603 747 3093 
Q 1141 3584 1784 3584 
Q 2172 3584 2450 3431 
Q 2728 3278 2906 2969 
L 2906 3500 
L 3481 3500 
L 3481 434 
z
" transform="scale(0.015625)"/>
       <path id="DejaVuSans-74" d="M 1172 4494 
L 1172 3500 
L 2356 3500 
L 2356 3053 
L 1172 3053 
L 1172 1153 
Q 1172 725 1289 603 
Q 1406 481 1766 481 
L 2356 481 
L 2356 0 
L 1766 0 
Q 1100 0 847 248 
Q 594 497 594 1153 
L 594 3053 
L 172 3053 
L 172 3500 
L 594 3500 
L 594 4494 
L 1172 4494 
z
" transform="scale(0.015625)"/>
      </defs>
      <use xlink:href="#DejaVuSans-67"/>
      <use xlink:href="#DejaVuSans-74" x="63.476562"/>
     </g>
    </g>
    <g id="line2d_12">
     <path d="M 170.966396 64.609877 
L 179.296396 64.609877 
L 187.626396 64.609877 
" style="fill: none; stroke: #1f77b4; stroke-linecap: square"/>
    </g>
    <g id="text_9">
     <!-- ours -->
     <g transform="translate(194.290396 67.525377)scale(0.0833 -0.0833)">
      <defs>
       <path id="DejaVuSans-6f" d="M 1959 3097 
Q 1497 3097 1228 2736 
Q 959 2375 959 1747 
Q 959 1119 1226 758 
Q 1494 397 1959 397 
Q 2419 397 2687 759 
Q 2956 1122 2956 1747 
Q 2956 2369 2687 2733 
Q 2419 3097 1959 3097 
z
M 1959 3584 
Q 2709 3584 3137 3096 
Q 3566 2609 3566 1747 
Q 3566 888 3137 398 
Q 2709 -91 1959 -91 
Q 1206 -91 779 398 
Q 353 888 353 1747 
Q 353 2609 779 3096 
Q 1206 3584 1959 3584 
z
" transform="scale(0.015625)"/>
       <path id="DejaVuSans-75" d="M 544 1381 
L 544 3500 
L 1119 3500 
L 1119 1403 
Q 1119 906 1312 657 
Q 1506 409 1894 409 
Q 2359 409 2629 706 
Q 2900 1003 2900 1516 
L 2900 3500 
L 3475 3500 
L 3475 0 
L 2900 0 
L 2900 538 
Q 2691 219 2414 64 
Q 2138 -91 1772 -91 
Q 1169 -91 856 284 
Q 544 659 544 1381 
z
M 1991 3584 
L 1991 3584 
z
" transform="scale(0.015625)"/>
       <path id="DejaVuSans-73" d="M 2834 3397 
L 2834 2853 
Q 2591 2978 2328 3040 
Q 2066 3103 1784 3103 
Q 1356 3103 1142 2972 
Q 928 2841 928 2578 
Q 928 2378 1081 2264 
Q 1234 2150 1697 2047 
L 1894 2003 
Q 2506 1872 2764 1633 
Q 3022 1394 3022 966 
Q 3022 478 2636 193 
Q 2250 -91 1575 -91 
Q 1294 -91 989 -36 
Q 684 19 347 128 
L 347 722 
Q 666 556 975 473 
Q 1284 391 1588 391 
Q 1994 391 2212 530 
Q 2431 669 2431 922 
Q 2431 1156 2273 1281 
Q 2116 1406 1581 1522 
L 1381 1569 
Q 847 1681 609 1914 
Q 372 2147 372 2553 
Q 372 3047 722 3315 
Q 1072 3584 1716 3584 
Q 2034 3584 2315 3537 
Q 2597 3491 2834 3397 
z
" transform="scale(0.015625)"/>
      </defs>
      <use xlink:href="#DejaVuSans-6f"/>
      <use xlink:href="#DejaVuSans-75" x="61.181641"/>
      <use xlink:href="#DejaVuSans-72" x="124.560547"/>
      <use xlink:href="#DejaVuSans-73" x="165.673828"/>
     </g>
    </g>
    <g id="line2d_13">
     <path d="M 170.966396 76.836755 
L 179.296396 76.836755 
L 187.626396 76.836755 
" style="fill: none; stroke: #ff7f0e; stroke-linecap: square"/>
    </g>
    <g id="text_10">
     <!-- g -->
     <g transform="translate(194.290396 79.752255)scale(0.0833 -0.0833)">
      <use xlink:href="#DejaVuSans-67"/>
     </g>
    </g>
    <g id="line2d_14">
     <path d="M 170.966396 89.063633 
L 179.296396 89.063633 
L 187.626396 89.063633 
" style="fill: none; stroke: #2ca02c; stroke-linecap: square"/>
    </g>
    <g id="text_11">
     <!-- og -->
     <g transform="translate(194.290396 91.979133)scale(0.0833 -0.0833)">
      <use xlink:href="#DejaVuSans-6f"/>
      <use xlink:href="#DejaVuSans-67" x="61.181641"/>
     </g>
    </g>
   </g>
  </g>
  <g id="axes_2">
   <g id="patch_8">
    <path d="M 252.392727 119.740235 
L 414.72 119.740235 
L 414.72 41.472 
L 252.392727 41.472 
z
" style="fill: #ffffff"/>
   </g>
   <g id="matplotlib.axis_3">
    <g id="xtick_5">
     <g id="line2d_15">
      <g>
       <use xlink:href="#mc2a6e75074" x="259.77124" y="119.740235" style="stroke: #000000; stroke-width: 0.8"/>
      </g>
     </g>
     <g id="text_12">
      <!-- 0 -->
      <g transform="translate(256.58999 134.338673)scale(0.1 -0.1)">
       <use xlink:href="#DejaVuSans-30"/>
      </g>
     </g>
    </g>
    <g id="xtick_6">
     <g id="line2d_16">
      <g>
       <use xlink:href="#mc2a6e75074" x="305.886942" y="119.740235" style="stroke: #000000; stroke-width: 0.8"/>
      </g>
     </g>
     <g id="text_13">
      <!-- 10 -->
      <g transform="translate(299.524442 134.338673)scale(0.1 -0.1)">
       <use xlink:href="#DejaVuSans-31"/>
       <use xlink:href="#DejaVuSans-30" x="63.623047"/>
      </g>
     </g>
    </g>
    <g id="xtick_7">
     <g id="line2d_17">
      <g>
       <use xlink:href="#mc2a6e75074" x="352.002645" y="119.740235" style="stroke: #000000; stroke-width: 0.8"/>
      </g>
     </g>
     <g id="text_14">
      <!-- 20 -->
      <g transform="translate(345.640145 134.338673)scale(0.1 -0.1)">
       <use xlink:href="#DejaVuSans-32"/>
       <use xlink:href="#DejaVuSans-30" x="63.623047"/>
      </g>
     </g>
    </g>
    <g id="xtick_8">
     <g id="line2d_18">
      <g>
       <use xlink:href="#mc2a6e75074" x="398.118347" y="119.740235" style="stroke: #000000; stroke-width: 0.8"/>
      </g>
     </g>
     <g id="text_15">
      <!-- 30 -->
      <g transform="translate(391.755847 134.338673)scale(0.1 -0.1)">
       <use xlink:href="#DejaVuSans-33"/>
       <use xlink:href="#DejaVuSans-30" x="63.623047"/>
      </g>
     </g>
    </g>
   </g>
   <g id="matplotlib.axis_4">
    <g id="ytick_3">
     <g id="line2d_19">
      <g>
       <use xlink:href="#mf174424da6" x="252.392727" y="109.108224" style="stroke: #000000; stroke-width: 0.8"/>
      </g>
     </g>
     <g id="text_16">
      <!-- −1 -->
      <g transform="translate(230.65054 112.907443)scale(0.1 -0.1)">
       <use xlink:href="#DejaVuSans-2212"/>
       <use xlink:href="#DejaVuSans-31" x="83.789062"/>
      </g>
     </g>
    </g>
    <g id="ytick_4">
     <g id="line2d_20">
      <g>
       <use xlink:href="#mf174424da6" x="252.392727" y="81.346355" style="stroke: #000000; stroke-width: 0.8"/>
      </g>
     </g>
     <g id="text_17">
      <!-- 0 -->
      <g transform="translate(239.030227 85.145574)scale(0.1 -0.1)">
       <use xlink:href="#DejaVuSans-30"/>
      </g>
     </g>
    </g>
    <g id="ytick_5">
     <g id="line2d_21">
      <g>
       <use xlink:href="#mf174424da6" x="252.392727" y="53.584486" style="stroke: #000000; stroke-width: 0.8"/>
      </g>
     </g>
     <g id="text_18">
      <!-- 1 -->
      <g transform="translate(239.030227 57.383705)scale(0.1 -0.1)">
       <use xlink:href="#DejaVuSans-31"/>
      </g>
     </g>
    </g>
    <g id="text_19">
     <!-- $q_2$ (rad) -->
     <g transform="translate(224.55054 99.956118)rotate(-90)scale(0.1 -0.1)">
      <use xlink:href="#DejaVuSans-Oblique-71" transform="translate(0 0.015625)"/>
      <use xlink:href="#DejaVuSans-32" transform="translate(63.476562 -16.390625)scale(0.7)"/>
      <use xlink:href="#DejaVuSans-20" transform="translate(110.74707 0.015625)"/>
      <use xlink:href="#DejaVuSans-28" transform="translate(142.53418 0.015625)"/>
      <use xlink:href="#DejaVuSans-72" transform="translate(181.547852 0.015625)"/>
      <use xlink:href="#DejaVuSans-61" transform="translate(222.661133 0.015625)"/>
      <use xlink:href="#DejaVuSans-64" transform="translate(283.94043 0.015625)"/>
      <use xlink:href="#DejaVuSans-29" transform="translate(347.416992 0.015625)"/>
     </g>
    </g>
   </g>
   <g id="line2d_22">
    <path d="M 259.77124 47.776904 
L 260.163223 47.897228 
L 260.589793 48.275138 
L 261.097066 49.044465 
L 261.719628 50.430031 
L 262.480537 52.708588 
L 263.460496 56.40742 
L 264.91314 62.873417 
L 267.345744 73.66538 
L 268.406405 77.341611 
L 269.236488 79.472317 
L 269.905165 80.629246 
L 270.458554 81.1788 
L 270.919711 81.344513 
L 271.334752 81.263968 
L 271.772851 80.94399 
L 272.280124 80.278002 
L 272.879628 79.09896 
L 273.60595 77.144974 
L 274.505207 74.037125 
L 275.704215 69.015651 
L 279.416529 52.879354 
L 280.304256 50.235076 
L 281.007521 48.770061 
L 281.572438 48.053201 
L 282.033595 47.795029 
L 282.425579 47.816658 
L 282.829091 48.076083 
L 283.278719 48.6523 
L 283.80905 49.721645 
L 284.44314 51.545658 
L 285.192521 54.43559 
L 286.080248 58.801922 
L 287.187025 65.451059 
L 288.720372 76.17201 
L 292.029174 99.632435 
L 293.193595 106.145053 
L 294.127438 110.19741 
L 294.899876 112.642425 
L 295.545496 114.01478 
L 296.075826 114.674822 
L 296.513926 114.902891 
L 296.905909 114.867577 
L 297.32095 114.590226 
L 297.793636 113.985425 
L 298.370083 112.856452 
L 299.073347 110.952202 
L 299.961074 107.852496 
L 301.171612 102.73307 
L 304.699463 87.312829 
L 305.644835 84.375185 
L 306.405744 82.678087 
L 307.028306 81.788538 
L 307.535579 81.415461 
L 307.973678 81.353654 
L 308.400248 81.526391 
L 308.861405 81.96895 
L 309.403264 82.819235 
L 310.048884 84.273424 
L 310.832851 86.621985 
L 311.824339 90.348244 
L 313.265455 96.73653 
L 315.767231 107.836333 
L 316.793306 111.356675 
L 317.577273 113.325449 
L 318.211364 114.37081 
L 318.718636 114.818878 
L 319.133678 114.914248 
L 319.525661 114.772935 
L 319.952231 114.359063 
L 320.447975 113.53494 
L 321.03595 112.082311 
L 321.727686 109.73149 
L 322.54624 106.108753 
L 323.537727 100.644502 
L 324.817438 92.241774 
L 327.446033 73.019007 
L 329.071612 62.143132 
L 330.201446 55.986528 
L 331.112231 52.158639 
L 331.87314 49.84483 
L 332.507231 48.56788 
L 333.026033 47.971558 
L 333.464132 47.780954 
L 333.856116 47.849068 
L 334.271157 48.160048 
L 334.755372 48.82065 
L 335.343347 50.026641 
L 336.069669 52.06577 
L 336.980455 55.335734 
L 338.260165 60.850267 
L 341.384504 74.628624 
L 342.375992 77.877145 
L 343.159959 79.754468 
L 343.805579 80.774839 
L 344.335909 81.23337 
L 344.785537 81.345903 
L 345.200579 81.223072 
L 345.650207 80.84623 
L 346.180537 80.083535 
L 346.803099 78.769434 
L 347.564008 76.602169 
L 348.50938 73.183129 
L 349.823678 67.499617 
L 352.867314 54.070852 
L 353.835744 50.906395 
L 354.596653 49.116969 
L 355.196157 48.214005 
L 355.680372 47.840708 
L 356.083884 47.785021 
L 356.475868 47.95979 
L 356.902438 48.410513 
L 357.409711 49.302047 
L 358.009215 50.849437 
L 358.712479 53.325233 
L 359.554091 57.162306 
L 360.580165 62.963139 
L 361.917521 71.917094 
L 366.43686 103.296573 
L 367.474463 108.438924 
L 368.327603 111.617801 
L 369.030868 113.454954 
L 369.618843 114.425887 
L 370.103058 114.836096 
L 370.50657 114.91203 
L 370.898554 114.759255 
L 371.336653 114.332721 
L 371.855455 113.4952 
L 372.489545 112.018939 
L 373.273512 109.589333 
L 374.288058 105.660098 
L 375.890579 98.421553 
L 377.977314 89.207464 
L 379.049504 85.455239 
L 379.879587 83.294322 
L 380.559793 82.094521 
L 381.113182 81.529219 
L 381.574339 81.350108 
L 381.98938 81.418563 
L 382.427479 81.72592 
L 382.934752 82.377702 
L 383.534256 83.540867 
L 384.260579 85.477503 
L 385.148306 88.523873 
L 386.335785 93.470815 
L 390.15186 110.008862 
L 391.028058 112.571901 
L 391.719793 113.978744 
L 392.284711 114.66928 
L 392.734339 114.902611 
L 393.126322 114.867749 
L 393.529835 114.59446 
L 393.990992 113.983506 
L 394.532851 112.85827 
L 395.166942 110.991728 
L 395.927851 108.003429 
L 396.838636 103.447745 
L 397.956942 96.637732 
L 399.547934 85.418633 
L 402.614628 63.634946 
L 403.802107 56.892132 
L 404.747479 52.711722 
L 405.531446 50.171998 
L 406.188595 48.735649 
L 406.730455 48.037812 
L 407.180083 47.792178 
L 407.341488 47.776904 
L 407.341488 47.776904 
" clip-path="url(#pba5d498c03)" style="fill: none; stroke: #ff0000; stroke-width: 1.5; stroke-linecap: square"/>
   </g>
   <g id="line2d_23">
    <path d="M 259.77124 81.346355 
L 259.909587 77.203154 
L 260.486033 61.901152 
L 260.889545 56.59288 
L 261.246942 54.408794 
L 261.558223 53.666233 
L 261.788802 53.5659 
L 262.007851 53.720467 
L 262.330661 54.269353 
L 262.826405 55.617132 
L 263.598843 58.44312 
L 264.924669 64.268436 
L 267.345744 74.892158 
L 268.394876 78.476304 
L 269.21343 80.544555 
L 269.882107 81.680019 
L 270.423967 82.206212 
L 270.885124 82.36678 
L 271.311694 82.27779 
L 271.761322 81.938366 
L 272.280124 81.240324 
L 272.891157 80.015803 
L 273.629008 78.003689 
L 274.539793 74.830033 
L 275.773388 69.644822 
L 279.358884 54.055943 
L 280.281198 51.242394 
L 281.007521 49.677792 
L 281.595496 48.893638 
L 282.068182 48.600882 
L 282.471694 48.599401 
L 282.875207 48.832234 
L 283.324835 49.37095 
L 283.855165 50.384805 
L 284.477727 52.089307 
L 285.215579 54.799226 
L 286.103306 58.970704 
L 287.187025 65.210225 
L 288.662727 75.141018 
L 292.28281 100.023098 
L 293.401116 105.929332 
L 294.300372 109.573559 
L 295.049752 111.756985 
L 295.672314 112.949663 
L 296.191116 113.507992 
L 296.629215 113.674738 
L 297.032727 113.587753 
L 297.459298 113.25418 
L 297.96657 112.551229 
L 298.589132 111.269796 
L 299.350041 109.154455 
L 300.33 105.719834 
L 301.782645 99.712409 
L 304.330537 89.168475 
L 305.379669 85.790984 
L 306.198223 83.845337 
L 306.855372 82.80081 
L 307.397231 82.315532 
L 307.858388 82.179956 
L 308.284959 82.283816 
L 308.746116 82.641694 
L 309.276446 83.359777 
L 309.910537 84.624649 
L 310.682975 86.703173 
L 311.651405 89.995595 
L 313.034876 95.575729 
L 315.951694 107.497967 
L 316.954711 110.608492 
L 317.727149 112.347878 
L 318.338182 113.23294 
L 318.833926 113.594822 
L 319.248967 113.635415 
L 319.64095 113.444869 
L 320.07905 112.961744 
L 320.586322 112.040995 
L 321.185826 110.45385 
L 321.889091 107.921977 
L 322.730702 104.007291 
L 323.768306 98.043263 
L 325.186364 88.459554 
L 328.760331 63.768175 
L 329.924752 57.522394 
L 330.870124 53.581315 
L 331.654091 51.184739 
L 332.31124 49.824555 
L 332.853099 49.160449 
L 333.302727 48.924937 
L 333.70624 48.955123 
L 334.121281 49.219946 
L 334.605496 49.818984 
L 335.181942 50.918267 
L 335.885207 52.778695 
L 336.761405 55.778055 
L 337.937355 60.672487 
L 341.684256 76.873903 
L 342.60657 79.624353 
L 343.344421 81.183807 
L 343.943926 81.983385 
L 344.439669 82.311393 
L 344.877769 82.345077 
L 345.304339 82.146532 
L 345.777025 81.663429 
L 346.330413 80.757275 
L 346.999091 79.200958 
L 347.806116 76.720524 
L 348.83219 72.795107 
L 350.388595 65.838971 
L 352.625207 55.974408 
L 353.674339 52.334534 
L 354.481364 50.271337 
L 355.126983 49.176218 
L 355.645785 48.691273 
L 356.072355 48.571226 
L 356.464339 48.689626 
L 356.890909 49.071613 
L 357.375124 49.826862 
L 357.95157 51.168581 
L 358.631777 53.353533 
L 359.438802 56.740566 
L 360.41876 61.883508 
L 361.663884 69.708857 
L 363.762149 84.599442 
L 365.756653 98.149918 
L 366.944132 104.771034 
L 367.889504 108.871578 
L 368.673471 111.354999 
L 369.319091 112.73394 
L 369.86095 113.417987 
L 370.310579 113.660119 
L 370.714091 113.631727 
L 371.129132 113.368189 
L 371.613347 112.774695 
L 372.201322 111.6693 
L 372.927645 109.785519 
L 373.83843 106.757061 
L 375.106612 101.691839 
L 378.426942 88.076724 
L 379.406901 85.14599 
L 380.179339 83.483189 
L 380.801901 82.61991 
L 381.320702 82.247856 
L 381.770331 82.187837 
L 382.196901 82.356993 
L 382.669587 82.797932 
L 383.222975 83.641051 
L 383.891653 85.099213 
L 384.710207 87.461959 
L 385.759339 91.22608 
L 387.407975 98.096137 
L 389.552355 106.841184 
L 390.613017 110.26382 
L 391.420041 112.174871 
L 392.054132 113.156382 
L 392.561405 113.569962 
L 392.976446 113.644505 
L 393.36843 113.48709 
L 393.795 113.05719 
L 394.290744 112.213483 
L 394.878719 110.732845 
L 395.570455 108.339576 
L 396.389008 104.654649 
L 397.392025 99.042058 
L 398.72938 90.174667 
L 402.81062 62.225202 
L 403.917397 56.564229 
L 404.828182 52.982251 
L 405.589091 50.821543 
L 406.223182 49.631859 
L 406.741983 49.080742 
L 407.180083 48.911819 
L 407.341488 48.917471 
L 407.341488 48.917471 
" clip-path="url(#pba5d498c03)" style="fill: none; stroke: #1f77b4; stroke-linecap: square"/>
   </g>
   <g id="line2d_24">
    <path d="M 259.77124 81.346355 
L 259.828884 79.997948 
L 260.532149 61.094489 
L 260.924132 56.255996 
L 261.281529 54.234277 
L 261.581281 53.598164 
L 261.81186 53.534522 
L 262.042438 53.731577 
L 262.388306 54.375909 
L 262.918636 55.90263 
L 263.748719 59.0511 
L 265.259008 65.810465 
L 267.288099 74.671928 
L 268.34876 78.342807 
L 269.178843 80.476091 
L 269.847521 81.639084 
L 270.400909 82.196345 
L 270.862066 82.370428 
L 271.288636 82.293898 
L 271.726736 81.978839 
L 272.234008 81.320857 
L 272.833512 80.154489 
L 273.559835 78.220289 
L 274.459091 75.142162 
L 275.658099 70.162901 
L 279.497231 53.579433 
L 280.384959 50.977508 
L 281.088223 49.539057 
L 281.65314 48.836308 
L 282.114298 48.583377 
L 282.51781 48.608106 
L 282.921322 48.867644 
L 283.382479 49.454824 
L 283.924339 50.540278 
L 284.55843 52.34314 
L 285.319339 55.23067 
L 286.218595 59.572577 
L 287.336901 66.150204 
L 288.893306 76.780203 
L 292.098347 98.925613 
L 293.25124 105.224277 
L 294.173554 109.130038 
L 294.945992 111.508204 
L 295.591612 112.832905 
L 296.121942 113.462138 
L 296.560041 113.672613 
L 296.963554 113.624661 
L 297.378595 113.341745 
L 297.874339 112.708634 
L 298.473843 111.545406 
L 299.211694 109.584783 
L 300.145537 106.421367 
L 301.471364 101.056768 
L 304.515 88.5128 
L 305.518017 85.413696 
L 306.082934 83.610045 
L 306.693967 81.214612 
L 307.166653 80.201323 
L 307.593223 79.75576 
L 307.985207 79.645032 
L 308.365661 79.767604 
L 308.80376 80.159474 
L 309.334091 80.962635 
L 309.979711 82.383798 
L 310.763678 84.68668 
L 311.766694 88.379804 
L 313.230868 94.730333 
L 315.963223 106.647626 
L 317.012355 110.203014 
L 317.81938 112.221383 
L 318.465 113.287345 
L 318.972273 113.741429 
L 319.387314 113.844669 
L 319.779298 113.711476 
L 320.194339 113.320205 
L 320.678554 112.534386 
L 321.255 111.13771 
L 321.935207 108.861953 
L 322.75376 105.281692 
L 323.756777 99.808581 
L 325.094132 91.152572 
L 329.094669 64.44013 
L 330.201446 58.906752 
L 331.112231 55.407622 
L 331.87314 53.297729 
L 332.507231 52.135168 
L 333.037562 51.586674 
L 333.475661 51.424298 
L 333.879174 51.50407 
L 334.317273 51.833342 
L 334.824545 52.517547 
L 335.435579 53.745447 
L 336.184959 55.789482 
L 337.14186 59.102558 
L 338.548388 64.88199 
L 341.015579 75.029169 
L 342.041653 78.290762 
L 342.848678 80.169782 
L 343.494298 81.162086 
L 344.024628 81.609556 
L 344.474256 81.719273 
L 344.900826 81.5914 
L 345.350455 81.212545 
L 345.880785 80.449443 
L 346.503347 79.134361 
L 347.252727 76.996815 
L 348.18657 73.603275 
L 349.431694 68.155072 
L 353.074835 51.673983 
L 353.997149 48.743822 
L 354.723471 47.105924 
L 355.311446 46.276169 
L 355.784132 45.956537 
L 356.187645 45.939447 
L 356.579628 46.153916 
L 357.017727 46.666473 
L 357.536529 47.646503 
L 358.147562 49.312498 
L 358.873884 51.98614 
L 359.738554 56.077922 
L 360.787686 62.188401 
L 362.171157 71.671404 
L 366.494504 102.28876 
L 367.555165 107.776619 
L 368.419835 111.174461 
L 369.146157 113.204322 
L 369.75719 114.307371 
L 370.264463 114.802762 
L 370.691033 114.929684 
L 371.094545 114.813688 
L 371.532645 114.438827 
L 372.051446 113.679627 
L 372.685537 112.328541 
L 373.481033 110.066216 
L 374.518636 106.383654 
L 376.224917 99.363208 
L 378.173306 91.620065 
L 379.233967 88.276675 
L 380.052521 86.366452 
L 380.721198 85.318726 
L 381.274587 84.829213 
L 381.747273 84.691081 
L 382.185372 84.794894 
L 382.646529 85.141996 
L 383.188388 85.851208 
L 383.834008 87.094776 
L 384.617975 89.123142 
L 385.620992 92.386048 
L 387.119752 98.12011 
L 389.50624 107.193199 
L 390.532314 110.219663 
L 391.304752 111.868598 
L 391.915785 112.700552 
L 392.4 113.02592 
L 392.815041 113.05214 
L 393.218554 112.843446 
L 393.656653 112.347179 
L 394.175455 111.389457 
L 394.774959 109.781727 
L 395.489752 107.178629 
L 396.331364 103.218241 
L 397.368967 97.183911 
L 398.775496 87.549368 
L 402.499339 61.389426 
L 403.652231 55.148267 
L 404.586074 51.219845 
L 405.370041 48.805763 
L 406.02719 47.445989 
L 406.557521 46.803678 
L 406.99562 46.58221 
L 407.341488 46.603924 
L 407.341488 46.603924 
" clip-path="url(#pba5d498c03)" style="fill: none; stroke: #ff7f0e; stroke-linecap: square"/>
   </g>
   <g id="line2d_25">
    <path d="M 259.77124 81.346355 
L 259.828884 79.997513 
L 260.566736 59.862624 
L 260.958719 55.00813 
L 261.316116 52.972387 
L 261.615868 52.331751 
L 261.834917 52.265101 
L 262.065496 52.45428 
L 262.399835 53.06811 
L 262.918636 54.549039 
L 263.73719 57.643679 
L 265.201364 64.198119 
L 267.334215 73.57037 
L 268.394876 77.256611 
L 269.224959 79.401669 
L 269.893636 80.572503 
L 270.447025 81.134208 
L 270.908182 81.310027 
L 271.323223 81.23836 
L 271.761322 80.927359 
L 272.268595 80.271199 
L 272.868099 79.103052 
L 273.594421 77.161469 
L 274.493678 74.068301 
L 275.692686 69.065649 
L 279.439587 52.827448 
L 280.327314 50.199315 
L 281.030579 48.747059 
L 281.595496 48.040897 
L 282.045124 47.794605 
L 282.437107 47.818209 
L 282.84062 48.080326 
L 283.290248 48.660606 
L 283.820579 49.736483 
L 284.454669 51.571304 
L 285.20405 54.478536 
L 286.091777 58.871634 
L 287.198554 65.561308 
L 288.731901 76.339985 
L 291.971529 99.401662 
L 293.147479 106.026869 
L 294.081322 110.115824 
L 294.865289 112.625072 
L 295.510909 114.016687 
L 296.052769 114.703315 
L 296.490868 114.937695 
L 296.882851 114.907977 
L 297.286364 114.647068 
L 297.75905 114.055372 
L 298.335496 112.940289 
L 299.03876 111.048876 
L 299.914959 108.001596 
L 301.102438 102.987393 
L 304.791694 86.823678 
L 305.714008 84.005304 
L 306.036818 82.884691 
L 306.682438 80.223943 
L 307.155124 79.149168 
L 307.581694 78.666816 
L 307.962149 78.537641 
L 308.342603 78.648164 
L 308.769174 79.027213 
L 309.276446 79.800752 
L 309.899008 81.191818 
L 310.659917 83.487153 
L 311.605289 87.107317 
L 312.896529 93.024167 
L 316.182273 108.471523 
L 317.150702 111.807756 
L 317.911612 113.703517 
L 318.522645 114.688739 
L 319.018388 115.106621 
L 319.421901 115.182858 
L 319.813884 115.024438 
L 320.240455 114.58848 
L 320.736198 113.736122 
L 321.324174 112.249631 
L 322.027438 109.818105 
L 322.86905 106.040456 
L 323.895124 100.328871 
L 325.244008 91.448661 
L 329.532769 62.233698 
L 330.581901 57.034925 
L 331.44657 53.793216 
L 332.161364 51.899004 
L 332.760868 50.880892 
L 333.256612 50.434808 
L 333.671653 50.333575 
L 334.075165 50.467307 
L 334.513264 50.862563 
L 335.043595 51.671161 
L 335.689215 53.103771 
L 336.484711 55.456435 
L 337.522314 59.278833 
L 339.320826 66.926682 
L 341.061694 73.956419 
L 342.087769 77.231227 
L 342.894793 79.118883 
L 343.540413 80.115582 
L 344.070744 80.564135 
L 344.520372 80.672532 
L 344.946942 80.541265 
L 345.39657 80.156434 
L 345.926901 79.383065 
L 346.549463 78.051783 
L 347.298843 75.88975 
L 348.232686 72.461198 
L 349.489339 66.913557 
L 352.994132 50.954538 
L 353.927975 47.93113 
L 354.665826 46.235914 
L 355.253802 45.392367 
L 355.726488 45.068264 
L 356.118471 45.050249 
L 356.510455 45.265935 
L 356.948554 45.787946 
L 357.455826 46.764861 
L 358.06686 48.467435 
L 358.781653 51.16478 
L 359.634793 55.310639 
L 360.672397 61.531076 
L 362.044339 71.228988 
L 366.356157 102.73658 
L 367.428347 108.496663 
L 368.316074 112.136843 
L 369.053926 114.300782 
L 369.664959 115.474978 
L 370.172231 116.020682 
L 370.598802 116.181306 
L 370.990785 116.093951 
L 371.417355 115.75135 
L 371.913099 115.044103 
L 372.524132 113.747816 
L 373.273512 111.590826 
L 374.230413 108.10162 
L 375.636942 102.025909 
L 378.173306 91.047554 
L 379.210909 87.563963 
L 380.029463 85.529836 
L 380.69814 84.413871 
L 381.24 83.897001 
L 381.701157 83.739179 
L 382.127727 83.825972 
L 382.577355 84.157652 
L 383.096157 84.839063 
L 383.718719 86.058563 
L 384.468099 88.056417 
L 385.401942 91.227795 
L 386.704711 96.524286 
L 389.633058 108.651578 
L 390.589959 111.58807 
L 391.339339 113.231684 
L 391.938843 114.056677 
L 392.411529 114.370589 
L 392.815041 114.390934 
L 393.207025 114.185198 
L 393.645124 113.687095 
L 394.163926 112.727846 
L 394.774959 111.087277 
L 395.489752 108.486867 
L 396.342893 104.484065 
L 397.380496 98.463887 
L 398.72938 89.212025 
L 403.214132 57.328935 
L 404.251736 52.043924 
L 405.104876 48.773048 
L 405.80814 46.880944 
L 406.396116 45.880488 
L 406.868802 45.464065 
L 407.272314 45.379977 
L 407.341488 45.390352 
L 407.341488 45.390352 
" clip-path="url(#pba5d498c03)" style="fill: none; stroke: #2ca02c; stroke-linecap: square"/>
   </g>
   <g id="patch_9">
    <path d="M 252.392727 119.740235 
L 252.392727 41.472 
" style="fill: none; stroke: #000000; stroke-width: 0.8; stroke-linejoin: miter; stroke-linecap: square"/>
   </g>
   <g id="patch_10">
    <path d="M 414.72 119.740235 
L 414.72 41.472 
" style="fill: none; stroke: #000000; stroke-width: 0.8; stroke-linejoin: miter; stroke-linecap: square"/>
   </g>
   <g id="patch_11">
    <path d="M 252.392727 119.740235 
L 414.72 119.740235 
" style="fill: none; stroke: #000000; stroke-width: 0.8; stroke-linejoin: miter; stroke-linecap: square"/>
   </g>
   <g id="patch_12">
    <path d="M 252.392727 41.472 
L 414.72 41.472 
" style="fill: none; stroke: #000000; stroke-width: 0.8; stroke-linejoin: miter; stroke-linecap: square"/>
   </g>
   <g id="legend_2">
    <g id="patch_13">
     <path d="M 368.432533 84.816634 
L 408.889 84.816634 
Q 410.555 84.816634 410.555 83.150634 
L 410.555 47.303 
Q 410.555 45.637 408.889 45.637 
L 368.432533 45.637 
Q 366.766533 45.637 366.766533 47.303 
L 366.766533 83.150634 
Q 366.766533 84.816634 368.432533 84.816634 
z
" style="fill: #ffffff; opacity: 0.8; stroke: #cccccc; stroke-linejoin: miter"/>
    </g>
    <g id="line2d_26">
     <path d="M 370.098533 52.382998 
L 378.428533 52.382998 
L 386.758533 52.382998 
" style="fill: none; stroke: #1f77b4; stroke-linecap: square"/>
    </g>
    <g id="text_20">
     <!-- our -->
     <g transform="translate(393.422533 55.298498)scale(0.0833 -0.0833)">
      <use xlink:href="#DejaVuSans-6f"/>
      <use xlink:href="#DejaVuSans-75" x="61.181641"/>
      <use xlink:href="#DejaVuSans-72" x="124.560547"/>
     </g>
    </g>
    <g id="line2d_27">
     <path d="M 370.098533 64.609877 
L 378.428533 64.609877 
L 386.758533 64.609877 
" style="fill: none; stroke: #ff7f0e; stroke-linecap: square"/>
    </g>
    <g id="text_21">
     <!-- g -->
     <g transform="translate(393.422533 67.525377)scale(0.0833 -0.0833)">
      <use xlink:href="#DejaVuSans-67"/>
     </g>
    </g>
    <g id="line2d_28">
     <path d="M 370.098533 76.836755 
L 378.428533 76.836755 
L 386.758533 76.836755 
" style="fill: none; stroke: #2ca02c; stroke-linecap: square"/>
    </g>
    <g id="text_22">
     <!-- og -->
     <g transform="translate(393.422533 79.752255)scale(0.0833 -0.0833)">
      <use xlink:href="#DejaVuSans-6f"/>
      <use xlink:href="#DejaVuSans-67" x="61.181641"/>
     </g>
    </g>
   </g>
  </g>
  <g id="axes_3">
   <g id="patch_14">
    <path d="M 252.392727 213.662118 
L 414.72 213.662118 
L 414.72 135.393882 
L 252.392727 135.393882 
z
" style="fill: #ffffff"/>
   </g>
   <g id="matplotlib.axis_5">
    <g id="xtick_9">
     <g id="line2d_29">
      <g>
       <use xlink:href="#mc2a6e75074" x="259.77124" y="213.662118" style="stroke: #000000; stroke-width: 0.8"/>
      </g>
     </g>
     <g id="text_23">
      <!-- 0 -->
      <g transform="translate(256.58999 228.260555)scale(0.1 -0.1)">
       <use xlink:href="#DejaVuSans-30"/>
      </g>
     </g>
    </g>
    <g id="xtick_10">
     <g id="line2d_30">
      <g>
       <use xlink:href="#mc2a6e75074" x="305.886942" y="213.662118" style="stroke: #000000; stroke-width: 0.8"/>
      </g>
     </g>
     <g id="text_24">
      <!-- 10 -->
      <g transform="translate(299.524442 228.260555)scale(0.1 -0.1)">
       <use xlink:href="#DejaVuSans-31"/>
       <use xlink:href="#DejaVuSans-30" x="63.623047"/>
      </g>
     </g>
    </g>
    <g id="xtick_11">
     <g id="line2d_31">
      <g>
       <use xlink:href="#mc2a6e75074" x="352.002645" y="213.662118" style="stroke: #000000; stroke-width: 0.8"/>
      </g>
     </g>
     <g id="text_25">
      <!-- 20 -->
      <g transform="translate(345.640145 228.260555)scale(0.1 -0.1)">
       <use xlink:href="#DejaVuSans-32"/>
       <use xlink:href="#DejaVuSans-30" x="63.623047"/>
      </g>
     </g>
    </g>
    <g id="xtick_12">
     <g id="line2d_32">
      <g>
       <use xlink:href="#mc2a6e75074" x="398.118347" y="213.662118" style="stroke: #000000; stroke-width: 0.8"/>
      </g>
     </g>
     <g id="text_26">
      <!-- 30 -->
      <g transform="translate(391.755847 228.260555)scale(0.1 -0.1)">
       <use xlink:href="#DejaVuSans-33"/>
       <use xlink:href="#DejaVuSans-30" x="63.623047"/>
      </g>
     </g>
    </g>
   </g>
   <g id="matplotlib.axis_6">
    <g id="ytick_6">
     <g id="line2d_33">
      <g>
       <use xlink:href="#mf174424da6" x="252.392727" y="210.104472" style="stroke: #000000; stroke-width: 0.8"/>
      </g>
     </g>
     <g id="text_27">
      <!-- 0 -->
      <g transform="translate(239.030227 213.903691)scale(0.1 -0.1)">
       <use xlink:href="#DejaVuSans-30"/>
      </g>
     </g>
    </g>
    <g id="ytick_7">
     <g id="line2d_34">
      <g>
       <use xlink:href="#mf174424da6" x="252.392727" y="158.75397" style="stroke: #000000; stroke-width: 0.8"/>
      </g>
     </g>
     <g id="text_28">
      <!-- 50 -->
      <g transform="translate(232.667727 162.553188)scale(0.1 -0.1)">
       <defs>
        <path id="DejaVuSans-35" d="M 691 4666 
L 3169 4666 
L 3169 4134 
L 1269 4134 
L 1269 2991 
Q 1406 3038 1543 3061 
Q 1681 3084 1819 3084 
Q 2600 3084 3056 2656 
Q 3513 2228 3513 1497 
Q 3513 744 3044 326 
Q 2575 -91 1722 -91 
Q 1428 -91 1123 -41 
Q 819 9 494 109 
L 494 744 
Q 775 591 1075 516 
Q 1375 441 1709 441 
Q 2250 441 2565 725 
Q 2881 1009 2881 1497 
Q 2881 1984 2565 2268 
Q 2250 2553 1709 2553 
Q 1456 2553 1204 2497 
Q 953 2441 691 2322 
L 691 4666 
z
" transform="scale(0.015625)"/>
       </defs>
       <use xlink:href="#DejaVuSans-35"/>
       <use xlink:href="#DejaVuSans-30" x="63.623047"/>
      </g>
     </g>
    </g>
    <g id="text_29">
     <!-- $e_{q_2}$ (deg) -->
     <g transform="translate(225.567727 196.578)rotate(-90)scale(0.1 -0.1)">
      <defs>
       <path id="DejaVuSans-Oblique-65" d="M 3078 2063 
Q 3088 2113 3092 2166 
Q 3097 2219 3097 2272 
Q 3097 2653 2873 2875 
Q 2650 3097 2266 3097 
Q 1838 3097 1509 2826 
Q 1181 2556 1013 2059 
L 3078 2063 
z
M 3578 1613 
L 903 1613 
Q 884 1494 878 1425 
Q 872 1356 872 1306 
Q 872 872 1139 634 
Q 1406 397 1894 397 
Q 2269 397 2603 481 
Q 2938 566 3225 728 
L 3116 159 
Q 2806 34 2476 -28 
Q 2147 -91 1806 -91 
Q 1078 -91 686 257 
Q 294 606 294 1247 
Q 294 1794 489 2264 
Q 684 2734 1063 3103 
Q 1306 3334 1642 3459 
Q 1978 3584 2356 3584 
Q 2950 3584 3301 3228 
Q 3653 2872 3653 2272 
Q 3653 2128 3634 1964 
Q 3616 1800 3578 1613 
z
" transform="scale(0.015625)"/>
       <path id="DejaVuSans-65" d="M 3597 1894 
L 3597 1613 
L 953 1613 
Q 991 1019 1311 708 
Q 1631 397 2203 397 
Q 2534 397 2845 478 
Q 3156 559 3463 722 
L 3463 178 
Q 3153 47 2828 -22 
Q 2503 -91 2169 -91 
Q 1331 -91 842 396 
Q 353 884 353 1716 
Q 353 2575 817 3079 
Q 1281 3584 2069 3584 
Q 2775 3584 3186 3129 
Q 3597 2675 3597 1894 
z
M 3022 2063 
Q 3016 2534 2758 2815 
Q 2500 3097 2075 3097 
Q 1594 3097 1305 2825 
Q 1016 2553 972 2059 
L 3022 2063 
z
" transform="scale(0.015625)"/>
      </defs>
      <use xlink:href="#DejaVuSans-Oblique-65" transform="translate(0 0.015625)"/>
      <use xlink:href="#DejaVuSans-Oblique-71" transform="translate(61.523438 -16.390625)scale(0.7)"/>
      <use xlink:href="#DejaVuSans-32" transform="translate(105.957031 -27.875)scale(0.49)"/>
      <use xlink:href="#DejaVuSans-20" transform="translate(141.780762 0.015625)"/>
      <use xlink:href="#DejaVuSans-28" transform="translate(173.567871 0.015625)"/>
      <use xlink:href="#DejaVuSans-64" transform="translate(212.581543 0.015625)"/>
      <use xlink:href="#DejaVuSans-65" transform="translate(276.058105 0.015625)"/>
      <use xlink:href="#DejaVuSans-67" transform="translate(337.581543 0.015625)"/>
      <use xlink:href="#DejaVuSans-29" transform="translate(401.058105 0.015625)"/>
     </g>
    </g>
   </g>
   <g id="line2d_35">
    <path d="M 259.77124 138.951529 
L 259.909587 147.769751 
L 260.497562 181.44575 
L 260.924132 194.09391 
L 261.339174 200.414322 
L 261.754215 203.65779 
L 262.169256 205.337355 
L 262.607355 206.25126 
L 263.080041 206.746058 
L 263.668017 207.035217 
L 264.624917 207.226187 
L 271.842025 208.028474 
L 274.378388 208.143519 
L 277.894711 208.026447 
L 280.142851 208.079824 
L 281.895248 208.34235 
L 283.509298 208.80787 
L 285.169463 209.524726 
L 286.414587 210.024382 
L 289.527397 208.426997 
L 291.072273 207.915474 
L 292.743967 207.60394 
L 294.911405 207.438858 
L 296.825207 207.492646 
L 298.174091 207.744609 
L 299.384628 208.197796 
L 300.733512 208.953551 
L 302.601198 210.012637 
L 304.203719 209.108695 
L 305.494959 208.634169 
L 306.820785 208.386594 
L 308.238843 208.349652 
L 309.576198 208.532747 
L 310.763678 208.918593 
L 311.939628 209.540635 
L 312.885 210.016915 
L 315.870992 207.942866 
L 316.920124 207.548806 
L 317.969256 207.392822 
L 319.306612 207.437202 
L 322.638471 207.63024 
L 325.382355 207.671569 
L 326.40843 207.951715 
L 327.411446 208.462081 
L 328.621983 209.348852 
L 329.613471 210.023464 
L 331.400455 208.65099 
L 332.599463 208.012048 
L 333.798471 207.627625 
L 335.205 207.422029 
L 337.24562 207.371664 
L 340.589008 207.525708 
L 344.900826 207.970977 
L 347.713884 208.144547 
L 350.55 208.069879 
L 353.478347 208.047694 
L 355.288388 208.263225 
L 356.925496 208.681052 
L 358.551074 209.330044 
L 360.234298 210.005213 
L 363.300992 208.431709 
L 364.845868 207.91842 
L 366.517562 207.605417 
L 368.685 207.439201 
L 370.610331 207.492646 
L 371.959215 207.744609 
L 373.169752 208.197796 
L 374.518636 208.953551 
L 376.386322 210.012637 
L 377.988843 209.108695 
L 379.280083 208.634169 
L 380.605909 208.386594 
L 382.023967 208.349652 
L 383.361322 208.532747 
L 384.548802 208.918593 
L 385.724752 209.540635 
L 386.670124 210.016915 
L 389.656116 207.942866 
L 390.705248 207.548806 
L 391.75438 207.392822 
L 393.091736 207.437202 
L 396.423595 207.63024 
L 399.167479 207.671569 
L 400.193554 207.951715 
L 401.19657 208.462081 
L 402.407107 209.348852 
L 403.398595 210.023464 
L 405.185579 208.65099 
L 406.384587 208.012048 
L 407.341488 207.686955 
L 407.341488 207.686955 
" clip-path="url(#p080af4cb81)" style="fill: none; stroke: #1f77b4; stroke-linecap: square"/>
   </g>
   <g id="line2d_36">
    <path d="M 259.77124 138.951529 
L 259.828884 141.817581 
L 260.555207 183.668794 
L 260.970248 195.11561 
L 261.385289 200.990301 
L 261.800331 203.983005 
L 262.215372 205.522352 
L 262.653471 206.354535 
L 263.137686 206.809921 
L 263.760248 207.076358 
L 264.832438 207.255281 
L 273.963347 208.130995 
L 276.822521 208.062829 
L 279.704752 208.053792 
L 281.526322 208.278092 
L 283.16343 208.702177 
L 284.800537 209.36079 
L 286.426116 210.004675 
L 289.49281 208.43585 
L 291.037686 207.924743 
L 292.70938 207.614498 
L 294.888347 207.450662 
L 296.825207 207.505243 
L 298.18562 207.760073 
L 299.407686 208.219835 
L 300.768099 208.98475 
L 302.589669 210.015153 
L 304.19219 209.113965 
L 305.48343 208.641251 
L 305.91 208.582977 
L 305.921529 208.628775 
L 306.198223 210.083644 
L 306.267397 209.720036 
L 306.740083 207.866325 
L 307.155124 207.038861 
L 307.593223 206.633211 
L 308.123554 206.451759 
L 308.988223 206.422743 
L 311.801281 206.427971 
L 313.692025 206.103762 
L 315.179256 205.939169 
L 316.170744 206.054281 
L 317.116116 206.393922 
L 318.165248 207.020735 
L 319.664008 208.208985 
L 322.050496 210.095644 
L 323.814421 208.994184 
L 326.350785 207.42289 
L 327.768843 206.226285 
L 331.250579 203.128437 
L 332.253595 202.627242 
L 333.187438 202.4031 
L 334.144339 202.40142 
L 335.205 202.627323 
L 336.450124 203.128417 
L 337.971942 203.990602 
L 339.851157 205.322114 
L 342.387521 207.415841 
L 345.627149 210.072347 
L 347.529421 208.738994 
L 349.189587 207.843256 
L 350.884339 207.183361 
L 352.855785 206.661464 
L 355.334504 206.245301 
L 359.934545 205.758798 
L 361.917521 205.709496 
L 363.277934 205.895418 
L 364.557645 206.297189 
L 365.964174 206.981722 
L 367.83186 208.159904 
L 370.679504 209.981807 
L 372.720124 208.252918 
L 375.048967 205.941666 
L 376.893595 204.236153 
L 378.069545 203.445287 
L 379.09562 203.014541 
L 380.087107 202.835709 
L 381.090124 202.8805 
L 382.116198 203.150323 
L 383.153802 203.656867 
L 384.191405 204.415058 
L 385.286653 205.499446 
L 386.60095 207.138394 
L 388.733802 210.102242 
L 388.826033 209.984082 
L 390.278678 208.245319 
L 391.54686 207.071239 
L 393.011033 206.032151 
L 397.588017 203.243352 
L 398.775496 202.745055 
L 399.674752 202.599842 
L 400.493306 202.692618 
L 401.334917 203.020599 
L 402.314876 203.656867 
L 403.871281 204.979355 
L 406.038719 206.758022 
L 407.341488 207.618254 
L 407.341488 207.618254 
" clip-path="url(#p080af4cb81)" style="fill: none; stroke: #ff7f0e; stroke-linecap: square"/>
   </g>
   <g id="line2d_37">
    <path d="M 259.77124 138.951529 
L 259.828884 141.818504 
L 260.601322 186.794145 
L 261.027893 198.335463 
L 261.442934 204.05985 
L 261.857975 206.979907 
L 262.273017 208.479139 
L 262.711116 209.285699 
L 263.195331 209.722938 
L 263.817893 209.972978 
L 264.763264 210.095124 
L 267.184339 209.999781 
L 272.383884 210.051922 
L 286.137893 210.087878 
L 293.297355 209.875773 
L 299.926488 210.044213 
L 305.91 209.648628 
L 306.267397 207.652708 
L 306.751612 205.648615 
L 307.178182 204.736989 
L 307.616281 204.293423 
L 308.112025 204.105334 
L 308.780702 204.102767 
L 309.795248 204.340782 
L 311.201777 204.909474 
L 312.896529 205.842846 
L 314.914091 207.220475 
L 317.646446 209.381171 
L 318.603347 210.03655 
L 322.246488 207.166248 
L 324.240992 205.875297 
L 325.889628 205.064385 
L 327.422975 204.55458 
L 328.97938 204.273142 
L 330.581901 204.209642 
L 332.19595 204.368121 
L 333.798471 204.750152 
L 335.42405 205.36813 
L 337.176446 206.279362 
L 339.297769 207.649529 
L 342.837149 209.986363 
L 347.056736 207.00753 
L 349.108884 205.833537 
L 350.895868 205.064905 
L 352.636736 204.556158 
L 354.30843 204.294105 
L 355.853306 204.274062 
L 357.294421 204.477369 
L 358.712479 204.903908 
L 360.199711 205.589315 
L 361.917521 206.639033 
L 364.615289 208.591999 
L 366.74814 210.047574 
L 370.806322 207.247854 
L 372.97376 206.008742 
L 374.726157 205.25599 
L 376.30562 204.814731 
L 377.838967 204.617182 
L 379.406901 204.640656 
L 381.078595 204.889534 
L 382.85405 205.380357 
L 384.710207 206.126832 
L 386.739298 207.19102 
L 389.275661 208.791697 
L 391.304752 210.03057 
L 395.51281 207.263579 
L 397.933884 205.946262 
L 400.02062 205.05462 
L 401.73843 204.55218 
L 403.214132 204.348025 
L 404.620661 204.379113 
L 406.050248 204.635499 
L 407.341488 205.045998 
L 407.341488 205.045998 
" clip-path="url(#p080af4cb81)" style="fill: none; stroke: #2ca02c; stroke-linecap: square"/>
   </g>
   <g id="patch_15">
    <path d="M 252.392727 213.662118 
L 252.392727 135.393882 
" style="fill: none; stroke: #000000; stroke-width: 0.8; stroke-linejoin: miter; stroke-linecap: square"/>
   </g>
   <g id="patch_16">
    <path d="M 414.72 213.662118 
L 414.72 135.393882 
" style="fill: none; stroke: #000000; stroke-width: 0.8; stroke-linejoin: miter; stroke-linecap: square"/>
   </g>
   <g id="patch_17">
    <path d="M 252.392727 213.662118 
L 414.72 213.662118 
" style="fill: none; stroke: #000000; stroke-width: 0.8; stroke-linejoin: miter; stroke-linecap: square"/>
   </g>
   <g id="patch_18">
    <path d="M 252.392727 135.393882 
L 414.72 135.393882 
" style="fill: none; stroke: #000000; stroke-width: 0.8; stroke-linejoin: miter; stroke-linecap: square"/>
   </g>
   <g id="legend_3">
    <g id="patch_19">
     <path d="M 368.432533 178.738517 
L 408.889 178.738517 
Q 410.555 178.738517 410.555 177.072517 
L 410.555 141.224882 
Q 410.555 139.558882 408.889 139.558882 
L 368.432533 139.558882 
Q 366.766533 139.558882 366.766533 141.224882 
L 366.766533 177.072517 
Q 366.766533 178.738517 368.432533 178.738517 
z
" style="fill: #ffffff; opacity: 0.8; stroke: #cccccc; stroke-linejoin: miter"/>
    </g>
    <g id="line2d_38">
     <path d="M 370.098533 146.304881 
L 378.428533 146.304881 
L 386.758533 146.304881 
" style="fill: none; stroke: #1f77b4; stroke-linecap: square"/>
    </g>
    <g id="text_30">
     <!-- our -->
     <g transform="translate(393.422533 149.220381)scale(0.0833 -0.0833)">
      <use xlink:href="#DejaVuSans-6f"/>
      <use xlink:href="#DejaVuSans-75" x="61.181641"/>
      <use xlink:href="#DejaVuSans-72" x="124.560547"/>
     </g>
    </g>
    <g id="line2d_39">
     <path d="M 370.098533 158.531759 
L 378.428533 158.531759 
L 386.758533 158.531759 
" style="fill: none; stroke: #ff7f0e; stroke-linecap: square"/>
    </g>
    <g id="text_31">
     <!-- g -->
     <g transform="translate(393.422533 161.447259)scale(0.0833 -0.0833)">
      <use xlink:href="#DejaVuSans-67"/>
     </g>
    </g>
    <g id="line2d_40">
     <path d="M 370.098533 170.758637 
L 378.428533 170.758637 
L 386.758533 170.758637 
" style="fill: none; stroke: #2ca02c; stroke-linecap: square"/>
    </g>
    <g id="text_32">
     <!-- og -->
     <g transform="translate(393.422533 173.674137)scale(0.0833 -0.0833)">
      <use xlink:href="#DejaVuSans-6f"/>
      <use xlink:href="#DejaVuSans-67" x="61.181641"/>
     </g>
    </g>
   </g>
  </g>
 </g>
 <defs>
  <clipPath id="p68597d1c6e">
   <rect x="57.6" y="41.472" width="162.327273" height="78.268235"/>
  </clipPath>
  <clipPath id="pba5d498c03">
   <rect x="252.392727" y="41.472" width="162.327273" height="78.268235"/>
  </clipPath>
  <clipPath id="p080af4cb81">
   <rect x="252.392727" y="135.393882" width="162.327273" height="78.268235"/>
  </clipPath>
 </defs>
</svg>
