<?xml version="1.0" encoding="utf-8" standalone="no"?>
<!DOCTYPE svg PUBLIC "-//W3C//DTD SVG 1.1//EN"
  "http://www.w3.org/Graphics/SVG/1.1/DTD/svg11.dtd">
<svg xmlns:xlink="http://www.w3.org/1999/xlink" width="460.8pt" height="345.6pt" viewBox="0 0 460.8 345.6" xmlns="http://www.w3.org/2000/svg" version="1.1">
 <metadata>
  <rdf:RDF xmlns:dc="http://purl.org/dc/elements/1.1/" xmlns:cc="http://creativecommons.org/ns#" xmlns:rdf="http://www.w3.org/1999/02/22-rdf-syntax-ns#">
   <cc:Work>
    <dc:type rdf:resource="http://purl.org/dc/dcmitype/StillImage"/>
    <dc:date>2023-10-17T21:15:37.250981</dc:date>
    <dc:format>image/svg+xml</dc:format>
    <dc:creator>
     <cc:Agent>
      <dc:title>Matplotlib v3.5.1, https://matplotlib.org/</dc:title>
     </cc:Agent>
    </dc:creator>
   </cc:Work>
  </rdf:RDF>
 </metadata>
 <defs>
  <style type="text/css">*{stroke-linejoin: round; stroke-linecap: butt}</style>
 </defs>
 <g id="figure_1">
  <g id="patch_1">
   <path d="M 0 345.6 
L 460.8 345.6 
L 460.8 0 
L 0 0 
z
" style="fill: #ffffff"/>
  </g>
  <g id="axes_1">
   <g id="patch_2">
    <path d="M 57.6 162.432 
L 219.927273 162.432 
L 219.927273 41.472 
L 57.6 41.472 
z
" style="fill: #ffffff"/>
   </g>
   <g id="matplotlib.axis_1">
    <g id="xtick_1">
     <g id="line2d_1">
      <defs>
       <path id="m98a88d24ab" d="M 0 0 
L 0 3.5 
" style="stroke: #000000; stroke-width: 0.8"/>
      </defs>
      <g>
       <use xlink:href="#m98a88d24ab" x="64.978512" y="162.432" style="stroke: #000000; stroke-width: 0.8"/>
      </g>
     </g>
     <g id="text_1">
      <!-- 0 -->
      <g transform="translate(61.797262 177.030437)scale(0.1 -0.1)">
       <defs>
        <path id="DejaVuSans-30" d="M 2034 4250 
Q 1547 4250 1301 3770 
Q 1056 3291 1056 2328 
Q 1056 1369 1301 889 
Q 1547 409 2034 409 
Q 2525 409 2770 889 
Q 3016 1369 3016 2328 
Q 3016 3291 2770 3770 
Q 2525 4250 2034 4250 
z
M 2034 4750 
Q 2819 4750 3233 4129 
Q 3647 3509 3647 2328 
Q 3647 1150 3233 529 
Q 2819 -91 2034 -91 
Q 1250 -91 836 529 
Q 422 1150 422 2328 
Q 422 3509 836 4129 
Q 1250 4750 2034 4750 
z
" transform="scale(0.015625)"/>
       </defs>
       <use xlink:href="#DejaVuSans-30"/>
      </g>
     </g>
    </g>
    <g id="xtick_2">
     <g id="line2d_2">
      <g>
       <use xlink:href="#m98a88d24ab" x="111.094215" y="162.432" style="stroke: #000000; stroke-width: 0.8"/>
      </g>
     </g>
     <g id="text_2">
      <!-- 10 -->
      <g transform="translate(104.731715 177.030437)scale(0.1 -0.1)">
       <defs>
        <path id="DejaVuSans-31" d="M 794 531 
L 1825 531 
L 1825 4091 
L 703 3866 
L 703 4441 
L 1819 4666 
L 2450 4666 
L 2450 531 
L 3481 531 
L 3481 0 
L 794 0 
L 794 531 
z
" transform="scale(0.015625)"/>
       </defs>
       <use xlink:href="#DejaVuSans-31"/>
       <use xlink:href="#DejaVuSans-30" x="63.623047"/>
      </g>
     </g>
    </g>
    <g id="xtick_3">
     <g id="line2d_3">
      <g>
       <use xlink:href="#m98a88d24ab" x="157.209917" y="162.432" style="stroke: #000000; stroke-width: 0.8"/>
      </g>
     </g>
     <g id="text_3">
      <!-- 20 -->
      <g transform="translate(150.847417 177.030437)scale(0.1 -0.1)">
       <defs>
        <path id="DejaVuSans-32" d="M 1228 531 
L 3431 531 
L 3431 0 
L 469 0 
L 469 531 
Q 828 903 1448 1529 
Q 2069 2156 2228 2338 
Q 2531 2678 2651 2914 
Q 2772 3150 2772 3378 
Q 2772 3750 2511 3984 
Q 2250 4219 1831 4219 
Q 1534 4219 1204 4116 
Q 875 4013 500 3803 
L 500 4441 
Q 881 4594 1212 4672 
Q 1544 4750 1819 4750 
Q 2544 4750 2975 4387 
Q 3406 4025 3406 3419 
Q 3406 3131 3298 2873 
Q 3191 2616 2906 2266 
Q 2828 2175 2409 1742 
Q 1991 1309 1228 531 
z
" transform="scale(0.015625)"/>
       </defs>
       <use xlink:href="#DejaVuSans-32"/>
       <use xlink:href="#DejaVuSans-30" x="63.623047"/>
      </g>
     </g>
    </g>
    <g id="xtick_4">
     <g id="line2d_4">
      <g>
       <use xlink:href="#m98a88d24ab" x="203.32562" y="162.432" style="stroke: #000000; stroke-width: 0.8"/>
      </g>
     </g>
     <g id="text_4">
      <!-- 30 -->
      <g transform="translate(196.96312 177.030437)scale(0.1 -0.1)">
       <defs>
        <path id="DejaVuSans-33" d="M 2597 2516 
Q 3050 2419 3304 2112 
Q 3559 1806 3559 1356 
Q 3559 666 3084 287 
Q 2609 -91 1734 -91 
Q 1441 -91 1130 -33 
Q 819 25 488 141 
L 488 750 
Q 750 597 1062 519 
Q 1375 441 1716 441 
Q 2309 441 2620 675 
Q 2931 909 2931 1356 
Q 2931 1769 2642 2001 
Q 2353 2234 1838 2234 
L 1294 2234 
L 1294 2753 
L 1863 2753 
Q 2328 2753 2575 2939 
Q 2822 3125 2822 3475 
Q 2822 3834 2567 4026 
Q 2313 4219 1838 4219 
Q 1578 4219 1281 4162 
Q 984 4106 628 3988 
L 628 4550 
Q 988 4650 1302 4700 
Q 1616 4750 1894 4750 
Q 2613 4750 3031 4423 
Q 3450 4097 3450 3541 
Q 3450 3153 3228 2886 
Q 3006 2619 2597 2516 
z
" transform="scale(0.015625)"/>
       </defs>
       <use xlink:href="#DejaVuSans-33"/>
       <use xlink:href="#DejaVuSans-30" x="63.623047"/>
      </g>
     </g>
    </g>
   </g>
   <g id="matplotlib.axis_2">
    <g id="ytick_1">
     <g id="line2d_5">
      <defs>
       <path id="m6011c5d917" d="M 0 0 
L -3.5 0 
" style="stroke: #000000; stroke-width: 0.8"/>
      </defs>
      <g>
       <use xlink:href="#m6011c5d917" x="57.6" y="140.646839" style="stroke: #000000; stroke-width: 0.8"/>
      </g>
     </g>
     <g id="text_5">
      <!-- −1.0 -->
      <g transform="translate(26.317187 144.446057)scale(0.1 -0.1)">
       <defs>
        <path id="DejaVuSans-2212" d="M 678 2272 
L 4684 2272 
L 4684 1741 
L 678 1741 
L 678 2272 
z
" transform="scale(0.015625)"/>
        <path id="DejaVuSans-2e" d="M 684 794 
L 1344 794 
L 1344 0 
L 684 0 
L 684 794 
z
" transform="scale(0.015625)"/>
       </defs>
       <use xlink:href="#DejaVuSans-2212"/>
       <use xlink:href="#DejaVuSans-31" x="83.789062"/>
       <use xlink:href="#DejaVuSans-2e" x="147.412109"/>
       <use xlink:href="#DejaVuSans-30" x="179.199219"/>
      </g>
     </g>
    </g>
    <g id="ytick_2">
     <g id="line2d_6">
      <g>
       <use xlink:href="#m6011c5d917" x="57.6" y="114.822452" style="stroke: #000000; stroke-width: 0.8"/>
      </g>
     </g>
     <g id="text_6">
      <!-- −0.5 -->
      <g transform="translate(26.317187 118.621671)scale(0.1 -0.1)">
       <defs>
        <path id="DejaVuSans-35" d="M 691 4666 
L 3169 4666 
L 3169 4134 
L 1269 4134 
L 1269 2991 
Q 1406 3038 1543 3061 
Q 1681 3084 1819 3084 
Q 2600 3084 3056 2656 
Q 3513 2228 3513 1497 
Q 3513 744 3044 326 
Q 2575 -91 1722 -91 
Q 1428 -91 1123 -41 
Q 819 9 494 109 
L 494 744 
Q 775 591 1075 516 
Q 1375 441 1709 441 
Q 2250 441 2565 725 
Q 2881 1009 2881 1497 
Q 2881 1984 2565 2268 
Q 2250 2553 1709 2553 
Q 1456 2553 1204 2497 
Q 953 2441 691 2322 
L 691 4666 
z
" transform="scale(0.015625)"/>
       </defs>
       <use xlink:href="#DejaVuSans-2212"/>
       <use xlink:href="#DejaVuSans-30" x="83.789062"/>
       <use xlink:href="#DejaVuSans-2e" x="147.412109"/>
       <use xlink:href="#DejaVuSans-35" x="179.199219"/>
      </g>
     </g>
    </g>
    <g id="ytick_3">
     <g id="line2d_7">
      <g>
       <use xlink:href="#m6011c5d917" x="57.6" y="88.998066" style="stroke: #000000; stroke-width: 0.8"/>
      </g>
     </g>
     <g id="text_7">
      <!-- 0.0 -->
      <g transform="translate(34.696875 92.797285)scale(0.1 -0.1)">
       <use xlink:href="#DejaVuSans-30"/>
       <use xlink:href="#DejaVuSans-2e" x="63.623047"/>
       <use xlink:href="#DejaVuSans-30" x="95.410156"/>
      </g>
     </g>
    </g>
    <g id="ytick_4">
     <g id="line2d_8">
      <g>
       <use xlink:href="#m6011c5d917" x="57.6" y="63.173679" style="stroke: #000000; stroke-width: 0.8"/>
      </g>
     </g>
     <g id="text_8">
      <!-- 0.5 -->
      <g transform="translate(34.696875 66.972898)scale(0.1 -0.1)">
       <use xlink:href="#DejaVuSans-30"/>
       <use xlink:href="#DejaVuSans-2e" x="63.623047"/>
       <use xlink:href="#DejaVuSans-35" x="95.410156"/>
      </g>
     </g>
    </g>
    <g id="text_9">
     <!-- $\dot{q}_1$ (rad/s) -->
     <g transform="translate(20.217187 125.652)rotate(-90)scale(0.1 -0.1)">
      <defs>
       <path id="DejaVuSans-307" d="M -1894 4863 
L -1319 4863 
L -1319 4134 
L -1894 4134 
L -1894 4863 
z
M -1600 3584 
L -1600 3584 
z
" transform="scale(0.015625)"/>
       <path id="DejaVuSans-Oblique-71" d="M 2669 525 
Q 2438 222 2123 65 
Q 1809 -91 1428 -91 
Q 897 -91 595 267 
Q 294 625 294 1253 
Q 294 1759 480 2231 
Q 666 2703 1013 3078 
Q 1238 3322 1530 3453 
Q 1822 3584 2144 3584 
Q 2531 3584 2781 3431 
Q 3031 3278 3144 2969 
L 3244 3494 
L 3822 3494 
L 2888 -1319 
L 2309 -1319 
L 2669 525 
z
M 891 1338 
Q 891 875 1084 633 
Q 1278 391 1644 391 
Q 2188 391 2572 911 
Q 2956 1431 2956 2175 
Q 2956 2625 2757 2864 
Q 2559 3103 2188 3103 
Q 1916 3103 1684 2976 
Q 1453 2850 1281 2606 
Q 1100 2350 995 2006 
Q 891 1663 891 1338 
z
" transform="scale(0.015625)"/>
       <path id="DejaVuSans-20" transform="scale(0.015625)"/>
       <path id="DejaVuSans-28" d="M 1984 4856 
Q 1566 4138 1362 3434 
Q 1159 2731 1159 2009 
Q 1159 1288 1364 580 
Q 1569 -128 1984 -844 
L 1484 -844 
Q 1016 -109 783 600 
Q 550 1309 550 2009 
Q 550 2706 781 3412 
Q 1013 4119 1484 4856 
L 1984 4856 
z
" transform="scale(0.015625)"/>
       <path id="DejaVuSans-72" d="M 2631 2963 
Q 2534 3019 2420 3045 
Q 2306 3072 2169 3072 
Q 1681 3072 1420 2755 
Q 1159 2438 1159 1844 
L 1159 0 
L 581 0 
L 581 3500 
L 1159 3500 
L 1159 2956 
Q 1341 3275 1631 3429 
Q 1922 3584 2338 3584 
Q 2397 3584 2469 3576 
Q 2541 3569 2628 3553 
L 2631 2963 
z
" transform="scale(0.015625)"/>
       <path id="DejaVuSans-61" d="M 2194 1759 
Q 1497 1759 1228 1600 
Q 959 1441 959 1056 
Q 959 750 1161 570 
Q 1363 391 1709 391 
Q 2188 391 2477 730 
Q 2766 1069 2766 1631 
L 2766 1759 
L 2194 1759 
z
M 3341 1997 
L 3341 0 
L 2766 0 
L 2766 531 
Q 2569 213 2275 61 
Q 1981 -91 1556 -91 
Q 1019 -91 701 211 
Q 384 513 384 1019 
Q 384 1609 779 1909 
Q 1175 2209 1959 2209 
L 2766 2209 
L 2766 2266 
Q 2766 2663 2505 2880 
Q 2244 3097 1772 3097 
Q 1472 3097 1187 3025 
Q 903 2953 641 2809 
L 641 3341 
Q 956 3463 1253 3523 
Q 1550 3584 1831 3584 
Q 2591 3584 2966 3190 
Q 3341 2797 3341 1997 
z
" transform="scale(0.015625)"/>
       <path id="DejaVuSans-64" d="M 2906 2969 
L 2906 4863 
L 3481 4863 
L 3481 0 
L 2906 0 
L 2906 525 
Q 2725 213 2448 61 
Q 2172 -91 1784 -91 
Q 1150 -91 751 415 
Q 353 922 353 1747 
Q 353 2572 751 3078 
Q 1150 3584 1784 3584 
Q 2172 3584 2448 3432 
Q 2725 3281 2906 2969 
z
M 947 1747 
Q 947 1113 1208 752 
Q 1469 391 1925 391 
Q 2381 391 2643 752 
Q 2906 1113 2906 1747 
Q 2906 2381 2643 2742 
Q 2381 3103 1925 3103 
Q 1469 3103 1208 2742 
Q 947 2381 947 1747 
z
" transform="scale(0.015625)"/>
       <path id="DejaVuSans-2f" d="M 1625 4666 
L 2156 4666 
L 531 -594 
L 0 -594 
L 1625 4666 
z
" transform="scale(0.015625)"/>
       <path id="DejaVuSans-73" d="M 2834 3397 
L 2834 2853 
Q 2591 2978 2328 3040 
Q 2066 3103 1784 3103 
Q 1356 3103 1142 2972 
Q 928 2841 928 2578 
Q 928 2378 1081 2264 
Q 1234 2150 1697 2047 
L 1894 2003 
Q 2506 1872 2764 1633 
Q 3022 1394 3022 966 
Q 3022 478 2636 193 
Q 2250 -91 1575 -91 
Q 1294 -91 989 -36 
Q 684 19 347 128 
L 347 722 
Q 666 556 975 473 
Q 1284 391 1588 391 
Q 1994 391 2212 530 
Q 2431 669 2431 922 
Q 2431 1156 2273 1281 
Q 2116 1406 1581 1522 
L 1381 1569 
Q 847 1681 609 1914 
Q 372 2147 372 2553 
Q 372 3047 722 3315 
Q 1072 3584 1716 3584 
Q 2034 3584 2315 3537 
Q 2597 3491 2834 3397 
z
" transform="scale(0.015625)"/>
       <path id="DejaVuSans-29" d="M 513 4856 
L 1013 4856 
Q 1481 4119 1714 3412 
Q 1947 2706 1947 2009 
Q 1947 1309 1714 600 
Q 1481 -109 1013 -844 
L 513 -844 
Q 928 -128 1133 580 
Q 1338 1288 1338 2009 
Q 1338 2731 1133 3434 
Q 928 4138 513 4856 
z
" transform="scale(0.015625)"/>
      </defs>
      <use xlink:href="#DejaVuSans-307" transform="translate(64.462891 13.015625)"/>
      <use xlink:href="#DejaVuSans-Oblique-71" transform="translate(0 0.515625)"/>
      <use xlink:href="#DejaVuSans-31" transform="translate(64.433594 -15.890625)scale(0.7)"/>
      <use xlink:href="#DejaVuSans-20" transform="translate(111.704102 0.515625)"/>
      <use xlink:href="#DejaVuSans-28" transform="translate(143.491211 0.515625)"/>
      <use xlink:href="#DejaVuSans-72" transform="translate(182.504883 0.515625)"/>
      <use xlink:href="#DejaVuSans-61" transform="translate(223.618164 0.515625)"/>
      <use xlink:href="#DejaVuSans-64" transform="translate(284.897461 0.515625)"/>
      <use xlink:href="#DejaVuSans-2f" transform="translate(348.374023 0.515625)"/>
      <use xlink:href="#DejaVuSans-73" transform="translate(382.06543 0.515625)"/>
      <use xlink:href="#DejaVuSans-29" transform="translate(434.165039 0.515625)"/>
     </g>
    </g>
   </g>
   <g id="line2d_9">
    <path d="M 64.978512 48.433215 
L 65.416612 48.546076 
L 65.877769 48.908025 
L 66.408099 49.629615 
L 67.030661 50.885632 
L 67.756983 52.890748 
L 68.610124 55.947915 
L 69.61314 60.427246 
L 70.812149 66.860351 
L 72.345496 76.387111 
L 75.250785 96.20761 
L 77.34905 109.715772 
L 78.755579 117.398768 
L 79.885413 122.413577 
L 80.830785 125.668257 
L 81.626281 127.674793 
L 82.294959 128.814245 
L 82.859876 129.375315 
L 83.332562 129.557913 
L 83.770661 129.492562 
L 84.220289 129.191199 
L 84.727562 128.568533 
L 85.327066 127.45261 
L 86.030331 125.634132 
L 86.848884 122.858673 
L 87.817314 118.731626 
L 88.970207 112.777004 
L 90.411322 104.078979 
L 92.624876 89.157363 
L 95.507107 70.016563 
L 96.98281 61.697413 
L 98.147231 56.32143 
L 99.12719 52.782478 
L 99.945744 50.594528 
L 100.637479 49.325182 
L 101.213926 48.687005 
L 101.69814 48.450807 
L 102.13624 48.474573 
L 102.585868 48.733426 
L 103.081612 49.292267 
L 103.658058 50.297397 
L 104.338264 51.961859 
L 105.13376 54.536293 
L 106.067603 58.360171 
L 107.17438 63.884612 
L 108.546322 71.942896 
L 110.494711 84.863515 
L 114.091736 108.818914 
L 115.532851 116.824625 
L 116.685744 122.048217 
L 117.642645 125.426421 
L 118.449669 127.528009 
L 119.129876 128.736169 
L 119.706322 129.343465 
L 120.190537 129.553456 
L 120.628636 129.505926 
L 121.078264 129.222776 
L 121.585537 128.620429 
L 122.173512 127.552845 
L 122.865248 125.803342 
L 123.672273 123.119475 
L 124.617645 119.161384 
L 125.747479 113.41767 
L 127.154008 105.035182 
L 129.229215 91.147579 
L 132.434256 69.80572 
L 133.89843 61.579803 
L 135.062851 56.227291 
L 136.031281 52.746667 
L 136.849835 50.568951 
L 137.54157 49.308648 
L 138.118017 48.678188 
L 138.602231 48.44854 
L 139.040331 48.478247 
L 139.489959 48.743176 
L 139.997231 49.325182 
L 140.585207 50.369672 
L 141.276942 52.092966 
L 142.083967 54.748029 
L 143.029339 58.675502 
L 144.159174 64.388087 
L 145.554174 72.668807 
L 147.583264 86.212548 
L 150.903595 108.330604 
L 152.35624 116.474976 
L 153.520661 121.81572 
L 154.489091 125.285136 
L 155.307645 127.45261 
L 155.99938 128.703865 
L 156.575826 129.326607 
L 157.060041 129.549703 
L 157.49814 129.514055 
L 157.947769 129.243051 
L 158.455041 128.654262 
L 159.043017 127.60207 
L 159.734752 125.870033 
L 160.541777 123.205359 
L 161.487149 119.267665 
L 162.616983 113.544681 
L 164.023512 105.181378 
L 166.075661 91.465657 
L 169.338347 69.735587 
L 170.802521 61.521156 
L 171.966942 56.180412 
L 172.935372 52.710996 
L 173.753926 50.543521 
L 174.445661 49.292267 
L 175.022107 48.669525 
L 175.506322 48.446429 
L 175.944421 48.482077 
L 176.39405 48.753081 
L 176.901322 49.34187 
L 177.489298 50.394061 
L 178.181033 52.126098 
L 178.988058 54.790773 
L 179.93343 58.728467 
L 181.063264 64.45145 
L 182.469793 72.814754 
L 184.521942 86.530474 
L 187.784628 108.260545 
L 189.248802 116.474976 
L 190.413223 121.81572 
L 191.381653 125.285136 
L 192.200207 127.45261 
L 192.891942 128.703865 
L 193.468388 129.326607 
L 193.952603 129.549703 
L 194.390702 129.514055 
L 194.840331 129.243051 
L 195.347603 128.654262 
L 195.935579 127.60207 
L 196.627314 125.870033 
L 197.434339 123.205359 
L 198.379711 119.267665 
L 199.509545 113.544681 
L 200.916074 105.181378 
L 202.968223 91.465657 
L 206.230909 69.735587 
L 207.695083 61.521156 
L 208.859504 56.180412 
L 209.827934 52.710996 
L 210.646488 50.543521 
L 211.338223 49.292267 
L 211.914669 48.669525 
L 212.398884 48.446429 
L 212.54876 48.433215 
L 212.54876 48.433215 
" clip-path="url(#p22305bc8d5)" style="fill: none; stroke: #ff0000; stroke-width: 1.5; stroke-linecap: square"/>
   </g>
   <g id="line2d_10">
    <path d="M 64.978512 88.998066 
L 65.024628 156.595466 
L 65.093802 138.915196 
L 65.358967 98.943312 
L 65.601074 88.836378 
L 65.843182 86.385371 
L 66.488802 82.542774 
L 67.756983 73.153671 
L 68.287314 70.97798 
L 68.725413 69.988667 
L 69.08281 69.658853 
L 69.371033 69.670552 
L 69.682314 69.932869 
L 70.074298 70.591672 
L 70.593099 71.950301 
L 71.273306 74.422941 
L 72.172562 78.611035 
L 73.429215 85.628617 
L 78.720992 116.467909 
L 79.827769 121.042481 
L 80.750083 123.970169 
L 81.53405 125.767614 
L 82.191198 126.763034 
L 82.744587 127.23244 
L 83.217273 127.364652 
L 83.666901 127.260904 
L 84.139587 126.912061 
L 84.681446 126.213303 
L 85.304008 125.023719 
L 86.030331 123.128471 
L 86.883471 120.236381 
L 87.874959 116.037649 
L 89.050909 110.034459 
L 90.549669 101.142192 
L 93.627893 81.109068 
L 95.656983 68.785238 
L 97.051983 61.592203 
L 98.15876 56.970919 
L 99.081074 54.010765 
L 99.853512 52.220533 
L 100.510661 51.21638 
L 101.052521 50.754513 
L 101.525207 50.623151 
L 101.974835 50.732032 
L 102.447521 51.089609 
L 102.98938 51.800211 
L 103.623471 53.026938 
L 104.372851 54.998955 
L 105.260579 58.011266 
L 106.309711 62.410173 
L 107.577893 68.746628 
L 109.168884 77.910706 
L 111.739835 94.257405 
L 114.011033 108.138777 
L 115.371446 115.139009 
L 116.466694 119.681761 
L 117.400537 122.66256 
L 118.207562 124.540272 
L 118.899298 125.62961 
L 119.498802 126.188601 
L 120.017603 126.387111 
L 120.501818 126.335872 
L 120.997562 126.048255 
L 121.539421 125.462576 
L 122.161983 124.440418 
L 122.876777 122.807942 
L 123.695331 120.343931 
L 124.629174 116.785524 
L 125.724421 111.677015 
L 127.038719 104.417894 
L 128.825702 93.180673 
L 132.272851 71.316225 
L 133.621736 64.335499 
L 134.786157 59.418776 
L 135.800702 56.03636 
L 136.676901 53.836069 
L 137.414752 52.536999 
L 138.037314 51.856789 
L 138.556116 51.591767 
L 139.017273 51.591841 
L 139.47843 51.816441 
L 139.985702 52.323917 
L 140.573678 53.252035 
L 141.253884 54.773904 
L 142.037851 57.105146 
L 142.960165 60.594173 
L 144.043884 65.624783 
L 145.369711 72.914808 
L 147.191281 84.302739 
L 151.157231 109.406876 
L 152.517645 116.430468 
L 153.612893 120.989463 
L 154.535207 123.936491 
L 155.307645 125.722972 
L 155.964793 126.733087 
L 156.518182 127.213553 
L 156.990868 127.354455 
L 157.440496 127.258433 
L 157.913182 126.917229 
L 158.455041 126.2267 
L 159.077603 125.045961 
L 159.803926 123.160289 
L 160.645537 120.322024 
L 161.637025 116.143849 
L 162.812975 110.160987 
L 164.311736 101.286561 
L 167.26314 82.07512 
L 169.361405 69.239597 
L 170.779463 61.861611 
L 171.897769 57.141187 
L 172.820083 54.137968 
L 173.60405 52.286733 
L 174.261198 51.257135 
L 174.814587 50.76739 
L 175.287273 50.623696 
L 175.736901 50.720934 
L 176.209587 51.066445 
L 176.751446 51.76354 
L 177.385537 52.975067 
L 178.123388 54.896018 
L 178.999587 57.837894 
L 180.03719 62.147091 
L 181.293843 68.376059 
L 182.861777 77.350462 
L 185.29438 92.772515 
L 187.738512 107.81438 
L 189.110455 114.924697 
L 190.217231 119.55511 
L 191.151074 122.567498 
L 191.958099 124.473218 
L 192.649835 125.586494 
L 193.249339 126.165993 
L 193.76814 126.382054 
L 194.252355 126.347072 
L 194.748099 126.076024 
L 195.289959 125.508417 
L 195.912521 124.506989 
L 196.615785 122.927985 
L 197.42281 120.537882 
L 198.345124 117.07535 
L 199.417314 112.143056 
L 200.708554 105.096401 
L 202.437893 94.311375 
L 206.173264 70.669788 
L 207.51062 63.85416 
L 208.663512 59.075778 
L 209.666529 55.805017 
L 210.531198 53.692247 
L 211.257521 52.457743 
L 211.868554 51.821996 
L 212.387355 51.581732 
L 212.54876 51.564143 
L 212.54876 51.564143 
" clip-path="url(#p22305bc8d5)" style="fill: none; stroke: #1f77b4; stroke-width: 1.5; stroke-linecap: square"/>
   </g>
   <g id="line2d_11">
    <path d="M 64.978512 88.998066 
L 65.024628 156.933818 
L 65.093802 139.239767 
L 65.358967 98.927931 
L 65.601074 88.751419 
L 65.843182 86.323955 
L 66.465744 82.715543 
L 67.803099 72.892897 
L 68.321901 70.847356 
L 68.76 69.913227 
L 69.105868 69.627492 
L 69.394091 69.660218 
L 69.716901 69.958883 
L 70.120413 70.677643 
L 70.650744 72.123955 
L 71.354008 74.760599 
L 72.264793 79.096351 
L 73.567562 86.475103 
L 78.582645 115.85182 
L 79.712479 120.644226 
L 80.657851 123.739064 
L 81.453347 125.632445 
L 82.133554 126.710662 
L 82.71 127.226 
L 83.194215 127.374462 
L 83.643843 127.279595 
L 84.139587 126.917406 
L 84.692975 126.197069 
L 85.338595 124.944191 
L 86.087975 122.949651 
L 86.952645 119.961114 
L 87.96719 115.588539 
L 89.154669 109.436778 
L 90.711074 100.096591 
L 96.33719 65.079758 
L 97.570785 59.262493 
L 98.585331 55.469506 
L 99.45 53.054171 
L 100.164793 51.667601 
L 100.764298 50.944911 
L 101.283099 50.648087 
L 101.744256 50.639817 
L 102.193884 50.861427 
L 102.701157 51.380259 
L 103.289132 52.328606 
L 103.980868 53.903627 
L 104.776364 56.29011 
L 105.721736 59.853478 
L 106.85157 65.011463 
L 108.24657 72.480302 
L 110.102727 83.757175 
L 111.094215 90.123223 
L 111.140331 95.106916 
L 111.209504 93.909353 
L 111.417025 92.150312 
L 111.474669 92.115421 
L 111.520785 92.172881 
L 111.670661 92.717385 
L 112.085702 95.357817 
L 113.469174 104.161713 
L 114.944876 112.060469 
L 116.132355 117.329335 
L 117.169959 120.94318 
L 118.01157 123.123081 
L 118.726364 124.429089 
L 119.360455 125.168692 
L 119.902314 125.491497 
L 120.398058 125.540547 
L 120.870744 125.369418 
L 121.389545 124.938763 
L 121.977521 124.1435 
L 122.646198 122.843543 
L 123.407107 120.856705 
L 124.294835 117.871068 
L 125.30938 113.628656 
L 126.508388 107.605462 
L 128.064793 98.525398 
L 133.195165 67.55196 
L 134.394174 62.19263 
L 135.454835 58.395755 
L 136.36562 55.88689 
L 137.161116 54.300382 
L 137.818264 53.439185 
L 138.383182 53.037613 
L 138.867397 52.949875 
L 139.328554 53.089797 
L 139.824298 53.48512 
L 140.389215 54.245124 
L 141.034835 55.512978 
L 141.795744 57.539636 
L 142.660413 60.509062 
L 143.66343 64.767872 
L 144.885496 70.973012 
L 146.522603 80.577482 
L 151.837438 112.69545 
L 153.036446 118.124238 
L 154.016405 121.625381 
L 154.869545 123.903704 
L 155.57281 125.21021 
L 156.160785 125.894454 
L 156.668058 126.182403 
L 157.117686 126.203087 
L 157.567314 126.004265 
L 158.086116 125.503206 
L 158.662562 124.610879 
L 159.33124 123.143031 
L 160.115207 120.850785 
L 161.025992 117.456064 
L 162.098182 112.543654 
L 163.40095 105.455162 
L 165.245579 94.010411 
L 169.073182 70.025276 
L 170.537355 62.411503 
L 171.678719 57.584966 
L 172.63562 54.463749 
L 173.431116 52.586701 
L 174.099793 51.541366 
L 174.641653 51.058911 
L 175.125868 50.906704 
L 175.563967 50.994401 
L 176.048182 51.33898 
L 176.590041 52.027731 
L 177.224132 53.22921 
L 177.961983 55.140321 
L 178.826653 58.034494 
L 179.852727 62.288981 
L 181.097851 68.46372 
L 182.654256 77.390535 
L 185.098388 92.944057 
L 187.55405 108.160384 
L 188.937521 115.400138 
L 190.055826 120.128839 
L 190.989669 123.179466 
L 191.796694 125.116919 
L 192.499959 126.270017 
L 193.087934 126.85351 
L 193.606736 127.083062 
L 194.079421 127.061334 
L 194.575165 126.802522 
L 195.117025 126.244797 
L 195.728058 125.2709 
L 196.419793 123.728231 
L 197.226818 121.344616 
L 198.149132 117.873352 
L 199.232851 112.848389 
L 200.501033 105.84767 
L 202.172727 95.270285 
L 206.277025 68.826386 
L 207.602851 62.098958 
L 208.721157 57.489686 
L 209.712645 54.274998 
L 210.565785 52.214081 
L 211.26905 51.041197 
L 211.857025 50.445445 
L 212.375826 50.221554 
L 212.54876 50.210778 
L 212.54876 50.210778 
" clip-path="url(#p22305bc8d5)" style="fill: none; stroke: #ff7f0e; stroke-width: 1.5; stroke-linecap: square"/>
   </g>
   <g id="line2d_12">
    <path d="M 64.978512 88.998066 
L 65.013099 155.394305 
L 65.093802 136.516009 
L 65.358967 94.108405 
L 65.601074 83.433423 
L 65.820124 81.313518 
L 66.604091 78.025726 
L 67.814628 70.54655 
L 68.33343 68.79842 
L 68.748471 68.078079 
L 69.071281 67.894598 
L 69.347975 67.97594 
L 69.682314 68.341135 
L 70.097355 69.159477 
L 70.650744 70.795212 
L 71.365537 73.666018 
L 72.333967 78.585299 
L 73.69438 86.769534 
L 78.259835 115.105324 
L 79.481901 120.94418 
L 80.507975 124.824396 
L 81.361116 127.240668 
L 82.075909 128.655058 
L 82.686942 129.402835 
L 83.194215 129.692585 
L 83.632314 129.698459 
L 84.070413 129.477422 
L 84.566157 128.9538 
L 85.142603 127.985172 
L 85.82281 126.356044 
L 86.595248 123.896148 
L 87.517562 120.170761 
L 88.601281 114.827572 
L 89.950165 107.010179 
L 91.887025 94.367731 
L 95.991322 67.369158 
L 97.374793 59.795272 
L 98.48157 54.889329 
L 99.392355 51.799249 
L 100.153264 49.938227 
L 100.810413 48.881289 
L 101.352273 48.397839 
L 101.81343 48.262122 
L 102.24 48.36024 
L 102.689628 48.693502 
L 103.219959 49.382309 
L 103.85405 50.614481 
L 104.580372 52.548437 
L 105.433512 55.491307 
L 106.436529 59.806114 
L 107.589421 65.786904 
L 109.007479 74.389161 
L 111.013512 88.044232 
L 111.094215 88.609354 
L 111.140331 93.628125 
L 111.209504 92.465826 
L 111.417025 90.814695 
L 111.474669 90.804205 
L 111.509256 90.855624 
L 111.659132 91.424151 
L 112.051116 94.044421 
L 113.642107 104.941577 
L 115.175455 113.87724 
L 116.501281 120.33894 
L 117.561942 124.421741 
L 118.392025 126.81663 
L 119.118347 128.26977 
L 119.683264 128.961583 
L 120.179008 129.243905 
L 120.605579 129.242864 
L 121.032149 129.017235 
L 121.527893 128.478755 
L 122.115868 127.467247 
L 122.807603 125.785629 
L 123.626157 123.158827 
L 124.606116 119.196883 
L 125.770537 113.489558 
L 127.177066 105.425425 
L 129.079339 93.104797 
L 133.125992 66.548744 
L 134.371116 60.096533 
L 135.39719 55.871196 
L 136.273388 53.115562 
L 137.045826 51.361123 
L 137.702975 50.374217 
L 138.256364 49.908379 
L 138.72905 49.776486 
L 139.178678 49.879498 
L 139.651364 50.228219 
L 140.193223 50.929742 
L 140.815785 52.129797 
L 141.542107 54.050694 
L 142.37219 56.906239 
L 143.352149 61.12051 
L 144.539628 67.298735 
L 145.980744 76.012263 
L 148.470992 92.604814 
L 150.788306 107.478688 
L 152.229421 115.411063 
L 153.416901 120.77246 
L 154.408388 124.263295 
L 155.226942 126.390725 
L 155.930207 127.636738 
L 156.506653 128.24151 
L 157.002397 128.455169 
L 157.428967 128.410408 
L 157.878595 128.133935 
L 158.374339 127.557044 
L 158.950785 126.532961 
L 159.642521 124.81558 
L 160.449545 122.169974 
L 161.383388 118.313351 
L 162.524752 112.591694 
L 163.988926 103.993026 
L 166.294711 88.900812 
L 169.338347 69.237146 
L 170.848636 60.853938 
L 171.99 55.68428 
L 172.912314 52.451089 
L 173.684752 50.473204 
L 174.35343 49.326207 
L 174.906818 48.780506 
L 175.379504 48.60445 
L 175.806074 48.673226 
L 176.255702 48.976433 
L 176.786033 49.632484 
L 177.385537 50.752011 
L 178.100331 52.589164 
L 178.941942 55.411841 
L 179.93343 59.579334 
L 181.086322 65.447702 
L 182.492851 73.852796 
L 184.360537 86.447009 
L 187.715455 109.216859 
L 189.202686 117.714786 
L 190.390165 123.25166 
L 191.347066 126.723879 
L 192.142562 128.846539 
L 192.799711 130.034033 
L 193.353099 130.620335 
L 193.814256 130.814386 
L 194.240826 130.754872 
L 194.690455 130.445926 
L 195.186198 129.818155 
L 195.774174 128.694479 
L 196.488967 126.802635 
L 197.330579 123.886576 
L 198.310537 119.647039 
L 199.474959 113.587318 
L 200.916074 104.846242 
L 202.818347 91.848227 
L 206.657479 65.340318 
L 207.914132 58.419165 
L 208.963264 53.804174 
L 209.87405 50.732277 
L 210.658017 48.806034 
L 211.338223 47.684294 
L 211.90314 47.146501 
L 212.387355 46.973188 
L 212.54876 46.97472 
L 212.54876 46.97472 
" clip-path="url(#p22305bc8d5)" style="fill: none; stroke: #2ca02c; stroke-width: 1.5; stroke-linecap: square"/>
   </g>
   <g id="patch_3">
    <path d="M 57.6 162.432 
L 57.6 41.472 
" style="fill: none; stroke: #000000; stroke-width: 0.8; stroke-linejoin: miter; stroke-linecap: square"/>
   </g>
   <g id="patch_4">
    <path d="M 219.927273 162.432 
L 219.927273 41.472 
" style="fill: none; stroke: #000000; stroke-width: 0.8; stroke-linejoin: miter; stroke-linecap: square"/>
   </g>
   <g id="patch_5">
    <path d="M 57.6 162.432 
L 219.927273 162.432 
" style="fill: none; stroke: #000000; stroke-width: 0.8; stroke-linejoin: miter; stroke-linecap: square"/>
   </g>
   <g id="patch_6">
    <path d="M 57.6 41.472 
L 219.927273 41.472 
" style="fill: none; stroke: #000000; stroke-width: 0.8; stroke-linejoin: miter; stroke-linecap: square"/>
   </g>
   <g id="legend_1">
    <g id="patch_7">
     <path d="M 173.639806 84.816634 
L 214.096273 84.816634 
Q 215.762273 84.816634 215.762273 83.150634 
L 215.762273 47.303 
Q 215.762273 45.637 214.096273 45.637 
L 173.639806 45.637 
Q 171.973806 45.637 171.973806 47.303 
L 171.973806 83.150634 
Q 171.973806 84.816634 173.639806 84.816634 
z
" style="fill: #ffffff; opacity: 0.8; stroke: #cccccc; stroke-linejoin: miter"/>
    </g>
    <g id="line2d_13">
     <path d="M 175.305806 52.382998 
L 183.635806 52.382998 
L 191.965806 52.382998 
" style="fill: none; stroke: #1f77b4; stroke-width: 1.5; stroke-linecap: square"/>
    </g>
    <g id="text_10">
     <!-- our -->
     <g transform="translate(198.629806 55.298498)scale(0.0833 -0.0833)">
      <defs>
       <path id="DejaVuSans-6f" d="M 1959 3097 
Q 1497 3097 1228 2736 
Q 959 2375 959 1747 
Q 959 1119 1226 758 
Q 1494 397 1959 397 
Q 2419 397 2687 759 
Q 2956 1122 2956 1747 
Q 2956 2369 2687 2733 
Q 2419 3097 1959 3097 
z
M 1959 3584 
Q 2709 3584 3137 3096 
Q 3566 2609 3566 1747 
Q 3566 888 3137 398 
Q 2709 -91 1959 -91 
Q 1206 -91 779 398 
Q 353 888 353 1747 
Q 353 2609 779 3096 
Q 1206 3584 1959 3584 
z
" transform="scale(0.015625)"/>
       <path id="DejaVuSans-75" d="M 544 1381 
L 544 3500 
L 1119 3500 
L 1119 1403 
Q 1119 906 1312 657 
Q 1506 409 1894 409 
Q 2359 409 2629 706 
Q 2900 1003 2900 1516 
L 2900 3500 
L 3475 3500 
L 3475 0 
L 2900 0 
L 2900 538 
Q 2691 219 2414 64 
Q 2138 -91 1772 -91 
Q 1169 -91 856 284 
Q 544 659 544 1381 
z
M 1991 3584 
L 1991 3584 
z
" transform="scale(0.015625)"/>
      </defs>
      <use xlink:href="#DejaVuSans-6f"/>
      <use xlink:href="#DejaVuSans-75" x="61.181641"/>
      <use xlink:href="#DejaVuSans-72" x="124.560547"/>
     </g>
    </g>
    <g id="line2d_14">
     <path d="M 175.305806 64.609877 
L 183.635806 64.609877 
L 191.965806 64.609877 
" style="fill: none; stroke: #ff7f0e; stroke-width: 1.5; stroke-linecap: square"/>
    </g>
    <g id="text_11">
     <!-- g -->
     <g transform="translate(198.629806 67.525377)scale(0.0833 -0.0833)">
      <defs>
       <path id="DejaVuSans-67" d="M 2906 1791 
Q 2906 2416 2648 2759 
Q 2391 3103 1925 3103 
Q 1463 3103 1205 2759 
Q 947 2416 947 1791 
Q 947 1169 1205 825 
Q 1463 481 1925 481 
Q 2391 481 2648 825 
Q 2906 1169 2906 1791 
z
M 3481 434 
Q 3481 -459 3084 -895 
Q 2688 -1331 1869 -1331 
Q 1566 -1331 1297 -1286 
Q 1028 -1241 775 -1147 
L 775 -588 
Q 1028 -725 1275 -790 
Q 1522 -856 1778 -856 
Q 2344 -856 2625 -561 
Q 2906 -266 2906 331 
L 2906 616 
Q 2728 306 2450 153 
Q 2172 0 1784 0 
Q 1141 0 747 490 
Q 353 981 353 1791 
Q 353 2603 747 3093 
Q 1141 3584 1784 3584 
Q 2172 3584 2450 3431 
Q 2728 3278 2906 2969 
L 2906 3500 
L 3481 3500 
L 3481 434 
z
" transform="scale(0.015625)"/>
      </defs>
      <use xlink:href="#DejaVuSans-67"/>
     </g>
    </g>
    <g id="line2d_15">
     <path d="M 175.305806 76.836755 
L 183.635806 76.836755 
L 191.965806 76.836755 
" style="fill: none; stroke: #2ca02c; stroke-width: 1.5; stroke-linecap: square"/>
    </g>
    <g id="text_12">
     <!-- og -->
     <g transform="translate(198.629806 79.752255)scale(0.0833 -0.0833)">
      <use xlink:href="#DejaVuSans-6f"/>
      <use xlink:href="#DejaVuSans-67" x="61.181641"/>
     </g>
    </g>
   </g>
  </g>
  <g id="axes_2">
   <g id="patch_8">
    <path d="M 57.6 307.584 
L 219.927273 307.584 
L 219.927273 186.624 
L 57.6 186.624 
z
" style="fill: #ffffff"/>
   </g>
   <g id="matplotlib.axis_3">
    <g id="xtick_5">
     <g id="line2d_16">
      <g>
       <use xlink:href="#m98a88d24ab" x="64.978512" y="307.584" style="stroke: #000000; stroke-width: 0.8"/>
      </g>
     </g>
     <g id="text_13">
      <!-- 0 -->
      <g transform="translate(61.797262 322.182437)scale(0.1 -0.1)">
       <use xlink:href="#DejaVuSans-30"/>
      </g>
     </g>
    </g>
    <g id="xtick_6">
     <g id="line2d_17">
      <g>
       <use xlink:href="#m98a88d24ab" x="111.094215" y="307.584" style="stroke: #000000; stroke-width: 0.8"/>
      </g>
     </g>
     <g id="text_14">
      <!-- 10 -->
      <g transform="translate(104.731715 322.182437)scale(0.1 -0.1)">
       <use xlink:href="#DejaVuSans-31"/>
       <use xlink:href="#DejaVuSans-30" x="63.623047"/>
      </g>
     </g>
    </g>
    <g id="xtick_7">
     <g id="line2d_18">
      <g>
       <use xlink:href="#m98a88d24ab" x="157.209917" y="307.584" style="stroke: #000000; stroke-width: 0.8"/>
      </g>
     </g>
     <g id="text_15">
      <!-- 20 -->
      <g transform="translate(150.847417 322.182437)scale(0.1 -0.1)">
       <use xlink:href="#DejaVuSans-32"/>
       <use xlink:href="#DejaVuSans-30" x="63.623047"/>
      </g>
     </g>
    </g>
    <g id="xtick_8">
     <g id="line2d_19">
      <g>
       <use xlink:href="#m98a88d24ab" x="203.32562" y="307.584" style="stroke: #000000; stroke-width: 0.8"/>
      </g>
     </g>
     <g id="text_16">
      <!-- 30 -->
      <g transform="translate(196.96312 322.182437)scale(0.1 -0.1)">
       <use xlink:href="#DejaVuSans-33"/>
       <use xlink:href="#DejaVuSans-30" x="63.623047"/>
      </g>
     </g>
    </g>
   </g>
   <g id="matplotlib.axis_4">
    <g id="ytick_5">
     <g id="line2d_20">
      <g>
       <use xlink:href="#m6011c5d917" x="57.6" y="302.085858" style="stroke: #000000; stroke-width: 0.8"/>
      </g>
     </g>
     <g id="text_17">
      <!-- 0.0 -->
      <g transform="translate(34.696875 305.885077)scale(0.1 -0.1)">
       <use xlink:href="#DejaVuSans-30"/>
       <use xlink:href="#DejaVuSans-2e" x="63.623047"/>
       <use xlink:href="#DejaVuSans-30" x="95.410156"/>
      </g>
     </g>
    </g>
    <g id="ytick_6">
     <g id="line2d_21">
      <g>
       <use xlink:href="#m6011c5d917" x="57.6" y="275.912942" style="stroke: #000000; stroke-width: 0.8"/>
      </g>
     </g>
     <g id="text_18">
      <!-- 0.5 -->
      <g transform="translate(34.696875 279.712161)scale(0.1 -0.1)">
       <use xlink:href="#DejaVuSans-30"/>
       <use xlink:href="#DejaVuSans-2e" x="63.623047"/>
       <use xlink:href="#DejaVuSans-35" x="95.410156"/>
      </g>
     </g>
    </g>
    <g id="ytick_7">
     <g id="line2d_22">
      <g>
       <use xlink:href="#m6011c5d917" x="57.6" y="249.740026" style="stroke: #000000; stroke-width: 0.8"/>
      </g>
     </g>
     <g id="text_19">
      <!-- 1.0 -->
      <g transform="translate(34.696875 253.539244)scale(0.1 -0.1)">
       <use xlink:href="#DejaVuSans-31"/>
       <use xlink:href="#DejaVuSans-2e" x="63.623047"/>
       <use xlink:href="#DejaVuSans-30" x="95.410156"/>
      </g>
     </g>
    </g>
    <g id="ytick_8">
     <g id="line2d_23">
      <g>
       <use xlink:href="#m6011c5d917" x="57.6" y="223.567109" style="stroke: #000000; stroke-width: 0.8"/>
      </g>
     </g>
     <g id="text_20">
      <!-- 1.5 -->
      <g transform="translate(34.696875 227.366328)scale(0.1 -0.1)">
       <use xlink:href="#DejaVuSans-31"/>
       <use xlink:href="#DejaVuSans-2e" x="63.623047"/>
       <use xlink:href="#DejaVuSans-35" x="95.410156"/>
      </g>
     </g>
    </g>
    <g id="ytick_9">
     <g id="line2d_24">
      <g>
       <use xlink:href="#m6011c5d917" x="57.6" y="197.394193" style="stroke: #000000; stroke-width: 0.8"/>
      </g>
     </g>
     <g id="text_21">
      <!-- 2.0 -->
      <g transform="translate(34.696875 201.193412)scale(0.1 -0.1)">
       <use xlink:href="#DejaVuSans-32"/>
       <use xlink:href="#DejaVuSans-2e" x="63.623047"/>
       <use xlink:href="#DejaVuSans-30" x="95.410156"/>
      </g>
     </g>
    </g>
    <g id="text_22">
     <!-- $e\dot{q}_1$ (rad/s) -->
     <g transform="translate(28.596875 273.854)rotate(-90)scale(0.1 -0.1)">
      <defs>
       <path id="DejaVuSans-Oblique-65" d="M 3078 2063 
Q 3088 2113 3092 2166 
Q 3097 2219 3097 2272 
Q 3097 2653 2873 2875 
Q 2650 3097 2266 3097 
Q 1838 3097 1509 2826 
Q 1181 2556 1013 2059 
L 3078 2063 
z
M 3578 1613 
L 903 1613 
Q 884 1494 878 1425 
Q 872 1356 872 1306 
Q 872 872 1139 634 
Q 1406 397 1894 397 
Q 2269 397 2603 481 
Q 2938 566 3225 728 
L 3116 159 
Q 2806 34 2476 -28 
Q 2147 -91 1806 -91 
Q 1078 -91 686 257 
Q 294 606 294 1247 
Q 294 1794 489 2264 
Q 684 2734 1063 3103 
Q 1306 3334 1642 3459 
Q 1978 3584 2356 3584 
Q 2950 3584 3301 3228 
Q 3653 2872 3653 2272 
Q 3653 2128 3634 1964 
Q 3616 1800 3578 1613 
z
" transform="scale(0.015625)"/>
      </defs>
      <use xlink:href="#DejaVuSans-Oblique-65" transform="translate(0 0.515625)"/>
      <use xlink:href="#DejaVuSans-307" transform="translate(125.986328 13.015625)"/>
      <use xlink:href="#DejaVuSans-Oblique-71" transform="translate(61.523438 0.515625)"/>
      <use xlink:href="#DejaVuSans-31" transform="translate(125.957031 -15.890625)scale(0.7)"/>
      <use xlink:href="#DejaVuSans-20" transform="translate(173.227539 0.515625)"/>
      <use xlink:href="#DejaVuSans-28" transform="translate(205.014648 0.515625)"/>
      <use xlink:href="#DejaVuSans-72" transform="translate(244.02832 0.515625)"/>
      <use xlink:href="#DejaVuSans-61" transform="translate(285.141602 0.515625)"/>
      <use xlink:href="#DejaVuSans-64" transform="translate(346.420898 0.515625)"/>
      <use xlink:href="#DejaVuSans-2f" transform="translate(409.897461 0.515625)"/>
      <use xlink:href="#DejaVuSans-73" transform="translate(443.588867 0.515625)"/>
      <use xlink:href="#DejaVuSans-29" transform="translate(495.688477 0.515625)"/>
     </g>
    </g>
   </g>
   <g id="line2d_25">
    <path d="M 64.978512 260.973537 
L 65.024628 192.4651 
L 65.093802 210.390643 
L 65.358967 250.980343 
L 65.612603 261.592146 
L 65.86624 264.207257 
L 66.39657 267.973098 
L 68.552479 287.309763 
L 69.324917 291.33832 
L 70.097355 294.236836 
L 70.892851 296.386569 
L 71.722934 298.003624 
L 72.610661 299.252986 
L 73.59062 300.251316 
L 74.731983 301.092716 
L 76.138512 301.84434 
L 76.80719 302.03682 
L 79.585661 301.011154 
L 82.998223 299.935489 
L 84.75062 299.621248 
L 86.433843 299.548008 
L 88.485992 299.695386 
L 90.907066 300.087071 
L 92.774752 300.60726 
L 95.034421 301.497056 
L 96.579298 302.029969 
L 103.658058 299.239601 
L 104.995413 299.048193 
L 106.194421 299.101241 
L 107.416488 299.382879 
L 108.949835 299.983246 
L 113.745868 302.014613 
L 116.08624 300.816901 
L 119.268223 299.145231 
L 120.386529 298.851384 
L 121.424132 298.808713 
L 122.542438 298.992098 
L 123.995083 299.475081 
L 129.759545 301.614425 
L 131.373595 301.99044 
L 132.780124 301.27145 
L 136.377149 299.275766 
L 137.553099 298.984517 
L 138.775165 298.912966 
L 140.170165 299.061129 
L 141.887975 299.479871 
L 144.804793 300.4637 
L 149.693058 302.075107 
L 157.763306 299.723446 
L 159.446529 299.552023 
L 161.279628 299.598179 
L 163.689174 299.894821 
L 165.752851 300.353356 
L 167.643595 301.01088 
L 170.422066 302.006298 
L 177.454711 299.236969 
L 178.780537 299.048193 
L 179.979545 299.101242 
L 181.201612 299.382879 
L 182.734959 299.983246 
L 187.530992 302.014613 
L 189.871364 300.816901 
L 193.053347 299.145231 
L 194.171653 298.851384 
L 195.209256 298.808713 
L 196.327562 298.992098 
L 197.780207 299.475081 
L 203.544669 301.614425 
L 205.158719 301.99044 
L 206.565248 301.27145 
L 210.162273 299.275766 
L 211.338223 298.984517 
L 212.54876 298.912674 
L 212.54876 298.912674 
" clip-path="url(#p14ae582efe)" style="fill: none; stroke: #1f77b4; stroke-linecap: square"/>
   </g>
   <g id="line2d_26">
    <path d="M 64.978512 260.973537 
L 65.024628 192.122182 
L 65.093802 210.061692 
L 65.358967 250.995931 
L 65.601074 261.454391 
L 65.843182 264.128717 
L 66.442686 268.427583 
L 68.391074 286.315415 
L 69.163512 290.62583 
L 69.93595 293.722782 
L 70.731446 296.011968 
L 71.55 297.706441 
L 72.449256 299.043761 
L 73.336983 300.004773 
L 74.34 300.80983 
L 75.642769 301.576772 
L 76.830248 302.058083 
L 79.758595 300.97702 
L 83.816777 299.766103 
L 85.511529 299.558797 
L 87.563678 299.590825 
L 89.857934 299.862408 
L 92.013843 300.335137 
L 93.939174 301.009275 
L 96.752231 301.990244 
L 100.94876 300.188621 
L 103.070083 299.393677 
L 104.418967 299.094338 
L 105.617975 299.034977 
L 106.840041 299.205206 
L 108.350331 299.701624 
L 111.094215 300.945516 
L 111.128802 296.216507 
L 111.209504 297.915474 
L 111.46314 301.511138 
L 111.57843 302.074544 
L 111.624545 301.931778 
L 111.855124 301.634455 
L 112.166405 301.632459 
L 112.742851 301.601763 
L 113.423058 301.300071 
L 118.922355 298.311877 
L 120.075248 298.038736 
L 121.055207 298.034335 
L 122.069752 298.254224 
L 123.38405 298.81222 
L 125.320909 299.928487 
L 128.814174 301.898738 
L 129.321446 302.027071 
L 132.457314 300.35545 
L 136.423264 297.890198 
L 137.530041 297.585395 
L 138.705992 297.507547 
L 139.893471 297.64824 
L 141.346116 298.052558 
L 143.12157 298.780041 
L 145.969215 300.188279 
L 149.716116 302.069196 
L 157.267562 298.640113 
L 158.800909 298.297529 
L 160.230496 298.184704 
L 162.144298 298.285159 
L 164.26562 298.64218 
L 165.914256 299.137743 
L 167.493719 299.846412 
L 170.548884 301.601334 
L 171.459669 302.021631 
L 177.039669 298.758885 
L 178.446198 298.283909 
L 179.748967 298.106317 
L 180.959504 298.188914 
L 182.354504 298.539219 
L 184.625702 299.419775 
L 187.946033 300.959546 
L 189.594669 301.953327 
L 189.882893 302.025517 
L 193.145579 299.923531 
L 194.31 299.484331 
L 195.416777 299.310381 
L 196.719545 299.36556 
L 198.518058 299.703576 
L 202.011322 300.39894 
L 205.297066 301.028248 
L 206.692066 301.665858 
L 207.522149 302.026881 
L 209.701116 300.873408 
L 210.923182 300.485851 
L 212.352769 300.292387 
L 212.54876 300.284304 
L 212.54876 300.284304 
" clip-path="url(#p14ae582efe)" style="fill: none; stroke: #ff7f0e; stroke-linecap: square"/>
   </g>
   <g id="line2d_27">
    <path d="M 64.978512 260.973537 
L 65.013099 193.681918 
L 65.093802 212.822209 
L 65.358967 255.880502 
L 65.601074 266.844159 
L 65.831653 269.237804 
L 66.477273 272.587164 
L 67.399587 280.976922 
L 68.264256 287.537296 
L 69.036694 291.791717 
L 69.809132 294.843112 
L 70.570041 296.973973 
L 71.33095 298.47373 
L 72.114917 299.54653 
L 72.945 300.319016 
L 73.821198 300.862361 
L 75.008678 301.321126 
L 76.634256 301.663 
L 79.193678 301.883568 
L 82.087438 301.925975 
L 87.263926 302.00549 
L 90.584256 302.044881 
L 96.314132 301.882901 
L 98.055 302.021864 
L 99.841983 301.86959 
L 101.905661 301.914966 
L 104.845537 301.943846 
L 110.794463 301.662949 
L 111.094215 301.6919 
L 111.140331 297.716203 
L 111.209504 299.378483 
L 111.370909 302.064988 
L 111.417025 301.667875 
L 111.659132 300.595317 
L 111.866653 300.46095 
L 112.166405 300.598125 
L 112.904256 300.908157 
L 113.688223 300.959124 
L 116.316818 301.089693 
L 120.997562 301.83525 
L 125.401612 301.96232 
L 130.393636 301.069421 
L 131.96157 301.175369 
L 134.117479 301.25939 
L 135.696942 301.075859 
L 138.556116 300.73003 
L 140.481446 300.792119 
L 143.44438 301.166955 
L 146.787769 301.571609 
L 150.673017 301.957789 
L 154.777314 301.253781 
L 159.769339 300.742641 
L 163.170372 300.616018 
L 164.957355 300.769118 
L 167.078678 301.194427 
L 168.992479 301.545313 
L 171.159917 301.65186 
L 173.465702 301.822746 
L 175.241157 301.990595 
L 178.780537 301.299749 
L 180.509876 301.209757 
L 183.818678 301.097049 
L 189.225744 300.589665 
L 191.543058 300.520864 
L 193.399215 300.687915 
L 194.840331 301.027282 
L 198.863926 302.039069 
L 204.317107 300.977185 
L 207.060992 300.12856 
L 208.294587 300.052195 
L 209.816405 300.214668 
L 212.54876 300.60768 
L 212.54876 300.60768 
" clip-path="url(#p14ae582efe)" style="fill: none; stroke: #2ca02c; stroke-linecap: square"/>
   </g>
   <g id="patch_9">
    <path d="M 57.6 307.584 
L 57.6 186.624 
" style="fill: none; stroke: #000000; stroke-width: 0.8; stroke-linejoin: miter; stroke-linecap: square"/>
   </g>
   <g id="patch_10">
    <path d="M 219.927273 307.584 
L 219.927273 186.624 
" style="fill: none; stroke: #000000; stroke-width: 0.8; stroke-linejoin: miter; stroke-linecap: square"/>
   </g>
   <g id="patch_11">
    <path d="M 57.6 307.584 
L 219.927273 307.584 
" style="fill: none; stroke: #000000; stroke-width: 0.8; stroke-linejoin: miter; stroke-linecap: square"/>
   </g>
   <g id="patch_12">
    <path d="M 57.6 186.624 
L 219.927273 186.624 
" style="fill: none; stroke: #000000; stroke-width: 0.8; stroke-linejoin: miter; stroke-linecap: square"/>
   </g>
   <g id="legend_2">
    <g id="patch_13">
     <path d="M 173.639806 229.968634 
L 214.096273 229.968634 
Q 215.762273 229.968634 215.762273 228.302634 
L 215.762273 192.455 
Q 215.762273 190.789 214.096273 190.789 
L 173.639806 190.789 
Q 171.973806 190.789 171.973806 192.455 
L 171.973806 228.302634 
Q 171.973806 229.968634 173.639806 229.968634 
z
" style="fill: #ffffff; opacity: 0.8; stroke: #cccccc; stroke-linejoin: miter"/>
    </g>
    <g id="line2d_28">
     <path d="M 175.305806 197.534998 
L 183.635806 197.534998 
L 191.965806 197.534998 
" style="fill: none; stroke: #1f77b4; stroke-linecap: square"/>
    </g>
    <g id="text_23">
     <!-- our -->
     <g transform="translate(198.629806 200.450498)scale(0.0833 -0.0833)">
      <use xlink:href="#DejaVuSans-6f"/>
      <use xlink:href="#DejaVuSans-75" x="61.181641"/>
      <use xlink:href="#DejaVuSans-72" x="124.560547"/>
     </g>
    </g>
    <g id="line2d_29">
     <path d="M 175.305806 209.761877 
L 183.635806 209.761877 
L 191.965806 209.761877 
" style="fill: none; stroke: #ff7f0e; stroke-linecap: square"/>
    </g>
    <g id="text_24">
     <!-- g -->
     <g transform="translate(198.629806 212.677377)scale(0.0833 -0.0833)">
      <use xlink:href="#DejaVuSans-67"/>
     </g>
    </g>
    <g id="line2d_30">
     <path d="M 175.305806 221.988755 
L 183.635806 221.988755 
L 191.965806 221.988755 
" style="fill: none; stroke: #2ca02c; stroke-linecap: square"/>
    </g>
    <g id="text_25">
     <!-- og -->
     <g transform="translate(198.629806 224.904255)scale(0.0833 -0.0833)">
      <use xlink:href="#DejaVuSans-6f"/>
      <use xlink:href="#DejaVuSans-67" x="61.181641"/>
     </g>
    </g>
   </g>
  </g>
  <g id="axes_3">
   <g id="patch_14">
    <path d="M 252.392727 162.432 
L 414.72 162.432 
L 414.72 41.472 
L 252.392727 41.472 
z
" style="fill: #ffffff"/>
   </g>
   <g id="matplotlib.axis_5">
    <g id="xtick_9">
     <g id="line2d_31">
      <g>
       <use xlink:href="#m98a88d24ab" x="259.77124" y="162.432" style="stroke: #000000; stroke-width: 0.8"/>
      </g>
     </g>
     <g id="text_26">
      <!-- 0 -->
      <g transform="translate(256.58999 177.030437)scale(0.1 -0.1)">
       <use xlink:href="#DejaVuSans-30"/>
      </g>
     </g>
    </g>
    <g id="xtick_10">
     <g id="line2d_32">
      <g>
       <use xlink:href="#m98a88d24ab" x="305.886942" y="162.432" style="stroke: #000000; stroke-width: 0.8"/>
      </g>
     </g>
     <g id="text_27">
      <!-- 10 -->
      <g transform="translate(299.524442 177.030437)scale(0.1 -0.1)">
       <use xlink:href="#DejaVuSans-31"/>
       <use xlink:href="#DejaVuSans-30" x="63.623047"/>
      </g>
     </g>
    </g>
    <g id="xtick_11">
     <g id="line2d_33">
      <g>
       <use xlink:href="#m98a88d24ab" x="352.002645" y="162.432" style="stroke: #000000; stroke-width: 0.8"/>
      </g>
     </g>
     <g id="text_28">
      <!-- 20 -->
      <g transform="translate(345.640145 177.030437)scale(0.1 -0.1)">
       <use xlink:href="#DejaVuSans-32"/>
       <use xlink:href="#DejaVuSans-30" x="63.623047"/>
      </g>
     </g>
    </g>
    <g id="xtick_12">
     <g id="line2d_34">
      <g>
       <use xlink:href="#m98a88d24ab" x="398.118347" y="162.432" style="stroke: #000000; stroke-width: 0.8"/>
      </g>
     </g>
     <g id="text_29">
      <!-- 30 -->
      <g transform="translate(391.755847 177.030437)scale(0.1 -0.1)">
       <use xlink:href="#DejaVuSans-33"/>
       <use xlink:href="#DejaVuSans-30" x="63.623047"/>
      </g>
     </g>
    </g>
   </g>
   <g id="matplotlib.axis_6">
    <g id="ytick_10">
     <g id="line2d_35">
      <g>
       <use xlink:href="#m6011c5d917" x="252.392727" y="136.226257" style="stroke: #000000; stroke-width: 0.8"/>
      </g>
     </g>
     <g id="text_30">
      <!-- 0 -->
      <g transform="translate(239.030227 140.025476)scale(0.1 -0.1)">
       <use xlink:href="#DejaVuSans-30"/>
      </g>
     </g>
    </g>
    <g id="ytick_11">
     <g id="line2d_36">
      <g>
       <use xlink:href="#m6011c5d917" x="252.392727" y="104.145436" style="stroke: #000000; stroke-width: 0.8"/>
      </g>
     </g>
     <g id="text_31">
      <!-- 2 -->
      <g transform="translate(239.030227 107.944655)scale(0.1 -0.1)">
       <use xlink:href="#DejaVuSans-32"/>
      </g>
     </g>
    </g>
    <g id="ytick_12">
     <g id="line2d_37">
      <g>
       <use xlink:href="#m6011c5d917" x="252.392727" y="72.064616" style="stroke: #000000; stroke-width: 0.8"/>
      </g>
     </g>
     <g id="text_32">
      <!-- 4 -->
      <g transform="translate(239.030227 75.863835)scale(0.1 -0.1)">
       <defs>
        <path id="DejaVuSans-34" d="M 2419 4116 
L 825 1625 
L 2419 1625 
L 2419 4116 
z
M 2253 4666 
L 3047 4666 
L 3047 1625 
L 3713 1625 
L 3713 1100 
L 3047 1100 
L 3047 0 
L 2419 0 
L 2419 1100 
L 313 1100 
L 313 1709 
L 2253 4666 
z
" transform="scale(0.015625)"/>
       </defs>
       <use xlink:href="#DejaVuSans-34"/>
      </g>
     </g>
    </g>
    <g id="text_33">
     <!-- $\dot{q}_2$ (rad/s) -->
     <g transform="translate(232.930227 125.652)rotate(-90)scale(0.1 -0.1)">
      <use xlink:href="#DejaVuSans-307" transform="translate(64.462891 13.015625)"/>
      <use xlink:href="#DejaVuSans-Oblique-71" transform="translate(0 0.515625)"/>
      <use xlink:href="#DejaVuSans-32" transform="translate(64.433594 -15.890625)scale(0.7)"/>
      <use xlink:href="#DejaVuSans-20" transform="translate(111.704102 0.515625)"/>
      <use xlink:href="#DejaVuSans-28" transform="translate(143.491211 0.515625)"/>
      <use xlink:href="#DejaVuSans-72" transform="translate(182.504883 0.515625)"/>
      <use xlink:href="#DejaVuSans-61" transform="translate(223.618164 0.515625)"/>
      <use xlink:href="#DejaVuSans-64" transform="translate(284.897461 0.515625)"/>
      <use xlink:href="#DejaVuSans-2f" transform="translate(348.374023 0.515625)"/>
      <use xlink:href="#DejaVuSans-73" transform="translate(382.06543 0.515625)"/>
      <use xlink:href="#DejaVuSans-29" transform="translate(434.165039 0.515625)"/>
     </g>
    </g>
   </g>
   <g id="line2d_38">
    <path d="M 259.77124 136.288862 
L 261.339174 141.943606 
L 262.411364 145.039131 
L 263.276033 146.905639 
L 263.990826 147.960931 
L 264.590331 148.482686 
L 265.109132 148.659725 
L 265.593347 148.594815 
L 266.10062 148.292306 
L 266.677066 147.667449 
L 267.345744 146.591202 
L 268.152769 144.842908 
L 269.167314 142.076722 
L 270.666074 137.2618 
L 273.144793 129.319419 
L 274.216983 126.6376 
L 275.058595 125.086423 
L 275.750331 124.244263 
L 276.326777 123.867899 
L 276.83405 123.792401 
L 277.318264 123.947757 
L 277.837066 124.360721 
L 278.425041 125.13136 
L 279.116777 126.431594 
L 279.935331 128.473864 
L 280.949876 131.646893 
L 282.333347 136.777692 
L 285.722851 149.630035 
L 286.771983 152.621751 
L 287.613595 154.404471 
L 288.305331 155.395399 
L 288.881777 155.870069 
L 289.38905 156.01484 
L 289.861736 155.917401 
L 290.357479 155.575919 
L 290.922397 154.895011 
L 291.579545 153.729903 
L 292.363512 151.858492 
L 293.331942 148.928401 
L 294.623182 144.246117 
L 298.554545 129.496144 
L 299.557562 126.802643 
L 300.376116 125.193206 
L 301.056322 124.306472 
L 301.632769 123.892412 
L 302.140041 123.788749 
L 302.624256 123.916657 
L 303.143058 124.294461 
L 303.742562 125.028435 
L 304.445826 126.266649 
L 305.298967 128.248187 
L 306.405744 131.42996 
L 308.331074 137.788775 
L 310.083471 143.262098 
L 311.144132 145.889115 
L 311.974215 147.400727 
L 312.654421 148.218742 
L 313.230868 148.589016 
L 313.73814 148.659003 
L 314.222355 148.498343 
L 314.741157 148.079744 
L 315.329132 147.302903 
L 316.020868 145.99581 
L 316.85095 143.913888 
L 317.865496 140.726572 
L 319.260496 135.539042 
L 322.580826 122.933597 
L 323.641488 119.887877 
L 324.483099 118.088698 
L 325.186364 117.069919 
L 325.774339 116.582445 
L 326.281612 116.437674 
L 326.754298 116.535112 
L 327.250041 116.876595 
L 327.814959 117.557502 
L 328.472107 118.722611 
L 329.256074 120.594022 
L 330.224504 123.524113 
L 331.515744 128.206397 
L 335.447107 142.95637 
L 336.450124 145.649871 
L 337.268678 147.259308 
L 337.948884 148.146042 
L 338.525331 148.560102 
L 339.032603 148.663765 
L 339.516818 148.535856 
L 340.03562 148.158053 
L 340.635124 147.424079 
L 341.338388 146.185865 
L 342.191529 144.204327 
L 343.298306 141.022554 
L 345.223636 134.663739 
L 346.976033 129.190416 
L 348.036694 126.563399 
L 348.866777 125.051786 
L 349.546983 124.233772 
L 350.12343 123.863497 
L 350.630702 123.793511 
L 351.114917 123.954171 
L 351.633719 124.37277 
L 352.221694 125.14961 
L 352.91343 126.456703 
L 353.743512 128.538626 
L 354.758058 131.725942 
L 356.153058 136.913471 
L 359.473388 149.518917 
L 360.53405 152.564637 
L 361.375661 154.363816 
L 362.078926 155.382594 
L 362.666901 155.870069 
L 363.174174 156.01484 
L 363.64686 155.917401 
L 364.142603 155.575919 
L 364.707521 154.895011 
L 365.364669 153.729903 
L 366.148636 151.858492 
L 367.117066 148.928401 
L 368.408306 144.246117 
L 372.339669 129.496144 
L 373.342686 126.802643 
L 374.16124 125.193206 
L 374.841446 124.306472 
L 375.417893 123.892412 
L 375.925165 123.788749 
L 376.40938 123.916657 
L 376.928182 124.294461 
L 377.527686 125.028435 
L 378.23095 126.266649 
L 379.084091 128.248187 
L 380.190868 131.42996 
L 382.116198 137.788775 
L 383.868595 143.262098 
L 384.929256 145.889115 
L 385.759339 147.400727 
L 386.439545 148.218742 
L 387.015992 148.589016 
L 387.523264 148.659003 
L 388.007479 148.498343 
L 388.526281 148.079744 
L 389.114256 147.302903 
L 389.805992 145.99581 
L 390.636074 143.913888 
L 391.65062 140.726572 
L 393.04562 135.539042 
L 396.36595 122.933597 
L 397.426612 119.887877 
L 398.268223 118.088698 
L 398.971488 117.069919 
L 399.559463 116.582445 
L 400.066736 116.437674 
L 400.539421 116.535112 
L 401.035165 116.876595 
L 401.600083 117.557502 
L 402.257231 118.722611 
L 403.041198 120.594022 
L 404.009628 123.524113 
L 405.300868 128.206397 
L 407.341488 136.288862 
L 407.341488 136.288862 
" clip-path="url(#p4d50731123)" style="fill: none; stroke: #ff0000; stroke-width: 1.5; stroke-linecap: square"/>
   </g>
   <g id="line2d_39">
    <path d="M 259.77124 136.226257 
L 259.898058 48.988951 
L 259.909587 48.910329 
L 259.944174 49.179445 
L 260.047934 53.288879 
L 260.393802 79.996903 
L 260.924132 114.048478 
L 261.362231 128.919315 
L 261.800331 136.851146 
L 262.261488 141.482973 
L 262.757231 144.368228 
L 263.287562 146.23498 
L 263.852479 147.459471 
L 264.405868 148.166222 
L 264.91314 148.4831 
L 265.385826 148.528593 
L 265.870041 148.343238 
L 266.400372 147.886084 
L 267.022934 147.032102 
L 267.760785 145.616908 
L 268.67157 143.357255 
L 269.893636 139.677674 
L 273.640537 127.974753 
L 274.597438 125.891098 
L 275.369876 124.702495 
L 276.003967 124.098105 
L 276.545826 123.863743 
L 277.04157 123.88393 
L 277.537314 124.130489 
L 278.090702 124.671273 
L 278.724793 125.626084 
L 279.474174 127.189526 
L 280.37343 129.62047 
L 281.514793 133.400121 
L 283.382479 140.494605 
L 285.423099 147.980429 
L 286.575992 151.408599 
L 287.486777 153.473339 
L 288.236157 154.662247 
L 288.858719 155.263631 
L 289.38905 155.483909 
L 289.861736 155.447606 
L 290.34595 155.181187 
L 290.88781 154.610412 
L 291.510372 153.610107 
L 292.248223 151.978675 
L 293.159008 149.380989 
L 294.346488 145.257949 
L 298.61219 129.77552 
L 299.58062 127.388525 
L 300.399174 125.923844 
L 301.090909 125.107967 
L 301.690413 124.722725 
L 302.220744 124.633903 
L 302.739545 124.775975 
L 303.281405 125.16372 
L 303.892438 125.887155 
L 304.607231 127.099093 
L 305.460372 129.010314 
L 306.55562 132.054227 
L 308.769174 139.074365 
L 310.175702 143.094275 
L 311.16719 145.301245 
L 311.974215 146.598794 
L 312.66595 147.319377 
L 313.265455 147.640604 
L 313.807314 147.685205 
L 314.337645 147.501613 
L 314.902562 147.058145 
L 315.536653 146.255966 
L 316.251446 144.969248 
L 317.081529 142.983004 
L 318.061488 140.017973 
L 319.329669 135.404752 
L 322.97281 121.691875 
L 323.895124 119.270476 
L 324.632975 117.898981 
L 325.244008 117.186616 
L 325.76281 116.894388 
L 326.223967 116.875272 
L 326.696653 117.084464 
L 327.226983 117.581385 
L 327.849545 118.491561 
L 328.610455 120.029343 
L 329.544298 122.454298 
L 330.731777 126.201556 
L 332.472645 132.525208 
L 335.020537 141.704383 
L 336.150372 144.938178 
L 337.02657 146.82371 
L 337.752893 147.896864 
L 338.352397 148.420198 
L 338.871198 148.599603 
L 339.355413 148.536833 
L 339.862686 148.235977 
L 340.427603 147.62733 
L 341.096281 146.557213 
L 341.903306 144.814712 
L 342.917851 142.056086 
L 344.42814 137.222214 
L 346.860744 129.474922 
L 347.944463 126.769746 
L 348.797603 125.194602 
L 349.500868 124.330633 
L 350.088843 123.936455 
L 350.596116 123.847047 
L 351.09186 123.988152 
L 351.610661 124.377882 
L 352.198636 125.113856 
L 352.890372 126.363554 
L 353.708926 128.335311 
L 354.711942 131.371044 
L 356.083884 136.302812 
L 359.577149 149.163026 
L 360.649339 152.130157 
L 361.502479 153.890998 
L 362.205744 154.878143 
L 362.793719 155.353562 
L 363.300992 155.495835 
L 363.773678 155.400245 
L 364.269421 155.062621 
L 364.834339 154.385782 
L 365.491488 153.222164 
L 366.275455 151.346553 
L 367.243884 148.406883 
L 368.569711 143.59748 
L 371.866983 131.352465 
L 372.939174 128.356637 
L 373.815372 126.518387 
L 374.564752 125.426321 
L 375.198843 124.863079 
L 375.752231 124.646813 
L 376.271033 124.678308 
L 376.801364 124.943682 
L 377.37781 125.495046 
L 378.046488 126.465248 
L 378.830455 128.022057 
L 379.798884 130.478984 
L 381.159298 134.608461 
L 383.776364 142.618288 
L 384.813967 145.031837 
L 385.64405 146.442952 
L 386.347314 147.235006 
L 386.958347 147.609717 
L 387.500207 147.694162 
L 388.030537 147.549722 
L 388.583926 147.158779 
L 389.194959 146.442086 
L 389.898223 145.249527 
L 390.705248 143.409095 
L 391.65062 140.659641 
L 392.838099 136.467542 
L 397.103802 120.699777 
L 397.956942 118.693064 
L 398.648678 117.583846 
L 399.225124 117.042315 
L 399.720868 116.860904 
L 400.182025 116.925415 
L 400.66624 117.226732 
L 401.231157 117.86308 
L 401.899835 118.977595 
L 402.718388 120.806428 
L 403.732934 123.655113 
L 405.05876 128.094569 
L 407.341488 136.59766 
L 407.341488 136.59766 
" clip-path="url(#p4d50731123)" style="fill: none; stroke: #1f77b4; stroke-width: 1.5; stroke-linecap: square"/>
   </g>
   <g id="line2d_40">
    <path d="M 259.77124 136.226257 
L 259.898058 48.49698 
L 259.909587 48.417032 
L 259.944174 48.686285 
L 260.047934 52.827401 
L 260.393802 79.799609 
L 260.924132 114.172214 
L 261.350702 128.813438 
L 261.788802 136.846685 
L 262.249959 141.5016 
L 262.745702 144.384548 
L 263.276033 146.244652 
L 263.84095 147.464659 
L 264.394339 148.170083 
L 264.890083 148.483444 
L 265.362769 148.536048 
L 265.835455 148.365145 
L 266.377314 147.90878 
L 266.976818 147.101295 
L 267.737727 145.657995 
L 268.648512 143.407718 
L 269.928223 139.549381 
L 273.525248 128.249808 
L 274.47062 126.11709 
L 275.289174 124.794062 
L 275.946322 124.131564 
L 276.499711 123.868689 
L 276.995455 123.870237 
L 277.491198 124.097923 
L 278.044587 124.618594 
L 278.667149 125.530968 
L 279.416529 127.062985 
L 280.304256 129.427879 
L 281.399504 133.007841 
L 283.151901 139.618922 
L 285.423099 148.000235 
L 286.575992 151.425547 
L 287.498306 153.509048 
L 288.236157 154.672852 
L 288.858719 155.271442 
L 289.400579 155.490832 
L 289.896322 155.438361 
L 290.357479 155.172103 
L 290.922397 154.561271 
L 291.568017 153.492883 
L 292.317397 151.791669 
L 293.216653 149.182431 
L 294.404132 145.023281 
L 298.496901 130.085623 
L 299.488388 127.57245 
L 300.306942 126.05135 
L 301.021736 125.163865 
L 301.632769 124.741482 
L 302.186157 124.629415 
L 302.704959 124.758704 
L 303.235289 125.122942 
L 303.811736 125.77882 
L 304.503471 126.906754 
L 305.310496 128.6514 
L 305.886942 130.141144 
L 306.025289 123.329534 
L 306.082934 123.402336 
L 306.221281 124.194339 
L 307.720041 135.1728 
L 308.584711 138.615152 
L 309.77219 142.439227 
L 310.855909 145.221255 
L 311.743636 146.901183 
L 312.493017 147.849195 
L 313.10405 148.289865 
L 313.657438 148.428824 
L 314.164711 148.338487 
L 314.70657 148.012985 
L 315.306074 147.377938 
L 315.974752 146.331141 
L 316.735661 144.716281 
L 317.623388 142.293479 
L 318.718636 138.616395 
L 320.332686 132.321486 
L 322.477066 124.099977 
L 323.537727 120.879209 
L 324.379339 118.990081 
L 325.082603 117.94505 
L 325.624463 117.492879 
L 326.120207 117.35254 
L 326.558306 117.442104 
L 327.05405 117.775765 
L 327.665083 118.505766 
L 328.391405 119.786232 
L 329.233017 121.749491 
L 330.282149 124.773936 
L 331.76938 129.817122 
L 335.320289 142.153081 
L 336.369421 144.862395 
L 337.199504 146.431505 
L 337.89124 147.293271 
L 338.467686 147.679921 
L 338.974959 147.764841 
L 339.459174 147.623285 
L 339.989504 147.223207 
L 340.589008 146.475127 
L 341.32686 145.155688 
L 342.237645 143.002557 
L 343.402066 139.613095 
L 347.633182 126.714937 
L 348.497851 124.996068 
L 349.224174 123.996371 
L 349.835207 123.502107 
L 350.377066 123.344522 
L 350.884339 123.442874 
L 351.380083 123.770262 
L 351.945 124.41986 
L 352.59062 125.51142 
L 353.374587 127.306789 
L 354.331488 130.111302 
L 355.553554 134.443432 
L 360.176653 151.537142 
L 361.133554 153.888372 
L 361.905992 155.24378 
L 362.574669 155.982259 
L 363.128058 156.269796 
L 363.623802 156.271062 
L 364.108017 156.036133 
L 364.638347 155.513101 
L 365.237851 154.596378 
L 365.952645 153.077981 
L 366.828843 150.65651 
L 367.947149 146.857057 
L 369.791777 139.689157 
L 371.682521 132.681667 
L 372.800826 129.341238 
L 373.72314 127.237237 
L 374.495579 125.986191 
L 375.152727 125.307567 
L 375.740702 125.006967 
L 376.271033 124.985376 
L 376.789835 125.191759 
L 377.366281 125.679869 
L 378.011901 126.537917 
L 378.784339 127.96465 
L 379.74124 130.251394 
L 381.078595 134.113612 
L 383.845537 142.226501 
L 384.860083 144.457 
L 385.690165 145.781218 
L 386.381901 146.500444 
L 386.969876 146.824252 
L 387.488678 146.885871 
L 387.99595 146.740181 
L 388.53781 146.358326 
L 389.137314 145.662286 
L 389.852107 144.45843 
L 390.647603 142.652893 
L 391.592975 139.918588 
L 392.780455 135.75038 
L 396.965455 120.373717 
L 397.807066 118.380902 
L 398.498802 117.254294 
L 399.086777 116.69088 
L 399.582521 116.503798 
L 400.032149 116.559301 
L 400.516364 116.851795 
L 401.09281 117.495567 
L 401.773017 118.632352 
L 402.59157 120.472247 
L 403.629174 123.417407 
L 404.931942 127.845969 
L 407.09938 136.128231 
L 407.341488 137.056405 
L 407.341488 137.056405 
" clip-path="url(#p4d50731123)" style="fill: none; stroke: #ff7f0e; stroke-width: 1.5; stroke-linecap: square"/>
   </g>
   <g id="line2d_41">
    <path d="M 259.77124 136.226257 
L 259.898058 47.288505 
L 259.932645 46.970182 
L 259.97876 47.676034 
L 260.117107 54.753125 
L 261.223884 124.229174 
L 261.650455 134.243414 
L 262.100083 140.004314 
L 262.572769 143.435466 
L 263.09157 145.661969 
L 263.644959 147.107853 
L 264.198347 147.98463 
L 264.740207 148.449938 
L 265.224421 148.590199 
L 265.697107 148.49862 
L 266.215909 148.15245 
L 266.792355 147.48441 
L 267.507149 146.271137 
L 268.34876 144.360566 
L 269.386364 141.43323 
L 271.081116 135.882792 
L 273.052562 129.593952 
L 274.136281 126.832159 
L 275.00095 125.199214 
L 275.692686 124.327625 
L 276.257603 123.927854 
L 276.764876 123.819181 
L 277.237562 123.934769 
L 277.756364 124.302518 
L 278.355868 125.037996 
L 279.047603 126.284077 
L 279.866157 128.26709 
L 280.869174 131.343094 
L 282.206529 136.250117 
L 285.895785 150.224699 
L 286.910331 153.029479 
L 287.728884 154.685071 
L 288.386033 155.566326 
L 288.95095 155.983692 
L 289.458223 156.08256 
L 289.91938 155.944509 
L 290.403595 155.569523 
L 291.003099 154.787602 
L 291.706364 153.448715 
L 292.536446 151.343559 
L 293.57405 148.051111 
L 295.049752 142.519371 
L 298.139504 130.758632 
L 299.234752 127.532964 
L 300.11095 125.590342 
L 300.837273 124.477799 
L 301.448306 123.917724 
L 301.967107 123.719342 
L 302.451322 123.765179 
L 302.947066 124.040186 
L 303.488926 124.596914 
L 304.146074 125.611108 
L 304.918512 127.233629 
L 305.875413 129.780443 
L 305.886942 129.814247 
L 306.025289 123.015363 
L 306.082934 123.089033 
L 306.221281 123.878318 
L 307.800744 135.468208 
L 308.688471 139.094954 
L 309.933595 143.266593 
L 311.06343 146.298906 
L 311.928099 148.013061 
L 312.654421 148.972942 
L 313.219339 149.389962 
L 313.726612 149.507381 
L 314.199298 149.394058 
L 314.695041 149.04432 
L 315.271488 148.345054 
L 315.940165 147.154869 
L 316.735661 145.249492 
L 317.681033 142.387705 
L 318.960744 137.744749 
L 323.065041 122.279857 
L 324.056529 119.661146 
L 324.852025 118.142027 
L 325.520702 117.314324 
L 326.074091 116.958515 
L 326.546777 116.896429 
L 327.030992 117.065513 
L 327.526736 117.479956 
L 328.103182 118.25883 
L 328.806446 119.616834 
L 329.613471 121.670766 
L 330.628017 124.868281 
L 332.149835 130.491625 
L 334.905248 140.710878 
L 336.023554 143.966529 
L 336.92281 145.935273 
L 337.649132 147.033221 
L 338.260165 147.591016 
L 338.802025 147.79738 
L 339.274711 147.755198 
L 339.781983 147.481579 
L 340.369959 146.878837 
L 341.050165 145.819481 
L 341.834132 144.164817 
L 342.860207 141.420727 
L 344.301322 136.849801 
L 346.918388 128.5423 
L 347.990579 125.93304 
L 348.797603 124.498938 
L 349.489339 123.695896 
L 350.054256 123.355903 
L 350.561529 123.303433 
L 351.045744 123.480079 
L 351.553017 123.902792 
L 352.152521 124.71226 
L 352.855785 126.071621 
L 353.674339 128.168529 
L 354.700413 131.465965 
L 356.072355 136.705928 
L 359.623264 150.598024 
L 360.672397 153.631875 
L 361.49095 155.374887 
L 362.182686 156.360079 
L 362.747603 156.809655 
L 363.220289 156.9335 
L 363.681446 156.831286 
L 364.165661 156.490172 
L 364.730579 155.796722 
L 365.35314 154.684205 
L 366.125579 152.840135 
L 367.105537 149.871557 
L 368.396777 145.174011 
L 372.524132 129.617172 
L 373.504091 127.018236 
L 374.322645 125.435181 
L 374.991322 124.58293 
L 375.55624 124.186948 
L 376.051983 124.087548 
L 376.536198 124.21359 
L 377.055 124.587213 
L 377.654504 125.314253 
L 378.34624 126.516923 
L 379.187851 128.439087 
L 380.363802 131.773406 
L 382.53124 138.765603 
L 383.960826 142.995337 
L 385.009959 145.451961 
L 385.840041 146.849152 
L 386.508719 147.563919 
L 387.062107 147.85647 
L 387.56938 147.876781 
L 388.076653 147.656629 
L 388.606983 147.170345 
L 389.218017 146.29262 
L 389.93281 144.856111 
L 390.809008 142.550282 
L 391.881198 139.057361 
L 393.414545 133.243025 
L 396.054669 123.241762 
L 397.161446 119.914727 
L 398.049174 117.894859 
L 398.763967 116.767004 
L 399.375 116.189768 
L 399.905331 115.991345 
L 400.354959 116.047038 
L 400.850702 116.347972 
L 401.404091 116.975372 
L 402.049711 118.08148 
L 402.81062 119.863783 
L 403.755992 122.703787 
L 404.978058 127.152207 
L 407.341488 136.764494 
L 407.341488 136.764494 
" clip-path="url(#p4d50731123)" style="fill: none; stroke: #2ca02c; stroke-width: 1.5; stroke-linecap: square"/>
   </g>
   <g id="patch_15">
    <path d="M 252.392727 162.432 
L 252.392727 41.472 
" style="fill: none; stroke: #000000; stroke-width: 0.8; stroke-linejoin: miter; stroke-linecap: square"/>
   </g>
   <g id="patch_16">
    <path d="M 414.72 162.432 
L 414.72 41.472 
" style="fill: none; stroke: #000000; stroke-width: 0.8; stroke-linejoin: miter; stroke-linecap: square"/>
   </g>
   <g id="patch_17">
    <path d="M 252.392727 162.432 
L 414.72 162.432 
" style="fill: none; stroke: #000000; stroke-width: 0.8; stroke-linejoin: miter; stroke-linecap: square"/>
   </g>
   <g id="patch_18">
    <path d="M 252.392727 41.472 
L 414.72 41.472 
" style="fill: none; stroke: #000000; stroke-width: 0.8; stroke-linejoin: miter; stroke-linecap: square"/>
   </g>
   <g id="legend_3">
    <g id="patch_19">
     <path d="M 368.432533 84.816634 
L 408.889 84.816634 
Q 410.555 84.816634 410.555 83.150634 
L 410.555 47.303 
Q 410.555 45.637 408.889 45.637 
L 368.432533 45.637 
Q 366.766533 45.637 366.766533 47.303 
L 366.766533 83.150634 
Q 366.766533 84.816634 368.432533 84.816634 
z
" style="fill: #ffffff; opacity: 0.8; stroke: #cccccc; stroke-linejoin: miter"/>
    </g>
    <g id="line2d_42">
     <path d="M 370.098533 52.382998 
L 378.428533 52.382998 
L 386.758533 52.382998 
" style="fill: none; stroke: #1f77b4; stroke-width: 1.5; stroke-linecap: square"/>
    </g>
    <g id="text_34">
     <!-- our -->
     <g transform="translate(393.422533 55.298498)scale(0.0833 -0.0833)">
      <use xlink:href="#DejaVuSans-6f"/>
      <use xlink:href="#DejaVuSans-75" x="61.181641"/>
      <use xlink:href="#DejaVuSans-72" x="124.560547"/>
     </g>
    </g>
    <g id="line2d_43">
     <path d="M 370.098533 64.609877 
L 378.428533 64.609877 
L 386.758533 64.609877 
" style="fill: none; stroke: #ff7f0e; stroke-width: 1.5; stroke-linecap: square"/>
    </g>
    <g id="text_35">
     <!-- g -->
     <g transform="translate(393.422533 67.525377)scale(0.0833 -0.0833)">
      <use xlink:href="#DejaVuSans-67"/>
     </g>
    </g>
    <g id="line2d_44">
     <path d="M 370.098533 76.836755 
L 378.428533 76.836755 
L 386.758533 76.836755 
" style="fill: none; stroke: #2ca02c; stroke-width: 1.5; stroke-linecap: square"/>
    </g>
    <g id="text_36">
     <!-- og -->
     <g transform="translate(393.422533 79.752255)scale(0.0833 -0.0833)">
      <use xlink:href="#DejaVuSans-6f"/>
      <use xlink:href="#DejaVuSans-67" x="61.181641"/>
     </g>
    </g>
   </g>
  </g>
  <g id="axes_4">
   <g id="patch_20">
    <path d="M 252.392727 307.584 
L 414.72 307.584 
L 414.72 186.624 
L 252.392727 186.624 
z
" style="fill: #ffffff"/>
   </g>
   <g id="matplotlib.axis_7">
    <g id="xtick_13">
     <g id="line2d_45">
      <g>
       <use xlink:href="#m98a88d24ab" x="259.77124" y="307.584" style="stroke: #000000; stroke-width: 0.8"/>
      </g>
     </g>
     <g id="text_37">
      <!-- 0 -->
      <g transform="translate(256.58999 322.182437)scale(0.1 -0.1)">
       <use xlink:href="#DejaVuSans-30"/>
      </g>
     </g>
    </g>
    <g id="xtick_14">
     <g id="line2d_46">
      <g>
       <use xlink:href="#m98a88d24ab" x="305.886942" y="307.584" style="stroke: #000000; stroke-width: 0.8"/>
      </g>
     </g>
     <g id="text_38">
      <!-- 10 -->
      <g transform="translate(299.524442 322.182437)scale(0.1 -0.1)">
       <use xlink:href="#DejaVuSans-31"/>
       <use xlink:href="#DejaVuSans-30" x="63.623047"/>
      </g>
     </g>
    </g>
    <g id="xtick_15">
     <g id="line2d_47">
      <g>
       <use xlink:href="#m98a88d24ab" x="352.002645" y="307.584" style="stroke: #000000; stroke-width: 0.8"/>
      </g>
     </g>
     <g id="text_39">
      <!-- 20 -->
      <g transform="translate(345.640145 322.182437)scale(0.1 -0.1)">
       <use xlink:href="#DejaVuSans-32"/>
       <use xlink:href="#DejaVuSans-30" x="63.623047"/>
      </g>
     </g>
    </g>
    <g id="xtick_16">
     <g id="line2d_48">
      <g>
       <use xlink:href="#m98a88d24ab" x="398.118347" y="307.584" style="stroke: #000000; stroke-width: 0.8"/>
      </g>
     </g>
     <g id="text_40">
      <!-- 30 -->
      <g transform="translate(391.755847 322.182437)scale(0.1 -0.1)">
       <use xlink:href="#DejaVuSans-33"/>
       <use xlink:href="#DejaVuSans-30" x="63.623047"/>
      </g>
     </g>
    </g>
   </g>
   <g id="matplotlib.axis_8">
    <g id="ytick_13">
     <g id="line2d_49">
      <g>
       <use xlink:href="#m6011c5d917" x="252.392727" y="302.085826" style="stroke: #000000; stroke-width: 0.8"/>
      </g>
     </g>
     <g id="text_41">
      <!-- 0 -->
      <g transform="translate(239.030227 305.885044)scale(0.1 -0.1)">
       <use xlink:href="#DejaVuSans-30"/>
      </g>
     </g>
    </g>
    <g id="ytick_14">
     <g id="line2d_50">
      <g>
       <use xlink:href="#m6011c5d917" x="252.392727" y="262.864023" style="stroke: #000000; stroke-width: 0.8"/>
      </g>
     </g>
     <g id="text_42">
      <!-- 2 -->
      <g transform="translate(239.030227 266.663241)scale(0.1 -0.1)">
       <use xlink:href="#DejaVuSans-32"/>
      </g>
     </g>
    </g>
    <g id="ytick_15">
     <g id="line2d_51">
      <g>
       <use xlink:href="#m6011c5d917" x="252.392727" y="223.64222" style="stroke: #000000; stroke-width: 0.8"/>
      </g>
     </g>
     <g id="text_43">
      <!-- 4 -->
      <g transform="translate(239.030227 227.441439)scale(0.1 -0.1)">
       <use xlink:href="#DejaVuSans-34"/>
      </g>
     </g>
    </g>
    <g id="text_44">
     <!-- $e\dot{q}_2$ (rad/s) -->
     <g transform="translate(232.930227 273.854)rotate(-90)scale(0.1 -0.1)">
      <use xlink:href="#DejaVuSans-Oblique-65" transform="translate(0 0.515625)"/>
      <use xlink:href="#DejaVuSans-307" transform="translate(125.986328 13.015625)"/>
      <use xlink:href="#DejaVuSans-Oblique-71" transform="translate(61.523438 0.515625)"/>
      <use xlink:href="#DejaVuSans-32" transform="translate(125.957031 -15.890625)scale(0.7)"/>
      <use xlink:href="#DejaVuSans-20" transform="translate(173.227539 0.515625)"/>
      <use xlink:href="#DejaVuSans-28" transform="translate(205.014648 0.515625)"/>
      <use xlink:href="#DejaVuSans-72" transform="translate(244.02832 0.515625)"/>
      <use xlink:href="#DejaVuSans-61" transform="translate(285.141602 0.515625)"/>
      <use xlink:href="#DejaVuSans-64" transform="translate(346.420898 0.515625)"/>
      <use xlink:href="#DejaVuSans-2f" transform="translate(409.897461 0.515625)"/>
      <use xlink:href="#DejaVuSans-73" transform="translate(443.588867 0.515625)"/>
      <use xlink:href="#DejaVuSans-29" transform="translate(495.688477 0.515625)"/>
     </g>
    </g>
   </g>
   <g id="line2d_52">
    <path d="M 259.77124 302.009284 
L 259.898058 194.75316 
L 259.921116 194.561017 
L 259.955702 195.004442 
L 260.070992 200.890582 
L 260.532149 242.8616 
L 261.004835 273.612036 
L 261.419876 287.486365 
L 261.834917 294.538687 
L 262.249959 298.138089 
L 262.665 299.992135 
L 263.09157 300.970352 
L 263.541198 301.485955 
L 264.083058 301.769627 
L 264.878554 301.912176 
L 266.596364 301.939906 
L 272.187893 301.986827 
L 275.392934 302.028815 
L 278.056116 302.063072 
L 279.243595 302.02088 
L 282.990496 301.576301 
L 286.391529 301.216475 
L 288.143926 301.276632 
L 290.495826 301.614366 
L 293.355 301.961633 
L 295.753017 302.034091 
L 297.75905 301.725639 
L 301.517479 301.043154 
L 302.831777 301.124269 
L 304.641818 301.48829 
L 307.673926 302.07878 
L 310.463926 301.494717 
L 313.057934 300.926311 
L 314.187769 300.935514 
L 315.35219 301.176708 
L 318.591818 302.006933 
L 319.883058 301.897172 
L 321.543223 302.003384 
L 323.099628 302.050432 
L 325.11719 301.899417 
L 326.685124 301.389176 
L 328.425992 300.876907 
L 329.52124 300.796987 
L 330.674132 300.945453 
L 332.645579 301.476528 
L 334.628554 301.910664 
L 336.530826 302.08335 
L 341.21157 301.962953 
L 345.581033 301.976633 
L 349.500868 302.019579 
L 352.117934 302.07967 
L 352.971074 302.026207 
L 356.683388 301.589097 
L 360.188182 301.216151 
L 361.940579 301.277746 
L 364.315537 301.619921 
L 367.151653 301.962514 
L 369.53814 302.034091 
L 371.544174 301.725639 
L 375.302603 301.043154 
L 376.616901 301.124269 
L 378.426942 301.48829 
L 381.45905 302.07878 
L 384.24905 301.494717 
L 386.843058 300.926311 
L 387.972893 300.935514 
L 389.137314 301.176708 
L 392.376942 302.006933 
L 393.668182 301.897172 
L 395.328347 302.003384 
L 396.884752 302.050432 
L 398.902314 301.899417 
L 400.470248 301.389176 
L 402.211116 300.876907 
L 403.306364 300.796987 
L 404.459256 300.945453 
L 406.430702 301.476528 
L 407.341488 301.708292 
L 407.341488 301.708292 
" clip-path="url(#p4d5a4e9da6)" style="fill: none; stroke: #1f77b4; stroke-linecap: square"/>
   </g>
   <g id="line2d_53">
    <path d="M 259.77124 302.009284 
L 259.898058 194.15168 
L 259.921116 193.957203 
L 259.955702 194.40333 
L 260.070992 200.340823 
L 260.532149 242.758584 
L 260.993306 273.253494 
L 261.408347 287.428063 
L 261.81186 294.439308 
L 262.226901 298.126799 
L 262.641942 300.009614 
L 263.068512 300.994446 
L 263.529669 301.516865 
L 264.071529 301.790115 
L 264.924669 301.9258 
L 267.115165 301.925363 
L 273.110207 302.0139 
L 275.185413 302.048027 
L 280.823058 301.875989 
L 287.002562 301.231168 
L 288.789545 301.360904 
L 295.799132 302.055935 
L 297.701405 301.761903 
L 301.552066 301.049286 
L 302.79719 301.119843 
L 304.699463 301.491953 
L 305.886942 301.750946 
L 306.025289 293.596757 
L 306.082934 293.476016 
L 306.140579 293.566978 
L 306.301983 294.470777 
L 307.155124 299.99642 
L 307.581694 301.167328 
L 308.019793 301.750198 
L 308.538595 302.049885 
L 308.872934 302.039255 
L 309.760661 302.00239 
L 311.674463 301.93245 
L 313.380744 301.786762 
L 314.614339 301.938624 
L 315.398306 302.008148 
L 319.018388 300.837984 
L 320.159752 300.787867 
L 321.68157 300.950712 
L 323.952769 301.214651 
L 325.255537 301.141799 
L 326.869587 300.825252 
L 328.610455 300.576049 
L 329.705702 300.662072 
L 330.893182 300.985355 
L 333.994463 301.970297 
L 335.908264 301.445865 
L 338.42157 301.048441 
L 340.738884 300.832888 
L 343.379008 300.759312 
L 346.04219 300.940019 
L 348.50938 301.278538 
L 352.406157 301.724869 
L 356.164587 301.909643 
L 361.133554 302.061447 
L 361.767645 302.024182 
L 368.408306 301.008693 
L 372.639421 300.670653 
L 374.841446 300.524065 
L 376.051983 300.662042 
L 377.470041 301.04465 
L 380.686612 301.983052 
L 384.733264 300.564156 
L 386.266612 300.076551 
L 387.534793 299.913718 
L 388.595455 300.006628 
L 389.852107 300.330362 
L 392.469174 301.036704 
L 393.933347 301.150166 
L 397.853182 301.339607 
L 399.236653 301.83929 
L 399.882273 302.016367 
L 402.395579 300.896434 
L 403.364008 300.732982 
L 404.493843 300.756694 
L 407.341488 301.147433 
L 407.341488 301.147433 
" clip-path="url(#p4d5a4e9da6)" style="fill: none; stroke: #ff7f0e; stroke-linecap: square"/>
   </g>
   <g id="line2d_54">
    <path d="M 259.77124 302.009284 
L 259.898058 192.674205 
L 259.932645 192.122182 
L 259.990289 193.132549 
L 260.140165 202.661672 
L 261.120124 276.997713 
L 261.535165 289.301575 
L 261.950207 295.53385 
L 262.365248 298.699728 
L 262.780289 300.317433 
L 263.20686 301.163059 
L 263.668017 301.612318 
L 264.255992 301.862954 
L 265.293595 301.99968 
L 268.533223 302.072761 
L 278.079174 302.063422 
L 285.042645 302.054792 
L 289.515868 302.004534 
L 298.404669 302.022553 
L 305.886942 302.021043 
L 306.025289 293.212654 
L 306.082934 293.092974 
L 306.140579 293.182993 
L 306.301983 294.083487 
L 307.20124 299.916874 
L 307.639339 301.143376 
L 308.088967 301.799896 
L 308.492479 302.047397 
L 309.161157 301.753737 
L 310.41781 301.473891 
L 313.911074 301.032523 
L 318.36124 300.813231 
L 321.693099 300.940509 
L 324.310165 301.220323 
L 330.651074 302.032162 
L 338.652149 301.057291 
L 342.60657 300.949479 
L 347.713884 301.165965 
L 352.786612 301.758774 
L 355.680372 302.015347 
L 362.482438 301.003545 
L 364.165661 300.941446 
L 370.022355 301.065873 
L 373.238926 301.347723 
L 377.815909 301.99727 
L 378.865041 302.028831 
L 383.580372 301.487661 
L 389.529298 301.048664 
L 392.72281 301.043877 
L 398.418099 301.377675 
L 401.692314 301.747726 
L 404.055744 302.027455 
L 407.341488 301.504321 
L 407.341488 301.504321 
" clip-path="url(#p4d5a4e9da6)" style="fill: none; stroke: #2ca02c; stroke-linecap: square"/>
   </g>
   <g id="patch_21">
    <path d="M 252.392727 307.584 
L 252.392727 186.624 
" style="fill: none; stroke: #000000; stroke-width: 0.8; stroke-linejoin: miter; stroke-linecap: square"/>
   </g>
   <g id="patch_22">
    <path d="M 414.72 307.584 
L 414.72 186.624 
" style="fill: none; stroke: #000000; stroke-width: 0.8; stroke-linejoin: miter; stroke-linecap: square"/>
   </g>
   <g id="patch_23">
    <path d="M 252.392727 307.584 
L 414.72 307.584 
" style="fill: none; stroke: #000000; stroke-width: 0.8; stroke-linejoin: miter; stroke-linecap: square"/>
   </g>
   <g id="patch_24">
    <path d="M 252.392727 186.624 
L 414.72 186.624 
" style="fill: none; stroke: #000000; stroke-width: 0.8; stroke-linejoin: miter; stroke-linecap: square"/>
   </g>
   <g id="legend_4">
    <g id="patch_25">
     <path d="M 368.432533 229.968634 
L 408.889 229.968634 
Q 410.555 229.968634 410.555 228.302634 
L 410.555 192.455 
Q 410.555 190.789 408.889 190.789 
L 368.432533 190.789 
Q 366.766533 190.789 366.766533 192.455 
L 366.766533 228.302634 
Q 366.766533 229.968634 368.432533 229.968634 
z
" style="fill: #ffffff; opacity: 0.8; stroke: #cccccc; stroke-linejoin: miter"/>
    </g>
    <g id="line2d_55">
     <path d="M 370.098533 197.534998 
L 378.428533 197.534998 
L 386.758533 197.534998 
" style="fill: none; stroke: #1f77b4; stroke-linecap: square"/>
    </g>
    <g id="text_45">
     <!-- our -->
     <g transform="translate(393.422533 200.450498)scale(0.0833 -0.0833)">
      <use xlink:href="#DejaVuSans-6f"/>
      <use xlink:href="#DejaVuSans-75" x="61.181641"/>
      <use xlink:href="#DejaVuSans-72" x="124.560547"/>
     </g>
    </g>
    <g id="line2d_56">
     <path d="M 370.098533 209.761877 
L 378.428533 209.761877 
L 386.758533 209.761877 
" style="fill: none; stroke: #ff7f0e; stroke-linecap: square"/>
    </g>
    <g id="text_46">
     <!-- g -->
     <g transform="translate(393.422533 212.677377)scale(0.0833 -0.0833)">
      <use xlink:href="#DejaVuSans-67"/>
     </g>
    </g>
    <g id="line2d_57">
     <path d="M 370.098533 221.988755 
L 378.428533 221.988755 
L 386.758533 221.988755 
" style="fill: none; stroke: #2ca02c; stroke-linecap: square"/>
    </g>
    <g id="text_47">
     <!-- og -->
     <g transform="translate(393.422533 224.904255)scale(0.0833 -0.0833)">
      <use xlink:href="#DejaVuSans-6f"/>
      <use xlink:href="#DejaVuSans-67" x="61.181641"/>
     </g>
    </g>
   </g>
  </g>
 </g>
 <defs>
  <clipPath id="p22305bc8d5">
   <rect x="57.6" y="41.472" width="162.327273" height="120.96"/>
  </clipPath>
  <clipPath id="p14ae582efe">
   <rect x="57.6" y="186.624" width="162.327273" height="120.96"/>
  </clipPath>
  <clipPath id="p4d50731123">
   <rect x="252.392727" y="41.472" width="162.327273" height="120.96"/>
  </clipPath>
  <clipPath id="p4d5a4e9da6">
   <rect x="252.392727" y="186.624" width="162.327273" height="120.96"/>
  </clipPath>
 </defs>
</svg>
