<?xml version="1.0" encoding="utf-8" standalone="no"?>
<!DOCTYPE svg PUBLIC "-//W3C//DTD SVG 1.1//EN"
  "http://www.w3.org/Graphics/SVG/1.1/DTD/svg11.dtd">
<svg xmlns:xlink="http://www.w3.org/1999/xlink" width="460.8pt" height="345.6pt" viewBox="0 0 460.8 345.6" xmlns="http://www.w3.org/2000/svg" version="1.1">
 <metadata>
  <rdf:RDF xmlns:dc="http://purl.org/dc/elements/1.1/" xmlns:cc="http://creativecommons.org/ns#" xmlns:rdf="http://www.w3.org/1999/02/22-rdf-syntax-ns#">
   <cc:Work>
    <dc:type rdf:resource="http://purl.org/dc/dcmitype/StillImage"/>
    <dc:date>2023-10-20T20:24:24.855680</dc:date>
    <dc:format>image/svg+xml</dc:format>
    <dc:creator>
     <cc:Agent>
      <dc:title>Matplotlib v3.5.1, https://matplotlib.org/</dc:title>
     </cc:Agent>
    </dc:creator>
   </cc:Work>
  </rdf:RDF>
 </metadata>
 <defs>
  <style type="text/css">*{stroke-linejoin: round; stroke-linecap: butt}</style>
 </defs>
 <g id="figure_1">
  <g id="patch_1">
   <path d="M 0 345.6 
L 460.8 345.6 
L 460.8 0 
L 0 0 
z
" style="fill: #ffffff"/>
  </g>
  <g id="axes_1">
   <g id="patch_2">
    <path d="M 57.6 119.740235 
L 219.927273 119.740235 
L 219.927273 41.472 
L 57.6 41.472 
z
" style="fill: #ffffff"/>
   </g>
   <g id="matplotlib.axis_1">
    <g id="xtick_1">
     <g id="line2d_1">
      <defs>
       <path id="ma4e95ba0f5" d="M 0 0 
L 0 3.5 
" style="stroke: #000000; stroke-width: 0.8"/>
      </defs>
      <g>
       <use xlink:href="#ma4e95ba0f5" x="64.978512" y="119.740235" style="stroke: #000000; stroke-width: 0.8"/>
      </g>
     </g>
     <g id="text_1">
      <!-- 0 -->
      <g transform="translate(61.797262 134.338673)scale(0.1 -0.1)">
       <defs>
        <path id="DejaVuSans-30" d="M 2034 4250 
Q 1547 4250 1301 3770 
Q 1056 3291 1056 2328 
Q 1056 1369 1301 889 
Q 1547 409 2034 409 
Q 2525 409 2770 889 
Q 3016 1369 3016 2328 
Q 3016 3291 2770 3770 
Q 2525 4250 2034 4250 
z
M 2034 4750 
Q 2819 4750 3233 4129 
Q 3647 3509 3647 2328 
Q 3647 1150 3233 529 
Q 2819 -91 2034 -91 
Q 1250 -91 836 529 
Q 422 1150 422 2328 
Q 422 3509 836 4129 
Q 1250 4750 2034 4750 
z
" transform="scale(0.015625)"/>
       </defs>
       <use xlink:href="#DejaVuSans-30"/>
      </g>
     </g>
    </g>
    <g id="xtick_2">
     <g id="line2d_2">
      <g>
       <use xlink:href="#ma4e95ba0f5" x="111.094215" y="119.740235" style="stroke: #000000; stroke-width: 0.8"/>
      </g>
     </g>
     <g id="text_2">
      <!-- 10 -->
      <g transform="translate(104.731715 134.338673)scale(0.1 -0.1)">
       <defs>
        <path id="DejaVuSans-31" d="M 794 531 
L 1825 531 
L 1825 4091 
L 703 3866 
L 703 4441 
L 1819 4666 
L 2450 4666 
L 2450 531 
L 3481 531 
L 3481 0 
L 794 0 
L 794 531 
z
" transform="scale(0.015625)"/>
       </defs>
       <use xlink:href="#DejaVuSans-31"/>
       <use xlink:href="#DejaVuSans-30" x="63.623047"/>
      </g>
     </g>
    </g>
    <g id="xtick_3">
     <g id="line2d_3">
      <g>
       <use xlink:href="#ma4e95ba0f5" x="157.209917" y="119.740235" style="stroke: #000000; stroke-width: 0.8"/>
      </g>
     </g>
     <g id="text_3">
      <!-- 20 -->
      <g transform="translate(150.847417 134.338673)scale(0.1 -0.1)">
       <defs>
        <path id="DejaVuSans-32" d="M 1228 531 
L 3431 531 
L 3431 0 
L 469 0 
L 469 531 
Q 828 903 1448 1529 
Q 2069 2156 2228 2338 
Q 2531 2678 2651 2914 
Q 2772 3150 2772 3378 
Q 2772 3750 2511 3984 
Q 2250 4219 1831 4219 
Q 1534 4219 1204 4116 
Q 875 4013 500 3803 
L 500 4441 
Q 881 4594 1212 4672 
Q 1544 4750 1819 4750 
Q 2544 4750 2975 4387 
Q 3406 4025 3406 3419 
Q 3406 3131 3298 2873 
Q 3191 2616 2906 2266 
Q 2828 2175 2409 1742 
Q 1991 1309 1228 531 
z
" transform="scale(0.015625)"/>
       </defs>
       <use xlink:href="#DejaVuSans-32"/>
       <use xlink:href="#DejaVuSans-30" x="63.623047"/>
      </g>
     </g>
    </g>
    <g id="xtick_4">
     <g id="line2d_4">
      <g>
       <use xlink:href="#ma4e95ba0f5" x="203.32562" y="119.740235" style="stroke: #000000; stroke-width: 0.8"/>
      </g>
     </g>
     <g id="text_4">
      <!-- 30 -->
      <g transform="translate(196.96312 134.338673)scale(0.1 -0.1)">
       <defs>
        <path id="DejaVuSans-33" d="M 2597 2516 
Q 3050 2419 3304 2112 
Q 3559 1806 3559 1356 
Q 3559 666 3084 287 
Q 2609 -91 1734 -91 
Q 1441 -91 1130 -33 
Q 819 25 488 141 
L 488 750 
Q 750 597 1062 519 
Q 1375 441 1716 441 
Q 2309 441 2620 675 
Q 2931 909 2931 1356 
Q 2931 1769 2642 2001 
Q 2353 2234 1838 2234 
L 1294 2234 
L 1294 2753 
L 1863 2753 
Q 2328 2753 2575 2939 
Q 2822 3125 2822 3475 
Q 2822 3834 2567 4026 
Q 2313 4219 1838 4219 
Q 1578 4219 1281 4162 
Q 984 4106 628 3988 
L 628 4550 
Q 988 4650 1302 4700 
Q 1616 4750 1894 4750 
Q 2613 4750 3031 4423 
Q 3450 4097 3450 3541 
Q 3450 3153 3228 2886 
Q 3006 2619 2597 2516 
z
" transform="scale(0.015625)"/>
       </defs>
       <use xlink:href="#DejaVuSans-33"/>
       <use xlink:href="#DejaVuSans-30" x="63.623047"/>
      </g>
     </g>
    </g>
   </g>
   <g id="matplotlib.axis_2">
    <g id="ytick_1">
     <g id="line2d_5">
      <defs>
       <path id="m21b9d05c50" d="M 0 0 
L -3.5 0 
" style="stroke: #000000; stroke-width: 0.8"/>
      </defs>
      <g>
       <use xlink:href="#m21b9d05c50" x="57.6" y="94.894566" style="stroke: #000000; stroke-width: 0.8"/>
      </g>
     </g>
     <g id="text_5">
      <!-- −2 -->
      <g transform="translate(35.857813 98.693785)scale(0.1 -0.1)">
       <defs>
        <path id="DejaVuSans-2212" d="M 678 2272 
L 4684 2272 
L 4684 1741 
L 678 1741 
L 678 2272 
z
" transform="scale(0.015625)"/>
       </defs>
       <use xlink:href="#DejaVuSans-2212"/>
       <use xlink:href="#DejaVuSans-32" x="83.789062"/>
      </g>
     </g>
    </g>
    <g id="ytick_2">
     <g id="line2d_6">
      <g>
       <use xlink:href="#m21b9d05c50" x="57.6" y="60.359726" style="stroke: #000000; stroke-width: 0.8"/>
      </g>
     </g>
     <g id="text_6">
      <!-- −1 -->
      <g transform="translate(35.857813 64.158945)scale(0.1 -0.1)">
       <use xlink:href="#DejaVuSans-2212"/>
       <use xlink:href="#DejaVuSans-31" x="83.789062"/>
      </g>
     </g>
    </g>
    <g id="text_7">
     <!-- $q_1$ (rad) -->
     <g transform="translate(29.757812 99.956118)rotate(-90)scale(0.1 -0.1)">
      <defs>
       <path id="DejaVuSans-Oblique-71" d="M 2669 525 
Q 2438 222 2123 65 
Q 1809 -91 1428 -91 
Q 897 -91 595 267 
Q 294 625 294 1253 
Q 294 1759 480 2231 
Q 666 2703 1013 3078 
Q 1238 3322 1530 3453 
Q 1822 3584 2144 3584 
Q 2531 3584 2781 3431 
Q 3031 3278 3144 2969 
L 3244 3494 
L 3822 3494 
L 2888 -1319 
L 2309 -1319 
L 2669 525 
z
M 891 1338 
Q 891 875 1084 633 
Q 1278 391 1644 391 
Q 2188 391 2572 911 
Q 2956 1431 2956 2175 
Q 2956 2625 2757 2864 
Q 2559 3103 2188 3103 
Q 1916 3103 1684 2976 
Q 1453 2850 1281 2606 
Q 1100 2350 995 2006 
Q 891 1663 891 1338 
z
" transform="scale(0.015625)"/>
       <path id="DejaVuSans-20" transform="scale(0.015625)"/>
       <path id="DejaVuSans-28" d="M 1984 4856 
Q 1566 4138 1362 3434 
Q 1159 2731 1159 2009 
Q 1159 1288 1364 580 
Q 1569 -128 1984 -844 
L 1484 -844 
Q 1016 -109 783 600 
Q 550 1309 550 2009 
Q 550 2706 781 3412 
Q 1013 4119 1484 4856 
L 1984 4856 
z
" transform="scale(0.015625)"/>
       <path id="DejaVuSans-72" d="M 2631 2963 
Q 2534 3019 2420 3045 
Q 2306 3072 2169 3072 
Q 1681 3072 1420 2755 
Q 1159 2438 1159 1844 
L 1159 0 
L 581 0 
L 581 3500 
L 1159 3500 
L 1159 2956 
Q 1341 3275 1631 3429 
Q 1922 3584 2338 3584 
Q 2397 3584 2469 3576 
Q 2541 3569 2628 3553 
L 2631 2963 
z
" transform="scale(0.015625)"/>
       <path id="DejaVuSans-61" d="M 2194 1759 
Q 1497 1759 1228 1600 
Q 959 1441 959 1056 
Q 959 750 1161 570 
Q 1363 391 1709 391 
Q 2188 391 2477 730 
Q 2766 1069 2766 1631 
L 2766 1759 
L 2194 1759 
z
M 3341 1997 
L 3341 0 
L 2766 0 
L 2766 531 
Q 2569 213 2275 61 
Q 1981 -91 1556 -91 
Q 1019 -91 701 211 
Q 384 513 384 1019 
Q 384 1609 779 1909 
Q 1175 2209 1959 2209 
L 2766 2209 
L 2766 2266 
Q 2766 2663 2505 2880 
Q 2244 3097 1772 3097 
Q 1472 3097 1187 3025 
Q 903 2953 641 2809 
L 641 3341 
Q 956 3463 1253 3523 
Q 1550 3584 1831 3584 
Q 2591 3584 2966 3190 
Q 3341 2797 3341 1997 
z
" transform="scale(0.015625)"/>
       <path id="DejaVuSans-64" d="M 2906 2969 
L 2906 4863 
L 3481 4863 
L 3481 0 
L 2906 0 
L 2906 525 
Q 2725 213 2448 61 
Q 2172 -91 1784 -91 
Q 1150 -91 751 415 
Q 353 922 353 1747 
Q 353 2572 751 3078 
Q 1150 3584 1784 3584 
Q 2172 3584 2448 3432 
Q 2725 3281 2906 2969 
z
M 947 1747 
Q 947 1113 1208 752 
Q 1469 391 1925 391 
Q 2381 391 2643 752 
Q 2906 1113 2906 1747 
Q 2906 2381 2643 2742 
Q 2381 3103 1925 3103 
Q 1469 3103 1208 2742 
Q 947 2381 947 1747 
z
" transform="scale(0.015625)"/>
       <path id="DejaVuSans-29" d="M 513 4856 
L 1013 4856 
Q 1481 4119 1714 3412 
Q 1947 2706 1947 2009 
Q 1947 1309 1714 600 
Q 1481 -109 1013 -844 
L 513 -844 
Q 928 -128 1133 580 
Q 1338 1288 1338 2009 
Q 1338 2731 1133 3434 
Q 928 4138 513 4856 
z
" transform="scale(0.015625)"/>
      </defs>
      <use xlink:href="#DejaVuSans-Oblique-71" transform="translate(0 0.015625)"/>
      <use xlink:href="#DejaVuSans-31" transform="translate(63.476562 -16.390625)scale(0.7)"/>
      <use xlink:href="#DejaVuSans-20" transform="translate(110.74707 0.015625)"/>
      <use xlink:href="#DejaVuSans-28" transform="translate(142.53418 0.015625)"/>
      <use xlink:href="#DejaVuSans-72" transform="translate(181.547852 0.015625)"/>
      <use xlink:href="#DejaVuSans-61" transform="translate(222.661133 0.015625)"/>
      <use xlink:href="#DejaVuSans-64" transform="translate(283.94043 0.015625)"/>
      <use xlink:href="#DejaVuSans-29" transform="translate(347.416992 0.015625)"/>
     </g>
    </g>
   </g>
   <g id="line2d_7">
    <path d="M 64.978512 80.072086 
L 67.837686 63.912205 
L 69.313388 56.829706 
L 70.489339 52.212743 
L 71.469298 49.209498 
L 72.29938 47.333853 
L 73.002645 46.254783 
L 73.59062 45.724076 
L 74.097893 45.542638 
L 74.570579 45.605392 
L 75.054793 45.901149 
L 75.596653 46.507341 
L 76.219215 47.556012 
L 76.945537 49.239986 
L 77.798678 51.817416 
L 78.801694 55.604365 
L 80.000702 61.055032 
L 81.53405 69.142604 
L 84.335579 85.407541 
L 86.514545 97.417746 
L 87.932603 104.056581 
L 89.073967 108.404519 
L 90.030868 111.232987 
L 90.837893 112.978963 
L 91.518099 113.969545 
L 92.094545 114.453659 
L 92.601818 114.605861 
L 93.074504 114.51583 
L 93.570248 114.181745 
L 94.123636 113.521951 
L 94.769256 112.377496 
L 95.518636 110.561002 
L 96.394835 107.81073 
L 97.420909 103.81149 
L 98.666033 98.000718 
L 100.280083 89.31564 
L 105.813967 58.585437 
L 107.059091 53.376293 
L 108.085165 49.973767 
L 108.949835 47.814862 
L 109.687686 46.523364 
L 110.310248 45.844615 
L 110.840579 45.569461 
L 111.313264 45.561275 
L 111.78595 45.776625 
L 112.304752 46.268599 
L 112.904256 47.165209 
L 113.595992 48.624884 
L 114.403017 50.877078 
L 115.348388 54.212013 
L 116.478223 59.066544 
L 117.873223 66.108144 
L 119.902314 77.632994 
L 123.245702 96.590401 
L 124.698347 103.514361 
L 125.862769 108.051162 
L 126.831198 110.995292 
L 127.649752 112.831842 
L 128.353017 113.903075 
L 128.940992 114.427074 
L 129.448264 114.602666 
L 129.92095 114.534455 
L 130.405165 114.233139 
L 130.947025 113.620807 
L 131.581116 112.542221 
L 132.318967 110.81201 
L 133.172107 108.209295 
L 134.175124 104.395821 
L 135.385661 98.862147 
L 136.930537 90.679428 
L 139.951116 73.135273 
L 141.991736 62.027681 
L 143.375207 55.652266 
L 144.493512 51.470931 
L 145.438884 48.737956 
L 146.23438 47.063927 
L 146.914587 46.111423 
L 147.491033 45.660263 
L 147.986777 45.537246 
L 148.459463 45.649092 
L 148.955207 46.005909 
L 149.520124 46.708149 
L 150.165744 47.888075 
L 150.926653 49.776366 
L 151.81438 52.61881 
L 152.851983 56.729578 
L 154.108636 62.667824 
L 155.768802 71.680804 
L 160.956818 100.644466 
L 162.236529 106.155623 
L 163.29719 109.797674 
L 164.184917 112.106325 
L 164.934298 113.487966 
L 165.568388 114.233139 
L 166.110248 114.554747 
L 166.594463 114.593879 
L 167.067149 114.405743 
L 167.58595 113.943349 
L 168.173926 113.10012 
L 168.854132 111.712491 
L 169.649628 109.553251 
L 170.583471 106.332584 
L 171.690248 101.664741 
L 173.050661 94.898903 
L 174.964463 84.131221 
L 178.699835 62.9615 
L 180.129421 56.23437 
L 181.282314 51.817416 
L 182.239215 48.96989 
L 183.057769 47.185846 
L 183.749504 46.174626 
L 184.32595 45.690513 
L 184.833223 45.538311 
L 185.305909 45.628342 
L 185.801653 45.962427 
L 186.355041 46.622221 
L 187.000661 47.766676 
L 187.750041 49.58317 
L 188.62624 52.333442 
L 189.652314 56.332682 
L 190.897438 62.143454 
L 192.511488 70.828532 
L 198.045372 101.558734 
L 199.290496 106.767878 
L 200.31657 110.170405 
L 201.18124 112.329309 
L 201.919091 113.620807 
L 202.541653 114.299557 
L 203.071983 114.574711 
L 203.544669 114.582897 
L 204.017355 114.367546 
L 204.536157 113.875573 
L 205.135661 112.978963 
L 205.827397 111.519287 
L 206.634421 109.267094 
L 207.579793 105.932159 
L 208.709628 101.077628 
L 210.104628 94.036027 
L 212.133719 82.511178 
L 212.54876 80.072086 
L 212.54876 80.072086 
" clip-path="url(#p31b0895fa0)" style="fill: none; stroke: #ff0000; stroke-width: 1.5; stroke-linecap: square"/>
   </g>
   <g id="line2d_8">
    <path d="M 64.978512 60.359726 
L 65.312851 62.670438 
L 65.451198 62.609558 
L 65.993058 62.087042 
L 66.154463 71.463143 
L 66.315868 72.233558 
L 66.385041 72.243566 
L 66.419628 72.193549 
L 66.557975 71.667978 
L 66.926901 69.054954 
L 67.722397 63.777407 
L 68.794587 58.67558 
L 69.705372 55.202531 
L 70.892851 51.583111 
L 71.907397 49.171296 
L 72.610661 47.957572 
L 73.532975 46.99337 
L 74.051777 46.801154 
L 74.570579 46.917754 
L 75.008678 47.201182 
L 75.700413 48.025221 
L 76.449793 49.346433 
L 77.23376 51.343462 
L 78.063843 53.943436 
L 79.355083 59.125041 
L 80.703967 65.566036 
L 82.617769 76.003094 
L 86.433843 96.915239 
L 88.18624 104.67761 
L 89.408306 108.856843 
L 90.307562 111.129352 
L 91.126116 112.573398 
L 91.691033 113.169942 
L 92.267479 113.501188 
L 92.613347 113.51227 
L 93.270496 113.332199 
L 93.708595 112.909146 
L 94.377273 111.95736 
L 94.919132 110.874836 
L 95.645455 109.025018 
L 96.671529 105.671024 
L 97.893595 100.637238 
L 99.749752 91.381234 
L 102.170826 77.838497 
L 104.614959 64.606695 
L 105.929256 58.397095 
L 107.139793 53.71319 
L 108.235041 50.366115 
L 108.89219 48.8624 
L 109.929793 47.253255 
L 110.782934 46.70696 
L 111.428554 46.723953 
L 112.039587 47.100981 
L 112.823554 48.10316 
L 113.492231 49.375149 
L 114.299256 51.460203 
L 115.705785 56.302975 
L 116.870207 61.357106 
L 118.265207 68.30304 
L 124.352479 100.363643 
L 125.759008 105.902841 
L 126.992603 109.512856 
L 127.765041 111.115316 
L 128.572066 112.210599 
L 128.883347 112.424906 
L 129.332975 112.62632 
L 129.805661 112.625109 
L 130.485868 112.244553 
L 131.707934 110.450187 
L 132.768595 107.816837 
L 133.460331 105.591514 
L 134.578636 101.327116 
L 136.181157 93.897925 
L 138.314008 82.546452 
L 140.781198 69.122004 
L 143.363678 57.124906 
L 144.654917 52.632811 
L 145.577231 50.25542 
L 146.142149 49.156209 
L 146.649421 48.448427 
L 147.237397 47.904386 
L 147.917603 47.700326 
L 148.551694 47.89195 
L 149.56624 49.022981 
L 151.041942 52.279137 
L 152.091074 55.707081 
L 153.53219 61.712214 
L 155.46905 71.490438 
L 157.428967 82.385263 
L 159.342769 92.810823 
L 160.668595 99.328355 
L 161.867603 104.427144 
L 163.135785 108.668217 
L 163.850579 110.490102 
L 164.450083 111.645706 
L 165.822025 113.096883 
L 166.456116 113.14315 
L 167.032562 112.856195 
L 167.620537 112.21489 
L 167.931818 111.771339 
L 168.911777 109.740648 
L 169.649628 107.670863 
L 170.295248 105.486244 
L 171.113802 102.259508 
L 172.554917 95.588383 
L 173.627107 89.952792 
L 175.806074 77.714473 
L 179.28781 59.502855 
L 180.532934 54.387439 
L 181.997107 49.837107 
L 182.954008 47.854578 
L 183.565041 47.04104 
L 184.083843 46.618941 
L 184.706405 46.450444 
L 185.179091 46.57838 
L 185.651777 46.924481 
L 186.216694 47.612767 
L 187.381116 49.981305 
L 188.199669 52.350039 
L 189.329504 56.4763 
L 190.332521 60.867454 
L 191.819752 68.35274 
L 198.183719 102.410385 
L 199.601777 107.858591 
L 200.789256 111.225999 
L 201.584752 112.786652 
L 202.230372 113.598331 
L 202.829876 113.984945 
L 203.291033 114.056211 
L 203.729132 113.915087 
L 204.270992 113.483234 
L 204.92814 112.580052 
L 205.585289 111.267487 
L 206.277025 109.471411 
L 207.060992 106.946373 
L 208.144711 102.7173 
L 209.401364 96.882414 
L 211.545744 85.36266 
L 212.54876 79.624285 
L 212.54876 79.624285 
" clip-path="url(#p31b0895fa0)" style="fill: none; stroke: #1f77b4; stroke-linecap: square"/>
   </g>
   <g id="line2d_9">
    <path d="M 64.978512 60.359726 
L 65.047686 61.209363 
L 65.266736 62.630265 
L 65.393554 62.677358 
L 65.416612 62.66055 
L 67.226653 60.924939 
L 67.872273 59.590852 
L 68.921405 56.833473 
L 71.042727 51.227865 
L 71.988099 49.376281 
L 72.737479 48.357403 
L 73.360041 47.853811 
L 73.901901 47.685768 
L 74.397645 47.760215 
L 74.904917 48.066202 
L 75.469835 48.682096 
L 76.115455 49.7385 
L 76.864835 51.424867 
L 77.729504 53.955171 
L 78.74405 57.654222 
L 79.966116 63.004843 
L 81.545579 70.997905 
L 87.310041 101.173583 
L 88.532107 105.914308 
L 89.535124 108.979582 
L 90.388264 110.923737 
L 91.114587 112.063658 
L 91.72562 112.641454 
L 92.25595 112.855476 
L 92.740165 112.816315 
L 93.235909 112.544917 
L 93.789298 111.968406 
L 94.423388 110.959963 
L 95.16124 109.334188 
L 96.01438 106.879794 
L 97.017397 103.272419 
L 98.216405 98.078205 
L 99.761281 90.316241 
L 103.277603 71.039234 
L 105.087645 62.007198 
L 106.425 56.396094 
L 107.531777 52.6549 
L 108.46562 50.232035 
L 109.261116 48.745337 
L 109.929793 47.928811 
L 110.50624 47.552711 
L 111.013512 47.4772 
L 111.509256 47.634623 
L 112.062645 48.058714 
L 112.673678 48.827642 
L 113.365413 50.081356 
L 114.160909 52.013244 
L 115.083223 54.868703 
L 116.178471 59.022337 
L 117.538884 65.112832 
L 119.464215 74.865698 
L 123.453223 95.259966 
L 124.894339 101.370996 
L 126.047231 105.355131 
L 127.004132 107.920329 
L 127.811157 109.499153 
L 128.491364 110.386399 
L 129.079339 110.814227 
L 129.586612 110.926118 
L 130.070826 110.809562 
L 130.589628 110.44391 
L 131.177603 109.733444 
L 131.85781 108.531735 
L 132.653306 106.637556 
L 133.587149 103.798521 
L 134.693926 99.681731 
L 136.065868 93.662387 
L 137.945083 84.31512 
L 141.968678 64.058011 
L 143.363678 58.305579 
L 144.481983 54.576609 
L 145.415826 52.181595 
L 146.211322 50.71191 
L 146.88 49.906684 
L 147.456446 49.538147 
L 147.963719 49.46723 
L 148.459463 49.628354 
L 148.989793 50.052138 
L 149.589298 50.840413 
L 150.281033 52.147781 
L 151.076529 54.155496 
L 152.010372 57.151353 
L 153.117149 61.490851 
L 154.50062 67.880396 
L 156.506653 78.325368 
L 159.873099 95.834995 
L 161.325744 102.169384 
L 162.478636 106.262937 
L 163.435537 108.898431 
L 164.242562 110.522157 
L 164.934298 111.449924 
L 165.522273 111.890429 
L 166.029545 112.009507 
L 166.51376 111.896803 
L 167.021033 111.542607 
L 167.597479 110.850457 
L 168.266157 109.67041 
L 169.038595 107.822316 
L 169.937851 105.056142 
L 170.998512 101.027178 
L 172.289752 95.186787 
L 174.03062 86.179473 
L 178.549959 62.310197 
L 179.921901 56.491899 
L 181.040207 52.656866 
L 181.985579 50.15667 
L 182.781074 48.629772 
L 183.461281 47.766764 
L 184.037727 47.366038 
L 184.545 47.269237 
L 185.029215 47.402288 
L 185.548017 47.789362 
L 186.124463 48.513708 
L 186.79314 49.734129 
L 187.565579 51.63257 
L 188.476364 54.498872 
L 189.560083 58.695765 
L 190.897438 64.833313 
L 192.742066 74.455739 
L 197.226818 98.236276 
L 198.621818 104.251354 
L 199.740124 108.157522 
L 200.673967 110.669686 
L 201.457934 112.192939 
L 202.126612 113.04227 
L 202.691529 113.425237 
L 203.187273 113.504258 
L 203.659959 113.354538 
L 204.167231 112.950452 
L 204.743678 112.190029 
L 205.412355 110.918751 
L 206.196322 108.924219 
L 207.130165 105.898642 
L 208.236942 101.514831 
L 209.597355 95.165474 
L 211.441983 85.396348 
L 212.54876 79.214698 
L 212.54876 79.214698 
" clip-path="url(#p31b0895fa0)" style="fill: none; stroke: #ff7f0e; stroke-linecap: square"/>
   </g>
   <g id="line2d_10">
    <path d="M 64.978512 60.359726 
L 65.047686 61.196615 
L 65.255207 62.494605 
L 65.347438 62.514117 
L 65.382025 62.478757 
L 65.658719 61.932473 
L 66.108347 61.279133 
L 66.869256 60.297159 
L 67.491818 59.01647 
L 68.391074 56.587229 
L 71.377066 48.148746 
L 72.253264 46.477447 
L 72.956529 45.572625 
L 73.544504 45.1452 
L 74.063306 45.02984 
L 74.547521 45.149578 
L 75.054793 45.513456 
L 75.63124 46.223466 
L 76.288388 47.413284 
L 77.049298 49.283058 
L 77.937025 52.096861 
L 78.974628 56.172248 
L 80.219752 62.016578 
L 81.845331 70.804793 
L 87.333099 101.421653 
L 88.578223 106.670751 
L 89.615826 110.139901 
L 90.492025 112.344673 
L 91.229876 113.650201 
L 91.863967 114.354316 
L 92.405826 114.644197 
L 92.890041 114.658263 
L 93.374256 114.440993 
L 93.904587 113.938971 
L 94.504091 113.043003 
L 95.195826 111.585529 
L 96.002851 109.333089 
L 96.948223 105.987403 
L 98.066529 101.154672 
L 99.45 94.122466 
L 101.502149 82.388899 
L 104.753306 63.877759 
L 106.240537 56.723665 
L 107.428017 52.040736 
L 108.407975 49.014032 
L 109.238058 47.115113 
L 109.941322 46.01761 
L 110.529298 45.47458 
L 111.03657 45.285864 
L 111.509256 45.343677 
L 112.016529 45.637797 
L 112.569917 46.228975 
L 113.204008 47.25578 
L 113.930331 48.883291 
L 114.771942 51.346713 
L 115.76343 54.984923 
L 116.93938 60.203405 
L 118.415083 67.837361 
L 120.882273 81.998471 
L 123.303347 95.420566 
L 124.767521 102.331102 
L 125.943471 106.871661 
L 126.92343 109.832541 
L 127.753512 111.691275 
L 128.456777 112.769251 
L 129.056281 113.313869 
L 129.575083 113.500535 
L 130.047769 113.437865 
L 130.531983 113.142732 
L 131.073843 112.536657 
L 131.696405 111.486405 
L 132.422727 109.798661 
L 133.275868 107.218416 
L 134.290413 103.394708 
L 135.524008 97.82252 
L 137.149587 89.363051 
L 142.718058 59.464632 
L 143.963182 54.429455 
L 144.989256 51.151123 
L 145.853926 49.084639 
L 146.580248 47.878144 
L 147.20281 47.244322 
L 147.73314 47.001631 
L 148.217355 47.02053 
L 148.70157 47.268654 
L 149.24343 47.815671 
L 149.865992 48.788976 
L 150.580785 50.346836 
L 151.422397 52.753327 
L 152.402355 56.27119 
L 153.578306 61.375081 
L 155.065537 68.901021 
L 157.486612 82.507633 
L 160.011446 96.285622 
L 161.464091 103.024251 
L 162.616983 107.389938 
L 163.585413 110.247001 
L 164.403967 112.023354 
L 165.095702 113.041796 
L 165.683678 113.549079 
L 166.202479 113.719141 
L 166.686694 113.641938 
L 167.182438 113.327261 
L 167.735826 112.696528 
L 168.369917 111.616939 
L 169.107769 109.893903 
L 169.960909 107.304449 
L 170.963926 103.50469 
L 172.162934 98.034924 
L 173.70781 89.861797 
L 179.691322 57.032332 
L 180.90186 52.175201 
L 181.904876 49.009356 
L 182.746488 47.031584 
L 183.461281 45.875531 
L 184.060785 45.293282 
L 184.579587 45.081373 
L 185.052273 45.126569 
L 185.536488 45.408739 
L 186.066818 45.989849 
L 186.68938 47.029033 
L 187.404174 48.683495 
L 188.245785 51.232221 
L 189.225744 54.953948 
L 190.390165 60.298256 
L 191.854339 68.13608 
L 194.217769 82.209841 
L 196.77719 97.038419 
L 198.252893 104.322762 
L 199.440372 109.127587 
L 200.43186 112.271508 
L 201.273471 114.251044 
L 201.976736 115.387097 
L 202.57624 115.967537 
L 203.083512 116.172695 
L 203.544669 116.128438 
L 204.017355 115.853473 
L 204.547686 115.268475 
L 205.158719 114.235643 
L 205.861983 112.583415 
L 206.692066 110.026714 
L 207.672025 106.237298 
L 208.859504 100.691062 
L 210.381322 92.429747 
L 212.54876 79.456292 
L 212.54876 79.456292 
" clip-path="url(#p31b0895fa0)" style="fill: none; stroke: #2ca02c; stroke-linecap: square"/>
   </g>
   <g id="patch_3">
    <path d="M 57.6 119.740235 
L 57.6 41.472 
" style="fill: none; stroke: #000000; stroke-width: 0.8; stroke-linejoin: miter; stroke-linecap: square"/>
   </g>
   <g id="patch_4">
    <path d="M 219.927273 119.740235 
L 219.927273 41.472 
" style="fill: none; stroke: #000000; stroke-width: 0.8; stroke-linejoin: miter; stroke-linecap: square"/>
   </g>
   <g id="patch_5">
    <path d="M 57.6 119.740235 
L 219.927273 119.740235 
" style="fill: none; stroke: #000000; stroke-width: 0.8; stroke-linejoin: miter; stroke-linecap: square"/>
   </g>
   <g id="patch_6">
    <path d="M 57.6 41.472 
L 219.927273 41.472 
" style="fill: none; stroke: #000000; stroke-width: 0.8; stroke-linejoin: miter; stroke-linecap: square"/>
   </g>
   <g id="legend_1">
    <g id="patch_7">
     <path d="M 169.300396 97.043512 
L 214.096273 97.043512 
Q 215.762273 97.043512 215.762273 95.377512 
L 215.762273 47.303 
Q 215.762273 45.637 214.096273 45.637 
L 169.300396 45.637 
Q 167.634396 45.637 167.634396 47.303 
L 167.634396 95.377512 
Q 167.634396 97.043512 169.300396 97.043512 
z
" style="fill: #ffffff; opacity: 0.8; stroke: #cccccc; stroke-linejoin: miter"/>
    </g>
    <g id="line2d_11">
     <path d="M 170.966396 52.382998 
L 179.296396 52.382998 
L 187.626396 52.382998 
" style="fill: none; stroke: #ff0000; stroke-width: 1.5; stroke-linecap: square"/>
    </g>
    <g id="text_8">
     <!-- gt -->
     <g transform="translate(194.290396 55.298498)scale(0.0833 -0.0833)">
      <defs>
       <path id="DejaVuSans-67" d="M 2906 1791 
Q 2906 2416 2648 2759 
Q 2391 3103 1925 3103 
Q 1463 3103 1205 2759 
Q 947 2416 947 1791 
Q 947 1169 1205 825 
Q 1463 481 1925 481 
Q 2391 481 2648 825 
Q 2906 1169 2906 1791 
z
M 3481 434 
Q 3481 -459 3084 -895 
Q 2688 -1331 1869 -1331 
Q 1566 -1331 1297 -1286 
Q 1028 -1241 775 -1147 
L 775 -588 
Q 1028 -725 1275 -790 
Q 1522 -856 1778 -856 
Q 2344 -856 2625 -561 
Q 2906 -266 2906 331 
L 2906 616 
Q 2728 306 2450 153 
Q 2172 0 1784 0 
Q 1141 0 747 490 
Q 353 981 353 1791 
Q 353 2603 747 3093 
Q 1141 3584 1784 3584 
Q 2172 3584 2450 3431 
Q 2728 3278 2906 2969 
L 2906 3500 
L 3481 3500 
L 3481 434 
z
" transform="scale(0.015625)"/>
       <path id="DejaVuSans-74" d="M 1172 4494 
L 1172 3500 
L 2356 3500 
L 2356 3053 
L 1172 3053 
L 1172 1153 
Q 1172 725 1289 603 
Q 1406 481 1766 481 
L 2356 481 
L 2356 0 
L 1766 0 
Q 1100 0 847 248 
Q 594 497 594 1153 
L 594 3053 
L 172 3053 
L 172 3500 
L 594 3500 
L 594 4494 
L 1172 4494 
z
" transform="scale(0.015625)"/>
      </defs>
      <use xlink:href="#DejaVuSans-67"/>
      <use xlink:href="#DejaVuSans-74" x="63.476562"/>
     </g>
    </g>
    <g id="line2d_12">
     <path d="M 170.966396 64.609877 
L 179.296396 64.609877 
L 187.626396 64.609877 
" style="fill: none; stroke: #1f77b4; stroke-linecap: square"/>
    </g>
    <g id="text_9">
     <!-- ours -->
     <g transform="translate(194.290396 67.525377)scale(0.0833 -0.0833)">
      <defs>
       <path id="DejaVuSans-6f" d="M 1959 3097 
Q 1497 3097 1228 2736 
Q 959 2375 959 1747 
Q 959 1119 1226 758 
Q 1494 397 1959 397 
Q 2419 397 2687 759 
Q 2956 1122 2956 1747 
Q 2956 2369 2687 2733 
Q 2419 3097 1959 3097 
z
M 1959 3584 
Q 2709 3584 3137 3096 
Q 3566 2609 3566 1747 
Q 3566 888 3137 398 
Q 2709 -91 1959 -91 
Q 1206 -91 779 398 
Q 353 888 353 1747 
Q 353 2609 779 3096 
Q 1206 3584 1959 3584 
z
" transform="scale(0.015625)"/>
       <path id="DejaVuSans-75" d="M 544 1381 
L 544 3500 
L 1119 3500 
L 1119 1403 
Q 1119 906 1312 657 
Q 1506 409 1894 409 
Q 2359 409 2629 706 
Q 2900 1003 2900 1516 
L 2900 3500 
L 3475 3500 
L 3475 0 
L 2900 0 
L 2900 538 
Q 2691 219 2414 64 
Q 2138 -91 1772 -91 
Q 1169 -91 856 284 
Q 544 659 544 1381 
z
M 1991 3584 
L 1991 3584 
z
" transform="scale(0.015625)"/>
       <path id="DejaVuSans-73" d="M 2834 3397 
L 2834 2853 
Q 2591 2978 2328 3040 
Q 2066 3103 1784 3103 
Q 1356 3103 1142 2972 
Q 928 2841 928 2578 
Q 928 2378 1081 2264 
Q 1234 2150 1697 2047 
L 1894 2003 
Q 2506 1872 2764 1633 
Q 3022 1394 3022 966 
Q 3022 478 2636 193 
Q 2250 -91 1575 -91 
Q 1294 -91 989 -36 
Q 684 19 347 128 
L 347 722 
Q 666 556 975 473 
Q 1284 391 1588 391 
Q 1994 391 2212 530 
Q 2431 669 2431 922 
Q 2431 1156 2273 1281 
Q 2116 1406 1581 1522 
L 1381 1569 
Q 847 1681 609 1914 
Q 372 2147 372 2553 
Q 372 3047 722 3315 
Q 1072 3584 1716 3584 
Q 2034 3584 2315 3537 
Q 2597 3491 2834 3397 
z
" transform="scale(0.015625)"/>
      </defs>
      <use xlink:href="#DejaVuSans-6f"/>
      <use xlink:href="#DejaVuSans-75" x="61.181641"/>
      <use xlink:href="#DejaVuSans-72" x="124.560547"/>
      <use xlink:href="#DejaVuSans-73" x="165.673828"/>
     </g>
    </g>
    <g id="line2d_13">
     <path d="M 170.966396 76.836755 
L 179.296396 76.836755 
L 187.626396 76.836755 
" style="fill: none; stroke: #ff7f0e; stroke-linecap: square"/>
    </g>
    <g id="text_10">
     <!-- g -->
     <g transform="translate(194.290396 79.752255)scale(0.0833 -0.0833)">
      <use xlink:href="#DejaVuSans-67"/>
     </g>
    </g>
    <g id="line2d_14">
     <path d="M 170.966396 89.063633 
L 179.296396 89.063633 
L 187.626396 89.063633 
" style="fill: none; stroke: #2ca02c; stroke-linecap: square"/>
    </g>
    <g id="text_11">
     <!-- og -->
     <g transform="translate(194.290396 91.979133)scale(0.0833 -0.0833)">
      <use xlink:href="#DejaVuSans-6f"/>
      <use xlink:href="#DejaVuSans-67" x="61.181641"/>
     </g>
    </g>
   </g>
  </g>
  <g id="axes_2">
   <g id="patch_8">
    <path d="M 252.392727 119.740235 
L 414.72 119.740235 
L 414.72 41.472 
L 252.392727 41.472 
z
" style="fill: #ffffff"/>
   </g>
   <g id="matplotlib.axis_3">
    <g id="xtick_5">
     <g id="line2d_15">
      <g>
       <use xlink:href="#ma4e95ba0f5" x="259.77124" y="119.740235" style="stroke: #000000; stroke-width: 0.8"/>
      </g>
     </g>
     <g id="text_12">
      <!-- 0 -->
      <g transform="translate(256.58999 134.338673)scale(0.1 -0.1)">
       <use xlink:href="#DejaVuSans-30"/>
      </g>
     </g>
    </g>
    <g id="xtick_6">
     <g id="line2d_16">
      <g>
       <use xlink:href="#ma4e95ba0f5" x="305.886942" y="119.740235" style="stroke: #000000; stroke-width: 0.8"/>
      </g>
     </g>
     <g id="text_13">
      <!-- 10 -->
      <g transform="translate(299.524442 134.338673)scale(0.1 -0.1)">
       <use xlink:href="#DejaVuSans-31"/>
       <use xlink:href="#DejaVuSans-30" x="63.623047"/>
      </g>
     </g>
    </g>
    <g id="xtick_7">
     <g id="line2d_17">
      <g>
       <use xlink:href="#ma4e95ba0f5" x="352.002645" y="119.740235" style="stroke: #000000; stroke-width: 0.8"/>
      </g>
     </g>
     <g id="text_14">
      <!-- 20 -->
      <g transform="translate(345.640145 134.338673)scale(0.1 -0.1)">
       <use xlink:href="#DejaVuSans-32"/>
       <use xlink:href="#DejaVuSans-30" x="63.623047"/>
      </g>
     </g>
    </g>
    <g id="xtick_8">
     <g id="line2d_18">
      <g>
       <use xlink:href="#ma4e95ba0f5" x="398.118347" y="119.740235" style="stroke: #000000; stroke-width: 0.8"/>
      </g>
     </g>
     <g id="text_15">
      <!-- 30 -->
      <g transform="translate(391.755847 134.338673)scale(0.1 -0.1)">
       <use xlink:href="#DejaVuSans-33"/>
       <use xlink:href="#DejaVuSans-30" x="63.623047"/>
      </g>
     </g>
    </g>
   </g>
   <g id="matplotlib.axis_4">
    <g id="ytick_3">
     <g id="line2d_19">
      <g>
       <use xlink:href="#m21b9d05c50" x="252.392727" y="108.803971" style="stroke: #000000; stroke-width: 0.8"/>
      </g>
     </g>
     <g id="text_16">
      <!-- −1 -->
      <g transform="translate(230.65054 112.603189)scale(0.1 -0.1)">
       <use xlink:href="#DejaVuSans-2212"/>
       <use xlink:href="#DejaVuSans-31" x="83.789062"/>
      </g>
     </g>
    </g>
    <g id="ytick_4">
     <g id="line2d_20">
      <g>
       <use xlink:href="#m21b9d05c50" x="252.392727" y="81.619759" style="stroke: #000000; stroke-width: 0.8"/>
      </g>
     </g>
     <g id="text_17">
      <!-- 0 -->
      <g transform="translate(239.030227 85.418978)scale(0.1 -0.1)">
       <use xlink:href="#DejaVuSans-30"/>
      </g>
     </g>
    </g>
    <g id="ytick_5">
     <g id="line2d_21">
      <g>
       <use xlink:href="#m21b9d05c50" x="252.392727" y="54.435547" style="stroke: #000000; stroke-width: 0.8"/>
      </g>
     </g>
     <g id="text_18">
      <!-- 1 -->
      <g transform="translate(239.030227 58.234766)scale(0.1 -0.1)">
       <use xlink:href="#DejaVuSans-31"/>
      </g>
     </g>
    </g>
    <g id="text_19">
     <!-- $q_2$ (rad) -->
     <g transform="translate(224.55054 99.956118)rotate(-90)scale(0.1 -0.1)">
      <use xlink:href="#DejaVuSans-Oblique-71" transform="translate(0 0.015625)"/>
      <use xlink:href="#DejaVuSans-32" transform="translate(63.476562 -16.390625)scale(0.7)"/>
      <use xlink:href="#DejaVuSans-20" transform="translate(110.74707 0.015625)"/>
      <use xlink:href="#DejaVuSans-28" transform="translate(142.53418 0.015625)"/>
      <use xlink:href="#DejaVuSans-72" transform="translate(181.547852 0.015625)"/>
      <use xlink:href="#DejaVuSans-61" transform="translate(222.661133 0.015625)"/>
      <use xlink:href="#DejaVuSans-64" transform="translate(283.94043 0.015625)"/>
      <use xlink:href="#DejaVuSans-29" transform="translate(347.416992 0.015625)"/>
     </g>
    </g>
   </g>
   <g id="line2d_22">
    <path d="M 259.77124 48.748807 
L 260.163223 48.866627 
L 260.601322 49.250081 
L 261.120124 50.031992 
L 261.742686 51.405524 
L 262.515124 53.692609 
L 263.506612 57.386722 
L 265.005372 63.951771 
L 267.322686 74.010595 
L 268.383347 77.630488 
L 269.21343 79.736601 
L 269.882107 80.88716 
L 270.435496 81.4407 
L 270.896653 81.616084 
L 271.323223 81.544152 
L 271.772851 81.225766 
L 272.280124 80.573636 
L 272.891157 79.39302 
L 273.617479 77.471226 
L 274.516736 74.419435 
L 275.727273 69.444368 
L 279.393471 53.82249 
L 280.292727 51.184175 
L 281.007521 49.721298 
L 281.572438 49.019354 
L 282.033595 48.766555 
L 282.437107 48.791702 
L 282.84062 49.052516 
L 283.301777 49.642939 
L 283.843636 50.735629 
L 284.477727 52.552934 
L 285.227107 55.417479 
L 286.126364 59.791457 
L 287.244669 66.424038 
L 288.812603 77.216558 
L 291.971529 99.174532 
L 293.147479 105.678214 
L 294.092851 109.743882 
L 294.876818 112.205426 
L 295.522438 113.57095 
L 296.064298 114.245084 
L 296.513926 114.478065 
L 296.905909 114.443486 
L 297.32095 114.171905 
L 297.805165 113.56161 
L 298.381612 112.448034 
L 299.096405 110.539709 
L 299.995661 107.443172 
L 301.229256 102.306145 
L 304.630289 87.703519 
L 305.598719 84.706087 
L 306.371157 82.985427 
L 306.993719 82.089054 
L 307.512521 81.697185 
L 307.95062 81.624167 
L 308.37719 81.781177 
L 308.838347 82.201635 
L 309.380207 83.019642 
L 310.025826 84.427397 
L 310.809793 86.709877 
L 311.801281 90.341784 
L 313.230868 96.532485 
L 315.77876 107.602121 
L 316.804835 111.038823 
L 317.588802 112.956533 
L 318.222893 113.970879 
L 318.730165 114.401669 
L 319.145207 114.488282 
L 319.53719 114.343364 
L 319.96376 113.93089 
L 320.459504 113.115517 
L 321.047479 111.683304 
L 321.739215 109.370335 
L 322.557769 105.810987 
L 323.549256 100.448183 
L 324.828967 92.209293 
L 327.572851 72.576722 
L 329.140785 62.408674 
L 330.259091 56.518932 
L 331.158347 52.878913 
L 331.907727 50.69037 
L 332.530289 49.488969 
L 333.049091 48.922626 
L 333.475661 48.75161 
L 333.867645 48.824715 
L 334.294215 49.147777 
L 334.789959 49.828607 
L 335.389463 51.0616 
L 336.127314 53.129842 
L 337.061157 56.464906 
L 338.386983 62.119848 
L 341.292273 74.704239 
L 342.306818 78.029973 
L 343.113843 79.971276 
L 343.770992 81.019032 
L 344.312851 81.496746 
L 344.762479 81.61975 
L 345.18905 81.505252 
L 345.638678 81.142567 
L 346.169008 80.402947 
L 346.79157 79.124124 
L 347.552479 77.010572 
L 348.497851 73.671211 
L 349.80062 68.164522 
L 352.878843 54.87003 
L 353.847273 51.781793 
L 354.608182 50.039684 
L 355.207686 49.164404 
L 355.691901 48.806527 
L 356.106942 48.760662 
L 356.498926 48.944921 
L 356.937025 49.416738 
L 357.444298 50.315475 
L 358.043802 51.860553 
L 358.758595 54.364153 
L 359.611736 58.227915 
L 360.649339 64.039422 
L 362.021281 73.112259 
L 366.298512 102.349398 
L 367.359174 107.653714 
L 368.223843 110.936092 
L 368.950165 112.890182 
L 369.549669 113.92552 
L 370.045413 114.382816 
L 370.460455 114.490351 
L 370.852438 114.366164 
L 371.290537 113.975853 
L 371.809339 113.18628 
L 372.44343 111.774615 
L 373.215868 109.469826 
L 374.207355 105.758837 
L 375.729174 99.077216 
L 377.988843 89.273065 
L 379.049504 85.643147 
L 379.879587 83.527193 
L 380.559793 82.352358 
L 381.113182 81.798817 
L 381.574339 81.623433 
L 382.000909 81.695366 
L 382.450537 82.013751 
L 382.95781 82.665882 
L 383.568843 83.846498 
L 384.295165 85.768292 
L 385.194421 88.820082 
L 386.404959 93.795149 
L 390.071157 109.417027 
L 390.970413 112.055342 
L 391.685207 113.518219 
L 392.250124 114.220163 
L 392.711281 114.472963 
L 393.114793 114.447815 
L 393.518306 114.187001 
L 393.979463 113.596578 
L 394.521322 112.503888 
L 395.155413 110.686583 
L 395.904793 107.822038 
L 396.80405 103.448061 
L 397.922355 96.81548 
L 399.490289 86.02296 
L 402.649215 64.064986 
L 403.825165 57.561303 
L 404.770537 53.495635 
L 405.554504 51.034091 
L 406.200124 49.668568 
L 406.741983 48.994434 
L 407.191612 48.761453 
L 407.341488 48.748807 
L 407.341488 48.748807 
" clip-path="url(#p8a49c95342)" style="fill: none; stroke: #ff0000; stroke-width: 1.5; stroke-linecap: square"/>
   </g>
   <g id="line2d_23">
    <path d="M 259.77124 81.619759 
L 259.921116 74.852095 
L 260.370744 58.505971 
L 260.693554 53.549261 
L 260.785785 52.844401 
L 260.878017 45.029647 
L 260.924132 45.337041 
L 261.304587 48.122722 
L 262.503595 52.681309 
L 263.967769 59.851313 
L 268.175826 77.315557 
L 269.052025 79.684882 
L 269.755289 81.04661 
L 270.38938 81.717936 
L 270.942769 81.923133 
L 271.25405 81.824245 
L 272.187893 80.990228 
L 272.718223 80.029873 
L 273.755826 77.318398 
L 274.436033 75.035913 
L 275.496694 70.776764 
L 279.670165 53.235176 
L 280.58095 50.808387 
L 281.180455 49.745724 
L 281.964421 49.035852 
L 282.379463 48.985074 
L 282.863678 49.245433 
L 283.451653 50.059449 
L 284.143388 51.606973 
L 284.55843 52.889535 
L 285.457686 56.393496 
L 286.368471 60.998376 
L 287.636653 68.732025 
L 289.642686 82.865364 
L 291.648719 96.703397 
L 292.997603 104.533307 
L 294.069793 109.237932 
L 295.003636 112.112512 
L 295.522438 113.119593 
L 296.087355 113.83576 
L 296.490868 114.033274 
L 296.813678 114.062361 
L 297.528471 113.61153 
L 298.220207 112.455547 
L 299.027231 110.496105 
L 300.099421 106.895759 
L 301.240785 102.224448 
L 303.465868 92.508784 
L 305.137562 86.320056 
L 306.255868 83.478691 
L 306.809256 82.51937 
L 307.247355 82.007169 
L 307.593223 81.78246 
L 308.065909 81.677615 
L 308.665413 81.927606 
L 309.322562 82.712968 
L 309.77219 83.590056 
L 311.06343 87.100654 
L 312.412314 92.146651 
L 313.864959 98.400917 
L 316.297562 108.156494 
L 317.093058 110.519217 
L 317.934669 112.288393 
L 318.36124 112.818055 
L 318.799339 113.190148 
L 319.421901 113.179726 
L 320.194339 112.380579 
L 320.782314 111.190079 
L 321.289587 109.800671 
L 322.281074 105.97567 
L 323.203388 101.378791 
L 324.068058 96.214198 
L 325.244008 88.404227 
L 325.993388 83.161422 
L 329.267603 61.672061 
L 330.305207 56.562414 
L 331.181405 53.242941 
L 332.057603 50.893011 
L 332.391942 50.309032 
L 332.73781 49.87138 
L 333.141322 49.592201 
L 333.694711 49.560631 
L 334.13281 49.799597 
L 334.847603 50.835051 
L 335.827562 53.203311 
L 337.614545 59.825076 
L 338.790496 65.136494 
L 339.989504 70.581789 
L 341.142397 75.330567 
L 342.756446 80.365433 
L 343.528884 81.826021 
L 343.840165 82.22653 
L 344.727893 82.734554 
L 344.946942 82.675238 
L 345.212107 82.564736 
L 345.869256 81.877755 
L 347.125909 79.233691 
L 347.356488 78.53736 
L 348.313388 75.249631 
L 349.385579 70.819915 
L 352.025702 58.832272 
L 353.801157 52.326797 
L 354.492893 50.595667 
L 355.150041 49.473194 
L 355.887893 48.866764 
L 356.337521 48.90757 
L 356.856322 49.298355 
L 357.144545 49.668666 
L 357.571116 50.45284 
L 358.332025 52.499396 
L 359.265868 56.144328 
L 360.049835 59.956149 
L 360.972149 65.311468 
L 362.551612 75.913822 
L 363.589215 83.308977 
L 364.891983 92.417919 
L 366.021818 99.544556 
L 366.921074 104.375446 
L 367.993264 108.904604 
L 368.78876 111.282405 
L 369.65343 112.814385 
L 370.206818 113.264368 
L 370.564215 113.305037 
L 370.990785 113.136633 
L 371.405826 112.723432 
L 371.993802 111.7808 
L 372.581777 110.443765 
L 373.388802 108.085188 
L 374.852975 102.525537 
L 378.680579 87.048375 
L 379.925702 83.870964 
L 380.467562 83.002901 
L 381.044008 82.429535 
L 381.770331 82.301646 
L 382.646529 82.998838 
L 382.969339 83.459954 
L 383.661074 84.892184 
L 384.940785 88.733231 
L 386.381901 94.460095 
L 388.64157 104.473311 
L 390.03657 109.869022 
L 391.074174 112.865416 
L 392.100248 114.608632 
L 392.457645 114.890414 
L 393.034091 114.964333 
L 393.426074 114.751625 
L 394.060165 113.899184 
L 394.498264 112.971669 
L 395.120826 111.173873 
L 395.801033 108.568455 
L 396.677231 104.359091 
L 397.887769 97.138193 
L 400.135909 81.271042 
L 402.407107 65.510481 
L 403.571529 58.777429 
L 404.539959 54.336851 
L 405.300868 51.667191 
L 405.969545 49.977637 
L 406.465289 49.164839 
L 406.961033 48.675766 
L 407.341488 48.571897 
L 407.341488 48.571897 
" clip-path="url(#p8a49c95342)" style="fill: none; stroke: #1f77b4; stroke-linecap: square"/>
   </g>
   <g id="line2d_24">
    <path d="M 259.77124 81.619759 
L 259.828884 79.570586 
L 260.382273 58.215239 
L 260.705083 53.3649 
L 260.981777 51.922866 
L 261.200826 51.663337 
L 261.385289 51.760355 
L 261.673512 52.225088 
L 262.192314 53.548684 
L 263.022397 56.339159 
L 264.198347 61.147479 
L 267.876074 76.747286 
L 268.798388 79.473072 
L 269.547769 81.050214 
L 270.158802 81.86306 
L 270.666074 82.197229 
L 271.104174 82.231712 
L 271.530744 82.038464 
L 272.00343 81.566217 
L 272.556818 80.679095 
L 273.225496 79.154018 
L 274.032521 76.721607 
L 275.058595 72.870155 
L 276.615 66.043882 
L 278.840083 56.421612 
L 279.889215 52.859432 
L 280.69624 50.847906 
L 281.34186 49.788006 
L 281.860661 49.326977 
L 282.287231 49.223547 
L 282.679215 49.354758 
L 283.105785 49.747965 
L 283.601529 50.534885 
L 284.189504 51.924552 
L 284.88124 54.175228 
L 285.699793 57.645238 
L 286.691281 62.882749 
L 287.959463 70.87161 
L 290.334421 87.618629 
L 292.086818 99.160567 
L 293.239711 105.374957 
L 294.162025 109.229231 
L 294.934463 111.578506 
L 295.580083 112.889525 
L 296.110413 113.514199 
L 296.560041 113.726703 
L 296.963554 113.675013 
L 297.390124 113.379227 
L 297.885868 112.73879 
L 298.485372 111.568523 
L 299.223223 109.599614 
L 300.157066 106.422528 
L 301.482893 101.030479 
L 304.491942 88.562003 
L 305.494959 85.438685 
L 306.313512 83.564132 
L 307.016777 82.434368 
L 307.570165 81.930081 
L 308.031322 81.79012 
L 308.457893 81.889992 
L 308.91905 82.242779 
L 309.44938 82.952943 
L 310.083471 84.204311 
L 310.855909 86.259679 
L 311.835868 89.554557 
L 313.253926 95.203657 
L 315.917107 105.878214 
L 316.931653 108.993004 
L 317.704091 110.715362 
L 318.326653 111.609163 
L 318.822397 111.969801 
L 319.237438 112.016974 
L 319.64095 111.831703 
L 320.07905 111.366649 
L 320.586322 110.481385 
L 321.185826 108.958302 
L 321.90062 106.488449 
L 322.75376 102.678064 
L 323.802893 96.893675 
L 325.232479 87.638536 
L 328.841033 63.764032 
L 329.982397 57.926165 
L 330.904711 54.276984 
L 331.677149 52.060026 
L 332.31124 50.850389 
L 332.84157 50.272867 
L 333.279669 50.095318 
L 333.683182 50.169049 
L 334.109752 50.489084 
L 334.605496 51.162655 
L 335.205 52.385483 
L 335.931322 54.408769 
L 336.853636 57.694516 
L 338.121818 63.123403 
L 341.338388 77.241115 
L 342.329876 80.446845 
L 343.113843 82.289668 
L 343.747934 83.269283 
L 344.278264 83.714238 
L 344.727893 83.816603 
L 345.154463 83.678767 
L 345.61562 83.274408 
L 346.14595 82.4892 
L 346.780041 81.122125 
L 347.552479 78.881186 
L 348.50938 75.364529 
L 349.823678 69.600561 
L 352.982603 55.44296 
L 353.962562 52.191434 
L 354.735 50.336906 
L 355.346033 49.386872 
L 355.841777 48.981103 
L 356.256818 48.904887 
L 356.648802 49.059139 
L 357.075372 49.480014 
L 357.582645 50.324458 
L 358.182149 51.798123 
L 358.885413 54.160421 
L 359.727025 57.822178 
L 360.753099 63.354037 
L 362.101983 71.961726 
L 366.506033 101.083313 
L 367.543636 106.013362 
L 368.396777 109.064766 
L 369.11157 110.856317 
L 369.699545 111.788549 
L 370.195289 112.193957 
L 370.62186 112.268774 
L 371.036901 112.105381 
L 371.498058 111.661911 
L 372.051446 110.787929 
L 372.720124 109.280479 
L 373.561736 106.785209 
L 374.680041 102.701112 
L 378.87657 86.622231 
L 379.718182 84.569545 
L 380.398388 83.439599 
L 380.963306 82.896285 
L 381.435992 82.729654 
L 381.862562 82.80805 
L 382.31219 83.124938 
L 382.830992 83.783166 
L 383.442025 84.942602 
L 384.179876 86.850981 
L 385.10219 89.904328 
L 386.335785 94.83415 
L 390.117273 110.498945 
L 391.016529 113.065202 
L 391.719793 114.464168 
L 392.284711 115.139417 
L 392.734339 115.365949 
L 393.126322 115.32699 
L 393.529835 115.049628 
L 393.990992 114.432464 
L 394.532851 113.295791 
L 395.166942 111.408188 
L 395.916322 108.434588 
L 396.815579 103.899159 
L 397.945413 96.967073 
L 399.605579 85.217802 
L 402.349463 65.866806 
L 403.594587 58.704232 
L 404.586074 54.20381 
L 405.416157 51.394837 
L 406.107893 49.77479 
L 406.684339 48.94229 
L 407.157025 48.613121 
L 407.341488 48.570483 
L 407.341488 48.570483 
" clip-path="url(#p8a49c95342)" style="fill: none; stroke: #ff7f0e; stroke-linecap: square"/>
   </g>
   <g id="line2d_25">
    <path d="M 259.77124 81.619759 
L 259.828884 79.569906 
L 260.393802 57.495384 
L 260.716612 52.584181 
L 260.993306 51.118347 
L 261.212355 50.851799 
L 261.396818 50.947201 
L 261.685041 51.413301 
L 262.203843 52.743542 
L 263.033926 55.545214 
L 264.221405 60.416535 
L 267.887603 76.022352 
L 268.821446 78.801528 
L 269.570826 80.389803 
L 270.18186 81.210349 
L 270.689132 81.549413 
L 271.127231 81.586763 
L 271.553802 81.39496 
L 272.026488 80.922647 
L 272.579876 80.033202 
L 273.248554 78.502371 
L 274.055579 76.059678 
L 275.081653 72.192702 
L 276.661116 65.24296 
L 278.817025 55.917526 
L 279.854628 52.382861 
L 280.650124 50.386451 
L 281.284215 49.330291 
L 281.803017 48.857153 
L 282.229587 48.747544 
L 282.62157 48.876784 
L 283.04814 49.272585 
L 283.543884 50.069567 
L 284.120331 51.449486 
L 284.812066 53.731816 
L 285.63062 57.262347 
L 286.622107 62.602723 
L 287.890289 70.753897 
L 290.380537 88.629466 
L 292.075289 99.880686 
L 293.228182 106.133134 
L 294.150496 110.005348 
L 294.922934 112.363705 
L 295.568554 113.677314 
L 296.098884 114.299133 
L 296.536983 114.502581 
L 296.928967 114.450593 
L 297.344008 114.161079 
L 297.828223 113.530536 
L 298.416198 112.367266 
L 299.130992 110.4237 
L 300.030248 107.288606 
L 301.275372 102.059078 
L 304.595702 87.72211 
L 305.564132 84.679797 
L 306.371157 82.828434 
L 307.062893 81.731575 
L 307.593223 81.263955 
L 308.042851 81.139593 
L 308.469421 81.254815 
L 308.91905 81.619475 
L 309.44938 82.361451 
L 310.083471 83.668224 
L 310.84438 85.78312 
L 311.801281 89.148204 
L 313.161694 94.840174 
L 315.917107 106.501173 
L 316.908595 109.679173 
L 317.681033 111.474164 
L 318.303595 112.406191 
L 318.799339 112.787861 
L 319.21438 112.848367 
L 319.606364 112.682153 
L 320.044463 112.23529 
L 320.551736 111.371595 
L 321.15124 109.876148 
L 321.866033 107.442737 
L 322.707645 103.733822 
L 323.733719 98.140728 
L 325.094132 89.374288 
L 329.371364 60.861346 
L 330.420496 55.780651 
L 331.273636 52.661492 
L 331.98843 50.823806 
L 332.576405 49.866415 
L 333.06062 49.457991 
L 333.475661 49.379018 
L 333.879174 49.537552 
L 334.328802 49.979046 
L 334.859132 50.841642 
L 335.504752 52.35374 
L 336.300248 54.829293 
L 337.326322 58.812059 
L 338.951901 66.158843 
L 341.027107 75.319041 
L 342.099298 79.080015 
L 342.92938 81.252223 
L 343.609587 82.463158 
L 344.162975 83.037952 
L 344.624132 83.224787 
L 345.039174 83.162745 
L 345.477273 82.861293 
L 345.984545 82.21481 
L 346.58405 81.055017 
L 347.298843 79.151918 
L 348.18657 76.101964 
L 349.350992 71.224901 
L 353.501405 53.045277 
L 354.354545 50.615544 
L 355.034752 49.283546 
L 355.58814 48.644289 
L 356.037769 48.437978 
L 356.429752 48.495588 
L 356.833264 48.790711 
L 357.294421 49.423573 
L 357.84781 50.597797 
L 358.49343 52.527462 
L 359.265868 55.587673 
L 360.188182 60.207941 
L 361.352603 67.263973 
L 363.105 79.442441 
L 365.629835 96.79028 
L 366.851901 103.649617 
L 367.820331 107.903611 
L 368.615826 110.482298 
L 369.284504 111.963885 
L 369.837893 112.703836 
L 370.29905 112.98428 
L 370.702562 112.982911 
L 371.117603 112.747583 
L 371.590289 112.20205 
L 372.155207 111.185609 
L 372.846942 109.451615 
L 373.72314 106.602668 
L 374.91062 101.906603 
L 378.461529 87.366229 
L 379.383843 84.720232 
L 380.121694 83.216645 
L 380.721198 82.446695 
L 381.216942 82.134226 
L 381.655041 82.108711 
L 382.081612 82.311212 
L 382.554298 82.795273 
L 383.107686 83.699682 
L 383.776364 85.252459 
L 384.583388 87.730695 
L 385.609463 91.6629 
L 387.131281 98.496864 
L 389.448595 108.813731 
L 390.486198 112.434787 
L 391.293223 114.506937 
L 391.927314 115.584927 
L 392.446116 116.0686 
L 392.872686 116.181985 
L 393.264669 116.052302 
L 393.679711 115.666214 
L 394.163926 114.889547 
L 394.740372 113.508918 
L 395.420579 111.257747 
L 396.227603 107.762538 
L 397.196033 102.515625 
L 398.429628 94.509646 
L 400.458719 79.612258 
L 402.568512 64.6781 
L 403.790579 57.558771 
L 404.759008 53.144057 
L 405.554504 50.465076 
L 406.223182 48.921225 
L 406.77657 48.144345 
L 407.237727 47.842762 
L 407.341488 47.817734 
L 407.341488 47.817734 
" clip-path="url(#p8a49c95342)" style="fill: none; stroke: #2ca02c; stroke-linecap: square"/>
   </g>
   <g id="patch_9">
    <path d="M 252.392727 119.740235 
L 252.392727 41.472 
" style="fill: none; stroke: #000000; stroke-width: 0.8; stroke-linejoin: miter; stroke-linecap: square"/>
   </g>
   <g id="patch_10">
    <path d="M 414.72 119.740235 
L 414.72 41.472 
" style="fill: none; stroke: #000000; stroke-width: 0.8; stroke-linejoin: miter; stroke-linecap: square"/>
   </g>
   <g id="patch_11">
    <path d="M 252.392727 119.740235 
L 414.72 119.740235 
" style="fill: none; stroke: #000000; stroke-width: 0.8; stroke-linejoin: miter; stroke-linecap: square"/>
   </g>
   <g id="patch_12">
    <path d="M 252.392727 41.472 
L 414.72 41.472 
" style="fill: none; stroke: #000000; stroke-width: 0.8; stroke-linejoin: miter; stroke-linecap: square"/>
   </g>
   <g id="legend_2">
    <g id="patch_13">
     <path d="M 368.432533 84.816634 
L 408.889 84.816634 
Q 410.555 84.816634 410.555 83.150634 
L 410.555 47.303 
Q 410.555 45.637 408.889 45.637 
L 368.432533 45.637 
Q 366.766533 45.637 366.766533 47.303 
L 366.766533 83.150634 
Q 366.766533 84.816634 368.432533 84.816634 
z
" style="fill: #ffffff; opacity: 0.8; stroke: #cccccc; stroke-linejoin: miter"/>
    </g>
    <g id="line2d_26">
     <path d="M 370.098533 52.382998 
L 378.428533 52.382998 
L 386.758533 52.382998 
" style="fill: none; stroke: #1f77b4; stroke-linecap: square"/>
    </g>
    <g id="text_20">
     <!-- our -->
     <g transform="translate(393.422533 55.298498)scale(0.0833 -0.0833)">
      <use xlink:href="#DejaVuSans-6f"/>
      <use xlink:href="#DejaVuSans-75" x="61.181641"/>
      <use xlink:href="#DejaVuSans-72" x="124.560547"/>
     </g>
    </g>
    <g id="line2d_27">
     <path d="M 370.098533 64.609877 
L 378.428533 64.609877 
L 386.758533 64.609877 
" style="fill: none; stroke: #ff7f0e; stroke-linecap: square"/>
    </g>
    <g id="text_21">
     <!-- g -->
     <g transform="translate(393.422533 67.525377)scale(0.0833 -0.0833)">
      <use xlink:href="#DejaVuSans-67"/>
     </g>
    </g>
    <g id="line2d_28">
     <path d="M 370.098533 76.836755 
L 378.428533 76.836755 
L 386.758533 76.836755 
" style="fill: none; stroke: #2ca02c; stroke-linecap: square"/>
    </g>
    <g id="text_22">
     <!-- og -->
     <g transform="translate(393.422533 79.752255)scale(0.0833 -0.0833)">
      <use xlink:href="#DejaVuSans-6f"/>
      <use xlink:href="#DejaVuSans-67" x="61.181641"/>
     </g>
    </g>
   </g>
  </g>
  <g id="axes_3">
   <g id="patch_14">
    <path d="M 252.392727 213.662118 
L 414.72 213.662118 
L 414.72 135.393882 
L 252.392727 135.393882 
z
" style="fill: #ffffff"/>
   </g>
   <g id="matplotlib.axis_5">
    <g id="xtick_9">
     <g id="line2d_29">
      <g>
       <use xlink:href="#ma4e95ba0f5" x="259.77124" y="213.662118" style="stroke: #000000; stroke-width: 0.8"/>
      </g>
     </g>
     <g id="text_23">
      <!-- 0 -->
      <g transform="translate(256.58999 228.260555)scale(0.1 -0.1)">
       <use xlink:href="#DejaVuSans-30"/>
      </g>
     </g>
    </g>
    <g id="xtick_10">
     <g id="line2d_30">
      <g>
       <use xlink:href="#ma4e95ba0f5" x="305.886942" y="213.662118" style="stroke: #000000; stroke-width: 0.8"/>
      </g>
     </g>
     <g id="text_24">
      <!-- 10 -->
      <g transform="translate(299.524442 228.260555)scale(0.1 -0.1)">
       <use xlink:href="#DejaVuSans-31"/>
       <use xlink:href="#DejaVuSans-30" x="63.623047"/>
      </g>
     </g>
    </g>
    <g id="xtick_11">
     <g id="line2d_31">
      <g>
       <use xlink:href="#ma4e95ba0f5" x="352.002645" y="213.662118" style="stroke: #000000; stroke-width: 0.8"/>
      </g>
     </g>
     <g id="text_25">
      <!-- 20 -->
      <g transform="translate(345.640145 228.260555)scale(0.1 -0.1)">
       <use xlink:href="#DejaVuSans-32"/>
       <use xlink:href="#DejaVuSans-30" x="63.623047"/>
      </g>
     </g>
    </g>
    <g id="xtick_12">
     <g id="line2d_32">
      <g>
       <use xlink:href="#ma4e95ba0f5" x="398.118347" y="213.662118" style="stroke: #000000; stroke-width: 0.8"/>
      </g>
     </g>
     <g id="text_26">
      <!-- 30 -->
      <g transform="translate(391.755847 228.260555)scale(0.1 -0.1)">
       <use xlink:href="#DejaVuSans-33"/>
       <use xlink:href="#DejaVuSans-30" x="63.623047"/>
      </g>
     </g>
    </g>
   </g>
   <g id="matplotlib.axis_6">
    <g id="ytick_6">
     <g id="line2d_33">
      <g>
       <use xlink:href="#m21b9d05c50" x="252.392727" y="210.10448" style="stroke: #000000; stroke-width: 0.8"/>
      </g>
     </g>
     <g id="text_27">
      <!-- 0 -->
      <g transform="translate(239.030227 213.903699)scale(0.1 -0.1)">
       <use xlink:href="#DejaVuSans-30"/>
      </g>
     </g>
    </g>
    <g id="ytick_7">
     <g id="line2d_34">
      <g>
       <use xlink:href="#m21b9d05c50" x="252.392727" y="158.753972" style="stroke: #000000; stroke-width: 0.8"/>
      </g>
     </g>
     <g id="text_28">
      <!-- 50 -->
      <g transform="translate(232.667727 162.553191)scale(0.1 -0.1)">
       <defs>
        <path id="DejaVuSans-35" d="M 691 4666 
L 3169 4666 
L 3169 4134 
L 1269 4134 
L 1269 2991 
Q 1406 3038 1543 3061 
Q 1681 3084 1819 3084 
Q 2600 3084 3056 2656 
Q 3513 2228 3513 1497 
Q 3513 744 3044 326 
Q 2575 -91 1722 -91 
Q 1428 -91 1123 -41 
Q 819 9 494 109 
L 494 744 
Q 775 591 1075 516 
Q 1375 441 1709 441 
Q 2250 441 2565 725 
Q 2881 1009 2881 1497 
Q 2881 1984 2565 2268 
Q 2250 2553 1709 2553 
Q 1456 2553 1204 2497 
Q 953 2441 691 2322 
L 691 4666 
z
" transform="scale(0.015625)"/>
       </defs>
       <use xlink:href="#DejaVuSans-35"/>
       <use xlink:href="#DejaVuSans-30" x="63.623047"/>
      </g>
     </g>
    </g>
    <g id="text_29">
     <!-- $e_{q_2}$ (deg) -->
     <g transform="translate(225.567727 196.578)rotate(-90)scale(0.1 -0.1)">
      <defs>
       <path id="DejaVuSans-Oblique-65" d="M 3078 2063 
Q 3088 2113 3092 2166 
Q 3097 2219 3097 2272 
Q 3097 2653 2873 2875 
Q 2650 3097 2266 3097 
Q 1838 3097 1509 2826 
Q 1181 2556 1013 2059 
L 3078 2063 
z
M 3578 1613 
L 903 1613 
Q 884 1494 878 1425 
Q 872 1356 872 1306 
Q 872 872 1139 634 
Q 1406 397 1894 397 
Q 2269 397 2603 481 
Q 2938 566 3225 728 
L 3116 159 
Q 2806 34 2476 -28 
Q 2147 -91 1806 -91 
Q 1078 -91 686 257 
Q 294 606 294 1247 
Q 294 1794 489 2264 
Q 684 2734 1063 3103 
Q 1306 3334 1642 3459 
Q 1978 3584 2356 3584 
Q 2950 3584 3301 3228 
Q 3653 2872 3653 2272 
Q 3653 2128 3634 1964 
Q 3616 1800 3578 1613 
z
" transform="scale(0.015625)"/>
       <path id="DejaVuSans-65" d="M 3597 1894 
L 3597 1613 
L 953 1613 
Q 991 1019 1311 708 
Q 1631 397 2203 397 
Q 2534 397 2845 478 
Q 3156 559 3463 722 
L 3463 178 
Q 3153 47 2828 -22 
Q 2503 -91 2169 -91 
Q 1331 -91 842 396 
Q 353 884 353 1716 
Q 353 2575 817 3079 
Q 1281 3584 2069 3584 
Q 2775 3584 3186 3129 
Q 3597 2675 3597 1894 
z
M 3022 2063 
Q 3016 2534 2758 2815 
Q 2500 3097 2075 3097 
Q 1594 3097 1305 2825 
Q 1016 2553 972 2059 
L 3022 2063 
z
" transform="scale(0.015625)"/>
      </defs>
      <use xlink:href="#DejaVuSans-Oblique-65" transform="translate(0 0.015625)"/>
      <use xlink:href="#DejaVuSans-Oblique-71" transform="translate(61.523438 -16.390625)scale(0.7)"/>
      <use xlink:href="#DejaVuSans-32" transform="translate(105.957031 -27.875)scale(0.49)"/>
      <use xlink:href="#DejaVuSans-20" transform="translate(141.780762 0.015625)"/>
      <use xlink:href="#DejaVuSans-28" transform="translate(173.567871 0.015625)"/>
      <use xlink:href="#DejaVuSans-64" transform="translate(212.581543 0.015625)"/>
      <use xlink:href="#DejaVuSans-65" transform="translate(276.058105 0.015625)"/>
      <use xlink:href="#DejaVuSans-67" transform="translate(337.581543 0.015625)"/>
      <use xlink:href="#DejaVuSans-29" transform="translate(401.058105 0.015625)"/>
     </g>
    </g>
   </g>
   <g id="line2d_35">
    <path d="M 259.77124 138.951529 
L 259.921116 153.643004 
L 260.382273 190.151799 
L 260.716612 201.540047 
L 260.785785 202.840056 
L 260.797314 209.247822 
L 260.878017 200.159085 
L 260.889545 200.189977 
L 261.016364 202.634211 
L 261.258471 205.029562 
L 261.523636 205.630763 
L 262.053967 206.40478 
L 262.411364 207.612447 
L 263.045455 210.102991 
L 263.09157 209.977678 
L 263.552727 209.080276 
L 263.979298 208.95447 
L 265.339711 209.218983 
L 265.743223 209.295805 
L 266.446488 209.401342 
L 267.126694 209.363723 
L 271.242521 209.547348 
L 271.496157 209.612909 
L 272.10719 209.509462 
L 273.017975 209.49723 
L 273.329256 209.435146 
L 275.485165 209.394141 
L 276.257603 209.418809 
L 276.488182 209.477039 
L 276.753347 209.379251 
L 276.914752 209.368059 
L 277.168388 209.413176 
L 277.618017 209.368451 
L 278.886198 209.333264 
L 279.105248 209.441642 
L 279.428058 209.410692 
L 279.912273 209.444179 
L 280.338843 209.416882 
L 280.58095 209.482457 
L 281.215041 209.473851 
L 281.468678 209.51242 
L 281.779959 209.607328 
L 282.171942 209.605518 
L 282.483223 209.632662 
L 282.748388 209.717873 
L 283.140372 209.768787 
L 283.578471 209.77495 
L 285.434628 209.995431 
L 286.795041 209.772029 
L 287.02562 209.719818 
L 289.688802 209.30691 
L 290.046198 209.306081 
L 290.230661 209.274186 
L 290.438182 209.295059 
L 292.720909 209.269895 
L 292.905372 209.290047 
L 293.355 209.256987 
L 293.539463 209.214026 
L 293.816157 209.149718 
L 294.092851 209.182996 
L 294.32343 209.178556 
L 294.669298 209.188045 
L 294.865289 209.190515 
L 295.337975 209.19017 
L 295.614669 209.152319 
L 295.902893 209.192862 
L 297.240248 209.321381 
L 297.563058 209.360955 
L 298.001157 209.252109 
L 298.83124 209.541163 
L 299.384628 209.574114 
L 300.837273 209.891074 
L 300.998678 209.979679 
L 301.217727 210.046869 
L 301.425248 210.081833 
L 301.575124 210.052373 
L 304.664876 209.516916 
L 304.860868 209.499671 
L 305.102975 209.479056 
L 305.898471 209.518532 
L 306.809256 209.644732 
L 307.08595 209.732808 
L 307.73157 209.931703 
L 307.973678 210.017566 
L 308.227314 210.031163 
L 308.630826 209.910164 
L 308.895992 209.882843 
L 309.161157 209.774712 
L 309.795248 209.616279 
L 309.933595 209.549668 
L 310.19876 209.414732 
L 310.463926 209.327873 
L 310.775207 209.193328 
L 310.994256 209.115385 
L 312.227851 208.504611 
L 312.377727 208.460837 
L 312.389256 208.471618 
L 312.585248 208.512303 
L 314.187769 207.799305 
L 314.337645 207.766251 
L 314.752686 207.593244 
L 315.721116 207.313493 
L 316.055455 207.377635 
L 316.297562 207.292011 
L 316.574256 207.253533 
L 316.920124 207.272034 
L 317.28905 207.310559 
L 317.71562 207.229882 
L 318.833926 207.389676 
L 319.029917 207.355318 
L 319.329669 207.483634 
L 323.226446 207.826852 
L 323.664545 207.880493 
L 323.929711 207.820104 
L 324.805909 208.132627 
L 324.944256 208.11012 
L 325.255537 208.155928 
L 325.428471 208.273224 
L 325.785868 208.358315 
L 326.339256 208.510028 
L 326.443017 208.508819 
L 326.466074 208.542689 
L 326.800413 208.801997 
L 327.192397 208.956692 
L 328.068595 209.38099 
L 328.218471 209.475705 
L 328.910207 209.929743 
L 329.071612 210.028368 
L 329.244545 210.094419 
L 329.394421 210.027051 
L 329.832521 209.762672 
L 330.028512 209.72565 
L 330.259091 209.571009 
L 331.631033 208.930135 
L 331.757851 208.875136 
L 331.792438 208.913389 
L 331.98843 209.024644 
L 331.999959 209.014473 
L 332.31124 208.713574 
L 332.368884 208.779991 
L 332.472645 208.784819 
L 332.495702 208.757014 
L 332.691694 208.686887 
L 333.037562 208.582252 
L 333.371901 208.530812 
L 333.533306 208.453721 
L 333.948347 208.336127 
L 334.248099 208.29624 
L 334.605496 208.269481 
L 334.801488 208.175997 
L 335.078182 208.118096 
L 335.30876 208.091678 
L 335.550868 207.992641 
L 335.758388 208.046067 
L 336.138843 207.939029 
L 336.323306 207.921088 
L 336.6 207.8504 
L 336.784463 207.855931 
L 337.038099 207.770831 
L 337.222562 207.800545 
L 337.510785 207.645433 
L 337.764421 207.688905 
L 338.121818 207.66331 
L 338.271694 207.586199 
L 338.525331 207.602133 
L 338.767438 207.560711 
L 338.998017 207.498836 
L 339.205537 207.59453 
L 339.597521 207.544536 
L 339.758926 207.522101 
L 340.081736 207.480036 
L 340.35843 207.46785 
L 340.531364 207.528407 
L 340.819587 207.450799 
L 341.015579 207.436237 
L 341.246157 207.539701 
L 341.269215 207.511266 
L 341.465207 207.412656 
L 341.845661 207.455004 
L 342.007066 207.439795 
L 342.352934 207.435488 
L 342.479752 207.448775 
L 342.837149 207.56248 
L 343.298306 207.536109 
L 343.482769 207.698338 
L 343.505826 207.679038 
L 343.713347 207.487538 
L 343.747934 207.526962 
L 343.955455 207.735433 
L 343.978512 207.713757 
L 344.197562 207.612488 
L 344.451198 207.826721 
L 344.474256 207.797904 
L 344.681777 207.617769 
L 344.693306 207.62989 
L 344.923884 207.788925 
L 345.119876 207.768361 
L 346.019132 207.863272 
L 346.226653 207.863205 
L 346.491818 208.094056 
L 346.514876 208.072555 
L 346.756983 207.917956 
L 346.90686 208.047094 
L 347.033678 208.155799 
L 347.079793 208.08759 
L 347.195083 207.95593 
L 347.241198 208.009093 
L 347.43719 208.093073 
L 347.667769 208.107784 
L 347.840702 208.133555 
L 348.013636 208.114181 
L 349.062769 208.237394 
L 349.408636 208.347074 
L 349.58157 208.390751 
L 349.777562 208.33582 
L 350.261777 208.410337 
L 351.553017 208.677503 
L 352.867314 208.942223 
L 353.063306 209.015524 
L 353.224711 209.017259 
L 353.708926 209.163046 
L 354.158554 209.284949 
L 354.608182 209.434298 
L 354.930992 209.484999 
L 355.518967 209.689488 
L 355.887893 209.86111 
L 356.45281 210.014678 
L 356.741033 210.09314 
L 357.179132 209.9286 
L 357.571116 209.788065 
L 357.905455 209.669 
L 358.320496 209.484152 
L 358.643306 209.401358 
L 358.896942 209.302897 
L 359.058347 209.161991 
L 359.13905 209.104257 
L 359.185165 209.157456 
L 359.265868 209.219995 
L 359.311983 209.164976 
L 359.542562 208.987553 
L 359.554091 208.996507 
L 359.646322 209.002983 
L 359.66938 208.973309 
L 359.876901 208.889585 
L 360.315 208.716772 
L 360.41876 208.650365 
L 360.649339 208.580233 
L 360.845331 208.523372 
L 361.248843 208.398462 
L 361.375661 208.339285 
L 361.652355 208.220512 
L 361.882934 208.179962 
L 362.067397 208.138758 
L 362.297975 208.097239 
L 362.505496 207.930663 
L 362.540083 207.979987 
L 362.597727 208.049777 
L 362.655372 207.963143 
L 362.816777 207.892736 
L 363.900496 207.723992 
L 363.95814 207.758973 
L 364.004256 207.686451 
L 364.119545 207.596963 
L 364.154132 207.621491 
L 364.304008 207.692202 
L 364.338595 207.648493 
L 364.684463 207.590807 
L 364.811281 207.560122 
L 364.949628 207.577378 
L 365.076446 207.497547 
L 365.237851 207.529351 
L 365.410785 207.516342 
L 365.825826 207.436633 
L 366.11405 207.443221 
L 366.367686 207.386009 
L 366.713554 207.405111 
L 366.944132 207.398457 
L 367.439876 207.368201 
L 367.751157 207.41697 
L 367.947149 207.387279 
L 369.376736 207.439877 
L 369.492025 207.465112 
L 369.526612 207.42385 
L 369.699545 207.424711 
L 371.532645 207.727084 
L 372.420372 207.982341 
L 373.135165 208.256272 
L 373.331157 208.340797 
L 373.481033 208.35294 
L 373.769256 208.512131 
L 374.945207 209.059672 
L 375.152727 209.172663 
L 375.325661 209.234159 
L 375.452479 209.312139 
L 375.66 209.36428 
L 376.224917 209.64493 
L 376.870537 209.915111 
L 377.020413 210.02608 
L 377.181818 210.066542 
L 377.493099 210.036021 
L 379.268554 209.362984 
L 379.683595 209.237275 
L 380.087107 209.145708 
L 380.213926 209.092037 
L 380.732727 208.898676 
L 380.871074 208.857781 
L 381.032479 208.854351 
L 381.366818 208.723146 
L 381.908678 208.581547 
L 382.20843 208.522485 
L 382.392893 208.51545 
L 382.508182 208.412872 
L 382.635 208.431027 
L 382.796405 208.41296 
L 382.992397 208.415866 
L 383.338264 208.347351 
L 383.476612 208.319192 
L 383.868595 208.32376 
L 384.099174 208.238287 
L 384.260579 208.260752 
L 384.837025 208.287207 
L 385.459587 208.334246 
L 385.632521 208.314122 
L 386.012975 208.402256 
L 386.220496 208.392447 
L 386.428017 208.425294 
L 386.647066 208.473775 
L 387.99595 208.648369 
L 388.157355 208.691547 
L 388.687686 208.768339 
L 389.483182 208.834535 
L 389.656116 208.817238 
L 390.324793 208.868808 
L 390.935826 208.872064 
L 391.097231 208.911794 
L 391.270165 208.903462 
L 391.420041 208.93558 
L 391.812025 208.954288 
L 392.642107 209.015423 
L 392.803512 209.014632 
L 393.011033 209.0417 
L 393.437603 209.063545 
L 393.656653 209.100229 
L 393.829587 209.132327 
L 394.959421 209.288306 
L 395.316818 209.338333 
L 395.73186 209.420678 
L 396.216074 209.50814 
L 396.354421 209.559126 
L 396.573471 209.571076 
L 396.896281 209.692331 
L 399.248182 210.037645 
L 399.398058 210.057866 
L 402.118884 209.96988 
L 402.407107 209.976431 
L 402.960496 209.991649 
L 403.23719 210.0035 
L 403.790579 210.002812 
L 406.280826 209.831898 
L 406.649752 209.802567 
L 407.180083 209.728553 
L 407.341488 209.721539 
L 407.341488 209.721539 
" clip-path="url(#p6de9d73bee)" style="fill: none; stroke: #1f77b4; stroke-linecap: square"/>
   </g>
   <g id="line2d_36">
    <path d="M 259.77124 138.951529 
L 259.828884 143.395202 
L 260.393802 190.79588 
L 260.72814 201.955868 
L 261.039421 205.963395 
L 261.339174 207.390663 
L 261.650455 207.930302 
L 262.030909 208.151135 
L 262.745702 208.253989 
L 273.60595 208.85665 
L 277.502727 208.788885 
L 280.304256 208.849317 
L 282.437107 209.117037 
L 284.420083 209.589279 
L 286.253182 210.014301 
L 289.538926 208.964453 
L 291.406612 208.632947 
L 293.770041 208.459157 
L 296.560041 208.462212 
L 298.243264 208.673436 
L 299.730496 209.087371 
L 301.736529 209.909387 
L 302.324504 210.048479 
L 304.180661 209.395477 
L 305.737066 209.089642 
L 306.45186 209.109481 
L 307.328058 209.43906 
L 308.861405 210.008341 
L 310.809793 208.832342 
L 312.838884 207.326288 
L 315.121612 205.67482 
L 316.309091 205.096908 
L 317.39281 204.812909 
L 318.557231 204.742431 
L 320.055992 204.890969 
L 322.615413 205.399124 
L 324.448512 205.950633 
L 325.728223 206.56706 
L 326.93876 207.403988 
L 328.379876 208.693655 
L 329.890165 210.019062 
L 331.746322 208.358018 
L 333.245083 207.315898 
L 334.847603 206.47592 
L 336.692231 205.763319 
L 338.594504 205.261306 
L 340.381488 205.015719 
L 342.122355 205.000534 
L 343.990041 205.211398 
L 346.272769 205.705336 
L 349.339463 206.608285 
L 351.945 207.589115 
L 354.181612 208.672122 
L 356.545041 210.07115 
L 356.694917 210.041156 
L 359.830785 207.877167 
L 362.309504 206.26702 
L 363.85438 205.527445 
L 365.272438 205.093037 
L 366.725083 204.8825 
L 368.246901 204.886547 
L 369.75719 205.110055 
L 371.140661 205.538313 
L 372.44343 206.177309 
L 373.83843 207.119824 
L 375.959752 208.868603 
L 377.539215 210.061313 
L 379.326198 208.845964 
L 381.078595 207.921128 
L 382.681116 207.31389 
L 383.995413 207.04268 
L 385.182893 207.02108 
L 386.462603 207.228274 
L 390.866653 208.155632 
L 395.213058 208.470792 
L 396.711818 208.953261 
L 399.939917 210.080409 
L 401.161983 209.922808 
L 402.603099 209.978616 
L 405.162521 210.100577 
L 406.580579 209.903266 
L 407.341488 209.718477 
L 407.341488 209.718477 
" clip-path="url(#p6de9d73bee)" style="fill: none; stroke: #ff7f0e; stroke-linecap: square"/>
   </g>
   <g id="line2d_37">
    <path d="M 259.77124 138.951529 
L 259.828884 143.396674 
L 260.405331 192.382583 
L 260.739669 203.685618 
L 261.05095 207.753961 
L 261.350702 209.203109 
L 261.661983 209.749526 
L 262.042438 209.970614 
L 262.757231 210.068412 
L 264.774793 210.074002 
L 269.997397 210.053575 
L 283.347893 210.087108 
L 298.266322 210.103471 
L 300.33 210.046175 
L 306.463388 209.73528 
L 307.604752 209.228967 
L 310.510041 207.976785 
L 312.885 207.194956 
L 314.983264 206.73271 
L 316.943182 206.526542 
L 318.868512 206.547997 
L 320.851488 206.795391 
L 323.007397 207.294627 
L 325.693636 208.160361 
L 329.013967 209.467635 
L 330.604959 210.038225 
L 335.723802 207.844718 
L 337.995 207.143674 
L 340.162438 206.708047 
L 342.237645 206.514119 
L 344.128388 206.556847 
L 345.996074 206.822924 
L 348.059752 207.348849 
L 350.503884 208.209409 
L 353.259298 209.420699 
L 354.792645 210.039145 
L 358.654835 208.250591 
L 360.845331 207.493796 
L 363.012769 206.983808 
L 365.387727 206.656624 
L 367.520579 206.576657 
L 369.422851 206.727129 
L 371.394298 207.111845 
L 373.653967 207.78891 
L 376.582314 208.915757 
L 379.510661 210.016768 
L 385.067603 207.634078 
L 387.327273 206.937636 
L 389.356364 206.541647 
L 391.270165 206.391781 
L 393.137851 206.468404 
L 395.028595 206.7708 
L 396.988512 207.311775 
L 399.075248 208.12318 
L 401.726901 209.415162 
L 403.179545 210.042609 
L 406.718926 208.350574 
L 407.341488 208.089066 
L 407.341488 208.089066 
" clip-path="url(#p6de9d73bee)" style="fill: none; stroke: #2ca02c; stroke-linecap: square"/>
   </g>
   <g id="patch_15">
    <path d="M 252.392727 213.662118 
L 252.392727 135.393882 
" style="fill: none; stroke: #000000; stroke-width: 0.8; stroke-linejoin: miter; stroke-linecap: square"/>
   </g>
   <g id="patch_16">
    <path d="M 414.72 213.662118 
L 414.72 135.393882 
" style="fill: none; stroke: #000000; stroke-width: 0.8; stroke-linejoin: miter; stroke-linecap: square"/>
   </g>
   <g id="patch_17">
    <path d="M 252.392727 213.662118 
L 414.72 213.662118 
" style="fill: none; stroke: #000000; stroke-width: 0.8; stroke-linejoin: miter; stroke-linecap: square"/>
   </g>
   <g id="patch_18">
    <path d="M 252.392727 135.393882 
L 414.72 135.393882 
" style="fill: none; stroke: #000000; stroke-width: 0.8; stroke-linejoin: miter; stroke-linecap: square"/>
   </g>
   <g id="legend_3">
    <g id="patch_19">
     <path d="M 368.432533 178.738517 
L 408.889 178.738517 
Q 410.555 178.738517 410.555 177.072517 
L 410.555 141.224882 
Q 410.555 139.558882 408.889 139.558882 
L 368.432533 139.558882 
Q 366.766533 139.558882 366.766533 141.224882 
L 366.766533 177.072517 
Q 366.766533 178.738517 368.432533 178.738517 
z
" style="fill: #ffffff; opacity: 0.8; stroke: #cccccc; stroke-linejoin: miter"/>
    </g>
    <g id="line2d_38">
     <path d="M 370.098533 146.304881 
L 378.428533 146.304881 
L 386.758533 146.304881 
" style="fill: none; stroke: #1f77b4; stroke-linecap: square"/>
    </g>
    <g id="text_30">
     <!-- our -->
     <g transform="translate(393.422533 149.220381)scale(0.0833 -0.0833)">
      <use xlink:href="#DejaVuSans-6f"/>
      <use xlink:href="#DejaVuSans-75" x="61.181641"/>
      <use xlink:href="#DejaVuSans-72" x="124.560547"/>
     </g>
    </g>
    <g id="line2d_39">
     <path d="M 370.098533 158.531759 
L 378.428533 158.531759 
L 386.758533 158.531759 
" style="fill: none; stroke: #ff7f0e; stroke-linecap: square"/>
    </g>
    <g id="text_31">
     <!-- g -->
     <g transform="translate(393.422533 161.447259)scale(0.0833 -0.0833)">
      <use xlink:href="#DejaVuSans-67"/>
     </g>
    </g>
    <g id="line2d_40">
     <path d="M 370.098533 170.758637 
L 378.428533 170.758637 
L 386.758533 170.758637 
" style="fill: none; stroke: #2ca02c; stroke-linecap: square"/>
    </g>
    <g id="text_32">
     <!-- og -->
     <g transform="translate(393.422533 173.674137)scale(0.0833 -0.0833)">
      <use xlink:href="#DejaVuSans-6f"/>
      <use xlink:href="#DejaVuSans-67" x="61.181641"/>
     </g>
    </g>
   </g>
  </g>
 </g>
 <defs>
  <clipPath id="p31b0895fa0">
   <rect x="57.6" y="41.472" width="162.327273" height="78.268235"/>
  </clipPath>
  <clipPath id="p8a49c95342">
   <rect x="252.392727" y="41.472" width="162.327273" height="78.268235"/>
  </clipPath>
  <clipPath id="p6de9d73bee">
   <rect x="252.392727" y="135.393882" width="162.327273" height="78.268235"/>
  </clipPath>
 </defs>
</svg>
