<?xml version="1.0" encoding="utf-8" standalone="no"?>
<!DOCTYPE svg PUBLIC "-//W3C//DTD SVG 1.1//EN"
  "http://www.w3.org/Graphics/SVG/1.1/DTD/svg11.dtd">
<svg xmlns:xlink="http://www.w3.org/1999/xlink" width="460.8pt" height="345.6pt" viewBox="0 0 460.8 345.6" xmlns="http://www.w3.org/2000/svg" version="1.1">
 <metadata>
  <rdf:RDF xmlns:dc="http://purl.org/dc/elements/1.1/" xmlns:cc="http://creativecommons.org/ns#" xmlns:rdf="http://www.w3.org/1999/02/22-rdf-syntax-ns#">
   <cc:Work>
    <dc:type rdf:resource="http://purl.org/dc/dcmitype/StillImage"/>
    <dc:date>2023-10-21T14:42:30.113896</dc:date>
    <dc:format>image/svg+xml</dc:format>
    <dc:creator>
     <cc:Agent>
      <dc:title>Matplotlib v3.5.1, https://matplotlib.org/</dc:title>
     </cc:Agent>
    </dc:creator>
   </cc:Work>
  </rdf:RDF>
 </metadata>
 <defs>
  <style type="text/css">*{stroke-linejoin: round; stroke-linecap: butt}</style>
 </defs>
 <g id="figure_1">
  <g id="patch_1">
   <path d="M 0 345.6 
L 460.8 345.6 
L 460.8 0 
L 0 0 
z
" style="fill: #ffffff"/>
  </g>
  <g id="axes_1">
   <g id="patch_2">
    <path d="M 57.6 119.740235 
L 219.927273 119.740235 
L 219.927273 41.472 
L 57.6 41.472 
z
" style="fill: #ffffff"/>
   </g>
   <g id="matplotlib.axis_1">
    <g id="xtick_1">
     <g id="line2d_1">
      <defs>
       <path id="md4e2122ad1" d="M 0 0 
L 0 3.5 
" style="stroke: #000000; stroke-width: 0.8"/>
      </defs>
      <g>
       <use xlink:href="#md4e2122ad1" x="64.978512" y="119.740235" style="stroke: #000000; stroke-width: 0.8"/>
      </g>
     </g>
     <g id="text_1">
      <!-- 0 -->
      <g transform="translate(61.797262 134.338673)scale(0.1 -0.1)">
       <defs>
        <path id="DejaVuSans-30" d="M 2034 4250 
Q 1547 4250 1301 3770 
Q 1056 3291 1056 2328 
Q 1056 1369 1301 889 
Q 1547 409 2034 409 
Q 2525 409 2770 889 
Q 3016 1369 3016 2328 
Q 3016 3291 2770 3770 
Q 2525 4250 2034 4250 
z
M 2034 4750 
Q 2819 4750 3233 4129 
Q 3647 3509 3647 2328 
Q 3647 1150 3233 529 
Q 2819 -91 2034 -91 
Q 1250 -91 836 529 
Q 422 1150 422 2328 
Q 422 3509 836 4129 
Q 1250 4750 2034 4750 
z
" transform="scale(0.015625)"/>
       </defs>
       <use xlink:href="#DejaVuSans-30"/>
      </g>
     </g>
    </g>
    <g id="xtick_2">
     <g id="line2d_2">
      <g>
       <use xlink:href="#md4e2122ad1" x="111.094215" y="119.740235" style="stroke: #000000; stroke-width: 0.8"/>
      </g>
     </g>
     <g id="text_2">
      <!-- 10 -->
      <g transform="translate(104.731715 134.338673)scale(0.1 -0.1)">
       <defs>
        <path id="DejaVuSans-31" d="M 794 531 
L 1825 531 
L 1825 4091 
L 703 3866 
L 703 4441 
L 1819 4666 
L 2450 4666 
L 2450 531 
L 3481 531 
L 3481 0 
L 794 0 
L 794 531 
z
" transform="scale(0.015625)"/>
       </defs>
       <use xlink:href="#DejaVuSans-31"/>
       <use xlink:href="#DejaVuSans-30" x="63.623047"/>
      </g>
     </g>
    </g>
    <g id="xtick_3">
     <g id="line2d_3">
      <g>
       <use xlink:href="#md4e2122ad1" x="157.209917" y="119.740235" style="stroke: #000000; stroke-width: 0.8"/>
      </g>
     </g>
     <g id="text_3">
      <!-- 20 -->
      <g transform="translate(150.847417 134.338673)scale(0.1 -0.1)">
       <defs>
        <path id="DejaVuSans-32" d="M 1228 531 
L 3431 531 
L 3431 0 
L 469 0 
L 469 531 
Q 828 903 1448 1529 
Q 2069 2156 2228 2338 
Q 2531 2678 2651 2914 
Q 2772 3150 2772 3378 
Q 2772 3750 2511 3984 
Q 2250 4219 1831 4219 
Q 1534 4219 1204 4116 
Q 875 4013 500 3803 
L 500 4441 
Q 881 4594 1212 4672 
Q 1544 4750 1819 4750 
Q 2544 4750 2975 4387 
Q 3406 4025 3406 3419 
Q 3406 3131 3298 2873 
Q 3191 2616 2906 2266 
Q 2828 2175 2409 1742 
Q 1991 1309 1228 531 
z
" transform="scale(0.015625)"/>
       </defs>
       <use xlink:href="#DejaVuSans-32"/>
       <use xlink:href="#DejaVuSans-30" x="63.623047"/>
      </g>
     </g>
    </g>
    <g id="xtick_4">
     <g id="line2d_4">
      <g>
       <use xlink:href="#md4e2122ad1" x="203.32562" y="119.740235" style="stroke: #000000; stroke-width: 0.8"/>
      </g>
     </g>
     <g id="text_4">
      <!-- 30 -->
      <g transform="translate(196.96312 134.338673)scale(0.1 -0.1)">
       <defs>
        <path id="DejaVuSans-33" d="M 2597 2516 
Q 3050 2419 3304 2112 
Q 3559 1806 3559 1356 
Q 3559 666 3084 287 
Q 2609 -91 1734 -91 
Q 1441 -91 1130 -33 
Q 819 25 488 141 
L 488 750 
Q 750 597 1062 519 
Q 1375 441 1716 441 
Q 2309 441 2620 675 
Q 2931 909 2931 1356 
Q 2931 1769 2642 2001 
Q 2353 2234 1838 2234 
L 1294 2234 
L 1294 2753 
L 1863 2753 
Q 2328 2753 2575 2939 
Q 2822 3125 2822 3475 
Q 2822 3834 2567 4026 
Q 2313 4219 1838 4219 
Q 1578 4219 1281 4162 
Q 984 4106 628 3988 
L 628 4550 
Q 988 4650 1302 4700 
Q 1616 4750 1894 4750 
Q 2613 4750 3031 4423 
Q 3450 4097 3450 3541 
Q 3450 3153 3228 2886 
Q 3006 2619 2597 2516 
z
" transform="scale(0.015625)"/>
       </defs>
       <use xlink:href="#DejaVuSans-33"/>
       <use xlink:href="#DejaVuSans-30" x="63.623047"/>
      </g>
     </g>
    </g>
   </g>
   <g id="matplotlib.axis_2">
    <g id="ytick_1">
     <g id="line2d_5">
      <defs>
       <path id="m54a51f5b12" d="M 0 0 
L -3.5 0 
" style="stroke: #000000; stroke-width: 0.8"/>
      </defs>
      <g>
       <use xlink:href="#m54a51f5b12" x="57.6" y="94.894566" style="stroke: #000000; stroke-width: 0.8"/>
      </g>
     </g>
     <g id="text_5">
      <!-- −2 -->
      <g transform="translate(35.857813 98.693785)scale(0.1 -0.1)">
       <defs>
        <path id="DejaVuSans-2212" d="M 678 2272 
L 4684 2272 
L 4684 1741 
L 678 1741 
L 678 2272 
z
" transform="scale(0.015625)"/>
       </defs>
       <use xlink:href="#DejaVuSans-2212"/>
       <use xlink:href="#DejaVuSans-32" x="83.789062"/>
      </g>
     </g>
    </g>
    <g id="ytick_2">
     <g id="line2d_6">
      <g>
       <use xlink:href="#m54a51f5b12" x="57.6" y="60.359726" style="stroke: #000000; stroke-width: 0.8"/>
      </g>
     </g>
     <g id="text_6">
      <!-- −1 -->
      <g transform="translate(35.857813 64.158945)scale(0.1 -0.1)">
       <use xlink:href="#DejaVuSans-2212"/>
       <use xlink:href="#DejaVuSans-31" x="83.789062"/>
      </g>
     </g>
    </g>
    <g id="text_7">
     <!-- $q_1$ (rad) -->
     <g transform="translate(29.757812 99.956118)rotate(-90)scale(0.1 -0.1)">
      <defs>
       <path id="DejaVuSans-Oblique-71" d="M 2669 525 
Q 2438 222 2123 65 
Q 1809 -91 1428 -91 
Q 897 -91 595 267 
Q 294 625 294 1253 
Q 294 1759 480 2231 
Q 666 2703 1013 3078 
Q 1238 3322 1530 3453 
Q 1822 3584 2144 3584 
Q 2531 3584 2781 3431 
Q 3031 3278 3144 2969 
L 3244 3494 
L 3822 3494 
L 2888 -1319 
L 2309 -1319 
L 2669 525 
z
M 891 1338 
Q 891 875 1084 633 
Q 1278 391 1644 391 
Q 2188 391 2572 911 
Q 2956 1431 2956 2175 
Q 2956 2625 2757 2864 
Q 2559 3103 2188 3103 
Q 1916 3103 1684 2976 
Q 1453 2850 1281 2606 
Q 1100 2350 995 2006 
Q 891 1663 891 1338 
z
" transform="scale(0.015625)"/>
       <path id="DejaVuSans-20" transform="scale(0.015625)"/>
       <path id="DejaVuSans-28" d="M 1984 4856 
Q 1566 4138 1362 3434 
Q 1159 2731 1159 2009 
Q 1159 1288 1364 580 
Q 1569 -128 1984 -844 
L 1484 -844 
Q 1016 -109 783 600 
Q 550 1309 550 2009 
Q 550 2706 781 3412 
Q 1013 4119 1484 4856 
L 1984 4856 
z
" transform="scale(0.015625)"/>
       <path id="DejaVuSans-72" d="M 2631 2963 
Q 2534 3019 2420 3045 
Q 2306 3072 2169 3072 
Q 1681 3072 1420 2755 
Q 1159 2438 1159 1844 
L 1159 0 
L 581 0 
L 581 3500 
L 1159 3500 
L 1159 2956 
Q 1341 3275 1631 3429 
Q 1922 3584 2338 3584 
Q 2397 3584 2469 3576 
Q 2541 3569 2628 3553 
L 2631 2963 
z
" transform="scale(0.015625)"/>
       <path id="DejaVuSans-61" d="M 2194 1759 
Q 1497 1759 1228 1600 
Q 959 1441 959 1056 
Q 959 750 1161 570 
Q 1363 391 1709 391 
Q 2188 391 2477 730 
Q 2766 1069 2766 1631 
L 2766 1759 
L 2194 1759 
z
M 3341 1997 
L 3341 0 
L 2766 0 
L 2766 531 
Q 2569 213 2275 61 
Q 1981 -91 1556 -91 
Q 1019 -91 701 211 
Q 384 513 384 1019 
Q 384 1609 779 1909 
Q 1175 2209 1959 2209 
L 2766 2209 
L 2766 2266 
Q 2766 2663 2505 2880 
Q 2244 3097 1772 3097 
Q 1472 3097 1187 3025 
Q 903 2953 641 2809 
L 641 3341 
Q 956 3463 1253 3523 
Q 1550 3584 1831 3584 
Q 2591 3584 2966 3190 
Q 3341 2797 3341 1997 
z
" transform="scale(0.015625)"/>
       <path id="DejaVuSans-64" d="M 2906 2969 
L 2906 4863 
L 3481 4863 
L 3481 0 
L 2906 0 
L 2906 525 
Q 2725 213 2448 61 
Q 2172 -91 1784 -91 
Q 1150 -91 751 415 
Q 353 922 353 1747 
Q 353 2572 751 3078 
Q 1150 3584 1784 3584 
Q 2172 3584 2448 3432 
Q 2725 3281 2906 2969 
z
M 947 1747 
Q 947 1113 1208 752 
Q 1469 391 1925 391 
Q 2381 391 2643 752 
Q 2906 1113 2906 1747 
Q 2906 2381 2643 2742 
Q 2381 3103 1925 3103 
Q 1469 3103 1208 2742 
Q 947 2381 947 1747 
z
" transform="scale(0.015625)"/>
       <path id="DejaVuSans-29" d="M 513 4856 
L 1013 4856 
Q 1481 4119 1714 3412 
Q 1947 2706 1947 2009 
Q 1947 1309 1714 600 
Q 1481 -109 1013 -844 
L 513 -844 
Q 928 -128 1133 580 
Q 1338 1288 1338 2009 
Q 1338 2731 1133 3434 
Q 928 4138 513 4856 
z
" transform="scale(0.015625)"/>
      </defs>
      <use xlink:href="#DejaVuSans-Oblique-71" transform="translate(0 0.015625)"/>
      <use xlink:href="#DejaVuSans-31" transform="translate(63.476562 -16.390625)scale(0.7)"/>
      <use xlink:href="#DejaVuSans-20" transform="translate(110.74707 0.015625)"/>
      <use xlink:href="#DejaVuSans-28" transform="translate(142.53418 0.015625)"/>
      <use xlink:href="#DejaVuSans-72" transform="translate(181.547852 0.015625)"/>
      <use xlink:href="#DejaVuSans-61" transform="translate(222.661133 0.015625)"/>
      <use xlink:href="#DejaVuSans-64" transform="translate(283.94043 0.015625)"/>
      <use xlink:href="#DejaVuSans-29" transform="translate(347.416992 0.015625)"/>
     </g>
    </g>
   </g>
   <g id="line2d_7">
    <path d="M 64.978512 80.072086 
L 67.837686 63.912205 
L 69.313388 56.829706 
L 70.489339 52.212743 
L 71.469298 49.209498 
L 72.29938 47.333853 
L 73.002645 46.254783 
L 73.59062 45.724076 
L 74.097893 45.542638 
L 74.570579 45.605392 
L 75.054793 45.901149 
L 75.596653 46.507341 
L 76.219215 47.556012 
L 76.945537 49.239986 
L 77.798678 51.817416 
L 78.801694 55.604365 
L 80.000702 61.055032 
L 81.53405 69.142604 
L 84.335579 85.407541 
L 86.514545 97.417746 
L 87.932603 104.056581 
L 89.073967 108.404519 
L 90.030868 111.232987 
L 90.837893 112.978963 
L 91.518099 113.969545 
L 92.094545 114.453659 
L 92.601818 114.605861 
L 93.074504 114.51583 
L 93.570248 114.181745 
L 94.123636 113.521951 
L 94.769256 112.377496 
L 95.518636 110.561002 
L 96.394835 107.81073 
L 97.420909 103.81149 
L 98.666033 98.000718 
L 100.280083 89.31564 
L 105.813967 58.585437 
L 107.059091 53.376293 
L 108.085165 49.973767 
L 108.949835 47.814862 
L 109.687686 46.523364 
L 110.310248 45.844615 
L 110.840579 45.569461 
L 111.313264 45.561275 
L 111.78595 45.776625 
L 112.304752 46.268599 
L 112.904256 47.165209 
L 113.595992 48.624884 
L 114.403017 50.877078 
L 115.348388 54.212013 
L 116.478223 59.066544 
L 117.873223 66.108144 
L 119.902314 77.632994 
L 123.245702 96.590401 
L 124.698347 103.514361 
L 125.862769 108.051162 
L 126.831198 110.995292 
L 127.649752 112.831842 
L 128.353017 113.903075 
L 128.940992 114.427074 
L 129.448264 114.602666 
L 129.92095 114.534455 
L 130.405165 114.233139 
L 130.947025 113.620807 
L 131.581116 112.542221 
L 132.318967 110.81201 
L 133.172107 108.209295 
L 134.175124 104.395821 
L 135.385661 98.862147 
L 136.930537 90.679428 
L 139.951116 73.135273 
L 141.991736 62.027681 
L 143.375207 55.652266 
L 144.493512 51.470931 
L 145.438884 48.737956 
L 146.23438 47.063927 
L 146.914587 46.111423 
L 147.491033 45.660263 
L 147.986777 45.537246 
L 148.459463 45.649092 
L 148.955207 46.005909 
L 149.520124 46.708149 
L 150.165744 47.888075 
L 150.926653 49.776366 
L 151.81438 52.61881 
L 152.851983 56.729578 
L 154.108636 62.667824 
L 155.768802 71.680804 
L 160.956818 100.644466 
L 162.236529 106.155623 
L 163.29719 109.797674 
L 164.184917 112.106325 
L 164.934298 113.487966 
L 165.568388 114.233139 
L 166.110248 114.554747 
L 166.594463 114.593879 
L 167.067149 114.405743 
L 167.58595 113.943349 
L 168.173926 113.10012 
L 168.854132 111.712491 
L 169.649628 109.553251 
L 170.583471 106.332584 
L 171.690248 101.664741 
L 173.050661 94.898903 
L 174.964463 84.131221 
L 178.699835 62.9615 
L 180.129421 56.23437 
L 181.282314 51.817416 
L 182.239215 48.96989 
L 183.057769 47.185846 
L 183.749504 46.174626 
L 184.32595 45.690513 
L 184.833223 45.538311 
L 185.305909 45.628342 
L 185.801653 45.962427 
L 186.355041 46.622221 
L 187.000661 47.766676 
L 187.750041 49.58317 
L 188.62624 52.333442 
L 189.652314 56.332682 
L 190.897438 62.143454 
L 192.511488 70.828532 
L 198.045372 101.558734 
L 199.290496 106.767878 
L 200.31657 110.170405 
L 201.18124 112.329309 
L 201.919091 113.620807 
L 202.541653 114.299557 
L 203.071983 114.574711 
L 203.544669 114.582897 
L 204.017355 114.367546 
L 204.536157 113.875573 
L 205.135661 112.978963 
L 205.827397 111.519287 
L 206.634421 109.267094 
L 207.579793 105.932159 
L 208.709628 101.077628 
L 210.104628 94.036027 
L 212.133719 82.511178 
L 212.54876 80.072086 
L 212.54876 80.072086 
" clip-path="url(#p96b27b39ab)" style="fill: none; stroke: #1f77b4; stroke-width: 0.3; stroke-linecap: square"/>
   </g>
   <g id="line2d_8">
    <path d="M 64.978512 60.359726 
L 65.312851 62.670438 
L 65.451198 62.609558 
L 65.958471 62.105014 
L 66.016116 59.774293 
L 66.07376 60.666236 
L 66.327397 70.020186 
L 66.51186 73.623883 
L 66.534917 73.597678 
L 66.61562 72.818999 
L 66.903843 66.514111 
L 67.249711 61.09682 
L 67.295826 61.062533 
L 67.341942 61.155192 
L 67.46876 61.943312 
L 67.79157 63.9626 
L 67.803099 63.958635 
L 67.872273 63.769125 
L 68.056736 62.345082 
L 68.575537 58.345065 
L 68.748471 58.21864 
L 68.898347 58.095305 
L 69.117397 57.54516 
L 70.097355 53.678553 
L 71.296364 50.220004 
L 72.045744 48.597019 
L 72.218678 48.254285 
L 72.749008 47.486961 
L 73.221694 47.014998 
L 74.178595 46.605926 
L 74.743512 46.897241 
L 75.147025 47.149393 
L 75.608182 47.703238 
L 77.106942 50.915983 
L 77.87938 53.332501 
L 79.205207 58.495097 
L 80.473388 64.459974 
L 81.626281 70.541215 
L 86.710537 98.429544 
L 88.647397 106.568468 
L 89.90405 110.348727 
L 90.930124 112.453367 
L 91.771736 113.419537 
L 92.947686 113.632541 
L 93.524132 113.222748 
L 93.97376 112.685345 
L 94.527149 111.75184 
L 95.334174 109.953364 
L 96.268017 107.128562 
L 96.994339 104.451927 
L 97.859008 100.762902 
L 99.530702 92.480818 
L 101.548264 81.239016 
L 106.056074 57.69178 
L 107.024504 53.920824 
L 108.258099 50.132237 
L 109.514752 47.605678 
L 109.952851 47.086763 
L 110.425537 46.703389 
L 110.898223 46.534724 
L 111.393967 46.596079 
L 112.788967 47.99366 
L 113.607521 49.640758 
L 114.230083 51.274654 
L 115.498264 55.563617 
L 117.389008 63.967253 
L 118.922355 71.958306 
L 123.464752 96.438303 
L 125.482314 105.042784 
L 126.80814 109.155408 
L 127.799628 111.246968 
L 128.502893 112.181627 
L 128.860289 112.481044 
L 129.217686 112.670973 
L 129.413678 112.728264 
L 129.632727 112.720347 
L 130.635744 112.171852 
L 131.926983 110.065435 
L 133.713967 104.778418 
L 134.820744 100.343369 
L 137.449339 87.312077 
L 138.855868 79.573482 
L 142.245372 61.874359 
L 143.640372 56.00904 
L 144.677975 52.503681 
L 145.392769 50.603003 
L 146.23438 48.937879 
L 147.064463 47.922383 
L 147.62938 47.614667 
L 148.17124 47.597162 
L 148.49405 47.722947 
L 148.909091 48.031556 
L 149.24343 48.396949 
L 150.304091 50.264766 
L 151.28405 52.867706 
L 152.287066 56.348239 
L 153.382314 60.939351 
L 155.088595 69.400107 
L 160.899174 100.374258 
L 161.879132 104.449261 
L 162.893678 107.960156 
L 163.988926 110.805323 
L 164.819008 112.255897 
L 165.395455 112.883008 
L 166.421529 113.204449 
L 166.825041 113.041887 
L 167.05562 112.886635 
L 168.047107 111.635982 
L 168.761901 110.16518 
L 169.269174 108.85198 
L 170.710289 103.958206 
L 173.131364 92.653228 
L 176.186529 75.623004 
L 178.296322 64.269119 
L 179.368512 59.182913 
L 180.751983 53.646258 
L 182.043223 49.762499 
L 182.873306 48.01991 
L 184.210661 46.545708 
L 184.775579 46.439811 
L 185.19062 46.559755 
L 185.524959 46.776241 
L 186.48186 47.994837 
L 187.069835 49.168184 
L 188.222727 52.353139 
L 189.606198 57.567459 
L 191.762107 68.003146 
L 194.644339 84.133413 
L 197.20376 97.831238 
L 198.771694 104.794221 
L 199.705537 108.156905 
L 200.74314 111.073241 
L 201.538636 112.667762 
L 202.311074 113.644268 
L 203.141157 114.038371 
L 203.659959 113.941669 
L 204.363223 113.381569 
L 204.974256 112.50781 
L 205.827397 110.699667 
L 206.657479 108.332636 
L 207.764256 104.312024 
L 208.894091 99.35594 
L 210.30062 92.238574 
L 212.54876 79.621219 
L 212.54876 79.621219 
" clip-path="url(#p96b27b39ab)" style="fill: none; stroke: #ff7f0e; stroke-width: 0.3; stroke-linecap: square"/>
   </g>
   <g id="line2d_9">
    <path d="M 64.978512 60.359726 
L 65.047686 61.209363 
L 65.266736 62.630265 
L 65.393554 62.677358 
L 65.416612 62.66055 
L 67.226653 60.924939 
L 67.872273 59.590852 
L 68.921405 56.833473 
L 71.042727 51.227865 
L 71.988099 49.376281 
L 72.737479 48.357403 
L 73.360041 47.853811 
L 73.901901 47.685768 
L 74.397645 47.760215 
L 74.904917 48.066202 
L 75.469835 48.682096 
L 76.115455 49.7385 
L 76.864835 51.424867 
L 77.729504 53.955171 
L 78.74405 57.654222 
L 79.966116 63.004843 
L 81.545579 70.997905 
L 87.310041 101.173583 
L 88.532107 105.914308 
L 89.535124 108.979582 
L 90.388264 110.923737 
L 91.114587 112.063658 
L 91.72562 112.641454 
L 92.25595 112.855476 
L 92.740165 112.816315 
L 93.235909 112.544917 
L 93.789298 111.968406 
L 94.423388 110.959963 
L 95.16124 109.334188 
L 96.01438 106.879794 
L 97.017397 103.272419 
L 98.216405 98.078205 
L 99.761281 90.316241 
L 103.277603 71.039234 
L 105.087645 62.007198 
L 106.425 56.396094 
L 107.531777 52.6549 
L 108.46562 50.232035 
L 109.261116 48.745337 
L 109.929793 47.928811 
L 110.50624 47.552711 
L 111.013512 47.4772 
L 111.509256 47.634623 
L 112.062645 48.058714 
L 112.673678 48.827642 
L 113.365413 50.081356 
L 114.160909 52.013244 
L 115.083223 54.868703 
L 116.178471 59.022337 
L 117.538884 65.112832 
L 119.464215 74.865698 
L 123.453223 95.259966 
L 124.894339 101.370996 
L 126.047231 105.355131 
L 127.004132 107.920329 
L 127.811157 109.499153 
L 128.491364 110.386399 
L 129.079339 110.814227 
L 129.586612 110.926118 
L 130.070826 110.809562 
L 130.589628 110.44391 
L 131.177603 109.733444 
L 131.85781 108.531735 
L 132.653306 106.637556 
L 133.587149 103.798521 
L 134.693926 99.681731 
L 136.065868 93.662387 
L 137.945083 84.31512 
L 141.968678 64.058011 
L 143.363678 58.305579 
L 144.481983 54.576609 
L 145.415826 52.181595 
L 146.211322 50.71191 
L 146.88 49.906684 
L 147.456446 49.538147 
L 147.963719 49.46723 
L 148.459463 49.628354 
L 148.989793 50.052138 
L 149.589298 50.840413 
L 150.281033 52.147781 
L 151.076529 54.155496 
L 152.010372 57.151353 
L 153.117149 61.490851 
L 154.50062 67.880396 
L 156.506653 78.325368 
L 159.873099 95.834995 
L 161.325744 102.169384 
L 162.478636 106.262937 
L 163.435537 108.898431 
L 164.242562 110.522157 
L 164.934298 111.449924 
L 165.522273 111.890429 
L 166.029545 112.009507 
L 166.51376 111.896803 
L 167.021033 111.542607 
L 167.597479 110.850457 
L 168.266157 109.67041 
L 169.038595 107.822316 
L 169.937851 105.056142 
L 170.998512 101.027178 
L 172.289752 95.186787 
L 174.03062 86.179473 
L 178.549959 62.310197 
L 179.921901 56.491899 
L 181.040207 52.656866 
L 181.985579 50.15667 
L 182.781074 48.629772 
L 183.461281 47.766764 
L 184.037727 47.366038 
L 184.545 47.269237 
L 185.029215 47.402288 
L 185.548017 47.789362 
L 186.124463 48.513708 
L 186.79314 49.734129 
L 187.565579 51.63257 
L 188.476364 54.498872 
L 189.560083 58.695765 
L 190.897438 64.833313 
L 192.742066 74.455739 
L 197.226818 98.236276 
L 198.621818 104.251354 
L 199.740124 108.157522 
L 200.673967 110.669686 
L 201.457934 112.192939 
L 202.126612 113.04227 
L 202.691529 113.425237 
L 203.187273 113.504258 
L 203.659959 113.354538 
L 204.167231 112.950452 
L 204.743678 112.190029 
L 205.412355 110.918751 
L 206.196322 108.924219 
L 207.130165 105.898642 
L 208.236942 101.514831 
L 209.597355 95.165474 
L 211.441983 85.396348 
L 212.54876 79.214698 
L 212.54876 79.214698 
" clip-path="url(#p96b27b39ab)" style="fill: none; stroke: #2ca02c; stroke-width: 0.3; stroke-linecap: square"/>
   </g>
   <g id="line2d_10">
    <path d="M 64.978512 60.359726 
L 65.047686 61.196615 
L 65.255207 62.494605 
L 65.347438 62.514117 
L 65.382025 62.478757 
L 65.658719 61.932473 
L 66.108347 61.279133 
L 66.869256 60.297159 
L 67.491818 59.01647 
L 68.391074 56.587229 
L 71.377066 48.148746 
L 72.253264 46.477447 
L 72.956529 45.572625 
L 73.544504 45.1452 
L 74.063306 45.02984 
L 74.547521 45.149578 
L 75.054793 45.513456 
L 75.63124 46.223466 
L 76.288388 47.413284 
L 77.049298 49.283058 
L 77.937025 52.096861 
L 78.974628 56.172248 
L 80.219752 62.016578 
L 81.845331 70.804793 
L 87.333099 101.421653 
L 88.578223 106.670751 
L 89.615826 110.139901 
L 90.492025 112.344673 
L 91.229876 113.650201 
L 91.863967 114.354316 
L 92.405826 114.644197 
L 92.890041 114.658263 
L 93.374256 114.440993 
L 93.904587 113.938971 
L 94.504091 113.043003 
L 95.195826 111.585529 
L 96.002851 109.333089 
L 96.948223 105.987403 
L 98.066529 101.154672 
L 99.45 94.122466 
L 101.502149 82.388899 
L 104.753306 63.877759 
L 106.240537 56.723665 
L 107.428017 52.040736 
L 108.407975 49.014032 
L 109.238058 47.115113 
L 109.941322 46.01761 
L 110.529298 45.47458 
L 111.03657 45.285864 
L 111.509256 45.343677 
L 112.016529 45.637797 
L 112.569917 46.228975 
L 113.204008 47.25578 
L 113.930331 48.883291 
L 114.771942 51.346713 
L 115.76343 54.984923 
L 116.93938 60.203405 
L 118.415083 67.837361 
L 120.882273 81.998471 
L 123.303347 95.420566 
L 124.767521 102.331102 
L 125.943471 106.871661 
L 126.92343 109.832541 
L 127.753512 111.691275 
L 128.456777 112.769251 
L 129.056281 113.313869 
L 129.575083 113.500535 
L 130.047769 113.437865 
L 130.531983 113.142732 
L 131.073843 112.536657 
L 131.696405 111.486405 
L 132.422727 109.798661 
L 133.275868 107.218416 
L 134.290413 103.394708 
L 135.524008 97.82252 
L 137.149587 89.363051 
L 142.718058 59.464632 
L 143.963182 54.429455 
L 144.989256 51.151123 
L 145.853926 49.084639 
L 146.580248 47.878144 
L 147.20281 47.244322 
L 147.73314 47.001631 
L 148.217355 47.02053 
L 148.70157 47.268654 
L 149.24343 47.815671 
L 149.865992 48.788976 
L 150.580785 50.346836 
L 151.422397 52.753327 
L 152.402355 56.27119 
L 153.578306 61.375081 
L 155.065537 68.901021 
L 157.486612 82.507633 
L 160.011446 96.285622 
L 161.464091 103.024251 
L 162.616983 107.389938 
L 163.585413 110.247001 
L 164.403967 112.023354 
L 165.095702 113.041796 
L 165.683678 113.549079 
L 166.202479 113.719141 
L 166.686694 113.641938 
L 167.182438 113.327261 
L 167.735826 112.696528 
L 168.369917 111.616939 
L 169.107769 109.893903 
L 169.960909 107.304449 
L 170.963926 103.50469 
L 172.162934 98.034924 
L 173.70781 89.861797 
L 179.691322 57.032332 
L 180.90186 52.175201 
L 181.904876 49.009356 
L 182.746488 47.031584 
L 183.461281 45.875531 
L 184.060785 45.293282 
L 184.579587 45.081373 
L 185.052273 45.126569 
L 185.536488 45.408739 
L 186.066818 45.989849 
L 186.68938 47.029033 
L 187.404174 48.683495 
L 188.245785 51.232221 
L 189.225744 54.953948 
L 190.390165 60.298256 
L 191.854339 68.13608 
L 194.217769 82.209841 
L 196.77719 97.038419 
L 198.252893 104.322762 
L 199.440372 109.127587 
L 200.43186 112.271508 
L 201.273471 114.251044 
L 201.976736 115.387097 
L 202.57624 115.967537 
L 203.083512 116.172695 
L 203.544669 116.128438 
L 204.017355 115.853473 
L 204.547686 115.268475 
L 205.158719 114.235643 
L 205.861983 112.583415 
L 206.692066 110.026714 
L 207.672025 106.237298 
L 208.859504 100.691062 
L 210.381322 92.429747 
L 212.54876 79.456292 
L 212.54876 79.456292 
" clip-path="url(#p96b27b39ab)" style="fill: none; stroke: #d62728; stroke-width: 0.3; stroke-linecap: square"/>
   </g>
   <g id="patch_3">
    <path d="M 57.6 119.740235 
L 57.6 41.472 
" style="fill: none; stroke: #000000; stroke-width: 0.8; stroke-linejoin: miter; stroke-linecap: square"/>
   </g>
   <g id="patch_4">
    <path d="M 219.927273 119.740235 
L 219.927273 41.472 
" style="fill: none; stroke: #000000; stroke-width: 0.8; stroke-linejoin: miter; stroke-linecap: square"/>
   </g>
   <g id="patch_5">
    <path d="M 57.6 119.740235 
L 219.927273 119.740235 
" style="fill: none; stroke: #000000; stroke-width: 0.8; stroke-linejoin: miter; stroke-linecap: square"/>
   </g>
   <g id="patch_6">
    <path d="M 57.6 41.472 
L 219.927273 41.472 
" style="fill: none; stroke: #000000; stroke-width: 0.8; stroke-linejoin: miter; stroke-linecap: square"/>
   </g>
   <g id="legend_1">
    <g id="patch_7">
     <path d="M 169.300396 97.043512 
L 214.096273 97.043512 
Q 215.762273 97.043512 215.762273 95.377512 
L 215.762273 47.303 
Q 215.762273 45.637 214.096273 45.637 
L 169.300396 45.637 
Q 167.634396 45.637 167.634396 47.303 
L 167.634396 95.377512 
Q 167.634396 97.043512 169.300396 97.043512 
z
" style="fill: #ffffff; opacity: 0.8; stroke: #cccccc; stroke-linejoin: miter"/>
    </g>
    <g id="line2d_11">
     <path d="M 170.966396 52.382998 
L 179.296396 52.382998 
L 187.626396 52.382998 
" style="fill: none; stroke: #1f77b4; stroke-width: 0.3; stroke-linecap: square"/>
    </g>
    <g id="text_8">
     <!-- gt -->
     <g transform="translate(194.290396 55.298498)scale(0.0833 -0.0833)">
      <defs>
       <path id="DejaVuSans-67" d="M 2906 1791 
Q 2906 2416 2648 2759 
Q 2391 3103 1925 3103 
Q 1463 3103 1205 2759 
Q 947 2416 947 1791 
Q 947 1169 1205 825 
Q 1463 481 1925 481 
Q 2391 481 2648 825 
Q 2906 1169 2906 1791 
z
M 3481 434 
Q 3481 -459 3084 -895 
Q 2688 -1331 1869 -1331 
Q 1566 -1331 1297 -1286 
Q 1028 -1241 775 -1147 
L 775 -588 
Q 1028 -725 1275 -790 
Q 1522 -856 1778 -856 
Q 2344 -856 2625 -561 
Q 2906 -266 2906 331 
L 2906 616 
Q 2728 306 2450 153 
Q 2172 0 1784 0 
Q 1141 0 747 490 
Q 353 981 353 1791 
Q 353 2603 747 3093 
Q 1141 3584 1784 3584 
Q 2172 3584 2450 3431 
Q 2728 3278 2906 2969 
L 2906 3500 
L 3481 3500 
L 3481 434 
z
" transform="scale(0.015625)"/>
       <path id="DejaVuSans-74" d="M 1172 4494 
L 1172 3500 
L 2356 3500 
L 2356 3053 
L 1172 3053 
L 1172 1153 
Q 1172 725 1289 603 
Q 1406 481 1766 481 
L 2356 481 
L 2356 0 
L 1766 0 
Q 1100 0 847 248 
Q 594 497 594 1153 
L 594 3053 
L 172 3053 
L 172 3500 
L 594 3500 
L 594 4494 
L 1172 4494 
z
" transform="scale(0.015625)"/>
      </defs>
      <use xlink:href="#DejaVuSans-67"/>
      <use xlink:href="#DejaVuSans-74" x="63.476562"/>
     </g>
    </g>
    <g id="line2d_12">
     <path d="M 170.966396 64.609877 
L 179.296396 64.609877 
L 187.626396 64.609877 
" style="fill: none; stroke: #ff7f0e; stroke-width: 0.3; stroke-linecap: square"/>
    </g>
    <g id="text_9">
     <!-- ours -->
     <g transform="translate(194.290396 67.525377)scale(0.0833 -0.0833)">
      <defs>
       <path id="DejaVuSans-6f" d="M 1959 3097 
Q 1497 3097 1228 2736 
Q 959 2375 959 1747 
Q 959 1119 1226 758 
Q 1494 397 1959 397 
Q 2419 397 2687 759 
Q 2956 1122 2956 1747 
Q 2956 2369 2687 2733 
Q 2419 3097 1959 3097 
z
M 1959 3584 
Q 2709 3584 3137 3096 
Q 3566 2609 3566 1747 
Q 3566 888 3137 398 
Q 2709 -91 1959 -91 
Q 1206 -91 779 398 
Q 353 888 353 1747 
Q 353 2609 779 3096 
Q 1206 3584 1959 3584 
z
" transform="scale(0.015625)"/>
       <path id="DejaVuSans-75" d="M 544 1381 
L 544 3500 
L 1119 3500 
L 1119 1403 
Q 1119 906 1312 657 
Q 1506 409 1894 409 
Q 2359 409 2629 706 
Q 2900 1003 2900 1516 
L 2900 3500 
L 3475 3500 
L 3475 0 
L 2900 0 
L 2900 538 
Q 2691 219 2414 64 
Q 2138 -91 1772 -91 
Q 1169 -91 856 284 
Q 544 659 544 1381 
z
M 1991 3584 
L 1991 3584 
z
" transform="scale(0.015625)"/>
       <path id="DejaVuSans-73" d="M 2834 3397 
L 2834 2853 
Q 2591 2978 2328 3040 
Q 2066 3103 1784 3103 
Q 1356 3103 1142 2972 
Q 928 2841 928 2578 
Q 928 2378 1081 2264 
Q 1234 2150 1697 2047 
L 1894 2003 
Q 2506 1872 2764 1633 
Q 3022 1394 3022 966 
Q 3022 478 2636 193 
Q 2250 -91 1575 -91 
Q 1294 -91 989 -36 
Q 684 19 347 128 
L 347 722 
Q 666 556 975 473 
Q 1284 391 1588 391 
Q 1994 391 2212 530 
Q 2431 669 2431 922 
Q 2431 1156 2273 1281 
Q 2116 1406 1581 1522 
L 1381 1569 
Q 847 1681 609 1914 
Q 372 2147 372 2553 
Q 372 3047 722 3315 
Q 1072 3584 1716 3584 
Q 2034 3584 2315 3537 
Q 2597 3491 2834 3397 
z
" transform="scale(0.015625)"/>
      </defs>
      <use xlink:href="#DejaVuSans-6f"/>
      <use xlink:href="#DejaVuSans-75" x="61.181641"/>
      <use xlink:href="#DejaVuSans-72" x="124.560547"/>
      <use xlink:href="#DejaVuSans-73" x="165.673828"/>
     </g>
    </g>
    <g id="line2d_13">
     <path d="M 170.966396 76.836755 
L 179.296396 76.836755 
L 187.626396 76.836755 
" style="fill: none; stroke: #2ca02c; stroke-width: 0.3; stroke-linecap: square"/>
    </g>
    <g id="text_10">
     <!-- g -->
     <g transform="translate(194.290396 79.752255)scale(0.0833 -0.0833)">
      <use xlink:href="#DejaVuSans-67"/>
     </g>
    </g>
    <g id="line2d_14">
     <path d="M 170.966396 89.063633 
L 179.296396 89.063633 
L 187.626396 89.063633 
" style="fill: none; stroke: #d62728; stroke-width: 0.3; stroke-linecap: square"/>
    </g>
    <g id="text_11">
     <!-- og -->
     <g transform="translate(194.290396 91.979133)scale(0.0833 -0.0833)">
      <use xlink:href="#DejaVuSans-6f"/>
      <use xlink:href="#DejaVuSans-67" x="61.181641"/>
     </g>
    </g>
   </g>
  </g>
  <g id="axes_2">
   <g id="patch_8">
    <path d="M 252.392727 119.740235 
L 414.72 119.740235 
L 414.72 41.472 
L 252.392727 41.472 
z
" style="fill: #ffffff"/>
   </g>
   <g id="matplotlib.axis_3">
    <g id="xtick_5">
     <g id="line2d_15">
      <g>
       <use xlink:href="#md4e2122ad1" x="259.77124" y="119.740235" style="stroke: #000000; stroke-width: 0.8"/>
      </g>
     </g>
     <g id="text_12">
      <!-- 0 -->
      <g transform="translate(256.58999 134.338673)scale(0.1 -0.1)">
       <use xlink:href="#DejaVuSans-30"/>
      </g>
     </g>
    </g>
    <g id="xtick_6">
     <g id="line2d_16">
      <g>
       <use xlink:href="#md4e2122ad1" x="305.886942" y="119.740235" style="stroke: #000000; stroke-width: 0.8"/>
      </g>
     </g>
     <g id="text_13">
      <!-- 10 -->
      <g transform="translate(299.524442 134.338673)scale(0.1 -0.1)">
       <use xlink:href="#DejaVuSans-31"/>
       <use xlink:href="#DejaVuSans-30" x="63.623047"/>
      </g>
     </g>
    </g>
    <g id="xtick_7">
     <g id="line2d_17">
      <g>
       <use xlink:href="#md4e2122ad1" x="352.002645" y="119.740235" style="stroke: #000000; stroke-width: 0.8"/>
      </g>
     </g>
     <g id="text_14">
      <!-- 20 -->
      <g transform="translate(345.640145 134.338673)scale(0.1 -0.1)">
       <use xlink:href="#DejaVuSans-32"/>
       <use xlink:href="#DejaVuSans-30" x="63.623047"/>
      </g>
     </g>
    </g>
    <g id="xtick_8">
     <g id="line2d_18">
      <g>
       <use xlink:href="#md4e2122ad1" x="398.118347" y="119.740235" style="stroke: #000000; stroke-width: 0.8"/>
      </g>
     </g>
     <g id="text_15">
      <!-- 30 -->
      <g transform="translate(391.755847 134.338673)scale(0.1 -0.1)">
       <use xlink:href="#DejaVuSans-33"/>
       <use xlink:href="#DejaVuSans-30" x="63.623047"/>
      </g>
     </g>
    </g>
   </g>
   <g id="matplotlib.axis_4">
    <g id="ytick_3">
     <g id="line2d_19">
      <g>
       <use xlink:href="#m54a51f5b12" x="252.392727" y="108.622899" style="stroke: #000000; stroke-width: 0.8"/>
      </g>
     </g>
     <g id="text_16">
      <!-- −1 -->
      <g transform="translate(230.65054 112.422118)scale(0.1 -0.1)">
       <use xlink:href="#DejaVuSans-2212"/>
       <use xlink:href="#DejaVuSans-31" x="83.789062"/>
      </g>
     </g>
    </g>
    <g id="ytick_4">
     <g id="line2d_20">
      <g>
       <use xlink:href="#m54a51f5b12" x="252.392727" y="80.771586" style="stroke: #000000; stroke-width: 0.8"/>
      </g>
     </g>
     <g id="text_17">
      <!-- 0 -->
      <g transform="translate(239.030227 84.570805)scale(0.1 -0.1)">
       <use xlink:href="#DejaVuSans-30"/>
      </g>
     </g>
    </g>
    <g id="ytick_5">
     <g id="line2d_21">
      <g>
       <use xlink:href="#m54a51f5b12" x="252.392727" y="52.920273" style="stroke: #000000; stroke-width: 0.8"/>
      </g>
     </g>
     <g id="text_18">
      <!-- 1 -->
      <g transform="translate(239.030227 56.719492)scale(0.1 -0.1)">
       <use xlink:href="#DejaVuSans-31"/>
      </g>
     </g>
    </g>
    <g id="text_19">
     <!-- $q_2$ (rad) -->
     <g transform="translate(224.55054 99.956118)rotate(-90)scale(0.1 -0.1)">
      <use xlink:href="#DejaVuSans-Oblique-71" transform="translate(0 0.015625)"/>
      <use xlink:href="#DejaVuSans-32" transform="translate(63.476562 -16.390625)scale(0.7)"/>
      <use xlink:href="#DejaVuSans-20" transform="translate(110.74707 0.015625)"/>
      <use xlink:href="#DejaVuSans-28" transform="translate(142.53418 0.015625)"/>
      <use xlink:href="#DejaVuSans-72" transform="translate(181.547852 0.015625)"/>
      <use xlink:href="#DejaVuSans-61" transform="translate(222.661133 0.015625)"/>
      <use xlink:href="#DejaVuSans-64" transform="translate(283.94043 0.015625)"/>
      <use xlink:href="#DejaVuSans-29" transform="translate(347.416992 0.015625)"/>
     </g>
    </g>
   </g>
   <g id="line2d_22">
    <path d="M 259.77124 47.09398 
L 260.163223 47.214691 
L 260.589793 47.593819 
L 261.097066 48.365625 
L 261.719628 49.755655 
L 262.480537 52.041554 
L 263.460496 55.752303 
L 264.91314 62.239131 
L 267.345744 73.065865 
L 268.406405 76.75394 
L 269.224959 78.866938 
L 269.893636 80.036669 
L 270.447025 80.595896 
L 270.908182 80.768864 
L 271.323223 80.694124 
L 271.761322 80.379444 
L 272.268595 79.718433 
L 272.868099 78.543551 
L 273.594421 76.591963 
L 274.493678 73.482951 
L 275.692686 68.452955 
L 279.428058 52.173399 
L 280.315785 49.531183 
L 281.01905 48.071405 
L 281.583967 47.361026 
L 282.045124 47.109594 
L 282.437107 47.137928 
L 282.84062 47.405143 
L 283.290248 47.991026 
L 283.820579 49.07298 
L 284.454669 50.913549 
L 285.20405 53.824673 
L 286.103306 58.280772 
L 287.210083 64.975916 
L 288.754959 75.835234 
L 292.006116 98.973173 
L 293.182066 105.592988 
L 294.115909 109.67254 
L 294.888347 112.138255 
L 295.533967 113.526162 
L 296.064298 114.197537 
L 296.502397 114.433869 
L 296.89438 114.405037 
L 297.297893 114.144375 
L 297.770579 113.552337 
L 298.347025 112.436359 
L 299.050289 110.543867 
L 299.926488 107.496655 
L 301.113967 102.487692 
L 304.768636 86.513907 
L 305.702479 83.658963 
L 306.45186 82.025578 
L 307.062893 81.179469 
L 307.570165 80.827177 
L 307.996736 80.782389 
L 308.423306 80.968107 
L 308.895992 81.440074 
L 309.44938 82.337841 
L 310.106529 83.860442 
L 310.913554 86.339485 
L 311.928099 90.23315 
L 313.461446 97.126604 
L 315.721116 107.167348 
L 316.758719 110.77576 
L 317.554215 112.805911 
L 318.188306 113.873575 
L 318.695579 114.339355 
L 319.11062 114.448893 
L 319.502603 114.320526 
L 319.917645 113.934519 
L 320.40186 113.156385 
L 320.978306 111.772037 
L 321.658512 109.51439 
L 322.465537 106.010276 
L 323.445496 100.68603 
L 324.69062 92.589476 
L 326.858058 76.717127 
L 328.794917 63.221274 
L 329.993926 56.355059 
L 330.939298 52.132836 
L 331.723264 49.55902 
L 332.380413 48.095419 
L 332.922273 47.376515 
L 333.371901 47.114626 
L 333.763884 47.130251 
L 334.167397 47.377724 
L 334.640083 47.955009 
L 335.205 49.028269 
L 335.896736 50.85883 
L 336.761405 53.825979 
L 337.925826 58.692782 
L 341.75343 75.347423 
L 342.664215 78.061015 
L 343.402066 79.616609 
L 344.00157 80.40903 
L 344.497314 80.728219 
L 344.923884 80.754299 
L 345.350455 80.549958 
L 345.82314 80.057752 
L 346.376529 79.137246 
L 347.045207 77.558346 
L 347.86376 75.003616 
L 348.901364 70.970747 
L 350.515413 63.660971 
L 352.59062 54.466188 
L 353.628223 50.836658 
L 354.423719 48.785715 
L 355.05781 47.699182 
L 355.576612 47.2104 
L 356.003182 47.09428 
L 356.395165 47.222646 
L 356.810207 47.608654 
L 357.294421 48.386787 
L 357.870868 49.771136 
L 358.551074 52.028782 
L 359.358099 55.532896 
L 360.338058 60.857142 
L 361.583182 68.953697 
L 363.75062 84.826045 
L 365.687479 98.321898 
L 366.886488 105.188114 
L 367.83186 109.410336 
L 368.615826 111.984152 
L 369.272975 113.447753 
L 369.814835 114.166658 
L 370.264463 114.428546 
L 370.656446 114.412921 
L 371.059959 114.165448 
L 371.532645 113.588163 
L 372.097562 112.514903 
L 372.789298 110.684343 
L 373.653967 107.717194 
L 374.818388 102.85039 
L 378.645992 86.19575 
L 379.556777 83.482157 
L 380.294628 81.926563 
L 380.894132 81.134143 
L 381.389876 80.814953 
L 381.816446 80.788873 
L 382.243017 80.993214 
L 382.715702 81.485421 
L 383.269091 82.405927 
L 383.937769 83.984827 
L 384.756322 86.539556 
L 385.793926 90.572425 
L 387.407975 97.882201 
L 389.483182 107.076984 
L 390.520785 110.706514 
L 391.316281 112.757458 
L 391.950372 113.84399 
L 392.469174 114.332773 
L 392.895744 114.448893 
L 393.287727 114.320526 
L 393.702769 113.934519 
L 394.186983 113.156385 
L 394.76343 111.772037 
L 395.443636 109.51439 
L 396.250661 106.010276 
L 397.23062 100.68603 
L 398.475744 92.589476 
L 400.643182 76.717127 
L 402.580041 63.221274 
L 403.77905 56.355059 
L 404.724421 52.132836 
L 405.508388 49.55902 
L 406.165537 48.095419 
L 406.707397 47.376515 
L 407.157025 47.114626 
L 407.341488 47.09398 
L 407.341488 47.09398 
" clip-path="url(#p49577d1e91)" style="fill: none; stroke: #1f77b4; stroke-width: 0.3; stroke-linecap: square"/>
   </g>
   <g id="line2d_23">
    <path d="M 259.77124 80.771586 
L 259.921116 73.837844 
L 260.370744 57.090585 
L 260.693554 52.012238 
L 260.751198 51.532664 
L 260.785785 53.812124 
L 260.854959 51.536193 
L 261.097066 45.151135 
L 261.143182 45.029647 
L 261.189298 45.164529 
L 261.304587 46.549402 
L 261.765744 52.922269 
L 261.800331 52.935068 
L 261.834917 52.870272 
L 261.961736 52.088818 
L 262.273017 50.379692 
L 262.34219 50.452558 
L 262.469008 51.074285 
L 263.068512 55.48788 
L 263.137686 55.446399 
L 263.345207 55.438494 
L 263.472025 55.560776 
L 263.656488 56.418558 
L 264.440455 60.502383 
L 264.763264 61.669078 
L 266.42343 69.632254 
L 267.06905 72.283312 
L 267.39186 73.648713 
L 269.190372 79.161871 
L 269.478595 79.688995 
L 270.055041 80.561447 
L 270.539256 80.983819 
L 270.908182 81.065696 
L 271.069587 81.136556 
L 271.196405 81.09827 
L 271.438512 80.920289 
L 271.980372 80.459645 
L 272.153306 80.192827 
L 272.510702 79.602421 
L 272.845041 78.954398 
L 273.202438 78.00422 
L 274.79343 72.614006 
L 279.047603 53.866746 
L 280.108264 50.398101 
L 280.926818 48.493747 
L 281.526322 47.705558 
L 282.045124 47.343949 
L 282.575455 47.419538 
L 282.967438 47.758274 
L 283.670702 48.899922 
L 284.523843 51.250877 
L 285.561446 55.501347 
L 286.207066 58.787254 
L 287.786529 68.700434 
L 288.558967 74.180976 
L 290.184545 86.122242 
L 291.187562 93.256338 
L 293.643223 107.338066 
L 294.623182 110.992926 
L 295.245744 112.569311 
L 295.637727 113.287218 
L 296.087355 113.794529 
L 296.802149 114.051844 
L 297.148017 113.900999 
L 297.989628 112.846982 
L 298.589132 111.533474 
L 299.488388 108.82226 
L 300.698926 104.180657 
L 303.984669 89.681584 
L 304.930041 86.192489 
L 305.460372 84.590514 
L 305.933058 83.36274 
L 306.647851 81.913719 
L 307.016777 81.422702 
L 307.489463 80.99646 
L 307.881446 80.847288 
L 308.227314 80.89844 
L 308.538595 81.047948 
L 308.757645 81.242236 
L 309.068926 81.592226 
L 309.633843 82.568149 
L 310.175702 83.808882 
L 311.835868 89.348053 
L 312.873471 93.674932 
L 315.57124 105.427762 
L 317.265992 110.901593 
L 318.015372 112.360884 
L 318.476529 112.914058 
L 318.926157 113.167273 
L 319.21438 113.177254 
L 319.594835 113.020269 
L 319.825413 112.812804 
L 320.309628 112.125173 
L 321.03595 110.438273 
L 321.68157 108.294535 
L 322.834463 103.064714 
L 324.079587 95.709376 
L 327.296157 72.940303 
L 327.987893 68.207764 
L 328.887149 62.453335 
L 329.867107 57.051279 
L 330.870124 52.677077 
L 331.642562 50.202666 
L 332.403471 48.626187 
L 333.002975 47.963846 
L 333.48719 47.818004 
L 334.467149 48.549056 
L 335.400992 50.4242 
L 336.05814 52.346521 
L 336.807521 55.063403 
L 338.340868 61.74381 
L 341.476736 75.607962 
L 343.136901 80.352632 
L 343.759463 81.333693 
L 343.966983 81.54552 
L 344.186033 81.745255 
L 344.301322 81.810912 
L 345.062231 81.843585 
L 345.846198 81.129109 
L 347.425661 77.438727 
L 349.719917 68.172982 
L 350.573058 64.12651 
L 352.440744 55.610361 
L 354.112438 49.841379 
L 355.000165 47.993834 
L 355.58814 47.326585 
L 356.095413 47.153469 
L 357.086901 47.902995 
L 357.594174 48.857203 
L 358.447314 51.314178 
L 359.208223 54.346683 
L 360.21124 59.478153 
L 361.848347 69.930155 
L 365.064917 93.033898 
L 366.955661 104.280588 
L 367.820331 108.118946 
L 368.800289 111.228896 
L 369.411322 112.46526 
L 369.895537 113.051484 
L 370.241405 113.253326 
L 370.702562 113.273782 
L 371.129132 113.01022 
L 371.613347 112.425912 
L 372.316612 111.043308 
L 373.354215 108.032982 
L 374.057479 105.46414 
L 374.956736 101.754219 
L 376.282562 95.857482 
L 378.911157 85.581802 
L 379.856529 83.164045 
L 380.801901 81.730517 
L 381.45905 81.373721 
L 382.266074 81.662401 
L 383.315207 83.228748 
L 383.834008 84.459451 
L 385.701694 90.929225 
L 389.921281 109.223928 
L 390.90124 112.256386 
L 392.088719 114.475831 
L 392.665165 114.880072 
L 393.137851 114.85315 
L 393.518306 114.587388 
L 393.921818 114.066323 
L 394.590496 112.655651 
L 395.489752 109.698099 
L 396.550413 104.771396 
L 397.622603 98.453559 
L 402.960496 60.854266 
L 404.113388 54.71811 
L 404.978058 51.192518 
L 405.623678 49.233303 
L 406.257769 47.889546 
L 406.857273 47.176618 
L 407.306901 46.988133 
L 407.341488 46.985327 
L 407.341488 46.985327 
" clip-path="url(#p49577d1e91)" style="fill: none; stroke: #ff7f0e; stroke-width: 0.3; stroke-linecap: square"/>
   </g>
   <g id="line2d_24">
    <path d="M 259.77124 80.771586 
L 259.828884 78.672127 
L 260.382273 56.792719 
L 260.705083 51.823353 
L 260.981777 50.345931 
L 261.200826 50.080033 
L 261.385289 50.179432 
L 261.673512 50.65557 
L 262.192314 52.011646 
L 263.010868 54.826665 
L 264.186818 59.74527 
L 267.887603 75.819324 
L 268.809917 78.601767 
L 269.547769 80.188065 
L 270.158802 81.020858 
L 270.654545 81.359027 
L 271.092645 81.40073 
L 271.519215 81.208915 
L 271.991901 80.731787 
L 272.545289 79.830426 
L 273.213967 78.276337 
L 274.020992 75.793029 
L 275.047066 71.855485 
L 276.591942 64.921082 
L 278.840083 54.955077 
L 279.877686 51.340061 
L 280.684711 49.268743 
L 281.330331 48.173334 
L 281.849132 47.692791 
L 282.275702 47.579803 
L 282.667686 47.707637 
L 283.094256 48.103234 
L 283.59 48.90102 
L 284.166446 50.282393 
L 284.858182 52.566064 
L 285.676736 56.097086 
L 286.668223 61.438335 
L 287.936405 69.600812 
L 290.24219 86.251794 
L 292.052231 98.530863 
L 293.216653 104.99705 
L 294.150496 109.01626 
L 294.922934 111.435936 
L 295.568554 112.790158 
L 296.098884 113.439237 
L 296.536983 113.66243 
L 296.928967 113.627044 
L 297.344008 113.355118 
L 297.828223 112.746734 
L 298.416198 111.614959 
L 299.130992 109.719819 
L 300.041777 106.620313 
L 301.29843 101.467749 
L 304.664876 87.272682 
L 305.633306 84.314759 
L 306.45186 82.496524 
L 307.120537 81.481325 
L 307.650868 81.045386 
L 308.100496 80.947405 
L 308.527066 81.086189 
L 308.988223 81.486169 
L 309.530083 82.276426 
L 310.175702 83.641126 
L 310.971198 85.885327 
L 311.985744 89.472761 
L 313.519091 95.830183 
L 315.824876 105.295055 
L 316.862479 108.628003 
L 317.657975 110.494527 
L 318.280537 111.445906 
L 318.78781 111.851485 
L 319.202851 111.920061 
L 319.594835 111.758633 
L 320.021405 111.327382 
L 320.517149 110.487608 
L 321.105124 109.021509 
L 321.79686 106.661537 
L 322.626942 102.983498 
L 323.641488 97.401486 
L 324.990372 88.620891 
L 329.106198 60.969344 
L 330.189917 55.563473 
L 331.077645 52.178642 
L 331.815496 50.167139 
L 332.426529 49.083872 
L 332.933802 48.594119 
L 333.360372 48.470122 
L 333.752355 48.585111 
L 334.178926 48.953635 
L 334.686198 49.709748 
L 335.297231 51.050919 
L 336.046612 53.272299 
L 336.991983 56.822427 
L 338.340868 62.847629 
L 341.165455 75.625119 
L 342.191529 79.167874 
L 342.998554 81.223731 
L 343.655702 82.34617 
L 344.197562 82.871146 
L 344.64719 83.022689 
L 345.062231 82.931472 
L 345.500331 82.595641 
L 346.007603 81.905342 
L 346.618636 80.661809 
L 347.344959 78.641734 
L 348.244215 75.434182 
L 349.431694 70.299933 
L 353.409174 52.389394 
L 354.296901 49.712189 
L 355.000165 48.238132 
L 355.565083 47.521493 
L 356.02624 47.266416 
L 356.418223 47.291481 
L 356.821736 47.554071 
L 357.271364 48.132123 
L 357.801694 49.199392 
L 358.435785 51.012077 
L 359.185165 53.872476 
L 360.084421 58.23906 
L 361.202727 64.854535 
L 362.78219 75.688823 
L 365.860413 96.976857 
L 367.036364 103.454009 
L 367.970207 107.450364 
L 368.754174 109.89956 
L 369.399793 111.25673 
L 369.941653 111.927872 
L 370.391281 112.163135 
L 370.794793 112.131496 
L 371.209835 111.8673 
L 371.69405 111.276078 
L 372.282025 110.17716 
L 373.008347 108.305747 
L 373.930661 105.25691 
L 375.221901 100.134458 
L 378.254008 87.863363 
L 379.233967 84.919365 
L 380.006405 83.240434 
L 380.640496 82.351216 
L 381.159298 81.975635 
L 381.597397 81.912925 
L 382.023967 82.077394 
L 382.496653 82.517197 
L 383.050041 83.366331 
L 383.70719 84.816299 
L 384.502686 87.147446 
L 385.517231 90.868787 
L 386.992934 97.239987 
L 389.586942 108.465847 
L 390.624545 111.94271 
L 391.408512 113.861846 
L 392.031074 114.856684 
L 392.526818 115.275009 
L 392.94186 115.353407 
L 393.322314 115.199106 
L 393.737355 114.778091 
L 394.22157 113.949556 
L 394.798017 112.490233 
L 395.478223 110.122647 
L 396.296777 106.402409 
L 397.288264 100.776515 
L 398.579504 92.051858 
L 403.271777 59.044812 
L 404.320909 53.796263 
L 405.185579 50.509442 
L 405.911901 48.545478 
L 406.511405 47.497078 
L 407.007149 47.026685 
L 407.341488 46.91128 
L 407.341488 46.91128 
" clip-path="url(#p49577d1e91)" style="fill: none; stroke: #2ca02c; stroke-width: 0.3; stroke-linecap: square"/>
   </g>
   <g id="line2d_25">
    <path d="M 259.77124 80.771586 
L 259.828884 78.67143 
L 260.393802 56.055198 
L 260.716612 51.023474 
L 260.993306 49.521669 
L 261.212355 49.24858 
L 261.396818 49.346323 
L 261.685041 49.823862 
L 262.203843 51.186747 
L 263.033926 54.057171 
L 264.209876 58.996228 
L 267.910661 75.116848 
L 268.832975 77.913926 
L 269.582355 79.531466 
L 270.193388 80.3636 
L 270.689132 80.699514 
L 271.115702 80.739896 
L 271.542273 80.549599 
L 272.014959 80.072449 
L 272.568347 79.168756 
L 273.225496 77.639817 
L 274.032521 75.154877 
L 275.058595 71.209906 
L 276.615 64.208443 
L 278.828554 54.393487 
L 279.866157 50.782607 
L 280.661653 48.747583 
L 281.295744 47.674936 
L 281.803017 47.204985 
L 282.218058 47.092238 
L 282.610041 47.217935 
L 283.025083 47.601675 
L 283.509298 48.37814 
L 284.085744 49.762191 
L 284.76595 52.02225 
L 285.572975 55.533366 
L 286.541405 60.802974 
L 287.786529 68.912274 
L 289.953967 84.817319 
L 291.879298 98.256028 
L 293.078306 105.138721 
L 294.035207 109.420284 
L 294.819174 111.995814 
L 295.476322 113.461829 
L 296.018182 114.183245 
L 296.46781 114.447391 
L 296.859793 114.433705 
L 297.263306 114.188111 
L 297.735992 113.61264 
L 298.300909 112.540819 
L 298.992645 110.710457 
L 299.857314 107.740464 
L 301.021736 102.863252 
L 304.883926 86.006406 
L 305.794711 83.300499 
L 306.601736 81.577752 
L 307.235826 80.691501 
L 307.743099 80.335876 
L 308.169669 80.290472 
L 308.59624 80.47739 
L 309.068926 80.951641 
L 309.622314 81.851539 
L 310.290992 83.403842 
L 311.098017 85.880157 
L 312.13562 89.839541 
L 313.784256 97.153382 
L 315.767231 105.699057 
L 316.804835 109.22244 
L 317.600331 111.199002 
L 318.234421 112.232338 
L 318.741694 112.676579 
L 319.156736 112.772717 
L 319.548719 112.635405 
L 319.975289 112.229592 
L 320.471033 111.419732 
L 321.059008 109.990927 
L 321.750744 107.6778 
L 322.569298 104.113047 
L 323.560785 98.737932 
L 324.840496 90.479078 
L 329.717231 57.645337 
L 330.69719 53.153393 
L 331.504215 50.413862 
L 332.172893 48.856437 
L 332.726281 48.071949 
L 333.187438 47.768831 
L 333.579421 47.758962 
L 333.982934 47.981463 
L 334.444091 48.515027 
L 334.997479 49.528025 
L 335.666157 51.249466 
L 336.507769 54.083966 
L 337.614545 58.672637 
L 339.897273 69.397534 
L 341.349917 75.576827 
L 342.341405 78.89403 
L 343.125372 80.80901 
L 343.770992 81.847341 
L 344.289793 82.304613 
L 344.727893 82.421086 
L 345.142934 82.301633 
L 345.592562 81.921473 
L 346.111364 81.165755 
L 346.733926 79.830393 
L 347.483306 77.653599 
L 348.417149 74.198414 
L 349.685331 68.558613 
L 353.097893 52.933451 
L 354.043264 49.82113 
L 354.781116 48.081218 
L 355.38062 47.182519 
L 355.864835 46.821957 
L 356.268347 46.78243 
L 356.660331 46.977125 
L 357.09843 47.470235 
L 357.605702 48.405331 
L 358.205207 50.007883 
L 358.92 52.597084 
L 359.77314 56.580629 
L 360.822273 62.622679 
L 362.228802 72.154 
L 366.160165 99.548847 
L 367.255413 105.301925 
L 368.154669 108.918802 
L 368.90405 111.076935 
L 369.526612 112.247729 
L 370.033884 112.77863 
L 370.460455 112.933243 
L 370.852438 112.844938 
L 371.279008 112.505761 
L 371.786281 111.787618 
L 372.397314 110.50058 
L 373.146694 108.36403 
L 374.103595 104.912603 
L 375.521653 98.859804 
L 377.988843 88.334256 
L 379.026446 84.902637 
L 379.833471 82.937349 
L 380.49062 81.87108 
L 381.02095 81.388636 
L 381.470579 81.253994 
L 381.88562 81.3562 
L 382.335248 81.711661 
L 382.85405 82.432478 
L 383.465083 83.691158 
L 384.202934 85.7571 
L 385.113719 89.018097 
L 386.335785 94.303843 
L 390.001983 110.732423 
L 390.912769 113.558772 
L 391.627562 115.114099 
L 392.192479 115.871096 
L 392.653636 116.155831 
L 393.04562 116.151965 
L 393.437603 115.916338 
L 393.875702 115.374873 
L 394.394504 114.352574 
L 395.005537 112.62478 
L 395.73186 109.860252 
L 396.596529 105.637068 
L 397.65719 99.266645 
L 399.075248 89.259995 
L 403.098843 60.056574 
L 404.194091 54.086431 
L 405.093347 50.331958 
L 405.842727 48.087868 
L 406.465289 46.865072 
L 406.972562 46.304264 
L 407.341488 46.140059 
L 407.341488 46.140059 
" clip-path="url(#p49577d1e91)" style="fill: none; stroke: #d62728; stroke-width: 0.3; stroke-linecap: square"/>
   </g>
   <g id="patch_9">
    <path d="M 252.392727 119.740235 
L 252.392727 41.472 
" style="fill: none; stroke: #000000; stroke-width: 0.8; stroke-linejoin: miter; stroke-linecap: square"/>
   </g>
   <g id="patch_10">
    <path d="M 414.72 119.740235 
L 414.72 41.472 
" style="fill: none; stroke: #000000; stroke-width: 0.8; stroke-linejoin: miter; stroke-linecap: square"/>
   </g>
   <g id="patch_11">
    <path d="M 252.392727 119.740235 
L 414.72 119.740235 
" style="fill: none; stroke: #000000; stroke-width: 0.8; stroke-linejoin: miter; stroke-linecap: square"/>
   </g>
   <g id="patch_12">
    <path d="M 252.392727 41.472 
L 414.72 41.472 
" style="fill: none; stroke: #000000; stroke-width: 0.8; stroke-linejoin: miter; stroke-linecap: square"/>
   </g>
   <g id="legend_2">
    <g id="patch_13">
     <path d="M 368.432533 97.043512 
L 408.889 97.043512 
Q 410.555 97.043512 410.555 95.377512 
L 410.555 47.303 
Q 410.555 45.637 408.889 45.637 
L 368.432533 45.637 
Q 366.766533 45.637 366.766533 47.303 
L 366.766533 95.377512 
Q 366.766533 97.043512 368.432533 97.043512 
z
" style="fill: #ffffff; opacity: 0.8; stroke: #cccccc; stroke-linejoin: miter"/>
    </g>
    <g id="line2d_26">
     <path d="M 370.098533 52.382998 
L 378.428533 52.382998 
L 386.758533 52.382998 
" style="fill: none; stroke: #1f77b4; stroke-width: 0.3; stroke-linecap: square"/>
    </g>
    <g id="text_20">
     <!-- gt -->
     <g transform="translate(393.422533 55.298498)scale(0.0833 -0.0833)">
      <use xlink:href="#DejaVuSans-67"/>
      <use xlink:href="#DejaVuSans-74" x="63.476562"/>
     </g>
    </g>
    <g id="line2d_27">
     <path d="M 370.098533 64.609877 
L 378.428533 64.609877 
L 386.758533 64.609877 
" style="fill: none; stroke: #ff7f0e; stroke-width: 0.3; stroke-linecap: square"/>
    </g>
    <g id="text_21">
     <!-- our -->
     <g transform="translate(393.422533 67.525377)scale(0.0833 -0.0833)">
      <use xlink:href="#DejaVuSans-6f"/>
      <use xlink:href="#DejaVuSans-75" x="61.181641"/>
      <use xlink:href="#DejaVuSans-72" x="124.560547"/>
     </g>
    </g>
    <g id="line2d_28">
     <path d="M 370.098533 76.836755 
L 378.428533 76.836755 
L 386.758533 76.836755 
" style="fill: none; stroke: #2ca02c; stroke-width: 0.3; stroke-linecap: square"/>
    </g>
    <g id="text_22">
     <!-- g -->
     <g transform="translate(393.422533 79.752255)scale(0.0833 -0.0833)">
      <use xlink:href="#DejaVuSans-67"/>
     </g>
    </g>
    <g id="line2d_29">
     <path d="M 370.098533 89.063633 
L 378.428533 89.063633 
L 386.758533 89.063633 
" style="fill: none; stroke: #d62728; stroke-width: 0.3; stroke-linecap: square"/>
    </g>
    <g id="text_23">
     <!-- og -->
     <g transform="translate(393.422533 91.979133)scale(0.0833 -0.0833)">
      <use xlink:href="#DejaVuSans-6f"/>
      <use xlink:href="#DejaVuSans-67" x="61.181641"/>
     </g>
    </g>
   </g>
  </g>
  <g id="axes_3">
   <g id="patch_14">
    <path d="M 252.392727 213.662118 
L 414.72 213.662118 
L 414.72 135.393882 
L 252.392727 135.393882 
z
" style="fill: #ffffff"/>
   </g>
   <g id="matplotlib.axis_5">
    <g id="xtick_9">
     <g id="line2d_30">
      <g>
       <use xlink:href="#md4e2122ad1" x="259.77124" y="213.662118" style="stroke: #000000; stroke-width: 0.8"/>
      </g>
     </g>
     <g id="text_24">
      <!-- 0 -->
      <g transform="translate(256.58999 228.260555)scale(0.1 -0.1)">
       <use xlink:href="#DejaVuSans-30"/>
      </g>
     </g>
    </g>
    <g id="xtick_10">
     <g id="line2d_31">
      <g>
       <use xlink:href="#md4e2122ad1" x="305.886942" y="213.662118" style="stroke: #000000; stroke-width: 0.8"/>
      </g>
     </g>
     <g id="text_25">
      <!-- 10 -->
      <g transform="translate(299.524442 228.260555)scale(0.1 -0.1)">
       <use xlink:href="#DejaVuSans-31"/>
       <use xlink:href="#DejaVuSans-30" x="63.623047"/>
      </g>
     </g>
    </g>
    <g id="xtick_11">
     <g id="line2d_32">
      <g>
       <use xlink:href="#md4e2122ad1" x="352.002645" y="213.662118" style="stroke: #000000; stroke-width: 0.8"/>
      </g>
     </g>
     <g id="text_26">
      <!-- 20 -->
      <g transform="translate(345.640145 228.260555)scale(0.1 -0.1)">
       <use xlink:href="#DejaVuSans-32"/>
       <use xlink:href="#DejaVuSans-30" x="63.623047"/>
      </g>
     </g>
    </g>
    <g id="xtick_12">
     <g id="line2d_33">
      <g>
       <use xlink:href="#md4e2122ad1" x="398.118347" y="213.662118" style="stroke: #000000; stroke-width: 0.8"/>
      </g>
     </g>
     <g id="text_27">
      <!-- 30 -->
      <g transform="translate(391.755847 228.260555)scale(0.1 -0.1)">
       <use xlink:href="#DejaVuSans-33"/>
       <use xlink:href="#DejaVuSans-30" x="63.623047"/>
      </g>
     </g>
    </g>
   </g>
   <g id="matplotlib.axis_6">
    <g id="ytick_6">
     <g id="line2d_34">
      <g>
       <use xlink:href="#m54a51f5b12" x="252.392727" y="210.10448" style="stroke: #000000; stroke-width: 0.8"/>
      </g>
     </g>
     <g id="text_28">
      <!-- 0 -->
      <g transform="translate(239.030227 213.903699)scale(0.1 -0.1)">
       <use xlink:href="#DejaVuSans-30"/>
      </g>
     </g>
    </g>
    <g id="ytick_7">
     <g id="line2d_35">
      <g>
       <use xlink:href="#m54a51f5b12" x="252.392727" y="158.753972" style="stroke: #000000; stroke-width: 0.8"/>
      </g>
     </g>
     <g id="text_29">
      <!-- 50 -->
      <g transform="translate(232.667727 162.553191)scale(0.1 -0.1)">
       <defs>
        <path id="DejaVuSans-35" d="M 691 4666 
L 3169 4666 
L 3169 4134 
L 1269 4134 
L 1269 2991 
Q 1406 3038 1543 3061 
Q 1681 3084 1819 3084 
Q 2600 3084 3056 2656 
Q 3513 2228 3513 1497 
Q 3513 744 3044 326 
Q 2575 -91 1722 -91 
Q 1428 -91 1123 -41 
Q 819 9 494 109 
L 494 744 
Q 775 591 1075 516 
Q 1375 441 1709 441 
Q 2250 441 2565 725 
Q 2881 1009 2881 1497 
Q 2881 1984 2565 2268 
Q 2250 2553 1709 2553 
Q 1456 2553 1204 2497 
Q 953 2441 691 2322 
L 691 4666 
z
" transform="scale(0.015625)"/>
       </defs>
       <use xlink:href="#DejaVuSans-35"/>
       <use xlink:href="#DejaVuSans-30" x="63.623047"/>
      </g>
     </g>
    </g>
    <g id="text_30">
     <!-- $e_{q_2}$ (deg) -->
     <g transform="translate(225.567727 196.578)rotate(-90)scale(0.1 -0.1)">
      <defs>
       <path id="DejaVuSans-Oblique-65" d="M 3078 2063 
Q 3088 2113 3092 2166 
Q 3097 2219 3097 2272 
Q 3097 2653 2873 2875 
Q 2650 3097 2266 3097 
Q 1838 3097 1509 2826 
Q 1181 2556 1013 2059 
L 3078 2063 
z
M 3578 1613 
L 903 1613 
Q 884 1494 878 1425 
Q 872 1356 872 1306 
Q 872 872 1139 634 
Q 1406 397 1894 397 
Q 2269 397 2603 481 
Q 2938 566 3225 728 
L 3116 159 
Q 2806 34 2476 -28 
Q 2147 -91 1806 -91 
Q 1078 -91 686 257 
Q 294 606 294 1247 
Q 294 1794 489 2264 
Q 684 2734 1063 3103 
Q 1306 3334 1642 3459 
Q 1978 3584 2356 3584 
Q 2950 3584 3301 3228 
Q 3653 2872 3653 2272 
Q 3653 2128 3634 1964 
Q 3616 1800 3578 1613 
z
" transform="scale(0.015625)"/>
       <path id="DejaVuSans-65" d="M 3597 1894 
L 3597 1613 
L 953 1613 
Q 991 1019 1311 708 
Q 1631 397 2203 397 
Q 2534 397 2845 478 
Q 3156 559 3463 722 
L 3463 178 
Q 3153 47 2828 -22 
Q 2503 -91 2169 -91 
Q 1331 -91 842 396 
Q 353 884 353 1716 
Q 353 2575 817 3079 
Q 1281 3584 2069 3584 
Q 2775 3584 3186 3129 
Q 3597 2675 3597 1894 
z
M 3022 2063 
Q 3016 2534 2758 2815 
Q 2500 3097 2075 3097 
Q 1594 3097 1305 2825 
Q 1016 2553 972 2059 
L 3022 2063 
z
" transform="scale(0.015625)"/>
      </defs>
      <use xlink:href="#DejaVuSans-Oblique-65" transform="translate(0 0.015625)"/>
      <use xlink:href="#DejaVuSans-Oblique-71" transform="translate(61.523438 -16.390625)scale(0.7)"/>
      <use xlink:href="#DejaVuSans-32" transform="translate(105.957031 -27.875)scale(0.49)"/>
      <use xlink:href="#DejaVuSans-20" transform="translate(141.780762 0.015625)"/>
      <use xlink:href="#DejaVuSans-28" transform="translate(173.567871 0.015625)"/>
      <use xlink:href="#DejaVuSans-64" transform="translate(212.581543 0.015625)"/>
      <use xlink:href="#DejaVuSans-65" transform="translate(276.058105 0.015625)"/>
      <use xlink:href="#DejaVuSans-67" transform="translate(337.581543 0.015625)"/>
      <use xlink:href="#DejaVuSans-29" transform="translate(401.058105 0.015625)"/>
     </g>
    </g>
   </g>
   <g id="line2d_36">
    <path d="M 259.77124 138.951529 
L 259.921116 153.643004 
L 260.382273 190.151799 
L 260.716612 201.540047 
L 260.751198 202.223464 
L 260.785785 197.511565 
L 260.854959 202.538272 
L 260.935661 209.90026 
L 260.993306 206.714762 
L 261.154711 202.847817 
L 261.177769 202.896278 
L 261.258471 204.06934 
L 261.431405 209.876012 
L 261.48905 207.715184 
L 261.719628 203.689491 
L 261.754215 203.649841 
L 261.788802 203.76374 
L 261.892562 205.069403 
L 262.12314 210.050026 
L 262.192314 208.939848 
L 262.365248 207.699356 
L 262.388306 207.720822 
L 262.469008 208.143133 
L 262.618884 210.080506 
L 262.676529 209.181045 
L 262.941694 206.885207 
L 262.976281 206.878128 
L 263.010868 206.971429 
L 263.149215 208.110958 
L 263.391322 210.066139 
L 263.425909 209.814731 
L 263.541198 209.509071 
L 263.575785 209.536734 
L 263.702603 209.951255 
L 263.73719 210.087331 
L 263.783306 209.893944 
L 264.152231 208.365847 
L 264.290579 208.499088 
L 264.717149 209.866071 
L 264.797851 209.803368 
L 264.982314 209.560973 
L 265.109132 209.265042 
L 265.316653 208.890305 
L 265.535702 208.977917 
L 265.88157 209.518401 
L 266.019917 209.479813 
L 266.319669 209.290329 
L 266.700124 209.119601 
L 266.734711 209.191139 
L 266.85 209.341318 
L 266.884587 209.29378 
L 266.976818 209.198043 
L 267.011405 209.248838 
L 267.115165 209.463042 
L 267.17281 209.405959 
L 267.380331 209.242254 
L 267.403388 209.266051 
L 267.564793 209.304321 
L 267.92219 209.269286 
L 268.095124 209.349581 
L 268.118182 209.321136 
L 268.256529 209.166956 
L 268.302645 209.227867 
L 268.429463 209.385072 
L 268.498636 209.31182 
L 268.56781 209.327257 
L 268.590868 209.376909 
L 268.683099 209.465517 
L 268.729215 209.42396 
L 268.913678 209.251374 
L 268.936736 209.271331 
L 269.017438 209.373179 
L 269.086612 209.296113 
L 269.155785 209.258978 
L 269.190372 209.323707 
L 269.305661 209.392875 
L 269.328719 209.375426 
L 269.467066 209.43355 
L 269.559298 209.34378 
L 269.674587 209.245465 
L 269.720702 209.291075 
L 269.928223 209.37301 
L 270.227975 209.448743 
L 270.354793 209.360784 
L 270.400909 209.431741 
L 270.516198 209.403352 
L 271.081116 209.301513 
L 271.184876 209.344435 
L 271.288636 209.263765 
L 271.346281 209.340053 
L 271.46157 209.500237 
L 271.507686 209.461968 
L 271.692149 209.453628 
L 272.510702 209.452775 
L 272.672107 209.54663 
L 272.798926 209.424846 
L 272.868099 209.345692 
L 272.925744 209.404391 
L 273.744298 209.447772 
L 273.836529 209.393164 
L 273.882645 209.433402 
L 273.997934 209.429364 
L 274.009463 209.415143 
L 274.124752 209.356675 
L 274.159339 209.395135 
L 274.332273 209.501272 
L 274.355331 209.476017 
L 274.47062 209.437623 
L 274.493678 209.463631 
L 274.632025 209.480132 
L 274.804959 209.462913 
L 274.862603 209.496937 
L 274.920248 209.441828 
L 275.070124 209.49488 
L 275.208471 209.413973 
L 275.300702 209.349829 
L 275.346818 209.380403 
L 275.64657 209.426054 
L 275.692686 209.409508 
L 275.738802 209.472956 
L 275.773388 209.495094 
L 275.819504 209.425391 
L 275.900207 209.321686 
L 275.946322 209.380698 
L 276.130785 209.457946 
L 276.799463 209.353732 
L 276.949339 209.268813 
L 277.375909 209.492075 
L 277.871653 209.378144 
L 278.033058 209.415181 
L 278.240579 209.444285 
L 278.494215 209.49677 
L 278.667149 209.436975 
L 279.324298 209.426542 
L 279.554876 209.520616 
L 280.15438 209.428308 
L 280.546364 209.420072 
L 280.707769 209.405888 
L 281.065165 209.570241 
L 281.676198 209.523167 
L 282.125826 209.594221 
L 282.41405 209.606431 
L 282.73686 209.551088 
L 282.794504 209.548534 
L 282.829091 209.600855 
L 282.921322 209.675962 
L 282.967438 209.642375 
L 283.151901 209.67736 
L 283.382479 209.728522 
L 283.91281 209.776938 
L 284.13186 209.775793 
L 284.247149 209.783089 
L 284.258678 209.800473 
L 284.466198 209.942824 
L 284.477727 209.9353 
L 284.66219 209.891799 
L 285.330868 210.014134 
L 286.103306 209.993055 
L 286.264711 210.02485 
L 286.356942 210.081329 
L 286.391529 210.040973 
L 286.495289 209.868923 
L 286.552934 209.925074 
L 286.633636 209.995802 
L 286.679752 209.926408 
L 286.783512 209.822597 
L 286.818099 209.869223 
L 286.910331 210.019017 
L 286.956446 209.954962 
L 287.152438 209.744857 
L 287.175496 209.775675 
L 287.279256 209.990161 
L 287.336901 209.902906 
L 287.45219 209.688139 
L 287.509835 209.757447 
L 287.590537 209.852512 
L 287.636653 209.779422 
L 287.740413 209.648561 
L 287.775 209.708194 
L 287.844174 209.819229 
L 287.901818 209.738504 
L 288.005579 209.621281 
L 288.051694 209.670138 
L 288.166983 209.827092 
L 288.224628 209.759373 
L 288.386033 209.55993 
L 288.409091 209.577345 
L 288.639669 209.606462 
L 288.927893 209.591381 
L 288.974008 209.65115 
L 289.031653 209.579748 
L 289.227645 209.471381 
L 289.250702 209.496309 
L 289.319876 209.570584 
L 289.377521 209.501562 
L 289.608099 209.447671 
L 289.665744 209.513168 
L 289.71186 209.425436 
L 289.781033 209.33157 
L 289.827149 209.412571 
L 289.91938 209.582556 
L 289.965496 209.508463 
L 290.126901 209.373101 
L 290.276777 209.490958 
L 290.322893 209.384578 
L 290.392066 209.33835 
L 290.438182 209.374059 
L 290.541942 209.456507 
L 290.588058 209.389956 
L 290.680289 209.298232 
L 290.714876 209.358864 
L 290.818636 209.467367 
L 290.853223 209.428622 
L 290.99157 209.206371 
L 291.026157 209.27246 
L 291.118388 209.50336 
L 291.176033 209.40832 
L 291.31438 209.283319 
L 291.337438 209.302296 
L 291.464256 209.304784 
L 291.602603 209.353152 
L 291.683306 209.381385 
L 291.717893 209.337472 
L 291.85624 209.278601 
L 291.867769 209.289953 
L 291.971529 209.42075 
L 292.017645 209.329207 
L 292.155992 209.300322 
L 292.720909 209.283459 
L 293.228182 209.303944 
L 293.331942 209.2416 
L 293.435702 209.287816 
L 293.57405 209.311454 
L 293.597107 209.278255 
L 293.770041 209.222464 
L 294.20814 209.289975 
L 294.842231 209.265359 
L 295.107397 209.293881 
L 295.222686 209.205096 
L 295.280331 209.264364 
L 295.407149 209.290146 
L 295.430207 209.262988 
L 295.60314 209.251661 
L 297.078843 209.319059 
L 297.228719 209.273569 
L 297.563058 209.326775 
L 297.75905 209.329954 
L 299.350041 209.5976 
L 299.396157 209.629111 
L 299.442273 209.566077 
L 299.499917 209.505738 
L 299.546033 209.56745 
L 299.638264 209.661086 
L 299.68438 209.611154 
L 299.753554 209.588394 
L 299.799669 209.634747 
L 299.891901 209.694318 
L 299.938017 209.632335 
L 299.995661 209.596598 
L 300.041777 209.665591 
L 300.11095 209.757969 
L 300.157066 209.680783 
L 300.214711 209.603642 
L 300.260826 209.685533 
L 300.341529 209.836166 
L 300.399174 209.767477 
L 300.525992 209.787826 
L 300.941033 209.891515 
L 301.067851 209.915723 
L 301.309959 209.913786 
L 302.405207 210.034389 
L 302.532025 209.946519 
L 302.57814 210.014485 
L 302.624256 210.037471 
L 302.658843 209.981486 
L 302.739545 209.882324 
L 302.785661 209.930958 
L 302.866364 209.957658 
L 302.90095 209.914004 
L 303.004711 209.828281 
L 303.039298 209.86549 
L 303.12 209.943772 
L 303.166116 209.865891 
L 303.304463 209.815679 
L 303.558099 209.72642 
L 303.673388 209.778721 
L 303.834793 209.740885 
L 304.261364 209.681716 
L 304.330537 209.609532 
L 304.376653 209.677305 
L 304.445826 209.787444 
L 304.491942 209.700292 
L 304.561116 209.565654 
L 304.61876 209.641234 
L 304.745579 209.647718 
L 304.930041 209.617505 
L 305.045331 209.652905 
L 305.068388 209.624955 
L 305.287438 209.570218 
L 305.356612 209.621125 
L 305.402727 209.555979 
L 305.448843 209.517632 
L 305.506488 209.585911 
L 305.610248 209.560644 
L 305.621777 209.543143 
L 305.702479 209.509134 
L 305.748595 209.555347 
L 305.852355 209.585469 
L 305.886942 209.548666 
L 305.956116 209.536942 
L 306.002231 209.586373 
L 306.048347 209.59037 
L 306.082934 209.531316 
L 306.152107 209.451246 
L 306.186694 209.525438 
L 306.255868 209.661856 
L 306.313512 209.559264 
L 306.359628 209.540227 
L 306.405744 209.588408 
L 306.486446 209.647832 
L 306.532562 209.582715 
L 306.567149 209.565639 
L 306.624793 209.632506 
L 306.774669 209.667949 
L 307.281942 209.816835 
L 307.328058 209.840064 
L 307.385702 209.78019 
L 307.535579 209.834988 
L 307.754628 209.887276 
L 308.008264 209.963558 
L 308.308017 210.001333 
L 308.527066 210.10111 
L 308.653884 210.101747 
L 311.881983 209.013444 
L 312.516074 208.796237 
L 312.573719 208.809056 
L 312.608306 208.744353 
L 312.66595 208.654067 
L 312.735124 208.719038 
L 312.815826 208.648971 
L 312.896529 208.581478 
L 312.954174 208.627793 
L 313.680496 208.290521 
L 313.73814 208.234276 
L 313.807314 208.27431 
L 314.637397 207.975844 
L 315.121612 207.806065 
L 315.271488 207.801713 
L 316.020868 207.571085 
L 316.078512 207.564885 
L 316.124628 207.625028 
L 316.21686 207.541771 
L 316.435909 207.51488 
L 316.52814 207.543624 
L 316.562727 207.499536 
L 316.631901 207.44663 
L 316.678017 207.510986 
L 316.735661 207.51461 
L 316.781777 207.460113 
L 317.012355 207.414264 
L 317.196818 207.414782 
L 317.71562 207.404112 
L 317.980785 207.405164 
L 319.479545 207.454623 
L 319.548719 207.43676 
L 319.583306 207.480634 
L 319.767769 207.507427 
L 320.07905 207.491241 
L 320.367273 207.50743 
L 320.597851 207.594397 
L 320.736198 207.596363 
L 321.001364 207.614577 
L 321.255 207.666542 
L 321.462521 207.645092 
L 322.165785 207.689182 
L 322.269545 207.752314 
L 322.903636 207.762549 
L 322.938223 207.761524 
L 322.984339 207.83536 
L 323.353264 207.879511 
L 323.39938 207.844247 
L 323.457025 207.903496 
L 324.275579 208.056066 
L 324.390868 208.031528 
L 324.494628 208.065943 
L 324.529215 208.034092 
L 324.632975 208.096143 
L 324.909669 208.136059 
L 325.071074 208.168568 
L 325.555289 208.267125 
L 325.624463 208.339879 
L 325.797397 208.396384 
L 325.912686 208.414085 
L 325.924215 208.42635 
L 326.108678 208.491511 
L 326.385372 208.612199 
L 326.40843 208.552783 
L 326.431488 208.535554 
L 326.477603 208.626301 
L 326.500661 208.638299 
L 326.546777 208.562699 
L 326.558306 208.554515 
L 326.73124 208.717808 
L 326.892645 208.805847 
L 327.111694 208.837909 
L 327.146281 208.808498 
L 327.192397 208.914909 
L 327.250041 208.975761 
L 327.296157 208.916706 
L 327.353802 208.872767 
L 327.388388 208.953639 
L 327.434504 209.060151 
L 327.503678 208.960016 
L 327.838017 209.228033 
L 327.861074 209.193252 
L 327.90719 209.126329 
L 327.941777 209.218123 
L 327.987893 209.312835 
L 328.057066 209.259539 
L 329.763347 210.080581 
L 329.94781 209.963939 
L 330.247562 209.857156 
L 333.049091 208.699934 
L 333.325785 208.632563 
L 333.556364 208.53454 
L 333.717769 208.519104 
L 335.712273 208.069477 
L 335.942851 208.010429 
L 336.069669 208.021077 
L 336.70376 207.891883 
L 336.830579 207.85271 
L 337.24562 207.830168 
L 338.940372 207.630585 
L 338.974959 207.650176 
L 339.032603 207.571112 
L 340.473719 207.488141 
L 340.519835 207.48466 
L 340.56595 207.543 
L 340.761942 207.544801 
L 341.038636 207.489553 
L 341.269215 207.487388 
L 341.32686 207.476681 
L 341.372975 207.531763 
L 343.621116 207.609618 
L 343.67876 207.599555 
L 343.713347 207.550794 
L 343.79405 207.632621 
L 343.990041 207.592573 
L 344.036157 207.581599 
L 344.070744 207.648368 
L 344.105331 207.645514 
L 344.151446 207.573127 
L 344.32438 207.649689 
L 344.474256 207.666941 
L 348.313388 208.174355 
L 348.486322 208.200156 
L 348.659256 208.181209 
L 348.912893 208.250815 
L 349.016653 208.291657 
L 349.212645 208.299041 
L 349.431694 208.356904 
L 349.662273 208.416804 
L 349.708388 208.365009 
L 349.766033 208.451549 
L 350.019669 208.466718 
L 350.204132 208.485412 
L 350.411653 208.547144 
L 350.930455 208.619429 
L 351.068802 208.65072 
L 351.391612 208.73999 
L 351.737479 208.802217 
L 351.864298 208.823749 
L 352.233223 208.92085 
L 352.429215 208.957027 
L 352.48686 208.952991 
L 352.532975 209.012479 
L 352.740496 209.024726 
L 352.79814 209.02254 
L 352.832727 209.074725 
L 353.01719 209.10537 
L 353.167066 209.111961 
L 353.351529 209.221576 
L 353.593636 209.266879 
L 353.893388 209.335671 
L 354.066322 209.379639 
L 354.435248 209.489304 
L 354.758058 209.571153 
L 355.784132 209.890208 
L 355.991653 209.948266 
L 356.291405 210.050294 
L 356.45281 210.091694 
L 356.602686 210.070259 
L 356.867851 209.957161 
L 360.487934 208.637232 
L 360.753099 208.568881 
L 360.902975 208.527267 
L 361.202727 208.382214 
L 361.214256 208.398699 
L 361.294959 208.349516 
L 361.341074 208.400244 
L 361.364132 208.400999 
L 361.398719 208.32849 
L 361.410248 208.315445 
L 361.986694 208.179233 
L 362.101983 208.141418 
L 362.436322 208.051394 
L 362.713017 207.966836 
L 362.747603 207.994549 
L 362.828306 207.948876 
L 366.64438 207.462932 
L 366.817314 207.453447 
L 367.082479 207.447349 
L 367.117066 207.4809 
L 367.197769 207.425201 
L 367.370702 207.461715 
L 369.042397 207.519917 
L 369.272975 207.530437 
L 371.567231 207.895144 
L 371.959215 208.001565 
L 372.685537 208.216416 
L 373.457975 208.481061 
L 374.737686 208.999818 
L 374.945207 209.108307 
L 375.129669 209.172173 
L 375.452479 209.297171 
L 376.051983 209.563827 
L 377.608388 210.00598 
L 377.758264 209.963258 
L 377.873554 209.940201 
L 378.115661 209.810806 
L 378.288595 209.807112 
L 378.426942 209.726535 
L 378.576818 209.692621 
L 379.141736 209.486784 
L 379.268554 209.452562 
L 380.340744 209.161974 
L 380.49062 209.122014 
L 380.81343 209.033833 
L 381.551281 208.856416 
L 381.78186 208.819202 
L 382.104669 208.747679 
L 382.53124 208.676289 
L 382.669587 208.663825 
L 383.442025 208.567142 
L 383.60343 208.518022 
L 385.217479 208.495544 
L 385.401942 208.510512 
L 385.770868 208.519004 
L 385.909215 208.558507 
L 385.932273 208.522925 
L 386.139793 208.543928 
L 386.324256 208.587267 
L 390.509256 209.082576 
L 390.78595 209.081412 
L 391.22405 209.112216 
L 391.731322 209.114331 
L 392.215537 209.126451 
L 392.665165 209.129927 
L 393.183967 209.145953 
L 394.313802 209.201897 
L 394.486736 209.222267 
L 394.844132 209.256234 
L 395.028595 209.284461 
L 395.305289 209.314164 
L 395.685744 209.379721 
L 400.297314 210.050271 
L 400.481777 210.030512 
L 400.87376 209.995567 
L 400.977521 210.015865 
L 400.98905 210.004847 
L 401.19657 209.988794 
L 401.334917 210.007382 
L 401.542438 209.99405 
L 401.934421 210.007749 
L 402.222645 210.00797 
L 402.995083 210.038353 
L 403.202603 210.058624 
L 403.398595 210.069777 
L 403.813636 210.070445 
L 404.124917 210.078516 
L 404.482314 210.083647 
L 404.701364 210.084826 
L 404.897355 210.073994 
L 407.341488 209.874922 
L 407.341488 209.874922 
" clip-path="url(#p13fb7eb01e)" style="fill: none; stroke: #1f77b4; stroke-width: 0.3; stroke-linecap: square"/>
   </g>
   <g id="line2d_37">
    <path d="M 259.77124 138.951529 
L 259.828884 143.395202 
L 260.393802 190.79588 
L 260.72814 201.955868 
L 261.039421 205.963395 
L 261.339174 207.390663 
L 261.650455 207.930302 
L 262.030909 208.151135 
L 262.745702 208.253989 
L 273.60595 208.85665 
L 277.502727 208.788885 
L 280.304256 208.849317 
L 282.437107 209.117037 
L 284.420083 209.589279 
L 286.253182 210.014301 
L 289.538926 208.964453 
L 291.406612 208.632947 
L 293.770041 208.459157 
L 296.560041 208.462212 
L 298.243264 208.673436 
L 299.730496 209.087371 
L 301.736529 209.909387 
L 302.324504 210.048479 
L 304.180661 209.395477 
L 305.737066 209.089642 
L 306.45186 209.109481 
L 307.328058 209.43906 
L 308.861405 210.008341 
L 310.809793 208.832342 
L 312.838884 207.326288 
L 315.121612 205.67482 
L 316.309091 205.096908 
L 317.39281 204.812909 
L 318.557231 204.742431 
L 320.055992 204.890969 
L 322.615413 205.399124 
L 324.448512 205.950633 
L 325.728223 206.56706 
L 326.93876 207.403988 
L 328.379876 208.693655 
L 329.890165 210.019062 
L 331.746322 208.358018 
L 333.245083 207.315898 
L 334.847603 206.47592 
L 336.692231 205.763319 
L 338.594504 205.261306 
L 340.381488 205.015719 
L 342.122355 205.000534 
L 343.990041 205.211398 
L 346.272769 205.705336 
L 349.339463 206.608285 
L 351.945 207.589115 
L 354.181612 208.672122 
L 356.545041 210.07115 
L 356.694917 210.041156 
L 359.830785 207.877167 
L 362.309504 206.26702 
L 363.85438 205.527445 
L 365.272438 205.093037 
L 366.725083 204.8825 
L 368.246901 204.886547 
L 369.75719 205.110055 
L 371.140661 205.538313 
L 372.44343 206.177309 
L 373.83843 207.119824 
L 375.959752 208.868603 
L 377.539215 210.061313 
L 379.326198 208.845964 
L 381.078595 207.921128 
L 382.681116 207.31389 
L 383.995413 207.04268 
L 385.182893 207.02108 
L 386.462603 207.228274 
L 390.866653 208.155632 
L 395.213058 208.470792 
L 396.711818 208.953261 
L 399.939917 210.080409 
L 401.161983 209.922808 
L 402.603099 209.978616 
L 405.162521 210.100577 
L 406.580579 209.903266 
L 407.341488 209.718477 
L 407.341488 209.718477 
" clip-path="url(#p13fb7eb01e)" style="fill: none; stroke: #ff7f0e; stroke-width: 0.3; stroke-linecap: square"/>
   </g>
   <g id="line2d_38">
    <path d="M 259.77124 138.951529 
L 259.828884 143.396674 
L 260.405331 192.382583 
L 260.739669 203.685618 
L 261.05095 207.753961 
L 261.350702 209.203109 
L 261.661983 209.749526 
L 262.042438 209.970614 
L 262.757231 210.068412 
L 264.774793 210.074002 
L 269.997397 210.053575 
L 283.347893 210.087108 
L 298.266322 210.103471 
L 300.33 210.046175 
L 306.463388 209.73528 
L 307.604752 209.228967 
L 310.510041 207.976785 
L 312.885 207.194956 
L 314.983264 206.73271 
L 316.943182 206.526542 
L 318.868512 206.547997 
L 320.851488 206.795391 
L 323.007397 207.294627 
L 325.693636 208.160361 
L 329.013967 209.467635 
L 330.604959 210.038225 
L 335.723802 207.844718 
L 337.995 207.143674 
L 340.162438 206.708047 
L 342.237645 206.514119 
L 344.128388 206.556847 
L 345.996074 206.822924 
L 348.059752 207.348849 
L 350.503884 208.209409 
L 353.259298 209.420699 
L 354.792645 210.039145 
L 358.654835 208.250591 
L 360.845331 207.493796 
L 363.012769 206.983808 
L 365.387727 206.656624 
L 367.520579 206.576657 
L 369.422851 206.727129 
L 371.394298 207.111845 
L 373.653967 207.78891 
L 376.582314 208.915757 
L 379.510661 210.016768 
L 385.067603 207.634078 
L 387.327273 206.937636 
L 389.356364 206.541647 
L 391.270165 206.391781 
L 393.137851 206.468404 
L 395.028595 206.7708 
L 396.988512 207.311775 
L 399.075248 208.12318 
L 401.726901 209.415162 
L 403.179545 210.042609 
L 406.718926 208.350574 
L 407.341488 208.089066 
L 407.341488 208.089066 
" clip-path="url(#p13fb7eb01e)" style="fill: none; stroke: #2ca02c; stroke-width: 0.3; stroke-linecap: square"/>
   </g>
   <g id="patch_15">
    <path d="M 252.392727 213.662118 
L 252.392727 135.393882 
" style="fill: none; stroke: #000000; stroke-width: 0.8; stroke-linejoin: miter; stroke-linecap: square"/>
   </g>
   <g id="patch_16">
    <path d="M 414.72 213.662118 
L 414.72 135.393882 
" style="fill: none; stroke: #000000; stroke-width: 0.8; stroke-linejoin: miter; stroke-linecap: square"/>
   </g>
   <g id="patch_17">
    <path d="M 252.392727 213.662118 
L 414.72 213.662118 
" style="fill: none; stroke: #000000; stroke-width: 0.8; stroke-linejoin: miter; stroke-linecap: square"/>
   </g>
   <g id="patch_18">
    <path d="M 252.392727 135.393882 
L 414.72 135.393882 
" style="fill: none; stroke: #000000; stroke-width: 0.8; stroke-linejoin: miter; stroke-linecap: square"/>
   </g>
   <g id="legend_3">
    <g id="patch_19">
     <path d="M 368.432533 178.738517 
L 408.889 178.738517 
Q 410.555 178.738517 410.555 177.072517 
L 410.555 141.224882 
Q 410.555 139.558882 408.889 139.558882 
L 368.432533 139.558882 
Q 366.766533 139.558882 366.766533 141.224882 
L 366.766533 177.072517 
Q 366.766533 178.738517 368.432533 178.738517 
z
" style="fill: #ffffff; opacity: 0.8; stroke: #cccccc; stroke-linejoin: miter"/>
    </g>
    <g id="line2d_39">
     <path d="M 370.098533 146.304881 
L 378.428533 146.304881 
L 386.758533 146.304881 
" style="fill: none; stroke: #1f77b4; stroke-width: 0.3; stroke-linecap: square"/>
    </g>
    <g id="text_31">
     <!-- our -->
     <g transform="translate(393.422533 149.220381)scale(0.0833 -0.0833)">
      <use xlink:href="#DejaVuSans-6f"/>
      <use xlink:href="#DejaVuSans-75" x="61.181641"/>
      <use xlink:href="#DejaVuSans-72" x="124.560547"/>
     </g>
    </g>
    <g id="line2d_40">
     <path d="M 370.098533 158.531759 
L 378.428533 158.531759 
L 386.758533 158.531759 
" style="fill: none; stroke: #ff7f0e; stroke-width: 0.3; stroke-linecap: square"/>
    </g>
    <g id="text_32">
     <!-- g -->
     <g transform="translate(393.422533 161.447259)scale(0.0833 -0.0833)">
      <use xlink:href="#DejaVuSans-67"/>
     </g>
    </g>
    <g id="line2d_41">
     <path d="M 370.098533 170.758637 
L 378.428533 170.758637 
L 386.758533 170.758637 
" style="fill: none; stroke: #2ca02c; stroke-width: 0.3; stroke-linecap: square"/>
    </g>
    <g id="text_33">
     <!-- og -->
     <g transform="translate(393.422533 173.674137)scale(0.0833 -0.0833)">
      <use xlink:href="#DejaVuSans-6f"/>
      <use xlink:href="#DejaVuSans-67" x="61.181641"/>
     </g>
    </g>
   </g>
  </g>
 </g>
 <defs>
  <clipPath id="p96b27b39ab">
   <rect x="57.6" y="41.472" width="162.327273" height="78.268235"/>
  </clipPath>
  <clipPath id="p49577d1e91">
   <rect x="252.392727" y="41.472" width="162.327273" height="78.268235"/>
  </clipPath>
  <clipPath id="p13fb7eb01e">
   <rect x="252.392727" y="135.393882" width="162.327273" height="78.268235"/>
  </clipPath>
 </defs>
</svg>
