<?xml version="1.0" encoding="utf-8" standalone="no"?>
<!DOCTYPE svg PUBLIC "-//W3C//DTD SVG 1.1//EN"
  "http://www.w3.org/Graphics/SVG/1.1/DTD/svg11.dtd">
<svg xmlns:xlink="http://www.w3.org/1999/xlink" width="460.8pt" height="345.6pt" viewBox="0 0 460.8 345.6" xmlns="http://www.w3.org/2000/svg" version="1.1">
 <metadata>
  <rdf:RDF xmlns:dc="http://purl.org/dc/elements/1.1/" xmlns:cc="http://creativecommons.org/ns#" xmlns:rdf="http://www.w3.org/1999/02/22-rdf-syntax-ns#">
   <cc:Work>
    <dc:type rdf:resource="http://purl.org/dc/dcmitype/StillImage"/>
    <dc:date>2023-10-21T13:49:22.899714</dc:date>
    <dc:format>image/svg+xml</dc:format>
    <dc:creator>
     <cc:Agent>
      <dc:title>Matplotlib v3.5.1, https://matplotlib.org/</dc:title>
     </cc:Agent>
    </dc:creator>
   </cc:Work>
  </rdf:RDF>
 </metadata>
 <defs>
  <style type="text/css">*{stroke-linejoin: round; stroke-linecap: butt}</style>
 </defs>
 <g id="figure_1">
  <g id="patch_1">
   <path d="M 0 345.6 
L 460.8 345.6 
L 460.8 0 
L 0 0 
z
" style="fill: #ffffff"/>
  </g>
  <g id="axes_1">
   <g id="patch_2">
    <path d="M 57.6 119.740235 
L 219.927273 119.740235 
L 219.927273 41.472 
L 57.6 41.472 
z
" style="fill: #ffffff"/>
   </g>
   <g id="matplotlib.axis_1">
    <g id="xtick_1">
     <g id="line2d_1">
      <defs>
       <path id="m8c9890c684" d="M 0 0 
L 0 3.5 
" style="stroke: #000000; stroke-width: 0.8"/>
      </defs>
      <g>
       <use xlink:href="#m8c9890c684" x="64.978512" y="119.740235" style="stroke: #000000; stroke-width: 0.8"/>
      </g>
     </g>
     <g id="text_1">
      <!-- 0 -->
      <g transform="translate(61.797262 134.338673)scale(0.1 -0.1)">
       <defs>
        <path id="DejaVuSans-30" d="M 2034 4250 
Q 1547 4250 1301 3770 
Q 1056 3291 1056 2328 
Q 1056 1369 1301 889 
Q 1547 409 2034 409 
Q 2525 409 2770 889 
Q 3016 1369 3016 2328 
Q 3016 3291 2770 3770 
Q 2525 4250 2034 4250 
z
M 2034 4750 
Q 2819 4750 3233 4129 
Q 3647 3509 3647 2328 
Q 3647 1150 3233 529 
Q 2819 -91 2034 -91 
Q 1250 -91 836 529 
Q 422 1150 422 2328 
Q 422 3509 836 4129 
Q 1250 4750 2034 4750 
z
" transform="scale(0.015625)"/>
       </defs>
       <use xlink:href="#DejaVuSans-30"/>
      </g>
     </g>
    </g>
    <g id="xtick_2">
     <g id="line2d_2">
      <g>
       <use xlink:href="#m8c9890c684" x="111.094215" y="119.740235" style="stroke: #000000; stroke-width: 0.8"/>
      </g>
     </g>
     <g id="text_2">
      <!-- 10 -->
      <g transform="translate(104.731715 134.338673)scale(0.1 -0.1)">
       <defs>
        <path id="DejaVuSans-31" d="M 794 531 
L 1825 531 
L 1825 4091 
L 703 3866 
L 703 4441 
L 1819 4666 
L 2450 4666 
L 2450 531 
L 3481 531 
L 3481 0 
L 794 0 
L 794 531 
z
" transform="scale(0.015625)"/>
       </defs>
       <use xlink:href="#DejaVuSans-31"/>
       <use xlink:href="#DejaVuSans-30" x="63.623047"/>
      </g>
     </g>
    </g>
    <g id="xtick_3">
     <g id="line2d_3">
      <g>
       <use xlink:href="#m8c9890c684" x="157.209917" y="119.740235" style="stroke: #000000; stroke-width: 0.8"/>
      </g>
     </g>
     <g id="text_3">
      <!-- 20 -->
      <g transform="translate(150.847417 134.338673)scale(0.1 -0.1)">
       <defs>
        <path id="DejaVuSans-32" d="M 1228 531 
L 3431 531 
L 3431 0 
L 469 0 
L 469 531 
Q 828 903 1448 1529 
Q 2069 2156 2228 2338 
Q 2531 2678 2651 2914 
Q 2772 3150 2772 3378 
Q 2772 3750 2511 3984 
Q 2250 4219 1831 4219 
Q 1534 4219 1204 4116 
Q 875 4013 500 3803 
L 500 4441 
Q 881 4594 1212 4672 
Q 1544 4750 1819 4750 
Q 2544 4750 2975 4387 
Q 3406 4025 3406 3419 
Q 3406 3131 3298 2873 
Q 3191 2616 2906 2266 
Q 2828 2175 2409 1742 
Q 1991 1309 1228 531 
z
" transform="scale(0.015625)"/>
       </defs>
       <use xlink:href="#DejaVuSans-32"/>
       <use xlink:href="#DejaVuSans-30" x="63.623047"/>
      </g>
     </g>
    </g>
    <g id="xtick_4">
     <g id="line2d_4">
      <g>
       <use xlink:href="#m8c9890c684" x="203.32562" y="119.740235" style="stroke: #000000; stroke-width: 0.8"/>
      </g>
     </g>
     <g id="text_4">
      <!-- 30 -->
      <g transform="translate(196.96312 134.338673)scale(0.1 -0.1)">
       <defs>
        <path id="DejaVuSans-33" d="M 2597 2516 
Q 3050 2419 3304 2112 
Q 3559 1806 3559 1356 
Q 3559 666 3084 287 
Q 2609 -91 1734 -91 
Q 1441 -91 1130 -33 
Q 819 25 488 141 
L 488 750 
Q 750 597 1062 519 
Q 1375 441 1716 441 
Q 2309 441 2620 675 
Q 2931 909 2931 1356 
Q 2931 1769 2642 2001 
Q 2353 2234 1838 2234 
L 1294 2234 
L 1294 2753 
L 1863 2753 
Q 2328 2753 2575 2939 
Q 2822 3125 2822 3475 
Q 2822 3834 2567 4026 
Q 2313 4219 1838 4219 
Q 1578 4219 1281 4162 
Q 984 4106 628 3988 
L 628 4550 
Q 988 4650 1302 4700 
Q 1616 4750 1894 4750 
Q 2613 4750 3031 4423 
Q 3450 4097 3450 3541 
Q 3450 3153 3228 2886 
Q 3006 2619 2597 2516 
z
" transform="scale(0.015625)"/>
       </defs>
       <use xlink:href="#DejaVuSans-33"/>
       <use xlink:href="#DejaVuSans-30" x="63.623047"/>
      </g>
     </g>
    </g>
   </g>
   <g id="matplotlib.axis_2">
    <g id="ytick_1">
     <g id="line2d_5">
      <defs>
       <path id="me404ad0dfa" d="M 0 0 
L -3.5 0 
" style="stroke: #000000; stroke-width: 0.8"/>
      </defs>
      <g>
       <use xlink:href="#me404ad0dfa" x="57.6" y="94.894566" style="stroke: #000000; stroke-width: 0.8"/>
      </g>
     </g>
     <g id="text_5">
      <!-- −2 -->
      <g transform="translate(35.857813 98.693785)scale(0.1 -0.1)">
       <defs>
        <path id="DejaVuSans-2212" d="M 678 2272 
L 4684 2272 
L 4684 1741 
L 678 1741 
L 678 2272 
z
" transform="scale(0.015625)"/>
       </defs>
       <use xlink:href="#DejaVuSans-2212"/>
       <use xlink:href="#DejaVuSans-32" x="83.789062"/>
      </g>
     </g>
    </g>
    <g id="ytick_2">
     <g id="line2d_6">
      <g>
       <use xlink:href="#me404ad0dfa" x="57.6" y="60.359726" style="stroke: #000000; stroke-width: 0.8"/>
      </g>
     </g>
     <g id="text_6">
      <!-- −1 -->
      <g transform="translate(35.857813 64.158945)scale(0.1 -0.1)">
       <use xlink:href="#DejaVuSans-2212"/>
       <use xlink:href="#DejaVuSans-31" x="83.789062"/>
      </g>
     </g>
    </g>
    <g id="text_7">
     <!-- $q_1$ (rad) -->
     <g transform="translate(29.757812 99.956118)rotate(-90)scale(0.1 -0.1)">
      <defs>
       <path id="DejaVuSans-Oblique-71" d="M 2669 525 
Q 2438 222 2123 65 
Q 1809 -91 1428 -91 
Q 897 -91 595 267 
Q 294 625 294 1253 
Q 294 1759 480 2231 
Q 666 2703 1013 3078 
Q 1238 3322 1530 3453 
Q 1822 3584 2144 3584 
Q 2531 3584 2781 3431 
Q 3031 3278 3144 2969 
L 3244 3494 
L 3822 3494 
L 2888 -1319 
L 2309 -1319 
L 2669 525 
z
M 891 1338 
Q 891 875 1084 633 
Q 1278 391 1644 391 
Q 2188 391 2572 911 
Q 2956 1431 2956 2175 
Q 2956 2625 2757 2864 
Q 2559 3103 2188 3103 
Q 1916 3103 1684 2976 
Q 1453 2850 1281 2606 
Q 1100 2350 995 2006 
Q 891 1663 891 1338 
z
" transform="scale(0.015625)"/>
       <path id="DejaVuSans-20" transform="scale(0.015625)"/>
       <path id="DejaVuSans-28" d="M 1984 4856 
Q 1566 4138 1362 3434 
Q 1159 2731 1159 2009 
Q 1159 1288 1364 580 
Q 1569 -128 1984 -844 
L 1484 -844 
Q 1016 -109 783 600 
Q 550 1309 550 2009 
Q 550 2706 781 3412 
Q 1013 4119 1484 4856 
L 1984 4856 
z
" transform="scale(0.015625)"/>
       <path id="DejaVuSans-72" d="M 2631 2963 
Q 2534 3019 2420 3045 
Q 2306 3072 2169 3072 
Q 1681 3072 1420 2755 
Q 1159 2438 1159 1844 
L 1159 0 
L 581 0 
L 581 3500 
L 1159 3500 
L 1159 2956 
Q 1341 3275 1631 3429 
Q 1922 3584 2338 3584 
Q 2397 3584 2469 3576 
Q 2541 3569 2628 3553 
L 2631 2963 
z
" transform="scale(0.015625)"/>
       <path id="DejaVuSans-61" d="M 2194 1759 
Q 1497 1759 1228 1600 
Q 959 1441 959 1056 
Q 959 750 1161 570 
Q 1363 391 1709 391 
Q 2188 391 2477 730 
Q 2766 1069 2766 1631 
L 2766 1759 
L 2194 1759 
z
M 3341 1997 
L 3341 0 
L 2766 0 
L 2766 531 
Q 2569 213 2275 61 
Q 1981 -91 1556 -91 
Q 1019 -91 701 211 
Q 384 513 384 1019 
Q 384 1609 779 1909 
Q 1175 2209 1959 2209 
L 2766 2209 
L 2766 2266 
Q 2766 2663 2505 2880 
Q 2244 3097 1772 3097 
Q 1472 3097 1187 3025 
Q 903 2953 641 2809 
L 641 3341 
Q 956 3463 1253 3523 
Q 1550 3584 1831 3584 
Q 2591 3584 2966 3190 
Q 3341 2797 3341 1997 
z
" transform="scale(0.015625)"/>
       <path id="DejaVuSans-64" d="M 2906 2969 
L 2906 4863 
L 3481 4863 
L 3481 0 
L 2906 0 
L 2906 525 
Q 2725 213 2448 61 
Q 2172 -91 1784 -91 
Q 1150 -91 751 415 
Q 353 922 353 1747 
Q 353 2572 751 3078 
Q 1150 3584 1784 3584 
Q 2172 3584 2448 3432 
Q 2725 3281 2906 2969 
z
M 947 1747 
Q 947 1113 1208 752 
Q 1469 391 1925 391 
Q 2381 391 2643 752 
Q 2906 1113 2906 1747 
Q 2906 2381 2643 2742 
Q 2381 3103 1925 3103 
Q 1469 3103 1208 2742 
Q 947 2381 947 1747 
z
" transform="scale(0.015625)"/>
       <path id="DejaVuSans-29" d="M 513 4856 
L 1013 4856 
Q 1481 4119 1714 3412 
Q 1947 2706 1947 2009 
Q 1947 1309 1714 600 
Q 1481 -109 1013 -844 
L 513 -844 
Q 928 -128 1133 580 
Q 1338 1288 1338 2009 
Q 1338 2731 1133 3434 
Q 928 4138 513 4856 
z
" transform="scale(0.015625)"/>
      </defs>
      <use xlink:href="#DejaVuSans-Oblique-71" transform="translate(0 0.015625)"/>
      <use xlink:href="#DejaVuSans-31" transform="translate(63.476562 -16.390625)scale(0.7)"/>
      <use xlink:href="#DejaVuSans-20" transform="translate(110.74707 0.015625)"/>
      <use xlink:href="#DejaVuSans-28" transform="translate(142.53418 0.015625)"/>
      <use xlink:href="#DejaVuSans-72" transform="translate(181.547852 0.015625)"/>
      <use xlink:href="#DejaVuSans-61" transform="translate(222.661133 0.015625)"/>
      <use xlink:href="#DejaVuSans-64" transform="translate(283.94043 0.015625)"/>
      <use xlink:href="#DejaVuSans-29" transform="translate(347.416992 0.015625)"/>
     </g>
    </g>
   </g>
   <g id="line2d_7">
    <path d="M 64.978512 80.072086 
L 67.837686 63.912205 
L 69.313388 56.829706 
L 70.489339 52.212743 
L 71.469298 49.209498 
L 72.29938 47.333853 
L 73.002645 46.254783 
L 73.59062 45.724076 
L 74.097893 45.542638 
L 74.570579 45.605392 
L 75.054793 45.901149 
L 75.596653 46.507341 
L 76.219215 47.556012 
L 76.945537 49.239986 
L 77.798678 51.817416 
L 78.801694 55.604365 
L 80.000702 61.055032 
L 81.53405 69.142604 
L 84.335579 85.407541 
L 86.514545 97.417746 
L 87.932603 104.056581 
L 89.073967 108.404519 
L 90.030868 111.232987 
L 90.837893 112.978963 
L 91.518099 113.969545 
L 92.094545 114.453659 
L 92.601818 114.605861 
L 93.074504 114.51583 
L 93.570248 114.181745 
L 94.123636 113.521951 
L 94.769256 112.377496 
L 95.518636 110.561002 
L 96.394835 107.81073 
L 97.420909 103.81149 
L 98.666033 98.000718 
L 100.280083 89.31564 
L 105.813967 58.585437 
L 107.059091 53.376293 
L 108.085165 49.973767 
L 108.949835 47.814862 
L 109.687686 46.523364 
L 110.310248 45.844615 
L 110.840579 45.569461 
L 111.313264 45.561275 
L 111.78595 45.776625 
L 112.304752 46.268599 
L 112.904256 47.165209 
L 113.595992 48.624884 
L 114.403017 50.877078 
L 115.348388 54.212013 
L 116.478223 59.066544 
L 117.873223 66.108144 
L 119.902314 77.632994 
L 123.245702 96.590401 
L 124.698347 103.514361 
L 125.862769 108.051162 
L 126.831198 110.995292 
L 127.649752 112.831842 
L 128.353017 113.903075 
L 128.940992 114.427074 
L 129.448264 114.602666 
L 129.92095 114.534455 
L 130.405165 114.233139 
L 130.947025 113.620807 
L 131.581116 112.542221 
L 132.318967 110.81201 
L 133.172107 108.209295 
L 134.175124 104.395821 
L 135.385661 98.862147 
L 136.930537 90.679428 
L 139.951116 73.135273 
L 141.991736 62.027681 
L 143.375207 55.652266 
L 144.493512 51.470931 
L 145.438884 48.737956 
L 146.23438 47.063927 
L 146.914587 46.111423 
L 147.491033 45.660263 
L 147.986777 45.537246 
L 148.459463 45.649092 
L 148.955207 46.005909 
L 149.520124 46.708149 
L 150.165744 47.888075 
L 150.926653 49.776366 
L 151.81438 52.61881 
L 152.851983 56.729578 
L 154.108636 62.667824 
L 155.768802 71.680804 
L 160.956818 100.644466 
L 162.236529 106.155623 
L 163.29719 109.797674 
L 164.184917 112.106325 
L 164.934298 113.487966 
L 165.568388 114.233139 
L 166.110248 114.554747 
L 166.594463 114.593879 
L 167.067149 114.405743 
L 167.58595 113.943349 
L 168.173926 113.10012 
L 168.854132 111.712491 
L 169.649628 109.553251 
L 170.583471 106.332584 
L 171.690248 101.664741 
L 173.050661 94.898903 
L 174.964463 84.131221 
L 178.699835 62.9615 
L 180.129421 56.23437 
L 181.282314 51.817416 
L 182.239215 48.96989 
L 183.057769 47.185846 
L 183.749504 46.174626 
L 184.32595 45.690513 
L 184.833223 45.538311 
L 185.305909 45.628342 
L 185.801653 45.962427 
L 186.355041 46.622221 
L 187.000661 47.766676 
L 187.750041 49.58317 
L 188.62624 52.333442 
L 189.652314 56.332682 
L 190.897438 62.143454 
L 192.511488 70.828532 
L 198.045372 101.558734 
L 199.290496 106.767878 
L 200.31657 110.170405 
L 201.18124 112.329309 
L 201.919091 113.620807 
L 202.541653 114.299557 
L 203.071983 114.574711 
L 203.544669 114.582897 
L 204.017355 114.367546 
L 204.536157 113.875573 
L 205.135661 112.978963 
L 205.827397 111.519287 
L 206.634421 109.267094 
L 207.579793 105.932159 
L 208.709628 101.077628 
L 210.104628 94.036027 
L 212.133719 82.511178 
L 212.54876 80.072086 
L 212.54876 80.072086 
" clip-path="url(#p115d5a1639)" style="fill: none; stroke: #ff0000; stroke-width: 1.5; stroke-linecap: square"/>
   </g>
   <g id="line2d_8">
    <path d="M 64.978512 60.359726 
L 65.312851 62.670438 
L 65.451198 62.609558 
L 65.993058 62.087042 
L 66.142934 59.732161 
L 66.223636 59.712484 
L 66.258223 59.769148 
L 66.650207 60.802275 
L 67.330413 62.471033 
L 67.756983 62.994681 
L 68.079793 63.087085 
L 68.356488 62.938157 
L 68.725413 62.457795 
L 69.244215 61.294326 
L 69.855248 59.340902 
L 72.172562 51.482007 
L 72.818182 50.020412 
L 73.521446 48.911975 
L 73.959545 48.555698 
L 74.420702 48.422727 
L 75.08938 48.558764 
L 75.677355 49.029092 
L 76.219215 49.763789 
L 76.818719 50.979593 
L 77.810207 53.364216 
L 78.95157 56.598641 
L 79.770124 59.766999 
L 80.727025 64.446214 
L 82.087438 72.228865 
L 85.684463 93.006286 
L 87.275455 100.673186 
L 88.416818 105.266503 
L 89.431364 108.539272 
L 90.192273 110.387673 
L 91.103058 111.962907 
L 91.737149 112.580869 
L 92.221364 112.814331 
L 92.786281 112.802577 
L 93.270496 112.580209 
L 93.823884 112.084078 
L 94.250455 111.488328 
L 94.734669 110.683277 
L 95.449463 109.089214 
L 96.164256 107.057248 
L 97.051983 104.000845 
L 98.227934 99.10875 
L 99.415413 93.317868 
L 101.801901 80.334905 
L 105.237521 62.050278 
L 106.943802 54.876968 
L 107.92376 51.674861 
L 108.78843 49.511738 
L 109.526281 48.130607 
L 110.206488 47.296867 
L 110.93281 46.935576 
L 111.405496 46.943262 
L 111.855124 47.127153 
L 112.43157 47.64181 
L 112.97343 48.418503 
L 113.561405 49.542733 
L 114.437603 51.789576 
L 115.567438 55.530305 
L 116.478223 59.247725 
L 118.219091 67.660336 
L 121.193554 83.92422 
L 123.349463 95.379932 
L 124.686818 101.583247 
L 125.897355 106.181296 
L 126.854256 109.002695 
L 127.638223 110.697287 
L 128.341488 111.742732 
L 128.837231 112.18913 
L 129.309917 112.428979 
L 129.690372 112.458614 
L 130.174587 112.316321 
L 130.555041 112.017199 
L 130.99314 111.526529 
L 131.604174 110.575723 
L 132.514959 108.509556 
L 133.298926 106.203335 
L 134.359587 102.32747 
L 135.512479 97.317733 
L 137.115 89.230037 
L 141.507521 65.498922 
L 143.110041 58.259531 
L 144.297521 53.873844 
L 145.404298 50.757704 
L 146.349669 48.973937 
L 147.064463 48.10879 
L 147.433388 47.888864 
L 147.998306 47.773248 
L 148.436405 47.922413 
L 148.955207 48.334299 
L 149.416364 48.911561 
L 150.361736 50.7112 
L 150.880537 52.077212 
L 151.906612 55.309091 
L 152.955744 59.456824 
L 154.039463 64.430457 
L 155.757273 73.240729 
L 161.302686 102.040722 
L 162.432521 106.424644 
L 163.29719 109.101807 
L 164.173388 111.135608 
L 165.314752 112.756558 
L 166.19095 113.161518 
L 166.917273 112.92579 
L 167.205496 112.69812 
L 167.828058 111.927049 
L 168.473678 110.747331 
L 169.453636 108.246785 
L 170.099256 106.14883 
L 170.906281 103.066762 
L 172.013058 98.151198 
L 174.007562 87.678585 
L 176.163471 75.466484 
L 178.238678 64.362666 
L 179.898843 56.816034 
L 180.947975 52.937223 
L 181.939463 50.024217 
L 182.734959 48.275191 
L 183.461281 47.191853 
L 184.049256 46.66291 
L 184.64876 46.477767 
L 185.282851 46.668635 
L 185.94 47.275068 
L 186.539504 48.189205 
L 187.185124 49.542688 
L 187.865331 51.370566 
L 188.799174 54.471594 
L 189.929008 59.087891 
L 191.09343 64.623115 
L 192.880413 74.22498 
L 194.782686 85.008657 
L 198.621818 104.291035 
L 199.751653 108.428181 
L 200.63938 110.91803 
L 201.434876 112.554187 
L 202.264959 113.628639 
L 202.818347 113.965105 
L 203.475496 113.98005 
L 203.867479 113.790246 
L 204.305579 113.387742 
L 204.82438 112.685898 
L 205.619876 111.110191 
L 206.496074 108.756486 
L 207.383802 105.725355 
L 208.47905 101.258021 
L 209.989339 93.926063 
L 212.041488 82.520379 
L 212.54876 79.587861 
L 212.54876 79.587861 
" clip-path="url(#p115d5a1639)" style="fill: none; stroke: #1f77b4; stroke-linecap: square"/>
   </g>
   <g id="line2d_9">
    <path d="M 64.978512 60.359726 
L 65.047686 61.209363 
L 65.266736 62.630265 
L 65.393554 62.677358 
L 65.416612 62.66055 
L 67.226653 60.924939 
L 67.872273 59.590852 
L 68.921405 56.833473 
L 71.042727 51.227865 
L 71.988099 49.376281 
L 72.737479 48.357403 
L 73.360041 47.853811 
L 73.901901 47.685768 
L 74.397645 47.760215 
L 74.904917 48.066202 
L 75.469835 48.682096 
L 76.115455 49.7385 
L 76.864835 51.424867 
L 77.729504 53.955171 
L 78.74405 57.654222 
L 79.966116 63.004843 
L 81.545579 70.997905 
L 87.310041 101.173583 
L 88.532107 105.914308 
L 89.535124 108.979582 
L 90.388264 110.923737 
L 91.114587 112.063658 
L 91.72562 112.641454 
L 92.25595 112.855476 
L 92.740165 112.816315 
L 93.235909 112.544917 
L 93.789298 111.968406 
L 94.423388 110.959963 
L 95.16124 109.334188 
L 96.01438 106.879794 
L 97.017397 103.272419 
L 98.216405 98.078205 
L 99.761281 90.316241 
L 103.277603 71.039234 
L 105.087645 62.007198 
L 106.425 56.396094 
L 107.531777 52.6549 
L 108.46562 50.232035 
L 109.261116 48.745337 
L 109.929793 47.928811 
L 110.50624 47.552711 
L 111.013512 47.4772 
L 111.509256 47.634623 
L 112.062645 48.058714 
L 112.673678 48.827642 
L 113.365413 50.081356 
L 114.160909 52.013244 
L 115.083223 54.868703 
L 116.178471 59.022337 
L 117.538884 65.112832 
L 119.464215 74.865698 
L 123.453223 95.259966 
L 124.894339 101.370996 
L 126.047231 105.355131 
L 127.004132 107.920329 
L 127.811157 109.499153 
L 128.491364 110.386399 
L 129.079339 110.814227 
L 129.586612 110.926118 
L 130.070826 110.809562 
L 130.589628 110.44391 
L 131.177603 109.733444 
L 131.85781 108.531735 
L 132.653306 106.637556 
L 133.587149 103.798521 
L 134.693926 99.681731 
L 136.065868 93.662387 
L 137.945083 84.31512 
L 141.968678 64.058011 
L 143.363678 58.305579 
L 144.481983 54.576609 
L 145.415826 52.181595 
L 146.211322 50.71191 
L 146.88 49.906684 
L 147.456446 49.538147 
L 147.963719 49.46723 
L 148.459463 49.628354 
L 148.989793 50.052138 
L 149.589298 50.840413 
L 150.281033 52.147781 
L 151.076529 54.155496 
L 152.010372 57.151353 
L 153.117149 61.490851 
L 154.50062 67.880396 
L 156.506653 78.325368 
L 159.873099 95.834995 
L 161.325744 102.169384 
L 162.478636 106.262937 
L 163.435537 108.898431 
L 164.242562 110.522157 
L 164.934298 111.449924 
L 165.522273 111.890429 
L 166.029545 112.009507 
L 166.51376 111.896803 
L 167.021033 111.542607 
L 167.597479 110.850457 
L 168.266157 109.67041 
L 169.038595 107.822316 
L 169.937851 105.056142 
L 170.998512 101.027178 
L 172.289752 95.186787 
L 174.03062 86.179473 
L 178.549959 62.310197 
L 179.921901 56.491899 
L 181.040207 52.656866 
L 181.985579 50.15667 
L 182.781074 48.629772 
L 183.461281 47.766764 
L 184.037727 47.366038 
L 184.545 47.269237 
L 185.029215 47.402288 
L 185.548017 47.789362 
L 186.124463 48.513708 
L 186.79314 49.734129 
L 187.565579 51.63257 
L 188.476364 54.498872 
L 189.560083 58.695765 
L 190.897438 64.833313 
L 192.742066 74.455739 
L 197.226818 98.236276 
L 198.621818 104.251354 
L 199.740124 108.157522 
L 200.673967 110.669686 
L 201.457934 112.192939 
L 202.126612 113.04227 
L 202.691529 113.425237 
L 203.187273 113.504258 
L 203.659959 113.354538 
L 204.167231 112.950452 
L 204.743678 112.190029 
L 205.412355 110.918751 
L 206.196322 108.924219 
L 207.130165 105.898642 
L 208.236942 101.514831 
L 209.597355 95.165474 
L 211.441983 85.396348 
L 212.54876 79.214698 
L 212.54876 79.214698 
" clip-path="url(#p115d5a1639)" style="fill: none; stroke: #ff7f0e; stroke-linecap: square"/>
   </g>
   <g id="line2d_10">
    <path d="M 64.978512 60.359726 
L 65.047686 61.196615 
L 65.255207 62.494605 
L 65.347438 62.514117 
L 65.382025 62.478757 
L 65.658719 61.932473 
L 66.108347 61.279133 
L 66.869256 60.297159 
L 67.491818 59.01647 
L 68.391074 56.587229 
L 71.377066 48.148746 
L 72.253264 46.477447 
L 72.956529 45.572625 
L 73.544504 45.1452 
L 74.063306 45.02984 
L 74.547521 45.149578 
L 75.054793 45.513456 
L 75.63124 46.223466 
L 76.288388 47.413284 
L 77.049298 49.283058 
L 77.937025 52.096861 
L 78.974628 56.172248 
L 80.219752 62.016578 
L 81.845331 70.804793 
L 87.333099 101.421653 
L 88.578223 106.670751 
L 89.615826 110.139901 
L 90.492025 112.344673 
L 91.229876 113.650201 
L 91.863967 114.354316 
L 92.405826 114.644197 
L 92.890041 114.658263 
L 93.374256 114.440993 
L 93.904587 113.938971 
L 94.504091 113.043003 
L 95.195826 111.585529 
L 96.002851 109.333089 
L 96.948223 105.987403 
L 98.066529 101.154672 
L 99.45 94.122466 
L 101.502149 82.388899 
L 104.753306 63.877759 
L 106.240537 56.723665 
L 107.428017 52.040736 
L 108.407975 49.014032 
L 109.238058 47.115113 
L 109.941322 46.01761 
L 110.529298 45.47458 
L 111.03657 45.285864 
L 111.509256 45.343677 
L 112.016529 45.637797 
L 112.569917 46.228975 
L 113.204008 47.25578 
L 113.930331 48.883291 
L 114.771942 51.346713 
L 115.76343 54.984923 
L 116.93938 60.203405 
L 118.415083 67.837361 
L 120.882273 81.998471 
L 123.303347 95.420566 
L 124.767521 102.331102 
L 125.943471 106.871661 
L 126.92343 109.832541 
L 127.753512 111.691275 
L 128.456777 112.769251 
L 129.056281 113.313869 
L 129.575083 113.500535 
L 130.047769 113.437865 
L 130.531983 113.142732 
L 131.073843 112.536657 
L 131.696405 111.486405 
L 132.422727 109.798661 
L 133.275868 107.218416 
L 134.290413 103.394708 
L 135.524008 97.82252 
L 137.149587 89.363051 
L 142.718058 59.464632 
L 143.963182 54.429455 
L 144.989256 51.151123 
L 145.853926 49.084639 
L 146.580248 47.878144 
L 147.20281 47.244322 
L 147.73314 47.001631 
L 148.217355 47.02053 
L 148.70157 47.268654 
L 149.24343 47.815671 
L 149.865992 48.788976 
L 150.580785 50.346836 
L 151.422397 52.753327 
L 152.402355 56.27119 
L 153.578306 61.375081 
L 155.065537 68.901021 
L 157.486612 82.507633 
L 160.011446 96.285622 
L 161.464091 103.024251 
L 162.616983 107.389938 
L 163.585413 110.247001 
L 164.403967 112.023354 
L 165.095702 113.041796 
L 165.683678 113.549079 
L 166.202479 113.719141 
L 166.686694 113.641938 
L 167.182438 113.327261 
L 167.735826 112.696528 
L 168.369917 111.616939 
L 169.107769 109.893903 
L 169.960909 107.304449 
L 170.963926 103.50469 
L 172.162934 98.034924 
L 173.70781 89.861797 
L 179.691322 57.032332 
L 180.90186 52.175201 
L 181.904876 49.009356 
L 182.746488 47.031584 
L 183.461281 45.875531 
L 184.060785 45.293282 
L 184.579587 45.081373 
L 185.052273 45.126569 
L 185.536488 45.408739 
L 186.066818 45.989849 
L 186.68938 47.029033 
L 187.404174 48.683495 
L 188.245785 51.232221 
L 189.225744 54.953948 
L 190.390165 60.298256 
L 191.854339 68.13608 
L 194.217769 82.209841 
L 196.77719 97.038419 
L 198.252893 104.322762 
L 199.440372 109.127587 
L 200.43186 112.271508 
L 201.273471 114.251044 
L 201.976736 115.387097 
L 202.57624 115.967537 
L 203.083512 116.172695 
L 203.544669 116.128438 
L 204.017355 115.853473 
L 204.547686 115.268475 
L 205.158719 114.235643 
L 205.861983 112.583415 
L 206.692066 110.026714 
L 207.672025 106.237298 
L 208.859504 100.691062 
L 210.381322 92.429747 
L 212.54876 79.456292 
L 212.54876 79.456292 
" clip-path="url(#p115d5a1639)" style="fill: none; stroke: #2ca02c; stroke-linecap: square"/>
   </g>
   <g id="patch_3">
    <path d="M 57.6 119.740235 
L 57.6 41.472 
" style="fill: none; stroke: #000000; stroke-width: 0.8; stroke-linejoin: miter; stroke-linecap: square"/>
   </g>
   <g id="patch_4">
    <path d="M 219.927273 119.740235 
L 219.927273 41.472 
" style="fill: none; stroke: #000000; stroke-width: 0.8; stroke-linejoin: miter; stroke-linecap: square"/>
   </g>
   <g id="patch_5">
    <path d="M 57.6 119.740235 
L 219.927273 119.740235 
" style="fill: none; stroke: #000000; stroke-width: 0.8; stroke-linejoin: miter; stroke-linecap: square"/>
   </g>
   <g id="patch_6">
    <path d="M 57.6 41.472 
L 219.927273 41.472 
" style="fill: none; stroke: #000000; stroke-width: 0.8; stroke-linejoin: miter; stroke-linecap: square"/>
   </g>
   <g id="legend_1">
    <g id="patch_7">
     <path d="M 169.300396 97.043512 
L 214.096273 97.043512 
Q 215.762273 97.043512 215.762273 95.377512 
L 215.762273 47.303 
Q 215.762273 45.637 214.096273 45.637 
L 169.300396 45.637 
Q 167.634396 45.637 167.634396 47.303 
L 167.634396 95.377512 
Q 167.634396 97.043512 169.300396 97.043512 
z
" style="fill: #ffffff; opacity: 0.8; stroke: #cccccc; stroke-linejoin: miter"/>
    </g>
    <g id="line2d_11">
     <path d="M 170.966396 52.382998 
L 179.296396 52.382998 
L 187.626396 52.382998 
" style="fill: none; stroke: #ff0000; stroke-width: 1.5; stroke-linecap: square"/>
    </g>
    <g id="text_8">
     <!-- gt -->
     <g transform="translate(194.290396 55.298498)scale(0.0833 -0.0833)">
      <defs>
       <path id="DejaVuSans-67" d="M 2906 1791 
Q 2906 2416 2648 2759 
Q 2391 3103 1925 3103 
Q 1463 3103 1205 2759 
Q 947 2416 947 1791 
Q 947 1169 1205 825 
Q 1463 481 1925 481 
Q 2391 481 2648 825 
Q 2906 1169 2906 1791 
z
M 3481 434 
Q 3481 -459 3084 -895 
Q 2688 -1331 1869 -1331 
Q 1566 -1331 1297 -1286 
Q 1028 -1241 775 -1147 
L 775 -588 
Q 1028 -725 1275 -790 
Q 1522 -856 1778 -856 
Q 2344 -856 2625 -561 
Q 2906 -266 2906 331 
L 2906 616 
Q 2728 306 2450 153 
Q 2172 0 1784 0 
Q 1141 0 747 490 
Q 353 981 353 1791 
Q 353 2603 747 3093 
Q 1141 3584 1784 3584 
Q 2172 3584 2450 3431 
Q 2728 3278 2906 2969 
L 2906 3500 
L 3481 3500 
L 3481 434 
z
" transform="scale(0.015625)"/>
       <path id="DejaVuSans-74" d="M 1172 4494 
L 1172 3500 
L 2356 3500 
L 2356 3053 
L 1172 3053 
L 1172 1153 
Q 1172 725 1289 603 
Q 1406 481 1766 481 
L 2356 481 
L 2356 0 
L 1766 0 
Q 1100 0 847 248 
Q 594 497 594 1153 
L 594 3053 
L 172 3053 
L 172 3500 
L 594 3500 
L 594 4494 
L 1172 4494 
z
" transform="scale(0.015625)"/>
      </defs>
      <use xlink:href="#DejaVuSans-67"/>
      <use xlink:href="#DejaVuSans-74" x="63.476562"/>
     </g>
    </g>
    <g id="line2d_12">
     <path d="M 170.966396 64.609877 
L 179.296396 64.609877 
L 187.626396 64.609877 
" style="fill: none; stroke: #1f77b4; stroke-linecap: square"/>
    </g>
    <g id="text_9">
     <!-- ours -->
     <g transform="translate(194.290396 67.525377)scale(0.0833 -0.0833)">
      <defs>
       <path id="DejaVuSans-6f" d="M 1959 3097 
Q 1497 3097 1228 2736 
Q 959 2375 959 1747 
Q 959 1119 1226 758 
Q 1494 397 1959 397 
Q 2419 397 2687 759 
Q 2956 1122 2956 1747 
Q 2956 2369 2687 2733 
Q 2419 3097 1959 3097 
z
M 1959 3584 
Q 2709 3584 3137 3096 
Q 3566 2609 3566 1747 
Q 3566 888 3137 398 
Q 2709 -91 1959 -91 
Q 1206 -91 779 398 
Q 353 888 353 1747 
Q 353 2609 779 3096 
Q 1206 3584 1959 3584 
z
" transform="scale(0.015625)"/>
       <path id="DejaVuSans-75" d="M 544 1381 
L 544 3500 
L 1119 3500 
L 1119 1403 
Q 1119 906 1312 657 
Q 1506 409 1894 409 
Q 2359 409 2629 706 
Q 2900 1003 2900 1516 
L 2900 3500 
L 3475 3500 
L 3475 0 
L 2900 0 
L 2900 538 
Q 2691 219 2414 64 
Q 2138 -91 1772 -91 
Q 1169 -91 856 284 
Q 544 659 544 1381 
z
M 1991 3584 
L 1991 3584 
z
" transform="scale(0.015625)"/>
       <path id="DejaVuSans-73" d="M 2834 3397 
L 2834 2853 
Q 2591 2978 2328 3040 
Q 2066 3103 1784 3103 
Q 1356 3103 1142 2972 
Q 928 2841 928 2578 
Q 928 2378 1081 2264 
Q 1234 2150 1697 2047 
L 1894 2003 
Q 2506 1872 2764 1633 
Q 3022 1394 3022 966 
Q 3022 478 2636 193 
Q 2250 -91 1575 -91 
Q 1294 -91 989 -36 
Q 684 19 347 128 
L 347 722 
Q 666 556 975 473 
Q 1284 391 1588 391 
Q 1994 391 2212 530 
Q 2431 669 2431 922 
Q 2431 1156 2273 1281 
Q 2116 1406 1581 1522 
L 1381 1569 
Q 847 1681 609 1914 
Q 372 2147 372 2553 
Q 372 3047 722 3315 
Q 1072 3584 1716 3584 
Q 2034 3584 2315 3537 
Q 2597 3491 2834 3397 
z
" transform="scale(0.015625)"/>
      </defs>
      <use xlink:href="#DejaVuSans-6f"/>
      <use xlink:href="#DejaVuSans-75" x="61.181641"/>
      <use xlink:href="#DejaVuSans-72" x="124.560547"/>
      <use xlink:href="#DejaVuSans-73" x="165.673828"/>
     </g>
    </g>
    <g id="line2d_13">
     <path d="M 170.966396 76.836755 
L 179.296396 76.836755 
L 187.626396 76.836755 
" style="fill: none; stroke: #ff7f0e; stroke-linecap: square"/>
    </g>
    <g id="text_10">
     <!-- g -->
     <g transform="translate(194.290396 79.752255)scale(0.0833 -0.0833)">
      <use xlink:href="#DejaVuSans-67"/>
     </g>
    </g>
    <g id="line2d_14">
     <path d="M 170.966396 89.063633 
L 179.296396 89.063633 
L 187.626396 89.063633 
" style="fill: none; stroke: #2ca02c; stroke-linecap: square"/>
    </g>
    <g id="text_11">
     <!-- og -->
     <g transform="translate(194.290396 91.979133)scale(0.0833 -0.0833)">
      <use xlink:href="#DejaVuSans-6f"/>
      <use xlink:href="#DejaVuSans-67" x="61.181641"/>
     </g>
    </g>
   </g>
  </g>
  <g id="axes_2">
   <g id="patch_8">
    <path d="M 252.392727 119.740235 
L 414.72 119.740235 
L 414.72 41.472 
L 252.392727 41.472 
z
" style="fill: #ffffff"/>
   </g>
   <g id="matplotlib.axis_3">
    <g id="xtick_5">
     <g id="line2d_15">
      <g>
       <use xlink:href="#m8c9890c684" x="259.77124" y="119.740235" style="stroke: #000000; stroke-width: 0.8"/>
      </g>
     </g>
     <g id="text_12">
      <!-- 0 -->
      <g transform="translate(256.58999 134.338673)scale(0.1 -0.1)">
       <use xlink:href="#DejaVuSans-30"/>
      </g>
     </g>
    </g>
    <g id="xtick_6">
     <g id="line2d_16">
      <g>
       <use xlink:href="#m8c9890c684" x="305.886942" y="119.740235" style="stroke: #000000; stroke-width: 0.8"/>
      </g>
     </g>
     <g id="text_13">
      <!-- 10 -->
      <g transform="translate(299.524442 134.338673)scale(0.1 -0.1)">
       <use xlink:href="#DejaVuSans-31"/>
       <use xlink:href="#DejaVuSans-30" x="63.623047"/>
      </g>
     </g>
    </g>
    <g id="xtick_7">
     <g id="line2d_17">
      <g>
       <use xlink:href="#m8c9890c684" x="352.002645" y="119.740235" style="stroke: #000000; stroke-width: 0.8"/>
      </g>
     </g>
     <g id="text_14">
      <!-- 20 -->
      <g transform="translate(345.640145 134.338673)scale(0.1 -0.1)">
       <use xlink:href="#DejaVuSans-32"/>
       <use xlink:href="#DejaVuSans-30" x="63.623047"/>
      </g>
     </g>
    </g>
    <g id="xtick_8">
     <g id="line2d_18">
      <g>
       <use xlink:href="#m8c9890c684" x="398.118347" y="119.740235" style="stroke: #000000; stroke-width: 0.8"/>
      </g>
     </g>
     <g id="text_15">
      <!-- 30 -->
      <g transform="translate(391.755847 134.338673)scale(0.1 -0.1)">
       <use xlink:href="#DejaVuSans-33"/>
       <use xlink:href="#DejaVuSans-30" x="63.623047"/>
      </g>
     </g>
    </g>
   </g>
   <g id="matplotlib.axis_4">
    <g id="ytick_3">
     <g id="line2d_19">
      <g>
       <use xlink:href="#me404ad0dfa" x="252.392727" y="108.503052" style="stroke: #000000; stroke-width: 0.8"/>
      </g>
     </g>
     <g id="text_16">
      <!-- −1 -->
      <g transform="translate(230.65054 112.302271)scale(0.1 -0.1)">
       <use xlink:href="#DejaVuSans-2212"/>
       <use xlink:href="#DejaVuSans-31" x="83.789062"/>
      </g>
     </g>
    </g>
    <g id="ytick_4">
     <g id="line2d_20">
      <g>
       <use xlink:href="#me404ad0dfa" x="252.392727" y="80.210202" style="stroke: #000000; stroke-width: 0.8"/>
      </g>
     </g>
     <g id="text_17">
      <!-- 0 -->
      <g transform="translate(239.030227 84.00942)scale(0.1 -0.1)">
       <use xlink:href="#DejaVuSans-30"/>
      </g>
     </g>
    </g>
    <g id="ytick_5">
     <g id="line2d_21">
      <g>
       <use xlink:href="#me404ad0dfa" x="252.392727" y="51.917351" style="stroke: #000000; stroke-width: 0.8"/>
      </g>
     </g>
     <g id="text_18">
      <!-- 1 -->
      <g transform="translate(239.030227 55.71657)scale(0.1 -0.1)">
       <use xlink:href="#DejaVuSans-31"/>
      </g>
     </g>
    </g>
    <g id="text_19">
     <!-- $q_2$ (rad) -->
     <g transform="translate(224.55054 99.956118)rotate(-90)scale(0.1 -0.1)">
      <use xlink:href="#DejaVuSans-Oblique-71" transform="translate(0 0.015625)"/>
      <use xlink:href="#DejaVuSans-32" transform="translate(63.476562 -16.390625)scale(0.7)"/>
      <use xlink:href="#DejaVuSans-20" transform="translate(110.74707 0.015625)"/>
      <use xlink:href="#DejaVuSans-28" transform="translate(142.53418 0.015625)"/>
      <use xlink:href="#DejaVuSans-72" transform="translate(181.547852 0.015625)"/>
      <use xlink:href="#DejaVuSans-61" transform="translate(222.661133 0.015625)"/>
      <use xlink:href="#DejaVuSans-64" transform="translate(283.94043 0.015625)"/>
      <use xlink:href="#DejaVuSans-29" transform="translate(347.416992 0.015625)"/>
     </g>
    </g>
   </g>
   <g id="line2d_22">
    <path d="M 259.77124 45.998691 
L 260.163223 46.121316 
L 260.589793 46.506454 
L 261.097066 47.290496 
L 261.719628 48.702563 
L 262.480537 51.024701 
L 263.460496 54.794278 
L 264.91314 61.383944 
L 267.345744 72.382318 
L 268.394876 76.093616 
L 269.224959 78.275359 
L 269.893636 79.463633 
L 270.447025 80.031726 
L 270.908182 80.207436 
L 271.323223 80.131511 
L 271.761322 79.811843 
L 272.268595 79.140352 
L 272.868099 77.946844 
L 273.594421 75.964317 
L 274.493678 72.806017 
L 275.692686 67.696278 
L 279.428058 51.158636 
L 280.315785 48.474532 
L 281.01905 46.991612 
L 281.583967 46.269971 
L 282.033595 46.017163 
L 282.425579 46.039205 
L 282.817562 46.292601 
L 283.26719 46.871907 
L 283.797521 47.952392 
L 284.420083 49.761538 
L 285.157934 52.631735 
L 286.045661 57.04333 
L 287.140909 63.705732 
L 288.639669 74.334527 
L 292.086818 99.208054 
L 293.239711 105.713952 
L 294.162025 109.74315 
L 294.934463 112.195786 
L 295.568554 113.541651 
L 296.098884 114.195612 
L 296.536983 114.412761 
L 296.928967 114.363385 
L 297.332479 114.078545 
L 297.805165 113.45472 
L 298.381612 112.29573 
L 299.084876 110.346006 
L 299.972603 107.17789 
L 301.18314 101.952906 
L 304.687934 86.332393 
L 305.633306 83.328109 
L 306.394215 81.588633 
L 307.016777 80.673273 
L 307.52405 80.285622 
L 307.962149 80.216129 
L 308.37719 80.378203 
L 308.838347 80.815808 
L 309.380207 81.667175 
L 310.025826 83.132342 
L 310.809793 85.507907 
L 311.789752 89.239891 
L 313.20781 95.622114 
L 315.790289 107.297441 
L 316.804835 110.829047 
L 317.588802 112.824966 
L 318.211364 113.866292 
L 318.718636 114.32293 
L 319.133678 114.420124 
L 319.514132 114.283658 
L 319.929174 113.88423 
L 320.413388 113.08522 
L 320.989835 111.668892 
L 321.670041 109.36407 
L 322.477066 105.791967 
L 323.457025 100.370458 
L 324.702149 92.133888 
L 326.892645 75.831781 
L 328.806446 62.307666 
L 329.993926 55.406589 
L 330.939298 51.11743 
L 331.723264 48.502811 
L 332.380413 47.016006 
L 332.922273 46.285705 
L 333.371901 46.019664 
L 333.763884 46.035537 
L 334.167397 46.286934 
L 334.628554 46.85544 
L 335.193471 47.937372 
L 335.885207 49.787897 
L 336.749876 52.792919 
L 337.914298 57.72894 
L 341.776488 74.779675 
L 342.687273 77.515373 
L 343.413595 79.056552 
L 344.013099 79.85299 
L 344.508843 80.169945 
L 344.935413 80.190102 
L 345.361983 79.97622 
L 345.834669 79.469366 
L 346.388058 78.526586 
L 347.056736 76.914081 
L 347.875289 74.309796 
L 348.912893 70.204448 
L 350.538471 62.71863 
L 352.59062 53.487774 
L 353.628223 49.800703 
L 354.423719 47.717246 
L 355.05781 46.613488 
L 355.565083 46.123835 
L 355.991653 45.998651 
L 356.372107 46.115306 
L 356.787149 46.492835 
L 357.271364 47.266222 
L 357.836281 48.619809 
L 358.504959 50.835175 
L 359.300455 54.288691 
L 360.257355 59.494534 
L 361.479421 67.474637 
L 363.462397 82.156677 
L 365.606777 97.517503 
L 366.817314 104.654942 
L 367.774215 109.075873 
L 368.569711 111.788775 
L 369.238388 113.342524 
L 369.780248 114.101503 
L 370.229876 114.39113 
L 370.62186 114.395417 
L 371.025372 114.16417 
L 371.486529 113.617687 
L 372.039917 112.586496 
L 372.720124 110.80706 
L 373.561736 107.935993 
L 374.69157 103.212858 
L 378.818926 85.134856 
L 379.695124 82.620219 
L 380.398388 81.212534 
L 380.974835 80.504391 
L 381.45905 80.234036 
L 381.88562 80.245558 
L 382.31219 80.490919 
L 382.796405 81.048584 
L 383.372851 82.086308 
L 384.064587 83.833336 
L 384.906198 86.611324 
L 385.989917 91.01828 
L 387.89219 99.88915 
L 389.575413 107.297441 
L 390.589959 110.829047 
L 391.373926 112.824966 
L 391.996488 113.866292 
L 392.50376 114.32293 
L 392.918802 114.420124 
L 393.299256 114.283658 
L 393.714298 113.88423 
L 394.198512 113.08522 
L 394.774959 111.668892 
L 395.455165 109.36407 
L 396.26219 105.791967 
L 397.242149 100.370458 
L 398.487273 92.133888 
L 400.677769 75.831781 
L 402.59157 62.307666 
L 403.77905 55.406589 
L 404.724421 51.11743 
L 405.508388 48.502811 
L 406.165537 47.016006 
L 406.707397 46.285705 
L 407.157025 46.019664 
L 407.341488 45.998691 
L 407.341488 45.998691 
" clip-path="url(#pa4ae63d388)" style="fill: none; stroke: #ff0000; stroke-width: 1.5; stroke-linecap: square"/>
   </g>
   <g id="line2d_23">
    <path d="M 259.77124 80.210202 
L 259.921116 73.166536 
L 260.370744 56.153777 
L 260.693554 50.99492 
L 260.785785 50.261314 
L 260.84343 51.978492 
L 260.901074 51.326268 
L 261.177769 48.654081 
L 261.385289 48.318426 
L 261.558223 48.412694 
L 261.846446 48.875685 
L 262.353719 50.159398 
L 263.218388 53.047497 
L 264.48657 58.328735 
L 266.066033 66.072453 
L 267.461033 72.479564 
L 268.406405 75.935133 
L 269.570826 79.025683 
L 269.939752 79.538235 
L 270.562314 80.218707 
L 270.977355 80.376654 
L 271.599917 80.115027 
L 272.43 79.394799 
L 272.810455 78.741814 
L 273.28314 77.492221 
L 274.240041 74.333822 
L 275.358347 69.742334 
L 279.670165 50.573455 
L 280.534835 48.145443 
L 281.307273 46.761377 
L 281.814545 46.291286 
L 282.310289 46.195093 
L 282.84062 46.481392 
L 283.324835 47.125166 
L 283.774463 48.021637 
L 284.66219 50.675281 
L 285.365455 53.573081 
L 286.414587 59.097399 
L 287.67124 67.08915 
L 289.216116 78.278678 
L 291.060744 91.874034 
L 292.490331 101.157153 
L 293.401116 105.987487 
L 294.369545 109.984871 
L 294.96905 111.706625 
L 295.568554 113.030663 
L 296.075826 113.654856 
L 296.525455 113.913694 
L 296.986612 113.883437 
L 297.332479 113.583554 
L 297.782107 113.019892 
L 298.450785 111.731421 
L 299.303926 109.35029 
L 300.468347 105.000595 
L 301.748058 99.435709 
L 304.468884 87.631655 
L 305.287438 84.858907 
L 306.082934 82.775423 
L 306.843843 81.26101 
L 307.293471 80.764704 
L 307.892975 80.376506 
L 308.296488 80.385469 
L 308.769174 80.7131 
L 309.24186 81.248233 
L 309.806777 82.294475 
L 310.855909 85.068739 
L 311.651405 87.906566 
L 313.288512 94.774973 
L 316.32062 107.583383 
L 317.369752 110.724217 
L 318.303595 112.489894 
L 318.68405 112.881526 
L 319.341198 113.075316 
L 319.606364 112.909768 
L 320.159752 112.28521 
L 320.574793 111.505599 
L 321.174298 109.851098 
L 321.854504 107.36251 
L 322.822934 102.70825 
L 323.791364 96.961855 
L 325.024959 88.581325 
L 328.564339 63.684883 
L 330.028512 55.568733 
L 331.23905 50.694504 
L 332.161364 48.31662 
L 332.795455 47.27943 
L 333.360372 46.929775 
L 333.81 46.945495 
L 334.098223 47.132583 
L 334.951364 48.394661 
L 335.666157 50.138825 
L 336.323306 52.295298 
L 336.749876 53.933236 
L 338.179463 60.215095 
L 339.505289 66.544485 
L 341.361446 74.634247 
L 342.28376 77.707498 
L 342.975496 79.440772 
L 343.528884 80.439837 
L 344.105331 81.14164 
L 344.774008 81.349657 
L 345.131405 81.250487 
L 345.338926 81.057282 
L 346.007603 80.276913 
L 346.952975 78.078315 
L 347.794587 75.522985 
L 348.774545 71.558223 
L 350.158017 65.236058 
L 353.155537 52.030735 
L 354.112438 48.942259 
L 354.781116 47.477164 
L 355.48438 46.486058 
L 356.360579 46.223692 
L 356.764091 46.491784 
L 357.317479 47.266582 
L 357.790165 48.333228 
L 358.355083 50.006499 
L 359.404215 54.318467 
L 360.868388 62.55835 
L 362.090455 70.980948 
L 366.586736 102.156121 
L 367.912562 108.291016 
L 368.58124 110.46413 
L 369.480496 112.370106 
L 370.195289 113.020722 
L 370.817851 112.998875 
L 371.198306 112.717659 
L 371.636405 112.158969 
L 372.212851 111.06831 
L 372.731653 109.745403 
L 373.481033 107.393475 
L 374.899091 101.786532 
L 378.749752 85.660344 
L 379.856529 82.757966 
L 380.605909 81.540911 
L 381.182355 81.082243 
L 381.631983 81.02282 
L 382.012438 81.17889 
L 382.554298 81.629538 
L 383.06157 82.425717 
L 383.822479 84.157276 
L 384.940785 87.711008 
L 385.74781 90.937666 
L 387.454091 98.676501 
L 389.483182 107.723524 
L 390.209504 110.446345 
L 390.774421 112.154901 
L 391.396983 113.659117 
L 392.065661 114.669621 
L 392.607521 115.037455 
L 392.976446 115.040577 
L 393.403017 114.796879 
L 393.910289 114.10787 
L 394.348388 113.209104 
L 394.936364 111.577887 
L 395.789504 108.293902 
L 396.596529 104.32107 
L 397.680248 97.727974 
L 399.732397 82.873686 
L 402.234174 64.54723 
L 403.433182 57.204466 
L 404.401612 52.408889 
L 405.266281 49.137992 
L 406.02719 47.128606 
L 406.603636 46.182434 
L 407.053264 45.801378 
L 407.341488 45.71677 
L 407.341488 45.71677 
" clip-path="url(#pa4ae63d388)" style="fill: none; stroke: #1f77b4; stroke-linecap: square"/>
   </g>
   <g id="line2d_24">
    <path d="M 259.77124 80.210202 
L 259.828884 78.077459 
L 260.382273 55.851188 
L 260.705083 50.80304 
L 260.981777 49.302197 
L 261.200826 49.032084 
L 261.385289 49.133058 
L 261.673512 49.616744 
L 262.192314 50.994319 
L 263.010868 53.853965 
L 264.186818 58.850547 
L 267.887603 75.179429 
L 268.809917 78.005983 
L 269.547769 79.617429 
L 270.158802 80.463426 
L 270.654545 80.806955 
L 271.081116 80.851357 
L 271.496157 80.67092 
L 271.957314 80.214677 
L 272.499174 79.344353 
L 273.156322 77.830756 
L 273.951818 75.392839 
L 274.954835 71.541825 
L 276.419008 64.927026 
L 278.886198 53.802023 
L 279.912273 50.207114 
L 280.707769 48.159028 
L 281.34186 47.080272 
L 281.849132 46.606995 
L 282.275702 46.492216 
L 282.667686 46.622077 
L 283.082727 47.009492 
L 283.566942 47.788512 
L 284.143388 49.172126 
L 284.823595 51.425561 
L 285.63062 54.919653 
L 286.610579 60.226237 
L 287.855702 68.299919 
L 289.965496 83.734814 
L 291.948471 97.598437 
L 293.13595 104.413918 
L 294.081322 108.640684 
L 294.865289 111.207447 
L 295.522438 112.658963 
L 296.064298 113.36566 
L 296.513926 113.617627 
L 296.905909 113.594772 
L 297.309421 113.342439 
L 297.782107 112.764348 
L 298.358554 111.673525 
L 299.061818 109.826676 
L 299.949545 106.817505 
L 301.160083 101.844635 
L 304.814752 86.295048 
L 305.748595 83.511686 
L 306.567149 81.750282 
L 307.212769 80.829294 
L 307.720041 80.456428 
L 308.15814 80.394502 
L 308.584711 80.566279 
L 309.057397 81.019355 
L 309.610785 81.887392 
L 310.279463 83.388713 
L 311.098017 85.81989 
L 312.158678 89.734451 
L 313.876488 97.076117 
L 315.824876 105.122451 
L 316.862479 108.508237 
L 317.657975 110.404352 
L 318.280537 111.370814 
L 318.776281 111.777393 
L 319.191322 111.853898 
L 319.583306 111.696562 
L 320.009876 111.265844 
L 320.50562 110.421365 
L 321.093595 108.942104 
L 321.785331 106.556076 
L 322.615413 102.83211 
L 323.629959 97.174044 
L 324.978843 88.264771 
L 329.117727 60.028951 
L 330.201446 54.55133 
L 331.089174 51.126185 
L 331.827025 49.094781 
L 332.438058 48.004618 
L 332.933802 47.522612 
L 333.348843 47.396566 
L 333.740826 47.506888 
L 334.167397 47.874391 
L 334.674669 48.634705 
L 335.285702 49.988481 
L 336.035083 52.235823 
L 336.980455 55.83318 
L 338.329339 61.946938 
L 341.176983 75.027593 
L 342.203058 78.615854 
L 343.010083 80.694014 
L 343.667231 81.824991 
L 344.197562 82.343046 
L 344.64719 82.496992 
L 345.062231 82.404329 
L 345.500331 82.063174 
L 346.007603 81.361931 
L 346.607107 80.126584 
L 347.33343 78.083489 
L 348.232686 74.834311 
L 349.420165 69.626759 
L 353.420702 51.337466 
L 354.296901 48.658408 
L 355.000165 47.160982 
L 355.565083 46.432981 
L 356.014711 46.176561 
L 356.406694 46.195303 
L 356.798678 46.444211 
L 357.248306 47.015741 
L 357.778636 48.081605 
L 358.412727 49.901786 
L 359.162107 52.784024 
L 360.061364 57.194942 
L 361.16814 63.816381 
L 362.724545 74.627111 
L 365.895 96.885858 
L 367.059421 103.365834 
L 367.993264 107.397492 
L 368.765702 109.829946 
L 369.411322 111.197661 
L 369.953182 111.870226 
L 370.40281 112.101699 
L 370.806322 112.062999 
L 371.221364 111.788122 
L 371.705579 111.180373 
L 372.293554 110.056087 
L 373.019876 108.146517 
L 373.94219 105.041004 
L 375.244959 99.781516 
L 378.23095 87.494303 
L 379.222438 84.453862 
L 379.994876 82.738904 
L 380.628967 81.827067 
L 381.147769 81.43823 
L 381.585868 81.368254 
L 382.012438 81.529231 
L 382.473595 81.955403 
L 383.015455 82.781751 
L 383.661074 84.200632 
L 384.445041 86.496064 
L 385.436529 90.141158 
L 386.854587 96.305518 
L 389.656116 108.60686 
L 390.670661 112.009081 
L 391.443099 113.894362 
L 392.054132 114.863125 
L 392.549876 115.271767 
L 392.953388 115.338774 
L 393.333843 115.175272 
L 393.748884 114.740084 
L 394.244628 113.864852 
L 394.821074 112.361653 
L 395.51281 109.885908 
L 396.331364 106.067811 
L 397.322851 100.313358 
L 398.62562 91.331441 
L 403.214132 58.468723 
L 404.274793 53.013287 
L 405.150992 49.582146 
L 405.888843 47.524763 
L 406.499876 46.423633 
L 406.99562 45.937306 
L 407.341488 45.813095 
L 407.341488 45.813095 
" clip-path="url(#pa4ae63d388)" style="fill: none; stroke: #ff7f0e; stroke-linecap: square"/>
   </g>
   <g id="line2d_25">
    <path d="M 259.77124 80.210202 
L 259.828884 78.076751 
L 260.393802 55.101975 
L 260.716612 49.990481 
L 260.993306 48.464867 
L 261.212355 48.187449 
L 261.385289 48.274448 
L 261.661983 48.722923 
L 262.157727 50.015983 
L 262.964752 52.805183 
L 264.117645 57.670397 
L 268.02595 74.865328 
L 268.925207 77.543648 
L 269.651529 79.069083 
L 270.239504 79.840685 
L 270.723719 80.14905 
L 271.150289 80.171049 
L 271.57686 79.958809 
L 272.049545 79.453527 
L 272.602934 78.512435 
L 273.271612 76.902012 
L 274.090165 74.300882 
L 275.127769 70.20128 
L 276.753347 62.72745 
L 278.817025 53.459768 
L 279.854628 49.780951 
L 280.650124 47.703123 
L 281.284215 46.60389 
L 281.791488 46.118237 
L 282.206529 45.996664 
L 282.586983 46.110666 
L 283.002025 46.485855 
L 283.48624 47.257491 
L 284.051157 48.610682 
L 284.719835 50.828267 
L 285.515331 54.28851 
L 286.472231 59.508076 
L 287.694298 67.512087 
L 289.688802 82.318331 
L 291.810124 97.524455 
L 293.020661 104.664131 
L 293.977562 109.0859 
L 294.773058 111.800486 
L 295.441736 113.356673 
L 295.995124 114.129505 
L 296.444752 114.413559 
L 296.836736 114.413095 
L 297.240248 114.177045 
L 297.701405 113.625039 
L 298.254793 112.587124 
L 298.935 110.799019 
L 299.78814 107.872398 
L 300.917975 103.123371 
L 305.033802 85.019704 
L 305.91 82.493039 
L 306.717025 80.830614 
L 307.316529 80.049377 
L 307.800744 79.747534 
L 308.227314 79.733366 
L 308.653884 79.954951 
L 309.12657 80.471002 
L 309.691488 81.447124 
L 310.371694 83.107172 
L 311.201777 85.766072 
L 312.273967 90.009774 
L 314.141653 98.506439 
L 315.836405 105.799632 
L 316.85095 109.247647 
L 317.634917 111.190474 
L 318.257479 112.197923 
L 318.753223 112.62706 
L 319.168264 112.717796 
L 319.560248 112.571612 
L 319.986818 112.151988 
L 320.482562 111.320702 
L 321.070537 109.859219 
L 321.762273 107.498119 
L 322.580826 103.86462 
L 323.583843 98.322138 
L 324.875083 89.829333 
L 329.671116 56.961241 
L 330.662603 52.293908 
L 331.481157 49.437668 
L 332.161364 47.810653 
L 332.714752 47.004003 
L 333.175909 46.688017 
L 333.567893 46.671251 
L 333.959876 46.880991 
L 334.409504 47.391412 
L 334.951364 48.370494 
L 335.608512 50.049106 
L 336.427066 52.794672 
L 337.499256 57.240299 
L 339.378471 66.185045 
L 341.10781 73.98001 
L 342.156942 77.747547 
L 342.975496 79.930703 
L 343.644174 81.136848 
L 344.186033 81.702575 
L 344.635661 81.881963 
L 345.050702 81.811079 
L 345.477273 81.502369 
L 345.973017 80.84843 
L 346.560992 79.67679 
L 347.275785 77.714167 
L 348.151983 74.603999 
L 349.293347 69.660668 
L 353.582107 50.19727 
L 354.423719 47.773527 
L 355.092397 46.465941 
L 355.622727 45.862835 
L 356.060826 45.672277 
L 356.441281 45.740451 
L 356.844793 46.054768 
L 357.30595 46.721648 
L 357.859339 47.953509 
L 358.504959 49.972862 
L 359.277397 53.170108 
L 360.21124 58.057962 
L 361.375661 65.425823 
L 363.151116 78.289076 
L 365.629835 95.999414 
L 366.851901 103.138491 
L 367.820331 107.565974 
L 368.615826 110.249826 
L 369.284504 111.791836 
L 369.837893 112.561964 
L 370.29905 112.853845 
L 370.691033 112.855736 
L 371.094545 112.627434 
L 371.555702 112.091346 
L 372.109091 111.082873 
L 372.789298 109.347147 
L 373.642438 106.51221 
L 374.795331 101.829396 
L 378.599876 85.72737 
L 379.499132 83.152735 
L 380.213926 81.7206 
L 380.801901 80.996793 
L 381.286116 80.725101 
L 381.712686 80.733951 
L 382.139256 80.976174 
L 382.623471 81.530865 
L 383.188388 82.542914 
L 383.868595 84.252672 
L 384.698678 86.988968 
L 385.759339 91.320956 
L 387.431033 99.236855 
L 389.437066 108.466151 
L 390.486198 112.281942 
L 391.281694 114.413313 
L 391.915785 115.545018 
L 392.423058 116.049852 
L 392.838099 116.182588 
L 393.218554 116.075133 
L 393.622066 115.717004 
L 394.094752 114.974687 
L 394.659669 113.631805 
L 395.328347 111.414572 
L 396.112314 107.992783 
L 397.057686 102.804151 
L 398.245165 94.949843 
L 400.055207 81.26648 
L 402.522397 62.88673 
L 403.744463 55.417104 
L 404.712893 50.763035 
L 405.519917 47.886632 
L 406.188595 46.244393 
L 406.753512 45.393829 
L 407.214669 45.063693 
L 407.341488 45.029647 
L 407.341488 45.029647 
" clip-path="url(#pa4ae63d388)" style="fill: none; stroke: #2ca02c; stroke-linecap: square"/>
   </g>
   <g id="patch_9">
    <path d="M 252.392727 119.740235 
L 252.392727 41.472 
" style="fill: none; stroke: #000000; stroke-width: 0.8; stroke-linejoin: miter; stroke-linecap: square"/>
   </g>
   <g id="patch_10">
    <path d="M 414.72 119.740235 
L 414.72 41.472 
" style="fill: none; stroke: #000000; stroke-width: 0.8; stroke-linejoin: miter; stroke-linecap: square"/>
   </g>
   <g id="patch_11">
    <path d="M 252.392727 119.740235 
L 414.72 119.740235 
" style="fill: none; stroke: #000000; stroke-width: 0.8; stroke-linejoin: miter; stroke-linecap: square"/>
   </g>
   <g id="patch_12">
    <path d="M 252.392727 41.472 
L 414.72 41.472 
" style="fill: none; stroke: #000000; stroke-width: 0.8; stroke-linejoin: miter; stroke-linecap: square"/>
   </g>
   <g id="legend_2">
    <g id="patch_13">
     <path d="M 368.432533 84.816634 
L 408.889 84.816634 
Q 410.555 84.816634 410.555 83.150634 
L 410.555 47.303 
Q 410.555 45.637 408.889 45.637 
L 368.432533 45.637 
Q 366.766533 45.637 366.766533 47.303 
L 366.766533 83.150634 
Q 366.766533 84.816634 368.432533 84.816634 
z
" style="fill: #ffffff; opacity: 0.8; stroke: #cccccc; stroke-linejoin: miter"/>
    </g>
    <g id="line2d_26">
     <path d="M 370.098533 52.382998 
L 378.428533 52.382998 
L 386.758533 52.382998 
" style="fill: none; stroke: #1f77b4; stroke-linecap: square"/>
    </g>
    <g id="text_20">
     <!-- our -->
     <g transform="translate(393.422533 55.298498)scale(0.0833 -0.0833)">
      <use xlink:href="#DejaVuSans-6f"/>
      <use xlink:href="#DejaVuSans-75" x="61.181641"/>
      <use xlink:href="#DejaVuSans-72" x="124.560547"/>
     </g>
    </g>
    <g id="line2d_27">
     <path d="M 370.098533 64.609877 
L 378.428533 64.609877 
L 386.758533 64.609877 
" style="fill: none; stroke: #ff7f0e; stroke-linecap: square"/>
    </g>
    <g id="text_21">
     <!-- g -->
     <g transform="translate(393.422533 67.525377)scale(0.0833 -0.0833)">
      <use xlink:href="#DejaVuSans-67"/>
     </g>
    </g>
    <g id="line2d_28">
     <path d="M 370.098533 76.836755 
L 378.428533 76.836755 
L 386.758533 76.836755 
" style="fill: none; stroke: #2ca02c; stroke-linecap: square"/>
    </g>
    <g id="text_22">
     <!-- og -->
     <g transform="translate(393.422533 79.752255)scale(0.0833 -0.0833)">
      <use xlink:href="#DejaVuSans-6f"/>
      <use xlink:href="#DejaVuSans-67" x="61.181641"/>
     </g>
    </g>
   </g>
  </g>
  <g id="axes_3">
   <g id="patch_14">
    <path d="M 252.392727 213.662118 
L 414.72 213.662118 
L 414.72 135.393882 
L 252.392727 135.393882 
z
" style="fill: #ffffff"/>
   </g>
   <g id="matplotlib.axis_5">
    <g id="xtick_9">
     <g id="line2d_29">
      <g>
       <use xlink:href="#m8c9890c684" x="259.77124" y="213.662118" style="stroke: #000000; stroke-width: 0.8"/>
      </g>
     </g>
     <g id="text_23">
      <!-- 0 -->
      <g transform="translate(256.58999 228.260555)scale(0.1 -0.1)">
       <use xlink:href="#DejaVuSans-30"/>
      </g>
     </g>
    </g>
    <g id="xtick_10">
     <g id="line2d_30">
      <g>
       <use xlink:href="#m8c9890c684" x="305.886942" y="213.662118" style="stroke: #000000; stroke-width: 0.8"/>
      </g>
     </g>
     <g id="text_24">
      <!-- 10 -->
      <g transform="translate(299.524442 228.260555)scale(0.1 -0.1)">
       <use xlink:href="#DejaVuSans-31"/>
       <use xlink:href="#DejaVuSans-30" x="63.623047"/>
      </g>
     </g>
    </g>
    <g id="xtick_11">
     <g id="line2d_31">
      <g>
       <use xlink:href="#m8c9890c684" x="352.002645" y="213.662118" style="stroke: #000000; stroke-width: 0.8"/>
      </g>
     </g>
     <g id="text_25">
      <!-- 20 -->
      <g transform="translate(345.640145 228.260555)scale(0.1 -0.1)">
       <use xlink:href="#DejaVuSans-32"/>
       <use xlink:href="#DejaVuSans-30" x="63.623047"/>
      </g>
     </g>
    </g>
    <g id="xtick_12">
     <g id="line2d_32">
      <g>
       <use xlink:href="#m8c9890c684" x="398.118347" y="213.662118" style="stroke: #000000; stroke-width: 0.8"/>
      </g>
     </g>
     <g id="text_26">
      <!-- 30 -->
      <g transform="translate(391.755847 228.260555)scale(0.1 -0.1)">
       <use xlink:href="#DejaVuSans-33"/>
       <use xlink:href="#DejaVuSans-30" x="63.623047"/>
      </g>
     </g>
    </g>
   </g>
   <g id="matplotlib.axis_6">
    <g id="ytick_6">
     <g id="line2d_33">
      <g>
       <use xlink:href="#me404ad0dfa" x="252.392727" y="210.10448" style="stroke: #000000; stroke-width: 0.8"/>
      </g>
     </g>
     <g id="text_27">
      <!-- 0 -->
      <g transform="translate(239.030227 213.903699)scale(0.1 -0.1)">
       <use xlink:href="#DejaVuSans-30"/>
      </g>
     </g>
    </g>
    <g id="ytick_7">
     <g id="line2d_34">
      <g>
       <use xlink:href="#me404ad0dfa" x="252.392727" y="158.753972" style="stroke: #000000; stroke-width: 0.8"/>
      </g>
     </g>
     <g id="text_28">
      <!-- 50 -->
      <g transform="translate(232.667727 162.553191)scale(0.1 -0.1)">
       <defs>
        <path id="DejaVuSans-35" d="M 691 4666 
L 3169 4666 
L 3169 4134 
L 1269 4134 
L 1269 2991 
Q 1406 3038 1543 3061 
Q 1681 3084 1819 3084 
Q 2600 3084 3056 2656 
Q 3513 2228 3513 1497 
Q 3513 744 3044 326 
Q 2575 -91 1722 -91 
Q 1428 -91 1123 -41 
Q 819 9 494 109 
L 494 744 
Q 775 591 1075 516 
Q 1375 441 1709 441 
Q 2250 441 2565 725 
Q 2881 1009 2881 1497 
Q 2881 1984 2565 2268 
Q 2250 2553 1709 2553 
Q 1456 2553 1204 2497 
Q 953 2441 691 2322 
L 691 4666 
z
" transform="scale(0.015625)"/>
       </defs>
       <use xlink:href="#DejaVuSans-35"/>
       <use xlink:href="#DejaVuSans-30" x="63.623047"/>
      </g>
     </g>
    </g>
    <g id="text_29">
     <!-- $e_{q_2}$ (deg) -->
     <g transform="translate(225.567727 196.578)rotate(-90)scale(0.1 -0.1)">
      <defs>
       <path id="DejaVuSans-Oblique-65" d="M 3078 2063 
Q 3088 2113 3092 2166 
Q 3097 2219 3097 2272 
Q 3097 2653 2873 2875 
Q 2650 3097 2266 3097 
Q 1838 3097 1509 2826 
Q 1181 2556 1013 2059 
L 3078 2063 
z
M 3578 1613 
L 903 1613 
Q 884 1494 878 1425 
Q 872 1356 872 1306 
Q 872 872 1139 634 
Q 1406 397 1894 397 
Q 2269 397 2603 481 
Q 2938 566 3225 728 
L 3116 159 
Q 2806 34 2476 -28 
Q 2147 -91 1806 -91 
Q 1078 -91 686 257 
Q 294 606 294 1247 
Q 294 1794 489 2264 
Q 684 2734 1063 3103 
Q 1306 3334 1642 3459 
Q 1978 3584 2356 3584 
Q 2950 3584 3301 3228 
Q 3653 2872 3653 2272 
Q 3653 2128 3634 1964 
Q 3616 1800 3578 1613 
z
" transform="scale(0.015625)"/>
       <path id="DejaVuSans-65" d="M 3597 1894 
L 3597 1613 
L 953 1613 
Q 991 1019 1311 708 
Q 1631 397 2203 397 
Q 2534 397 2845 478 
Q 3156 559 3463 722 
L 3463 178 
Q 3153 47 2828 -22 
Q 2503 -91 2169 -91 
Q 1331 -91 842 396 
Q 353 884 353 1716 
Q 353 2575 817 3079 
Q 1281 3584 2069 3584 
Q 2775 3584 3186 3129 
Q 3597 2675 3597 1894 
z
M 3022 2063 
Q 3016 2534 2758 2815 
Q 2500 3097 2075 3097 
Q 1594 3097 1305 2825 
Q 1016 2553 972 2059 
L 3022 2063 
z
" transform="scale(0.015625)"/>
      </defs>
      <use xlink:href="#DejaVuSans-Oblique-65" transform="translate(0 0.015625)"/>
      <use xlink:href="#DejaVuSans-Oblique-71" transform="translate(61.523438 -16.390625)scale(0.7)"/>
      <use xlink:href="#DejaVuSans-32" transform="translate(105.957031 -27.875)scale(0.49)"/>
      <use xlink:href="#DejaVuSans-20" transform="translate(141.780762 0.015625)"/>
      <use xlink:href="#DejaVuSans-28" transform="translate(173.567871 0.015625)"/>
      <use xlink:href="#DejaVuSans-64" transform="translate(212.581543 0.015625)"/>
      <use xlink:href="#DejaVuSans-65" transform="translate(276.058105 0.015625)"/>
      <use xlink:href="#DejaVuSans-67" transform="translate(337.581543 0.015625)"/>
      <use xlink:href="#DejaVuSans-29" transform="translate(401.058105 0.015625)"/>
     </g>
    </g>
   </g>
   <g id="line2d_35">
    <path d="M 259.77124 138.951529 
L 259.921116 153.643004 
L 260.382273 190.151799 
L 260.716612 201.540047 
L 260.785785 202.840056 
L 260.797314 201.188638 
L 260.831901 199.43959 
L 260.901074 200.996221 
L 261.200826 207.855041 
L 261.477521 209.589779 
L 261.650455 210.095978 
L 261.69657 210.008323 
L 262.12314 209.38457 
L 262.976281 208.698131 
L 263.725661 208.191208 
L 264.763264 207.930862 
L 266.019917 208.494905 
L 266.677066 208.866927 
L 266.988347 209.043774 
L 267.265041 209.22543 
L 267.933719 209.626134 
L 268.821446 209.681451 
L 269.155785 209.862813 
L 269.340248 209.984206 
L 269.432479 210.101812 
L 269.501653 210.027222 
L 269.709174 209.947488 
L 270.101157 210.084666 
L 270.435496 209.941395 
L 270.908182 209.749967 
L 271.115702 209.853015 
L 271.311694 209.844916 
L 271.553802 209.783798 
L 271.88814 209.619041 
L 272.914215 208.711119 
L 274.551322 208.924171 
L 275.300702 208.950851 
L 275.911736 209.110288 
L 276.753347 209.097877 
L 277.053099 209.1887 
L 278.079174 209.391736 
L 278.609504 209.503478 
L 279.428058 209.638756 
L 280.25814 209.6559 
L 280.569421 209.680845 
L 281.065165 209.661301 
L 281.929835 209.68482 
L 282.51781 209.692777 
L 283.186488 209.754624 
L 283.520826 209.875233 
L 283.751405 209.856155 
L 284.005041 209.847459 
L 284.293264 209.862752 
L 284.523843 209.904467 
L 284.835124 209.974515 
L 285.065702 209.971334 
L 285.434628 210.101327 
L 286.091777 210.042953 
L 286.38 209.992672 
L 286.748926 209.881654 
L 287.544421 209.708146 
L 287.87876 209.629638 
L 288.09781 209.531764 
L 288.708843 209.41568 
L 288.916364 209.438406 
L 289.262231 209.32289 
L 289.504339 209.349046 
L 289.942438 209.27545 
L 293.746983 209.061728 
L 294.069793 209.003143 
L 295.453264 209.042217 
L 298.139504 209.302474 
L 298.381612 209.289698 
L 298.750537 209.308338 
L 298.969587 209.38611 
L 299.350041 209.517672 
L 299.603678 209.624423 
L 299.938017 209.760876 
L 300.376116 209.770713 
L 301.171612 210.035399 
L 301.817231 209.828473 
L 302.093926 209.763763 
L 302.382149 209.575621 
L 302.624256 209.538515 
L 302.993182 209.398736 
L 303.44281 209.333063 
L 304.307479 209.085932 
L 304.515 209.10608 
L 304.791694 209.099621 
L 305.183678 208.989325 
L 306.601736 209.192493 
L 307.512521 209.611918 
L 307.789215 209.699195 
L 308.192727 209.935739 
L 308.457893 209.98299 
L 308.653884 210.062729 
L 308.792231 210.045986 
L 309.368678 209.725759 
L 309.66843 209.552724 
L 310.210289 209.309577 
L 310.486983 209.128505 
L 310.74062 208.927551 
L 310.994256 208.755214 
L 313.830372 207.340084 
L 314.026364 207.208296 
L 314.38376 206.878681 
L 314.671983 206.861377 
L 315.144669 206.677491 
L 315.513595 206.700506 
L 315.836405 206.602818 
L 316.701074 206.563985 
L 316.885537 206.619542 
L 317.300579 206.770559 
L 317.565744 206.787902 
L 317.969256 206.951724 
L 318.234421 206.962737 
L 318.741694 207.13629 
L 318.960744 207.204053 
L 319.444959 207.434185 
L 320.148223 207.471433 
L 320.540207 207.541374 
L 324.552273 207.329475 
L 324.955785 207.564102 
L 325.151777 207.553267 
L 325.670579 207.749497 
L 326.062562 207.94978 
L 326.304669 208.00452 
L 326.535248 208.230889 
L 326.811942 208.445723 
L 327.226983 208.705805 
L 327.503678 208.84927 
L 327.734256 209.073794 
L 328.01095 209.275039 
L 329.140785 210.0096 
L 329.348306 209.873535 
L 329.682645 209.57194 
L 329.901694 209.540239 
L 330.939298 208.834293 
L 331.23905 208.685714 
L 331.584917 208.473345 
L 331.98843 208.393037 
L 332.242066 208.288262 
L 332.564876 208.329954 
L 333.752355 208.229895 
L 334.086694 208.231612 
L 334.35186 208.127851 
L 334.617025 208.212055 
L 335.10124 208.045115 
L 338.190992 207.453147 
L 338.410041 207.365521 
L 338.732851 207.473504 
L 338.998017 207.365076 
L 339.217066 207.382121 
L 339.539876 207.342903 
L 340.704298 207.346459 
L 340.934876 207.341458 
L 341.200041 207.388555 
L 341.453678 207.326607 
L 341.75343 207.38876 
L 342.087769 207.36436 
L 342.422107 207.381083 
L 342.675744 207.455136 
L 342.952438 207.530976 
L 343.275248 207.518518 
L 343.67876 207.610547 
L 344.162975 207.650232 
L 344.416612 207.784044 
L 344.727893 207.686653 
L 345.016116 207.805833 
L 345.223636 207.783301 
L 345.465744 207.909686 
L 345.627149 207.970793 
L 345.777025 207.978018 
L 346.030661 207.919191 
L 346.307355 208.17726 
L 346.353471 208.132904 
L 346.630165 208.004764 
L 346.860744 208.230612 
L 347.033678 208.24371 
L 347.264256 208.143886 
L 347.54095 208.273015 
L 347.898347 208.220292 
L 348.221157 208.442742 
L 348.590083 208.384459 
L 348.855248 208.48447 
L 349.085826 208.361408 
L 349.120413 208.42042 
L 349.339463 208.619968 
L 349.869793 208.494202 
L 350.192603 208.619131 
L 350.630702 208.654113 
L 351.414669 208.607899 
L 351.633719 208.614028 
L 352.279339 208.697931 
L 352.48686 208.650856 
L 352.809669 208.798024 
L 353.282355 208.819323 
L 353.455289 208.822934 
L 353.628223 208.898822 
L 353.962562 209.01484 
L 355.265331 209.405301 
L 355.449793 209.48301 
L 355.634256 209.498346 
L 355.899421 209.632042 
L 356.153058 209.746989 
L 356.867851 210.082393 
L 357.144545 210.03835 
L 357.501942 209.840582 
L 357.870868 209.723739 
L 358.343554 209.528365 
L 358.551074 209.463042 
L 358.954587 209.348795 
L 359.092934 209.318398 
L 359.358099 209.065571 
L 359.392686 209.093727 
L 359.531033 209.060855 
L 360.084421 208.875459 
L 360.395702 208.812564 
L 361.087438 208.620019 
L 361.214256 208.545344 
L 361.38719 208.354049 
L 361.433306 208.395477 
L 361.652355 208.402854 
L 361.905992 208.278313 
L 362.401736 208.178716 
L 362.574669 208.163981 
L 362.701488 208.094819 
L 363.116529 207.99677 
L 363.277934 207.998553 
L 363.416281 207.892488 
L 363.612273 207.883407 
L 364.142603 207.809424 
L 364.350124 207.733706 
L 364.476942 207.69096 
L 364.71905 207.679837 
L 364.880455 207.680789 
L 365.04186 207.60572 
L 365.064917 207.628629 
L 365.180207 207.683708 
L 365.214793 207.653313 
L 365.399256 207.60646 
L 365.526074 207.55907 
L 365.814298 207.474019 
L 365.987231 207.481426 
L 366.137107 207.4981 
L 366.275455 207.45213 
L 366.471446 207.460118 
L 366.655909 207.414883 
L 366.828843 207.411639 
L 366.944132 207.444126 
L 366.96719 207.420811 
L 367.128595 207.388623 
L 367.382231 207.406459 
L 367.50905 207.349973 
L 367.820331 207.287068 
L 368.016322 207.34361 
L 368.316074 207.307017 
L 370.598802 207.367723 
L 370.760207 207.371751 
L 371.232893 207.467231 
L 371.486529 207.52701 
L 371.659463 207.577431 
L 372.431901 207.842317 
L 372.777769 207.991475 
L 373.354215 208.259408 
L 373.630909 208.402291 
L 374.011364 208.597716 
L 376.005868 209.666153 
L 376.374793 209.81049 
L 376.789835 209.96587 
L 377.343223 210.004189 
L 378.484587 209.552176 
L 378.784339 209.45935 
L 379.049504 209.33219 
L 379.245496 209.239764 
L 379.429959 209.204742 
L 379.614421 209.128606 
L 380.06405 208.990259 
L 380.213926 208.896982 
L 380.432975 208.838426 
L 380.721198 208.714866 
L 380.997893 208.691129 
L 381.620455 208.418031 
L 383.142273 208.119993 
L 383.372851 208.068146 
L 383.649545 208.044762 
L 384.214463 208.011392 
L 384.410455 208.022634 
L 384.594917 208.041272 
L 384.871612 208.02682 
L 385.044545 208.062885 
L 385.240537 208.032026 
L 385.378884 208.044224 
L 385.390413 208.031615 
L 385.482645 208.002361 
L 385.517231 208.032692 
L 385.759339 208.090354 
L 386.428017 208.238345 
L 387.396446 208.328431 
L 387.546322 208.358583 
L 387.707727 208.429736 
L 387.730785 208.400541 
L 387.846074 208.32398 
L 387.880661 208.354482 
L 388.11124 208.450456 
L 388.295702 208.437169 
L 388.572397 208.421857 
L 389.079669 208.487543 
L 389.229545 208.40974 
L 389.356364 208.458631 
L 389.50624 208.437455 
L 389.633058 208.409883 
L 389.656116 208.433621 
L 389.794463 208.464595 
L 389.805992 208.453877 
L 389.990455 208.425022 
L 390.15186 208.447868 
L 390.163388 208.434011 
L 390.290207 208.366872 
L 390.324793 208.396839 
L 390.520785 208.415393 
L 390.670661 208.457904 
L 390.843595 208.428805 
L 391.143347 208.462365 
L 392.768926 208.761578 
L 393.25314 208.876483 
L 393.495248 208.925564 
L 393.967934 209.057983 
L 394.890248 209.260695 
L 395.558926 209.422026 
L 396.677231 209.616006 
L 396.930868 209.656462 
L 397.33438 209.770937 
L 398.314339 210.064515 
L 398.602562 210.092058 
L 399.086777 210.010433 
L 399.91686 209.853987 
L 400.274256 209.847665 
L 400.608595 209.788786 
L 401.461736 209.833975 
L 402.510868 209.895255 
L 402.948967 209.934073 
L 403.640702 210.016895 
L 404.436198 210.020646 
L 405.70438 209.862141 
L 406.984091 209.58977 
L 407.341488 209.518142 
L 407.341488 209.518142 
" clip-path="url(#p6f0cd0aa56)" style="fill: none; stroke: #1f77b4; stroke-width: 0.3; stroke-linecap: square"/>
   </g>
   <g id="line2d_36">
    <path d="M 259.77124 138.951529 
L 259.828884 143.395202 
L 260.393802 190.79588 
L 260.72814 201.955868 
L 261.039421 205.963395 
L 261.339174 207.390663 
L 261.650455 207.930302 
L 262.030909 208.151135 
L 262.745702 208.253989 
L 273.60595 208.85665 
L 277.502727 208.788885 
L 280.304256 208.849317 
L 282.437107 209.117037 
L 284.420083 209.589279 
L 286.253182 210.014301 
L 289.538926 208.964453 
L 291.406612 208.632947 
L 293.770041 208.459157 
L 296.560041 208.462212 
L 298.243264 208.673436 
L 299.730496 209.087371 
L 301.736529 209.909387 
L 302.324504 210.048479 
L 304.180661 209.395477 
L 305.737066 209.089642 
L 306.45186 209.109481 
L 307.328058 209.43906 
L 308.861405 210.008341 
L 310.809793 208.832342 
L 312.838884 207.326288 
L 315.121612 205.67482 
L 316.309091 205.096908 
L 317.39281 204.812909 
L 318.557231 204.742431 
L 320.055992 204.890969 
L 322.615413 205.399124 
L 324.448512 205.950633 
L 325.728223 206.56706 
L 326.93876 207.403988 
L 328.379876 208.693655 
L 329.890165 210.019062 
L 331.746322 208.358018 
L 333.245083 207.315898 
L 334.847603 206.47592 
L 336.692231 205.763319 
L 338.594504 205.261306 
L 340.381488 205.015719 
L 342.122355 205.000534 
L 343.990041 205.211398 
L 346.272769 205.705336 
L 349.339463 206.608285 
L 351.945 207.589115 
L 354.181612 208.672122 
L 356.545041 210.07115 
L 356.694917 210.041156 
L 359.830785 207.877167 
L 362.309504 206.26702 
L 363.85438 205.527445 
L 365.272438 205.093037 
L 366.725083 204.8825 
L 368.246901 204.886547 
L 369.75719 205.110055 
L 371.140661 205.538313 
L 372.44343 206.177309 
L 373.83843 207.119824 
L 375.959752 208.868603 
L 377.539215 210.061313 
L 379.326198 208.845964 
L 381.078595 207.921128 
L 382.681116 207.31389 
L 383.995413 207.04268 
L 385.182893 207.02108 
L 386.462603 207.228274 
L 390.866653 208.155632 
L 395.213058 208.470792 
L 396.711818 208.953261 
L 399.939917 210.080409 
L 401.161983 209.922808 
L 402.603099 209.978616 
L 405.162521 210.100577 
L 406.580579 209.903266 
L 407.341488 209.718477 
L 407.341488 209.718477 
" clip-path="url(#p6f0cd0aa56)" style="fill: none; stroke: #ff7f0e; stroke-width: 0.3; stroke-linecap: square"/>
   </g>
   <g id="line2d_37">
    <path d="M 259.77124 138.951529 
L 259.828884 143.396674 
L 260.405331 192.382583 
L 260.739669 203.685618 
L 261.05095 207.753961 
L 261.350702 209.203109 
L 261.661983 209.749526 
L 262.042438 209.970614 
L 262.757231 210.068412 
L 264.774793 210.074002 
L 269.997397 210.053575 
L 283.347893 210.087108 
L 298.266322 210.103471 
L 300.33 210.046175 
L 306.463388 209.73528 
L 307.604752 209.228967 
L 310.510041 207.976785 
L 312.885 207.194956 
L 314.983264 206.73271 
L 316.943182 206.526542 
L 318.868512 206.547997 
L 320.851488 206.795391 
L 323.007397 207.294627 
L 325.693636 208.160361 
L 329.013967 209.467635 
L 330.604959 210.038225 
L 335.723802 207.844718 
L 337.995 207.143674 
L 340.162438 206.708047 
L 342.237645 206.514119 
L 344.128388 206.556847 
L 345.996074 206.822924 
L 348.059752 207.348849 
L 350.503884 208.209409 
L 353.259298 209.420699 
L 354.792645 210.039145 
L 358.654835 208.250591 
L 360.845331 207.493796 
L 363.012769 206.983808 
L 365.387727 206.656624 
L 367.520579 206.576657 
L 369.422851 206.727129 
L 371.394298 207.111845 
L 373.653967 207.78891 
L 376.582314 208.915757 
L 379.510661 210.016768 
L 385.067603 207.634078 
L 387.327273 206.937636 
L 389.356364 206.541647 
L 391.270165 206.391781 
L 393.137851 206.468404 
L 395.028595 206.7708 
L 396.988512 207.311775 
L 399.075248 208.12318 
L 401.726901 209.415162 
L 403.179545 210.042609 
L 406.718926 208.350574 
L 407.341488 208.089066 
L 407.341488 208.089066 
" clip-path="url(#p6f0cd0aa56)" style="fill: none; stroke: #2ca02c; stroke-width: 0.3; stroke-linecap: square"/>
   </g>
   <g id="patch_15">
    <path d="M 252.392727 213.662118 
L 252.392727 135.393882 
" style="fill: none; stroke: #000000; stroke-width: 0.8; stroke-linejoin: miter; stroke-linecap: square"/>
   </g>
   <g id="patch_16">
    <path d="M 414.72 213.662118 
L 414.72 135.393882 
" style="fill: none; stroke: #000000; stroke-width: 0.8; stroke-linejoin: miter; stroke-linecap: square"/>
   </g>
   <g id="patch_17">
    <path d="M 252.392727 213.662118 
L 414.72 213.662118 
" style="fill: none; stroke: #000000; stroke-width: 0.8; stroke-linejoin: miter; stroke-linecap: square"/>
   </g>
   <g id="patch_18">
    <path d="M 252.392727 135.393882 
L 414.72 135.393882 
" style="fill: none; stroke: #000000; stroke-width: 0.8; stroke-linejoin: miter; stroke-linecap: square"/>
   </g>
   <g id="legend_3">
    <g id="patch_19">
     <path d="M 368.432533 178.738517 
L 408.889 178.738517 
Q 410.555 178.738517 410.555 177.072517 
L 410.555 141.224882 
Q 410.555 139.558882 408.889 139.558882 
L 368.432533 139.558882 
Q 366.766533 139.558882 366.766533 141.224882 
L 366.766533 177.072517 
Q 366.766533 178.738517 368.432533 178.738517 
z
" style="fill: #ffffff; opacity: 0.8; stroke: #cccccc; stroke-linejoin: miter"/>
    </g>
    <g id="line2d_38">
     <path d="M 370.098533 146.304881 
L 378.428533 146.304881 
L 386.758533 146.304881 
" style="fill: none; stroke: #1f77b4; stroke-width: 0.3; stroke-linecap: square"/>
    </g>
    <g id="text_30">
     <!-- our -->
     <g transform="translate(393.422533 149.220381)scale(0.0833 -0.0833)">
      <use xlink:href="#DejaVuSans-6f"/>
      <use xlink:href="#DejaVuSans-75" x="61.181641"/>
      <use xlink:href="#DejaVuSans-72" x="124.560547"/>
     </g>
    </g>
    <g id="line2d_39">
     <path d="M 370.098533 158.531759 
L 378.428533 158.531759 
L 386.758533 158.531759 
" style="fill: none; stroke: #ff7f0e; stroke-width: 0.3; stroke-linecap: square"/>
    </g>
    <g id="text_31">
     <!-- g -->
     <g transform="translate(393.422533 161.447259)scale(0.0833 -0.0833)">
      <use xlink:href="#DejaVuSans-67"/>
     </g>
    </g>
    <g id="line2d_40">
     <path d="M 370.098533 170.758637 
L 378.428533 170.758637 
L 386.758533 170.758637 
" style="fill: none; stroke: #2ca02c; stroke-width: 0.3; stroke-linecap: square"/>
    </g>
    <g id="text_32">
     <!-- og -->
     <g transform="translate(393.422533 173.674137)scale(0.0833 -0.0833)">
      <use xlink:href="#DejaVuSans-6f"/>
      <use xlink:href="#DejaVuSans-67" x="61.181641"/>
     </g>
    </g>
   </g>
  </g>
 </g>
 <defs>
  <clipPath id="p115d5a1639">
   <rect x="57.6" y="41.472" width="162.327273" height="78.268235"/>
  </clipPath>
  <clipPath id="pa4ae63d388">
   <rect x="252.392727" y="41.472" width="162.327273" height="78.268235"/>
  </clipPath>
  <clipPath id="p6f0cd0aa56">
   <rect x="252.392727" y="135.393882" width="162.327273" height="78.268235"/>
  </clipPath>
 </defs>
</svg>
